G04 EAGLE Gerber RS-274X export*
G75*
%MOMM*%
%FSLAX34Y34*%
%LPD*%
%INBottom Copper*%
%IPPOS*%
%AMOC8*
5,1,8,0,0,1.08239X$1,22.5*%
G01*
%ADD10C,1.524000*%
%ADD11C,1.790700*%
%ADD12C,0.756400*%
%ADD13C,0.304800*%

G36*
X462338Y11946D02*
X462338Y11946D01*
X462383Y11944D01*
X462458Y11966D01*
X462535Y11979D01*
X462576Y12000D01*
X462620Y12013D01*
X462684Y12057D01*
X462752Y12094D01*
X462784Y12127D01*
X462822Y12153D01*
X462868Y12216D01*
X462922Y12272D01*
X462941Y12314D01*
X462968Y12350D01*
X462993Y12424D01*
X463025Y12495D01*
X463030Y12541D01*
X463045Y12584D01*
X463044Y12662D01*
X463052Y12739D01*
X463043Y12784D01*
X463042Y12830D01*
X463004Y12962D01*
X463000Y12980D01*
X462998Y12984D01*
X462996Y12991D01*
X459739Y20853D01*
X459739Y29947D01*
X463220Y38350D01*
X469650Y44780D01*
X478053Y48261D01*
X487147Y48261D01*
X495009Y45004D01*
X495053Y44994D01*
X495095Y44975D01*
X495172Y44966D01*
X495248Y44948D01*
X495294Y44953D01*
X495339Y44948D01*
X495416Y44964D01*
X495493Y44971D01*
X495535Y44990D01*
X495580Y45000D01*
X495647Y45040D01*
X495718Y45071D01*
X495752Y45102D01*
X495791Y45126D01*
X495842Y45185D01*
X495899Y45238D01*
X495921Y45278D01*
X495951Y45313D01*
X495980Y45385D01*
X496017Y45453D01*
X496026Y45498D01*
X496043Y45541D01*
X496058Y45677D01*
X496061Y45695D01*
X496060Y45700D01*
X496061Y45708D01*
X496061Y360692D01*
X496054Y360738D01*
X496056Y360783D01*
X496034Y360858D01*
X496022Y360935D01*
X496000Y360976D01*
X495987Y361020D01*
X495943Y361084D01*
X495906Y361152D01*
X495873Y361184D01*
X495847Y361222D01*
X495784Y361268D01*
X495728Y361322D01*
X495686Y361341D01*
X495650Y361368D01*
X495576Y361393D01*
X495505Y361425D01*
X495459Y361430D01*
X495416Y361445D01*
X495338Y361444D01*
X495261Y361452D01*
X495216Y361443D01*
X495170Y361442D01*
X495038Y361404D01*
X495020Y361400D01*
X495016Y361398D01*
X495009Y361396D01*
X487147Y358139D01*
X478053Y358139D01*
X469650Y361620D01*
X463220Y368050D01*
X459739Y376453D01*
X459739Y385547D01*
X462365Y391887D01*
X462376Y391931D01*
X462395Y391973D01*
X462404Y392050D01*
X462421Y392126D01*
X462417Y392172D01*
X462422Y392217D01*
X462406Y392294D01*
X462398Y392371D01*
X462380Y392413D01*
X462370Y392458D01*
X462330Y392525D01*
X462298Y392596D01*
X462267Y392630D01*
X462244Y392669D01*
X462185Y392720D01*
X462132Y392777D01*
X462092Y392799D01*
X462057Y392829D01*
X461985Y392858D01*
X461916Y392895D01*
X461871Y392904D01*
X461829Y392921D01*
X461693Y392936D01*
X461674Y392939D01*
X461669Y392938D01*
X461662Y392939D01*
X46338Y392939D01*
X46293Y392932D01*
X46247Y392934D01*
X46172Y392912D01*
X46095Y392900D01*
X46055Y392878D01*
X46011Y392865D01*
X45947Y392821D01*
X45878Y392784D01*
X45846Y392751D01*
X45809Y392725D01*
X45762Y392662D01*
X45709Y392606D01*
X45689Y392564D01*
X45662Y392528D01*
X45638Y392454D01*
X45605Y392383D01*
X45600Y392337D01*
X45586Y392294D01*
X45586Y392216D01*
X45578Y392139D01*
X45588Y392094D01*
X45588Y392048D01*
X45626Y391916D01*
X45630Y391898D01*
X45633Y391894D01*
X45635Y391887D01*
X48261Y385547D01*
X48261Y376453D01*
X44780Y368050D01*
X38350Y361620D01*
X29947Y358139D01*
X20853Y358139D01*
X12991Y361396D01*
X12947Y361406D01*
X12905Y361425D01*
X12828Y361434D01*
X12752Y361452D01*
X12706Y361447D01*
X12661Y361452D01*
X12584Y361436D01*
X12507Y361429D01*
X12465Y361410D01*
X12420Y361400D01*
X12353Y361360D01*
X12282Y361329D01*
X12248Y361298D01*
X12209Y361274D01*
X12159Y361215D01*
X12101Y361162D01*
X12079Y361122D01*
X12049Y361087D01*
X12020Y361015D01*
X11983Y360947D01*
X11974Y360902D01*
X11957Y360859D01*
X11942Y360723D01*
X11939Y360705D01*
X11940Y360700D01*
X11939Y360692D01*
X11939Y45708D01*
X11946Y45662D01*
X11944Y45617D01*
X11966Y45542D01*
X11979Y45465D01*
X12000Y45424D01*
X12013Y45380D01*
X12057Y45316D01*
X12094Y45248D01*
X12127Y45216D01*
X12153Y45178D01*
X12216Y45132D01*
X12272Y45078D01*
X12314Y45059D01*
X12350Y45032D01*
X12424Y45007D01*
X12495Y44975D01*
X12541Y44970D01*
X12584Y44955D01*
X12662Y44956D01*
X12739Y44948D01*
X12784Y44957D01*
X12830Y44958D01*
X12962Y44996D01*
X12980Y45000D01*
X12984Y45002D01*
X12991Y45004D01*
X20853Y48261D01*
X29947Y48261D01*
X38350Y44780D01*
X44780Y38350D01*
X48261Y29947D01*
X48261Y20853D01*
X45004Y12991D01*
X44994Y12947D01*
X44975Y12905D01*
X44966Y12828D01*
X44948Y12752D01*
X44953Y12706D01*
X44948Y12661D01*
X44964Y12584D01*
X44971Y12507D01*
X44990Y12465D01*
X45000Y12420D01*
X45040Y12353D01*
X45071Y12282D01*
X45102Y12248D01*
X45126Y12209D01*
X45185Y12159D01*
X45238Y12101D01*
X45278Y12079D01*
X45313Y12049D01*
X45385Y12020D01*
X45453Y11983D01*
X45498Y11974D01*
X45541Y11957D01*
X45677Y11942D01*
X45695Y11939D01*
X45700Y11940D01*
X45708Y11939D01*
X462292Y11939D01*
X462338Y11946D01*
G37*
%LPC*%
G36*
X341081Y34035D02*
X341081Y34035D01*
X337720Y35427D01*
X335147Y38000D01*
X333755Y41361D01*
X333755Y60239D01*
X335147Y63600D01*
X337720Y66173D01*
X341081Y67565D01*
X344719Y67565D01*
X345459Y67258D01*
X345554Y67236D01*
X345647Y67207D01*
X345673Y67208D01*
X345699Y67202D01*
X345795Y67211D01*
X345893Y67214D01*
X345917Y67223D01*
X345943Y67225D01*
X346032Y67265D01*
X346124Y67298D01*
X346144Y67314D01*
X346168Y67325D01*
X346240Y67391D01*
X346316Y67452D01*
X346330Y67474D01*
X346349Y67492D01*
X346396Y67577D01*
X346449Y67659D01*
X346455Y67684D01*
X346468Y67707D01*
X346485Y67803D01*
X346509Y67897D01*
X346507Y67923D01*
X346512Y67949D01*
X346497Y68046D01*
X346490Y68142D01*
X346480Y68166D01*
X346476Y68192D01*
X346432Y68279D01*
X346393Y68369D01*
X346373Y68394D01*
X346364Y68412D01*
X346341Y68435D01*
X346289Y68500D01*
X329160Y85628D01*
X327151Y87637D01*
X327151Y198429D01*
X327137Y198519D01*
X327129Y198610D01*
X327117Y198639D01*
X327112Y198671D01*
X327069Y198752D01*
X327033Y198836D01*
X327007Y198868D01*
X326996Y198889D01*
X326973Y198911D01*
X326962Y198925D01*
X326955Y198936D01*
X326948Y198942D01*
X326928Y198967D01*
X324893Y201002D01*
X324893Y205398D01*
X328002Y208507D01*
X332398Y208507D01*
X335507Y205398D01*
X335507Y201002D01*
X333472Y198967D01*
X333427Y198905D01*
X333397Y198873D01*
X333391Y198861D01*
X333359Y198823D01*
X333347Y198793D01*
X333328Y198767D01*
X333301Y198680D01*
X333267Y198595D01*
X333263Y198554D01*
X333256Y198532D01*
X333257Y198500D01*
X333249Y198429D01*
X333249Y90478D01*
X333263Y90388D01*
X333271Y90297D01*
X333283Y90267D01*
X333288Y90235D01*
X333331Y90155D01*
X333367Y90071D01*
X333393Y90039D01*
X333404Y90018D01*
X333427Y89996D01*
X333472Y89940D01*
X359641Y63770D01*
X359657Y63759D01*
X359670Y63743D01*
X359757Y63687D01*
X359841Y63627D01*
X359860Y63621D01*
X359877Y63610D01*
X359977Y63585D01*
X360076Y63554D01*
X360096Y63555D01*
X360115Y63550D01*
X360218Y63558D01*
X360322Y63561D01*
X360341Y63568D01*
X360360Y63569D01*
X360455Y63610D01*
X360553Y63645D01*
X360569Y63658D01*
X360587Y63666D01*
X360718Y63770D01*
X363120Y66173D01*
X366481Y67565D01*
X370119Y67565D01*
X370859Y67258D01*
X370954Y67236D01*
X371047Y67207D01*
X371073Y67208D01*
X371099Y67202D01*
X371195Y67211D01*
X371293Y67214D01*
X371317Y67223D01*
X371343Y67225D01*
X371432Y67265D01*
X371524Y67298D01*
X371544Y67315D01*
X371568Y67325D01*
X371640Y67391D01*
X371716Y67452D01*
X371730Y67474D01*
X371749Y67492D01*
X371796Y67577D01*
X371849Y67659D01*
X371855Y67684D01*
X371868Y67707D01*
X371885Y67803D01*
X371909Y67897D01*
X371907Y67923D01*
X371912Y67949D01*
X371897Y68046D01*
X371890Y68142D01*
X371880Y68166D01*
X371876Y68192D01*
X371832Y68279D01*
X371793Y68369D01*
X371773Y68394D01*
X371764Y68412D01*
X371741Y68435D01*
X371689Y68500D01*
X341860Y98328D01*
X339851Y100337D01*
X339851Y185729D01*
X339837Y185819D01*
X339829Y185910D01*
X339817Y185939D01*
X339812Y185971D01*
X339769Y186052D01*
X339733Y186136D01*
X339707Y186168D01*
X339696Y186189D01*
X339673Y186211D01*
X339628Y186267D01*
X337593Y188302D01*
X337593Y192698D01*
X340702Y195807D01*
X345098Y195807D01*
X348207Y192698D01*
X348207Y188302D01*
X346172Y186267D01*
X346119Y186193D01*
X346059Y186123D01*
X346047Y186093D01*
X346028Y186067D01*
X346001Y185980D01*
X345967Y185895D01*
X345963Y185854D01*
X345956Y185832D01*
X345957Y185800D01*
X345949Y185729D01*
X345949Y183957D01*
X345950Y183947D01*
X345950Y183942D01*
X345956Y183914D01*
X345960Y183887D01*
X345962Y183815D01*
X345980Y183766D01*
X345988Y183714D01*
X346022Y183651D01*
X346047Y183584D01*
X346079Y183543D01*
X346104Y183497D01*
X346156Y183448D01*
X346200Y183392D01*
X346244Y183364D01*
X346282Y183328D01*
X346347Y183298D01*
X346407Y183259D01*
X346458Y183246D01*
X346505Y183224D01*
X346576Y183216D01*
X346646Y183199D01*
X346698Y183203D01*
X346749Y183197D01*
X346820Y183212D01*
X346891Y183218D01*
X346939Y183238D01*
X346990Y183249D01*
X347051Y183286D01*
X347117Y183314D01*
X347173Y183359D01*
X347201Y183375D01*
X347216Y183393D01*
X347248Y183419D01*
X357401Y193572D01*
X359410Y195581D01*
X404329Y195581D01*
X404400Y195592D01*
X404471Y195594D01*
X404520Y195612D01*
X404572Y195620D01*
X404635Y195654D01*
X404702Y195679D01*
X404743Y195711D01*
X404789Y195736D01*
X404838Y195788D01*
X404894Y195832D01*
X404923Y195876D01*
X404958Y195914D01*
X404989Y195979D01*
X405027Y196039D01*
X405040Y196090D01*
X405062Y196137D01*
X405070Y196208D01*
X405087Y196278D01*
X405083Y196330D01*
X405089Y196381D01*
X405074Y196452D01*
X405068Y196523D01*
X405048Y196571D01*
X405037Y196622D01*
X405000Y196683D01*
X404972Y196749D01*
X404927Y196805D01*
X404911Y196833D01*
X404893Y196848D01*
X404867Y196880D01*
X403727Y198020D01*
X402335Y201381D01*
X402335Y205019D01*
X403727Y208380D01*
X406300Y210953D01*
X409661Y212345D01*
X420925Y212345D01*
X421015Y212359D01*
X421106Y212367D01*
X421135Y212379D01*
X421167Y212384D01*
X421248Y212427D01*
X421332Y212463D01*
X421364Y212489D01*
X421385Y212500D01*
X421407Y212523D01*
X421463Y212568D01*
X427051Y218156D01*
X427093Y218214D01*
X427142Y218266D01*
X427164Y218313D01*
X427195Y218355D01*
X427216Y218424D01*
X427246Y218489D01*
X427252Y218541D01*
X427267Y218591D01*
X427265Y218662D01*
X427273Y218733D01*
X427262Y218784D01*
X427261Y218836D01*
X427236Y218904D01*
X427221Y218974D01*
X427194Y219019D01*
X427176Y219067D01*
X427131Y219123D01*
X427095Y219185D01*
X427055Y219219D01*
X427022Y219259D01*
X426962Y219298D01*
X426908Y219345D01*
X426859Y219364D01*
X426816Y219392D01*
X426746Y219410D01*
X426679Y219437D01*
X426608Y219445D01*
X426577Y219453D01*
X426554Y219451D01*
X426513Y219455D01*
X409661Y219455D01*
X406300Y220847D01*
X403727Y223420D01*
X402335Y226781D01*
X402335Y228038D01*
X402321Y228128D01*
X402313Y228219D01*
X402301Y228249D01*
X402296Y228281D01*
X402253Y228361D01*
X402217Y228445D01*
X402191Y228477D01*
X402180Y228498D01*
X402157Y228520D01*
X402112Y228576D01*
X392660Y238028D01*
X392586Y238081D01*
X392517Y238141D01*
X392487Y238153D01*
X392460Y238172D01*
X392373Y238199D01*
X392289Y238233D01*
X392248Y238237D01*
X392225Y238244D01*
X392193Y238243D01*
X392122Y238251D01*
X258771Y238251D01*
X258681Y238237D01*
X258590Y238229D01*
X258561Y238217D01*
X258529Y238212D01*
X258448Y238169D01*
X258364Y238133D01*
X258332Y238107D01*
X258311Y238096D01*
X258289Y238073D01*
X258233Y238028D01*
X256198Y235993D01*
X251802Y235993D01*
X248693Y239102D01*
X248693Y242544D01*
X248682Y242615D01*
X248680Y242686D01*
X248662Y242735D01*
X248654Y242787D01*
X248620Y242850D01*
X248595Y242917D01*
X248563Y242958D01*
X248538Y243004D01*
X248486Y243053D01*
X248442Y243109D01*
X248398Y243137D01*
X248360Y243173D01*
X248295Y243204D01*
X248235Y243242D01*
X248184Y243255D01*
X248137Y243277D01*
X248066Y243285D01*
X247996Y243302D01*
X247944Y243298D01*
X247893Y243304D01*
X247822Y243289D01*
X247751Y243283D01*
X247703Y243263D01*
X247652Y243252D01*
X247591Y243215D01*
X247525Y243187D01*
X247469Y243142D01*
X247441Y243126D01*
X247426Y243108D01*
X247394Y243082D01*
X246830Y242518D01*
X246776Y242444D01*
X246717Y242375D01*
X246705Y242345D01*
X246686Y242318D01*
X246659Y242231D01*
X246625Y242147D01*
X246621Y242106D01*
X246614Y242083D01*
X246615Y242051D01*
X246607Y241980D01*
X246607Y239102D01*
X243498Y235993D01*
X239102Y235993D01*
X235993Y239102D01*
X235993Y243498D01*
X239102Y246607D01*
X241980Y246607D01*
X242070Y246621D01*
X242161Y246629D01*
X242191Y246641D01*
X242223Y246646D01*
X242303Y246689D01*
X242387Y246725D01*
X242419Y246751D01*
X242440Y246762D01*
X242462Y246785D01*
X242518Y246830D01*
X252737Y257049D01*
X388729Y257049D01*
X403238Y242540D01*
X403312Y242487D01*
X403381Y242427D01*
X403411Y242415D01*
X403437Y242396D01*
X403524Y242369D01*
X403609Y242335D01*
X403650Y242331D01*
X403673Y242324D01*
X403705Y242325D01*
X403776Y242317D01*
X432402Y242317D01*
X434411Y240308D01*
X437612Y237107D01*
X437670Y237065D01*
X437722Y237015D01*
X437769Y236994D01*
X437811Y236963D01*
X437880Y236942D01*
X437945Y236912D01*
X437997Y236906D01*
X438047Y236891D01*
X438118Y236893D01*
X438189Y236885D01*
X438240Y236896D01*
X438292Y236897D01*
X438360Y236922D01*
X438430Y236937D01*
X438475Y236964D01*
X438523Y236982D01*
X438579Y237026D01*
X438641Y237063D01*
X438675Y237103D01*
X438715Y237135D01*
X438754Y237196D01*
X438801Y237250D01*
X438820Y237298D01*
X438848Y237342D01*
X438866Y237412D01*
X438893Y237478D01*
X438901Y237550D01*
X438909Y237581D01*
X438907Y237604D01*
X438911Y237645D01*
X438911Y252269D01*
X438897Y252359D01*
X438889Y252450D01*
X438877Y252479D01*
X438872Y252511D01*
X438829Y252592D01*
X438793Y252676D01*
X438767Y252708D01*
X438756Y252729D01*
X438733Y252751D01*
X438688Y252807D01*
X437164Y254331D01*
X437106Y254373D01*
X437054Y254422D01*
X437007Y254444D01*
X436965Y254475D01*
X436896Y254496D01*
X436831Y254526D01*
X436779Y254532D01*
X436729Y254547D01*
X436658Y254545D01*
X436587Y254553D01*
X436536Y254542D01*
X436484Y254541D01*
X436416Y254516D01*
X436346Y254501D01*
X436301Y254474D01*
X436253Y254456D01*
X436197Y254411D01*
X436135Y254375D01*
X436101Y254335D01*
X436061Y254302D01*
X436022Y254242D01*
X435975Y254188D01*
X435956Y254139D01*
X435928Y254096D01*
X435910Y254026D01*
X435883Y253959D01*
X435875Y253888D01*
X435867Y253857D01*
X435869Y253834D01*
X435865Y253793D01*
X435865Y252181D01*
X434473Y248820D01*
X431900Y246247D01*
X428539Y244855D01*
X409661Y244855D01*
X406300Y246247D01*
X403727Y248820D01*
X402335Y252181D01*
X402335Y255819D01*
X403727Y259180D01*
X406130Y261582D01*
X406141Y261598D01*
X406157Y261611D01*
X406213Y261698D01*
X406273Y261782D01*
X406279Y261801D01*
X406290Y261818D01*
X406315Y261918D01*
X406346Y262017D01*
X406345Y262037D01*
X406350Y262056D01*
X406342Y262159D01*
X406339Y262263D01*
X406332Y262282D01*
X406331Y262302D01*
X406290Y262396D01*
X406255Y262494D01*
X406242Y262510D01*
X406234Y262528D01*
X406130Y262659D01*
X405360Y263428D01*
X405286Y263481D01*
X405217Y263541D01*
X405187Y263553D01*
X405160Y263572D01*
X405073Y263599D01*
X404989Y263633D01*
X404948Y263637D01*
X404925Y263644D01*
X404893Y263643D01*
X404822Y263651D01*
X230178Y263651D01*
X230088Y263637D01*
X229997Y263629D01*
X229967Y263617D01*
X229935Y263612D01*
X229855Y263569D01*
X229771Y263533D01*
X229739Y263507D01*
X229718Y263496D01*
X229696Y263473D01*
X229640Y263428D01*
X193772Y227560D01*
X193719Y227486D01*
X193659Y227417D01*
X193647Y227387D01*
X193628Y227360D01*
X193601Y227273D01*
X193567Y227189D01*
X193563Y227148D01*
X193556Y227125D01*
X193557Y227093D01*
X193549Y227022D01*
X193549Y182571D01*
X193563Y182481D01*
X193571Y182390D01*
X193583Y182361D01*
X193588Y182329D01*
X193631Y182248D01*
X193667Y182164D01*
X193693Y182132D01*
X193704Y182111D01*
X193727Y182089D01*
X193772Y182033D01*
X195807Y179998D01*
X195807Y175602D01*
X193772Y173567D01*
X193719Y173493D01*
X193659Y173423D01*
X193647Y173393D01*
X193628Y173367D01*
X193601Y173280D01*
X193567Y173195D01*
X193563Y173154D01*
X193556Y173132D01*
X193557Y173100D01*
X193549Y173029D01*
X193549Y119071D01*
X193563Y118981D01*
X193571Y118890D01*
X193583Y118861D01*
X193588Y118829D01*
X193631Y118748D01*
X193667Y118664D01*
X193693Y118632D01*
X193704Y118611D01*
X193727Y118589D01*
X193772Y118533D01*
X195807Y116498D01*
X195807Y112102D01*
X192698Y108993D01*
X188302Y108993D01*
X185193Y112102D01*
X185193Y116498D01*
X187228Y118533D01*
X187281Y118607D01*
X187341Y118677D01*
X187353Y118707D01*
X187372Y118733D01*
X187399Y118820D01*
X187433Y118905D01*
X187437Y118946D01*
X187444Y118968D01*
X187443Y119000D01*
X187451Y119071D01*
X187451Y173029D01*
X187437Y173119D01*
X187429Y173210D01*
X187417Y173239D01*
X187412Y173271D01*
X187369Y173352D01*
X187333Y173436D01*
X187307Y173468D01*
X187296Y173489D01*
X187273Y173511D01*
X187228Y173567D01*
X185193Y175602D01*
X185193Y179998D01*
X187228Y182033D01*
X187281Y182107D01*
X187341Y182177D01*
X187353Y182207D01*
X187372Y182233D01*
X187399Y182320D01*
X187433Y182405D01*
X187437Y182446D01*
X187444Y182468D01*
X187443Y182500D01*
X187451Y182571D01*
X187451Y264722D01*
X187437Y264812D01*
X187429Y264903D01*
X187417Y264933D01*
X187412Y264965D01*
X187369Y265045D01*
X187333Y265129D01*
X187307Y265161D01*
X187296Y265182D01*
X187273Y265204D01*
X187228Y265260D01*
X136785Y315704D01*
X136748Y315730D01*
X136717Y315764D01*
X136648Y315802D01*
X136585Y315847D01*
X136541Y315861D01*
X136501Y315883D01*
X136424Y315897D01*
X136350Y315919D01*
X136304Y315918D01*
X136259Y315926D01*
X136182Y315915D01*
X136104Y315913D01*
X136061Y315897D01*
X136016Y315891D01*
X135946Y315855D01*
X135873Y315829D01*
X135837Y315800D01*
X135796Y315779D01*
X135742Y315724D01*
X135681Y315675D01*
X135656Y315636D01*
X135624Y315604D01*
X135558Y315484D01*
X135548Y315468D01*
X135547Y315463D01*
X135543Y315457D01*
X135483Y315311D01*
X132535Y312363D01*
X128684Y310768D01*
X124516Y310768D01*
X120665Y312363D01*
X117717Y315311D01*
X116122Y319162D01*
X116122Y341238D01*
X117717Y345089D01*
X120665Y348037D01*
X124516Y349632D01*
X128684Y349632D01*
X132535Y348037D01*
X135483Y345089D01*
X137078Y341238D01*
X137078Y324349D01*
X137093Y324259D01*
X137100Y324168D01*
X137113Y324138D01*
X137118Y324106D01*
X137161Y324025D01*
X137196Y323941D01*
X137222Y323909D01*
X137233Y323889D01*
X137256Y323866D01*
X137301Y323810D01*
X193549Y267563D01*
X193549Y237798D01*
X193560Y237727D01*
X193562Y237656D01*
X193580Y237607D01*
X193588Y237555D01*
X193622Y237492D01*
X193647Y237425D01*
X193679Y237384D01*
X193704Y237338D01*
X193756Y237289D01*
X193800Y237233D01*
X193844Y237204D01*
X193882Y237169D01*
X193947Y237138D01*
X194007Y237100D01*
X194058Y237087D01*
X194105Y237065D01*
X194176Y237057D01*
X194246Y237040D01*
X194298Y237044D01*
X194349Y237038D01*
X194420Y237053D01*
X194491Y237059D01*
X194539Y237079D01*
X194590Y237090D01*
X194651Y237127D01*
X194717Y237155D01*
X194773Y237200D01*
X194801Y237216D01*
X194816Y237234D01*
X194848Y237260D01*
X227337Y269749D01*
X407663Y269749D01*
X414044Y263368D01*
X414118Y263315D01*
X414187Y263255D01*
X414217Y263243D01*
X414244Y263224D01*
X414331Y263197D01*
X414415Y263163D01*
X414456Y263159D01*
X414479Y263152D01*
X414511Y263153D01*
X414582Y263145D01*
X416506Y263145D01*
X416577Y263156D01*
X416648Y263158D01*
X416697Y263176D01*
X416749Y263184D01*
X416812Y263218D01*
X416879Y263243D01*
X416920Y263275D01*
X416966Y263300D01*
X417015Y263351D01*
X417071Y263396D01*
X417100Y263440D01*
X417135Y263478D01*
X417166Y263543D01*
X417204Y263603D01*
X417217Y263654D01*
X417239Y263701D01*
X417247Y263772D01*
X417264Y263842D01*
X417260Y263894D01*
X417266Y263945D01*
X417251Y264016D01*
X417245Y264087D01*
X417225Y264135D01*
X417214Y264186D01*
X417177Y264247D01*
X417149Y264313D01*
X417104Y264369D01*
X417088Y264397D01*
X417082Y264402D01*
X417081Y264403D01*
X417067Y264415D01*
X417044Y264444D01*
X389659Y291830D01*
X389643Y291841D01*
X389630Y291857D01*
X389543Y291913D01*
X389459Y291973D01*
X389440Y291979D01*
X389423Y291990D01*
X389323Y292015D01*
X389224Y292046D01*
X389204Y292045D01*
X389185Y292050D01*
X389082Y292042D01*
X388978Y292039D01*
X388959Y292032D01*
X388940Y292031D01*
X388845Y291990D01*
X388747Y291955D01*
X388731Y291942D01*
X388713Y291934D01*
X388582Y291830D01*
X386180Y289427D01*
X382819Y288035D01*
X379181Y288035D01*
X375820Y289427D01*
X373247Y292000D01*
X371855Y295361D01*
X371855Y314239D01*
X373247Y317600D01*
X375820Y320173D01*
X379181Y321565D01*
X382819Y321565D01*
X386180Y320173D01*
X388753Y317600D01*
X390145Y314239D01*
X390145Y300282D01*
X390159Y300192D01*
X390167Y300101D01*
X390179Y300071D01*
X390184Y300039D01*
X390227Y299959D01*
X390263Y299875D01*
X390289Y299843D01*
X390300Y299822D01*
X390323Y299800D01*
X390368Y299744D01*
X422172Y267940D01*
X422246Y267887D01*
X422315Y267827D01*
X422345Y267815D01*
X422372Y267796D01*
X422459Y267769D01*
X422543Y267735D01*
X422584Y267731D01*
X422607Y267724D01*
X422639Y267725D01*
X422710Y267717D01*
X432402Y267717D01*
X445009Y255110D01*
X445009Y202090D01*
X432402Y189483D01*
X362251Y189483D01*
X362161Y189469D01*
X362070Y189461D01*
X362040Y189449D01*
X362008Y189444D01*
X361928Y189401D01*
X361844Y189365D01*
X361812Y189339D01*
X361791Y189328D01*
X361769Y189305D01*
X361713Y189260D01*
X352042Y179589D01*
X351989Y179515D01*
X351929Y179446D01*
X351917Y179416D01*
X351898Y179389D01*
X351871Y179303D01*
X351837Y179218D01*
X351833Y179177D01*
X351826Y179154D01*
X351827Y179122D01*
X351819Y179051D01*
X351819Y176549D01*
X351833Y176459D01*
X351841Y176368D01*
X351853Y176338D01*
X351858Y176306D01*
X351901Y176226D01*
X351937Y176142D01*
X351963Y176110D01*
X351974Y176089D01*
X351997Y176067D01*
X352042Y176011D01*
X358649Y169404D01*
X358649Y144471D01*
X358663Y144381D01*
X358671Y144290D01*
X358683Y144261D01*
X358688Y144229D01*
X358731Y144148D01*
X358767Y144064D01*
X358793Y144032D01*
X358804Y144011D01*
X358827Y143989D01*
X358872Y143933D01*
X360907Y141898D01*
X360907Y137502D01*
X357798Y134393D01*
X353402Y134393D01*
X350293Y137502D01*
X350293Y141898D01*
X352328Y143933D01*
X352381Y144007D01*
X352441Y144077D01*
X352453Y144107D01*
X352472Y144133D01*
X352499Y144220D01*
X352533Y144305D01*
X352537Y144346D01*
X352544Y144368D01*
X352543Y144400D01*
X352551Y144471D01*
X352551Y166563D01*
X352537Y166653D01*
X352529Y166744D01*
X352517Y166773D01*
X352512Y166805D01*
X352469Y166886D01*
X352433Y166970D01*
X352407Y167002D01*
X352396Y167023D01*
X352373Y167045D01*
X352328Y167101D01*
X347248Y172181D01*
X347190Y172223D01*
X347138Y172272D01*
X347091Y172294D01*
X347049Y172325D01*
X346980Y172346D01*
X346915Y172376D01*
X346863Y172382D01*
X346813Y172397D01*
X346742Y172395D01*
X346671Y172403D01*
X346620Y172392D01*
X346568Y172391D01*
X346500Y172366D01*
X346430Y172351D01*
X346385Y172324D01*
X346337Y172306D01*
X346281Y172261D01*
X346219Y172225D01*
X346185Y172185D01*
X346145Y172152D01*
X346106Y172092D01*
X346059Y172038D01*
X346040Y171989D01*
X346012Y171946D01*
X345994Y171876D01*
X345967Y171809D01*
X345959Y171738D01*
X345951Y171707D01*
X345953Y171684D01*
X345949Y171643D01*
X345949Y103178D01*
X345963Y103088D01*
X345971Y102997D01*
X345983Y102967D01*
X345988Y102935D01*
X346031Y102855D01*
X346067Y102771D01*
X346093Y102739D01*
X346104Y102718D01*
X346127Y102696D01*
X346172Y102640D01*
X385041Y63770D01*
X385057Y63759D01*
X385070Y63743D01*
X385157Y63687D01*
X385241Y63627D01*
X385260Y63621D01*
X385277Y63610D01*
X385377Y63585D01*
X385476Y63554D01*
X385496Y63555D01*
X385515Y63550D01*
X385618Y63558D01*
X385722Y63561D01*
X385741Y63568D01*
X385760Y63569D01*
X385855Y63610D01*
X385953Y63645D01*
X385969Y63658D01*
X385987Y63666D01*
X386118Y63770D01*
X388520Y66173D01*
X391881Y67565D01*
X395519Y67565D01*
X398880Y66173D01*
X401453Y63600D01*
X402845Y60239D01*
X402845Y41361D01*
X401453Y38000D01*
X398880Y35427D01*
X395519Y34035D01*
X391881Y34035D01*
X388520Y35427D01*
X385947Y38000D01*
X384555Y41361D01*
X384555Y55318D01*
X384541Y55408D01*
X384533Y55499D01*
X384521Y55529D01*
X384516Y55561D01*
X384490Y55609D01*
X384490Y55610D01*
X384487Y55615D01*
X384473Y55641D01*
X384437Y55725D01*
X384411Y55757D01*
X384400Y55778D01*
X384377Y55800D01*
X384373Y55805D01*
X384364Y55821D01*
X384354Y55830D01*
X384332Y55856D01*
X378380Y61809D01*
X378301Y61865D01*
X378226Y61928D01*
X378201Y61937D01*
X378180Y61952D01*
X378087Y61981D01*
X377996Y62016D01*
X377970Y62017D01*
X377945Y62025D01*
X377848Y62022D01*
X377750Y62026D01*
X377725Y62019D01*
X377699Y62018D01*
X377607Y61985D01*
X377514Y61958D01*
X377493Y61943D01*
X377468Y61934D01*
X377392Y61873D01*
X377312Y61817D01*
X377296Y61796D01*
X377276Y61780D01*
X377223Y61698D01*
X377165Y61620D01*
X377157Y61595D01*
X377143Y61573D01*
X377119Y61479D01*
X377089Y61386D01*
X377089Y61360D01*
X377083Y61335D01*
X377091Y61238D01*
X377091Y61140D01*
X377101Y61109D01*
X377102Y61089D01*
X377115Y61059D01*
X377138Y60979D01*
X377445Y60239D01*
X377445Y41361D01*
X376053Y38000D01*
X373480Y35427D01*
X370119Y34035D01*
X366481Y34035D01*
X363120Y35427D01*
X360547Y38000D01*
X359155Y41361D01*
X359155Y55318D01*
X359141Y55408D01*
X359133Y55499D01*
X359121Y55529D01*
X359116Y55561D01*
X359090Y55609D01*
X359090Y55610D01*
X359087Y55615D01*
X359073Y55641D01*
X359037Y55725D01*
X359011Y55757D01*
X359000Y55778D01*
X358977Y55800D01*
X358973Y55805D01*
X358964Y55821D01*
X358954Y55830D01*
X358932Y55856D01*
X352980Y61809D01*
X352901Y61866D01*
X352826Y61928D01*
X352801Y61937D01*
X352780Y61952D01*
X352687Y61981D01*
X352596Y62016D01*
X352570Y62017D01*
X352545Y62025D01*
X352448Y62022D01*
X352350Y62026D01*
X352325Y62019D01*
X352299Y62018D01*
X352208Y61985D01*
X352114Y61958D01*
X352093Y61943D01*
X352068Y61934D01*
X351992Y61873D01*
X351912Y61817D01*
X351896Y61796D01*
X351876Y61780D01*
X351823Y61698D01*
X351765Y61620D01*
X351757Y61595D01*
X351743Y61573D01*
X351719Y61479D01*
X351689Y61386D01*
X351689Y61360D01*
X351683Y61335D01*
X351691Y61238D01*
X351691Y61140D01*
X351701Y61109D01*
X351702Y61089D01*
X351715Y61059D01*
X351738Y60979D01*
X352045Y60239D01*
X352045Y41361D01*
X350653Y38000D01*
X348080Y35427D01*
X344719Y34035D01*
X341081Y34035D01*
G37*
%LPD*%
%LPC*%
G36*
X175981Y34035D02*
X175981Y34035D01*
X172620Y35427D01*
X170047Y38000D01*
X168655Y41361D01*
X168655Y60239D01*
X170047Y63600D01*
X172620Y66173D01*
X175981Y67565D01*
X179619Y67565D01*
X182980Y66173D01*
X185382Y63770D01*
X185398Y63759D01*
X185411Y63743D01*
X185498Y63687D01*
X185582Y63627D01*
X185601Y63621D01*
X185618Y63610D01*
X185718Y63585D01*
X185817Y63554D01*
X185837Y63555D01*
X185856Y63550D01*
X185959Y63558D01*
X186063Y63561D01*
X186082Y63568D01*
X186102Y63569D01*
X186196Y63610D01*
X186294Y63645D01*
X186310Y63658D01*
X186328Y63666D01*
X186459Y63770D01*
X276128Y153440D01*
X276181Y153514D01*
X276241Y153583D01*
X276253Y153613D01*
X276272Y153640D01*
X276299Y153727D01*
X276333Y153811D01*
X276337Y153852D01*
X276344Y153875D01*
X276343Y153907D01*
X276351Y153978D01*
X276351Y173029D01*
X276337Y173119D01*
X276329Y173210D01*
X276317Y173239D01*
X276312Y173271D01*
X276269Y173352D01*
X276233Y173436D01*
X276207Y173468D01*
X276196Y173489D01*
X276173Y173511D01*
X276128Y173567D01*
X274093Y175602D01*
X274093Y179998D01*
X277202Y183107D01*
X281598Y183107D01*
X284707Y179998D01*
X284707Y175602D01*
X282672Y173567D01*
X282619Y173493D01*
X282559Y173423D01*
X282547Y173393D01*
X282528Y173367D01*
X282501Y173280D01*
X282467Y173195D01*
X282463Y173154D01*
X282456Y173132D01*
X282457Y173100D01*
X282449Y173029D01*
X282449Y151137D01*
X187168Y55856D01*
X187124Y55795D01*
X187089Y55758D01*
X187082Y55745D01*
X187055Y55713D01*
X187043Y55683D01*
X187024Y55656D01*
X186997Y55569D01*
X186963Y55485D01*
X186959Y55444D01*
X186952Y55421D01*
X186953Y55389D01*
X186945Y55318D01*
X186945Y41361D01*
X185553Y38000D01*
X182980Y35427D01*
X179619Y34035D01*
X175981Y34035D01*
G37*
%LPD*%
%LPC*%
G36*
X238816Y310768D02*
X238816Y310768D01*
X234965Y312363D01*
X232017Y315311D01*
X230422Y319162D01*
X230422Y341238D01*
X232017Y345089D01*
X234965Y348037D01*
X238816Y349632D01*
X242984Y349632D01*
X246835Y348037D01*
X249783Y345089D01*
X251378Y341238D01*
X251378Y319162D01*
X249783Y315311D01*
X246835Y312363D01*
X242984Y310768D01*
X238816Y310768D01*
G37*
%LPD*%
%LPC*%
G36*
X188816Y310768D02*
X188816Y310768D01*
X184965Y312363D01*
X182017Y315311D01*
X180422Y319162D01*
X180422Y341238D01*
X182017Y345089D01*
X184965Y348037D01*
X188816Y349632D01*
X192984Y349632D01*
X196835Y348037D01*
X199783Y345089D01*
X201378Y341238D01*
X201378Y319162D01*
X199783Y315311D01*
X196835Y312363D01*
X192984Y310768D01*
X188816Y310768D01*
G37*
%LPD*%
%LPC*%
G36*
X442681Y34035D02*
X442681Y34035D01*
X439320Y35427D01*
X436747Y38000D01*
X435355Y41361D01*
X435355Y60239D01*
X436747Y63600D01*
X439320Y66173D01*
X442681Y67565D01*
X446319Y67565D01*
X449680Y66173D01*
X452253Y63600D01*
X453645Y60239D01*
X453645Y41361D01*
X452253Y38000D01*
X449680Y35427D01*
X446319Y34035D01*
X442681Y34035D01*
G37*
%LPD*%
%LPC*%
G36*
X290281Y34035D02*
X290281Y34035D01*
X286920Y35427D01*
X284347Y38000D01*
X282955Y41361D01*
X282955Y60239D01*
X284347Y63600D01*
X286920Y66173D01*
X290281Y67565D01*
X293919Y67565D01*
X297280Y66173D01*
X299853Y63600D01*
X301245Y60239D01*
X301245Y41361D01*
X299853Y38000D01*
X297280Y35427D01*
X293919Y34035D01*
X290281Y34035D01*
G37*
%LPD*%
%LPC*%
G36*
X315681Y34035D02*
X315681Y34035D01*
X312320Y35427D01*
X309747Y38000D01*
X308355Y41361D01*
X308355Y60239D01*
X309747Y63600D01*
X312320Y66173D01*
X315681Y67565D01*
X319319Y67565D01*
X322680Y66173D01*
X325253Y63600D01*
X326645Y60239D01*
X326645Y41361D01*
X325253Y38000D01*
X322680Y35427D01*
X319319Y34035D01*
X315681Y34035D01*
G37*
%LPD*%
%LPC*%
G36*
X125181Y34035D02*
X125181Y34035D01*
X121820Y35427D01*
X119247Y38000D01*
X117855Y41361D01*
X117855Y60239D01*
X119247Y63600D01*
X121820Y66173D01*
X125181Y67565D01*
X128819Y67565D01*
X132180Y66173D01*
X134753Y63600D01*
X136145Y60239D01*
X136145Y41361D01*
X134753Y38000D01*
X132180Y35427D01*
X128819Y34035D01*
X125181Y34035D01*
G37*
%LPD*%
%LPC*%
G36*
X214081Y34035D02*
X214081Y34035D01*
X210720Y35427D01*
X208147Y38000D01*
X206755Y41361D01*
X206755Y60239D01*
X208147Y63600D01*
X210720Y66173D01*
X214081Y67565D01*
X217719Y67565D01*
X221080Y66173D01*
X223653Y63600D01*
X225045Y60239D01*
X225045Y41361D01*
X223653Y38000D01*
X221080Y35427D01*
X217719Y34035D01*
X214081Y34035D01*
G37*
%LPD*%
%LPC*%
G36*
X302981Y288035D02*
X302981Y288035D01*
X299620Y289427D01*
X297047Y292000D01*
X295655Y295361D01*
X295655Y314239D01*
X297047Y317600D01*
X299620Y320173D01*
X302981Y321565D01*
X306619Y321565D01*
X309980Y320173D01*
X312553Y317600D01*
X313945Y314239D01*
X313945Y295361D01*
X312553Y292000D01*
X309980Y289427D01*
X306619Y288035D01*
X302981Y288035D01*
G37*
%LPD*%
%LPC*%
G36*
X353781Y288035D02*
X353781Y288035D01*
X350420Y289427D01*
X347847Y292000D01*
X346455Y295361D01*
X346455Y314239D01*
X347847Y317600D01*
X350420Y320173D01*
X353781Y321565D01*
X357419Y321565D01*
X360780Y320173D01*
X363353Y317600D01*
X364745Y314239D01*
X364745Y295361D01*
X363353Y292000D01*
X360780Y289427D01*
X357419Y288035D01*
X353781Y288035D01*
G37*
%LPD*%
%LPC*%
G36*
X328381Y288035D02*
X328381Y288035D01*
X325020Y289427D01*
X322447Y292000D01*
X321055Y295361D01*
X321055Y314239D01*
X322447Y317600D01*
X325020Y320173D01*
X328381Y321565D01*
X332019Y321565D01*
X335380Y320173D01*
X337953Y317600D01*
X339345Y314239D01*
X339345Y295361D01*
X337953Y292000D01*
X335380Y289427D01*
X332019Y288035D01*
X328381Y288035D01*
G37*
%LPD*%
%LPC*%
G36*
X239481Y34035D02*
X239481Y34035D01*
X236120Y35427D01*
X233547Y38000D01*
X232155Y41361D01*
X232155Y60239D01*
X233547Y63600D01*
X236120Y66173D01*
X239481Y67565D01*
X243119Y67565D01*
X246480Y66173D01*
X249053Y63600D01*
X250445Y60239D01*
X250445Y41361D01*
X249053Y38000D01*
X246480Y35427D01*
X243119Y34035D01*
X239481Y34035D01*
G37*
%LPD*%
%LPC*%
G36*
X264881Y34035D02*
X264881Y34035D01*
X261520Y35427D01*
X258947Y38000D01*
X257555Y41361D01*
X257555Y60239D01*
X258947Y63600D01*
X261520Y66173D01*
X264881Y67565D01*
X268519Y67565D01*
X271880Y66173D01*
X274453Y63600D01*
X275845Y60239D01*
X275845Y41361D01*
X274453Y38000D01*
X271880Y35427D01*
X268519Y34035D01*
X264881Y34035D01*
G37*
%LPD*%
%LPC*%
G36*
X366102Y121693D02*
X366102Y121693D01*
X362993Y124802D01*
X362993Y129198D01*
X366102Y132307D01*
X368980Y132307D01*
X369070Y132321D01*
X369161Y132329D01*
X369191Y132341D01*
X369223Y132346D01*
X369303Y132389D01*
X369387Y132425D01*
X369419Y132451D01*
X369440Y132462D01*
X369462Y132485D01*
X369518Y132530D01*
X390428Y153440D01*
X390481Y153514D01*
X390541Y153583D01*
X390553Y153613D01*
X390572Y153640D01*
X390599Y153727D01*
X390633Y153811D01*
X390637Y153852D01*
X390644Y153875D01*
X390643Y153907D01*
X390651Y153978D01*
X390651Y160329D01*
X390637Y160419D01*
X390629Y160510D01*
X390617Y160539D01*
X390612Y160571D01*
X390569Y160652D01*
X390533Y160736D01*
X390507Y160768D01*
X390496Y160789D01*
X390473Y160811D01*
X390428Y160867D01*
X388393Y162902D01*
X388393Y167298D01*
X391502Y170407D01*
X395898Y170407D01*
X399007Y167298D01*
X399007Y162902D01*
X396972Y160867D01*
X396919Y160793D01*
X396859Y160723D01*
X396847Y160693D01*
X396828Y160667D01*
X396801Y160580D01*
X396767Y160495D01*
X396763Y160454D01*
X396756Y160432D01*
X396757Y160400D01*
X396749Y160329D01*
X396749Y151137D01*
X373830Y128218D01*
X373777Y128144D01*
X373717Y128075D01*
X373705Y128045D01*
X373686Y128018D01*
X373659Y127931D01*
X373625Y127847D01*
X373621Y127806D01*
X373614Y127783D01*
X373615Y127751D01*
X373607Y127680D01*
X373607Y124802D01*
X370498Y121693D01*
X366102Y121693D01*
G37*
%LPD*%
%LPC*%
G36*
X78123Y331723D02*
X78123Y331723D01*
X78123Y350550D01*
X79292Y350365D01*
X81012Y349806D01*
X82624Y348984D01*
X84088Y347921D01*
X85367Y346642D01*
X86431Y345178D01*
X87252Y343566D01*
X87811Y341845D01*
X88094Y340058D01*
X88094Y331723D01*
X78123Y331723D01*
G37*
%LPD*%
%LPC*%
G36*
X78123Y328677D02*
X78123Y328677D01*
X88094Y328677D01*
X88094Y320342D01*
X87811Y318555D01*
X87252Y316834D01*
X86431Y315222D01*
X85367Y313758D01*
X84088Y312479D01*
X82624Y311416D01*
X81012Y310594D01*
X79292Y310035D01*
X78123Y309850D01*
X78123Y328677D01*
G37*
%LPD*%
%LPC*%
G36*
X65106Y331723D02*
X65106Y331723D01*
X65106Y340058D01*
X65389Y341845D01*
X65948Y343566D01*
X66769Y345178D01*
X67833Y346642D01*
X69112Y347921D01*
X70576Y348984D01*
X72188Y349806D01*
X73908Y350365D01*
X75077Y350550D01*
X75077Y331723D01*
X65106Y331723D01*
G37*
%LPD*%
%LPC*%
G36*
X73908Y310035D02*
X73908Y310035D01*
X72188Y310594D01*
X70576Y311416D01*
X69112Y312479D01*
X67833Y313758D01*
X66769Y315222D01*
X65948Y316834D01*
X65389Y318555D01*
X65106Y320342D01*
X65106Y328677D01*
X75077Y328677D01*
X75077Y309850D01*
X73908Y310035D01*
G37*
%LPD*%
%LPC*%
G36*
X153923Y52323D02*
X153923Y52323D01*
X153923Y68466D01*
X154779Y68331D01*
X156300Y67836D01*
X157725Y67110D01*
X159019Y66170D01*
X160150Y65039D01*
X161090Y63745D01*
X161816Y62320D01*
X162311Y60799D01*
X162561Y59220D01*
X162561Y52323D01*
X153923Y52323D01*
G37*
%LPD*%
%LPC*%
G36*
X420623Y52323D02*
X420623Y52323D01*
X420623Y68466D01*
X421479Y68331D01*
X423000Y67836D01*
X424425Y67110D01*
X425719Y66170D01*
X426850Y65039D01*
X427790Y63745D01*
X428516Y62320D01*
X429011Y60799D01*
X429261Y59220D01*
X429261Y52323D01*
X420623Y52323D01*
G37*
%LPD*%
%LPC*%
G36*
X420623Y179323D02*
X420623Y179323D01*
X420623Y187961D01*
X427520Y187961D01*
X429099Y187711D01*
X430620Y187216D01*
X432045Y186490D01*
X433339Y185550D01*
X434470Y184419D01*
X435410Y183125D01*
X436136Y181700D01*
X436631Y180179D01*
X436766Y179323D01*
X420623Y179323D01*
G37*
%LPD*%
%LPC*%
G36*
X401434Y179323D02*
X401434Y179323D01*
X401569Y180179D01*
X402064Y181700D01*
X402790Y183125D01*
X403730Y184419D01*
X404861Y185550D01*
X406155Y186490D01*
X407580Y187216D01*
X409101Y187711D01*
X410680Y187961D01*
X417577Y187961D01*
X417577Y179323D01*
X401434Y179323D01*
G37*
%LPD*%
%LPC*%
G36*
X420623Y49277D02*
X420623Y49277D01*
X429261Y49277D01*
X429261Y42380D01*
X429011Y40801D01*
X428516Y39280D01*
X427790Y37855D01*
X426850Y36561D01*
X425719Y35430D01*
X424425Y34490D01*
X423000Y33764D01*
X421479Y33269D01*
X420623Y33134D01*
X420623Y49277D01*
G37*
%LPD*%
%LPC*%
G36*
X153923Y49277D02*
X153923Y49277D01*
X162561Y49277D01*
X162561Y42380D01*
X162311Y40801D01*
X161816Y39280D01*
X161090Y37855D01*
X160150Y36561D01*
X159019Y35430D01*
X157725Y34490D01*
X156300Y33764D01*
X154779Y33269D01*
X153923Y33134D01*
X153923Y49277D01*
G37*
%LPD*%
%LPC*%
G36*
X142239Y52323D02*
X142239Y52323D01*
X142239Y59220D01*
X142489Y60799D01*
X142984Y62320D01*
X143710Y63745D01*
X144650Y65039D01*
X145781Y66170D01*
X147075Y67110D01*
X148500Y67836D01*
X150021Y68331D01*
X150877Y68466D01*
X150877Y52323D01*
X142239Y52323D01*
G37*
%LPD*%
%LPC*%
G36*
X408939Y52323D02*
X408939Y52323D01*
X408939Y59220D01*
X409189Y60799D01*
X409684Y62320D01*
X410410Y63745D01*
X411350Y65039D01*
X412481Y66170D01*
X413775Y67110D01*
X415200Y67836D01*
X416721Y68331D01*
X417577Y68466D01*
X417577Y52323D01*
X408939Y52323D01*
G37*
%LPD*%
%LPC*%
G36*
X420623Y167639D02*
X420623Y167639D01*
X420623Y176277D01*
X436766Y176277D01*
X436631Y175421D01*
X436136Y173900D01*
X435410Y172475D01*
X434470Y171181D01*
X433339Y170050D01*
X432045Y169110D01*
X430620Y168384D01*
X429099Y167889D01*
X427520Y167639D01*
X420623Y167639D01*
G37*
%LPD*%
%LPC*%
G36*
X410680Y167639D02*
X410680Y167639D01*
X409101Y167889D01*
X407580Y168384D01*
X406155Y169110D01*
X404861Y170050D01*
X403730Y171181D01*
X402790Y172475D01*
X402064Y173900D01*
X401569Y175421D01*
X401434Y176277D01*
X417577Y176277D01*
X417577Y167639D01*
X410680Y167639D01*
G37*
%LPD*%
%LPC*%
G36*
X416721Y33269D02*
X416721Y33269D01*
X415200Y33764D01*
X413775Y34490D01*
X412481Y35430D01*
X411350Y36561D01*
X410410Y37855D01*
X409684Y39280D01*
X409189Y40801D01*
X408939Y42380D01*
X408939Y49277D01*
X417577Y49277D01*
X417577Y33134D01*
X416721Y33269D01*
G37*
%LPD*%
%LPC*%
G36*
X150021Y33269D02*
X150021Y33269D01*
X148500Y33764D01*
X147075Y34490D01*
X145781Y35430D01*
X144650Y36561D01*
X143710Y37855D01*
X142984Y39280D01*
X142489Y40801D01*
X142239Y42380D01*
X142239Y49277D01*
X150877Y49277D01*
X150877Y33134D01*
X150021Y33269D01*
G37*
%LPD*%
%LPC*%
G36*
X76599Y330199D02*
X76599Y330199D01*
X76599Y330201D01*
X76601Y330201D01*
X76601Y330199D01*
X76599Y330199D01*
G37*
%LPD*%
%LPC*%
G36*
X419099Y177799D02*
X419099Y177799D01*
X419099Y177801D01*
X419101Y177801D01*
X419101Y177799D01*
X419099Y177799D01*
G37*
%LPD*%
%LPC*%
G36*
X419099Y50799D02*
X419099Y50799D01*
X419099Y50801D01*
X419101Y50801D01*
X419101Y50799D01*
X419099Y50799D01*
G37*
%LPD*%
%LPC*%
G36*
X152399Y50799D02*
X152399Y50799D01*
X152399Y50801D01*
X152401Y50801D01*
X152401Y50799D01*
X152399Y50799D01*
G37*
%LPD*%
D10*
X426720Y177800D02*
X411480Y177800D01*
X411480Y203200D02*
X426720Y203200D01*
X426720Y228600D02*
X411480Y228600D01*
X411480Y254000D02*
X426720Y254000D01*
X444500Y58420D02*
X444500Y43180D01*
X419100Y43180D02*
X419100Y58420D01*
X393700Y58420D02*
X393700Y43180D01*
X368300Y43180D02*
X368300Y58420D01*
X342900Y58420D02*
X342900Y43180D01*
X317500Y43180D02*
X317500Y58420D01*
X292100Y58420D02*
X292100Y43180D01*
X266700Y43180D02*
X266700Y58420D01*
X241300Y58420D02*
X241300Y43180D01*
X215900Y43180D02*
X215900Y58420D01*
D11*
X126600Y321247D02*
X126600Y339154D01*
X76600Y339154D02*
X76600Y321247D01*
X240900Y321247D02*
X240900Y339154D01*
X190900Y339154D02*
X190900Y321247D01*
D10*
X304800Y312420D02*
X304800Y297180D01*
X330200Y297180D02*
X330200Y312420D01*
X355600Y312420D02*
X355600Y297180D01*
X381000Y297180D02*
X381000Y312420D01*
X127000Y58420D02*
X127000Y43180D01*
X152400Y43180D02*
X152400Y58420D01*
X177800Y58420D02*
X177800Y43180D01*
D12*
X355600Y177800D03*
D13*
X419100Y177800D01*
D12*
X190500Y177800D03*
D13*
X190500Y228600D01*
X406400Y266700D02*
X419100Y254000D01*
X406400Y266700D02*
X228600Y266700D01*
X190500Y228600D01*
X190500Y177800D02*
X190500Y114300D01*
D12*
X190500Y114300D03*
D13*
X190500Y228600D02*
X190500Y266300D01*
X126600Y330200D01*
D12*
X241300Y241300D03*
D13*
X254000Y254000D01*
X431139Y239268D02*
X437388Y233019D01*
X437388Y224181D01*
X431139Y239268D02*
X402198Y239268D01*
X387466Y254000D02*
X254000Y254000D01*
X387466Y254000D02*
X402198Y239268D01*
X419100Y205893D02*
X419100Y203200D01*
X419100Y205893D02*
X437388Y224181D01*
X419100Y228600D02*
X406400Y228600D01*
X393700Y241300D01*
X254000Y241300D01*
D12*
X254000Y241300D03*
D13*
X330200Y88900D02*
X368300Y50800D01*
X330200Y88900D02*
X330200Y203200D01*
D12*
X330200Y203200D03*
D13*
X342900Y101600D02*
X393700Y50800D01*
X342900Y101600D02*
X342900Y190500D01*
D12*
X342900Y190500D03*
X368300Y127000D03*
D13*
X393700Y152400D01*
X393700Y165100D01*
D12*
X393700Y165100D03*
X355600Y139700D03*
D13*
X348770Y174971D02*
X348770Y180629D01*
X421132Y264668D02*
X431139Y264668D01*
X421132Y264668D02*
X381000Y304800D01*
X360673Y192532D02*
X348770Y180629D01*
X360673Y192532D02*
X431139Y192532D01*
X441960Y203353D01*
X441960Y253847D01*
X431139Y264668D01*
X355600Y168141D02*
X355600Y139700D01*
X355600Y168141D02*
X348770Y174971D01*
X279400Y152400D02*
X177800Y50800D01*
X279400Y152400D02*
X279400Y177800D01*
D12*
X279400Y177800D03*
M02*
