G04 EAGLE Gerber RS-274X export*
G75*
%MOMM*%
%FSLAX34Y34*%
%LPD*%
%INTop Copper*%
%IPPOS*%
%AMOC8*
5,1,8,0,0,1.08239X$1,22.5*%
G01*
%ADD10R,1.300000X1.500000*%
%ADD11R,1.500000X1.300000*%
%ADD12R,1.500000X0.600000*%
%ADD13R,0.600000X1.500000*%
%ADD14R,2.000000X5.500000*%
%ADD15C,1.524000*%
%ADD16C,1.790700*%
%ADD17C,0.304800*%
%ADD18C,0.756400*%

G36*
X462338Y11946D02*
X462338Y11946D01*
X462383Y11944D01*
X462458Y11966D01*
X462535Y11979D01*
X462576Y12000D01*
X462620Y12013D01*
X462684Y12057D01*
X462752Y12094D01*
X462784Y12127D01*
X462822Y12153D01*
X462868Y12216D01*
X462922Y12272D01*
X462941Y12314D01*
X462968Y12350D01*
X462993Y12424D01*
X463025Y12495D01*
X463030Y12541D01*
X463045Y12584D01*
X463044Y12662D01*
X463052Y12739D01*
X463043Y12784D01*
X463042Y12830D01*
X463004Y12962D01*
X463000Y12980D01*
X462998Y12984D01*
X462996Y12991D01*
X459739Y20853D01*
X459739Y29947D01*
X463220Y38350D01*
X469650Y44780D01*
X478053Y48261D01*
X487147Y48261D01*
X495009Y45004D01*
X495053Y44994D01*
X495095Y44975D01*
X495172Y44966D01*
X495248Y44948D01*
X495294Y44953D01*
X495339Y44948D01*
X495416Y44964D01*
X495493Y44971D01*
X495535Y44990D01*
X495580Y45000D01*
X495647Y45040D01*
X495718Y45071D01*
X495752Y45102D01*
X495791Y45126D01*
X495842Y45185D01*
X495899Y45238D01*
X495921Y45278D01*
X495951Y45313D01*
X495980Y45385D01*
X496017Y45453D01*
X496026Y45498D01*
X496043Y45541D01*
X496058Y45677D01*
X496061Y45695D01*
X496060Y45700D01*
X496061Y45708D01*
X496061Y360692D01*
X496054Y360738D01*
X496056Y360783D01*
X496034Y360858D01*
X496022Y360935D01*
X496000Y360976D01*
X495987Y361020D01*
X495943Y361084D01*
X495906Y361152D01*
X495873Y361184D01*
X495847Y361222D01*
X495784Y361268D01*
X495728Y361322D01*
X495686Y361341D01*
X495650Y361368D01*
X495576Y361393D01*
X495505Y361425D01*
X495459Y361430D01*
X495416Y361445D01*
X495338Y361444D01*
X495261Y361452D01*
X495216Y361443D01*
X495170Y361442D01*
X495038Y361404D01*
X495020Y361400D01*
X495016Y361398D01*
X495009Y361396D01*
X487147Y358139D01*
X478053Y358139D01*
X469650Y361620D01*
X463220Y368050D01*
X459739Y376453D01*
X459739Y385547D01*
X462365Y391887D01*
X462376Y391931D01*
X462395Y391973D01*
X462404Y392050D01*
X462421Y392126D01*
X462417Y392172D01*
X462422Y392217D01*
X462406Y392294D01*
X462398Y392371D01*
X462380Y392413D01*
X462370Y392458D01*
X462330Y392525D01*
X462298Y392596D01*
X462267Y392630D01*
X462244Y392669D01*
X462185Y392720D01*
X462132Y392777D01*
X462092Y392799D01*
X462057Y392829D01*
X461985Y392858D01*
X461916Y392895D01*
X461871Y392904D01*
X461829Y392921D01*
X461693Y392936D01*
X461674Y392939D01*
X461669Y392938D01*
X461662Y392939D01*
X46338Y392939D01*
X46293Y392932D01*
X46247Y392934D01*
X46172Y392912D01*
X46095Y392900D01*
X46055Y392878D01*
X46011Y392865D01*
X45947Y392821D01*
X45878Y392784D01*
X45846Y392751D01*
X45809Y392725D01*
X45762Y392662D01*
X45709Y392606D01*
X45689Y392564D01*
X45662Y392528D01*
X45638Y392454D01*
X45605Y392383D01*
X45600Y392337D01*
X45586Y392294D01*
X45586Y392216D01*
X45578Y392139D01*
X45588Y392094D01*
X45588Y392048D01*
X45626Y391916D01*
X45630Y391898D01*
X45633Y391894D01*
X45635Y391887D01*
X48261Y385547D01*
X48261Y376453D01*
X44780Y368050D01*
X38350Y361620D01*
X29947Y358139D01*
X20853Y358139D01*
X12991Y361396D01*
X12947Y361406D01*
X12905Y361425D01*
X12828Y361434D01*
X12752Y361452D01*
X12706Y361447D01*
X12661Y361452D01*
X12584Y361436D01*
X12507Y361429D01*
X12465Y361410D01*
X12420Y361400D01*
X12353Y361360D01*
X12282Y361329D01*
X12248Y361298D01*
X12209Y361274D01*
X12159Y361215D01*
X12101Y361162D01*
X12079Y361122D01*
X12049Y361087D01*
X12020Y361015D01*
X11983Y360947D01*
X11974Y360902D01*
X11957Y360859D01*
X11942Y360723D01*
X11939Y360705D01*
X11940Y360700D01*
X11939Y360692D01*
X11939Y45708D01*
X11946Y45662D01*
X11944Y45617D01*
X11966Y45542D01*
X11979Y45465D01*
X12000Y45424D01*
X12013Y45380D01*
X12057Y45316D01*
X12094Y45248D01*
X12127Y45216D01*
X12153Y45178D01*
X12216Y45132D01*
X12272Y45078D01*
X12314Y45059D01*
X12350Y45032D01*
X12424Y45007D01*
X12495Y44975D01*
X12541Y44970D01*
X12584Y44955D01*
X12662Y44956D01*
X12739Y44948D01*
X12784Y44957D01*
X12830Y44958D01*
X12962Y44996D01*
X12980Y45000D01*
X12984Y45002D01*
X12991Y45004D01*
X20853Y48261D01*
X29947Y48261D01*
X38350Y44780D01*
X44780Y38350D01*
X48261Y29947D01*
X48261Y20853D01*
X45004Y12991D01*
X44994Y12947D01*
X44975Y12905D01*
X44966Y12828D01*
X44948Y12752D01*
X44953Y12706D01*
X44948Y12661D01*
X44964Y12584D01*
X44971Y12507D01*
X44990Y12465D01*
X45000Y12420D01*
X45040Y12353D01*
X45071Y12282D01*
X45102Y12248D01*
X45126Y12209D01*
X45185Y12159D01*
X45238Y12101D01*
X45278Y12079D01*
X45313Y12049D01*
X45385Y12020D01*
X45453Y11983D01*
X45498Y11974D01*
X45541Y11957D01*
X45677Y11942D01*
X45695Y11939D01*
X45700Y11940D01*
X45708Y11939D01*
X462292Y11939D01*
X462338Y11946D01*
G37*
%LPC*%
G36*
X438818Y29463D02*
X438818Y29463D01*
X430783Y37498D01*
X430783Y57197D01*
X430768Y57288D01*
X430761Y57380D01*
X430747Y57417D01*
X430744Y57439D01*
X430743Y57440D01*
X430728Y57468D01*
X430703Y57537D01*
X430661Y57594D01*
X430628Y57657D01*
X430590Y57693D01*
X430559Y57737D01*
X430501Y57778D01*
X430450Y57826D01*
X430402Y57849D01*
X430359Y57880D01*
X430291Y57900D01*
X430227Y57930D01*
X430174Y57936D01*
X430123Y57951D01*
X430053Y57949D01*
X429983Y57957D01*
X429931Y57946D01*
X429877Y57944D01*
X429811Y57920D01*
X429742Y57905D01*
X429697Y57877D01*
X429647Y57859D01*
X429592Y57815D01*
X429531Y57779D01*
X429497Y57738D01*
X429455Y57705D01*
X429417Y57645D01*
X429371Y57592D01*
X429351Y57542D01*
X429323Y57498D01*
X429306Y57429D01*
X429279Y57363D01*
X429271Y57290D01*
X429263Y57259D01*
X429265Y57236D01*
X429261Y57197D01*
X429261Y52323D01*
X419862Y52323D01*
X419842Y52320D01*
X419823Y52322D01*
X419721Y52300D01*
X419619Y52283D01*
X419602Y52274D01*
X419582Y52270D01*
X419493Y52217D01*
X419402Y52168D01*
X419388Y52154D01*
X419371Y52144D01*
X419304Y52065D01*
X419233Y51990D01*
X419224Y51972D01*
X419211Y51957D01*
X419173Y51861D01*
X419129Y51767D01*
X419127Y51747D01*
X419119Y51729D01*
X419101Y51562D01*
X419101Y50799D01*
X419099Y50799D01*
X419099Y51562D01*
X419096Y51582D01*
X419098Y51601D01*
X419076Y51703D01*
X419059Y51805D01*
X419050Y51822D01*
X419046Y51842D01*
X418993Y51931D01*
X418944Y52022D01*
X418930Y52036D01*
X418920Y52053D01*
X418841Y52120D01*
X418766Y52191D01*
X418748Y52200D01*
X418733Y52213D01*
X418637Y52252D01*
X418543Y52295D01*
X418523Y52297D01*
X418505Y52305D01*
X418338Y52323D01*
X408939Y52323D01*
X408939Y59220D01*
X409189Y60799D01*
X409684Y62320D01*
X410410Y63745D01*
X411350Y65039D01*
X412481Y66170D01*
X413775Y67110D01*
X415200Y67836D01*
X416721Y68331D01*
X418046Y68540D01*
X418057Y68544D01*
X418069Y68544D01*
X418174Y68583D01*
X418279Y68618D01*
X418289Y68625D01*
X418300Y68629D01*
X418387Y68699D01*
X418476Y68765D01*
X418483Y68775D01*
X418492Y68783D01*
X418552Y68877D01*
X418615Y68968D01*
X418618Y68979D01*
X418625Y68989D01*
X418652Y69098D01*
X418683Y69204D01*
X418682Y69216D01*
X418685Y69228D01*
X418676Y69339D01*
X418671Y69450D01*
X418667Y69461D01*
X418666Y69473D01*
X418622Y69576D01*
X418582Y69679D01*
X418574Y69689D01*
X418570Y69700D01*
X418465Y69831D01*
X379515Y108780D01*
X379441Y108833D01*
X379372Y108893D01*
X379341Y108905D01*
X379315Y108924D01*
X379228Y108951D01*
X379143Y108985D01*
X379102Y108989D01*
X379080Y108996D01*
X379048Y108995D01*
X378977Y109003D01*
X301875Y109003D01*
X285603Y125275D01*
X285603Y125514D01*
X285600Y125534D01*
X285602Y125553D01*
X285580Y125655D01*
X285564Y125757D01*
X285554Y125774D01*
X285550Y125794D01*
X285497Y125883D01*
X285448Y125974D01*
X285434Y125988D01*
X285424Y126005D01*
X285345Y126072D01*
X285270Y126144D01*
X285252Y126152D01*
X285237Y126165D01*
X285141Y126204D01*
X285047Y126247D01*
X285027Y126249D01*
X285009Y126257D01*
X284842Y126275D01*
X284462Y126275D01*
X284442Y126272D01*
X284423Y126274D01*
X284321Y126252D01*
X284219Y126236D01*
X284202Y126226D01*
X284182Y126222D01*
X284093Y126169D01*
X284002Y126120D01*
X283988Y126106D01*
X283971Y126096D01*
X283904Y126017D01*
X283832Y125942D01*
X283824Y125924D01*
X283811Y125909D01*
X283772Y125813D01*
X283729Y125719D01*
X283727Y125699D01*
X283719Y125681D01*
X283701Y125514D01*
X283701Y115416D01*
X283715Y115326D01*
X283723Y115235D01*
X283735Y115205D01*
X283740Y115173D01*
X283783Y115092D01*
X283819Y115008D01*
X283845Y114976D01*
X283856Y114956D01*
X283879Y114933D01*
X283924Y114877D01*
X333249Y65552D01*
X333249Y65078D01*
X333263Y64988D01*
X333271Y64897D01*
X333283Y64867D01*
X333288Y64835D01*
X333331Y64755D01*
X333367Y64671D01*
X333393Y64639D01*
X333404Y64618D01*
X333427Y64596D01*
X333472Y64540D01*
X334241Y63770D01*
X334257Y63759D01*
X334270Y63743D01*
X334357Y63687D01*
X334441Y63627D01*
X334460Y63621D01*
X334477Y63610D01*
X334577Y63585D01*
X334676Y63554D01*
X334696Y63555D01*
X334715Y63550D01*
X334818Y63558D01*
X334922Y63561D01*
X334941Y63568D01*
X334960Y63569D01*
X335055Y63610D01*
X335153Y63645D01*
X335169Y63658D01*
X335187Y63666D01*
X335318Y63770D01*
X337720Y66173D01*
X341081Y67565D01*
X344719Y67565D01*
X348080Y66173D01*
X350653Y63600D01*
X352045Y60239D01*
X352045Y41361D01*
X350653Y38000D01*
X348080Y35427D01*
X344719Y34035D01*
X341081Y34035D01*
X337720Y35427D01*
X335147Y38000D01*
X333755Y41361D01*
X333755Y55318D01*
X333741Y55408D01*
X333733Y55499D01*
X333721Y55529D01*
X333716Y55561D01*
X333690Y55609D01*
X333690Y55610D01*
X333687Y55615D01*
X333673Y55641D01*
X333637Y55725D01*
X333611Y55757D01*
X333600Y55778D01*
X333577Y55800D01*
X333573Y55805D01*
X333564Y55821D01*
X333554Y55830D01*
X333532Y55856D01*
X327580Y61809D01*
X327501Y61866D01*
X327426Y61928D01*
X327401Y61937D01*
X327380Y61952D01*
X327287Y61981D01*
X327196Y62016D01*
X327170Y62017D01*
X327145Y62025D01*
X327048Y62022D01*
X326950Y62026D01*
X326925Y62019D01*
X326899Y62018D01*
X326808Y61985D01*
X326714Y61958D01*
X326693Y61943D01*
X326668Y61934D01*
X326592Y61873D01*
X326512Y61817D01*
X326496Y61796D01*
X326476Y61780D01*
X326423Y61698D01*
X326365Y61620D01*
X326357Y61595D01*
X326343Y61573D01*
X326319Y61479D01*
X326289Y61386D01*
X326289Y61360D01*
X326283Y61335D01*
X326291Y61238D01*
X326291Y61140D01*
X326301Y61109D01*
X326302Y61089D01*
X326315Y61059D01*
X326338Y60979D01*
X326645Y60239D01*
X326645Y41361D01*
X325253Y38000D01*
X322680Y35427D01*
X319319Y34035D01*
X315681Y34035D01*
X312320Y35427D01*
X309747Y38000D01*
X308355Y41361D01*
X308355Y60239D01*
X309747Y63600D01*
X312320Y66173D01*
X313873Y66816D01*
X313912Y66840D01*
X313956Y66856D01*
X314006Y66896D01*
X314020Y66904D01*
X314027Y66911D01*
X314082Y66946D01*
X314112Y66981D01*
X314148Y67010D01*
X314190Y67075D01*
X314239Y67135D01*
X314256Y67178D01*
X314281Y67217D01*
X314300Y67292D01*
X314327Y67365D01*
X314329Y67411D01*
X314341Y67455D01*
X314335Y67533D01*
X314338Y67610D01*
X314325Y67655D01*
X314321Y67700D01*
X314291Y67772D01*
X314269Y67847D01*
X314243Y67884D01*
X314225Y67927D01*
X314140Y68033D01*
X314129Y68049D01*
X314125Y68052D01*
X314120Y68058D01*
X267651Y114527D01*
X267651Y125514D01*
X267648Y125534D01*
X267650Y125553D01*
X267628Y125655D01*
X267612Y125757D01*
X267602Y125774D01*
X267598Y125794D01*
X267545Y125883D01*
X267496Y125974D01*
X267482Y125988D01*
X267472Y126005D01*
X267393Y126072D01*
X267318Y126144D01*
X267300Y126152D01*
X267285Y126165D01*
X267189Y126204D01*
X267095Y126247D01*
X267075Y126249D01*
X267057Y126257D01*
X267008Y126262D01*
X267003Y126266D01*
X266902Y126291D01*
X266803Y126321D01*
X266783Y126321D01*
X266764Y126326D01*
X266661Y126318D01*
X266558Y126315D01*
X266539Y126308D01*
X266519Y126307D01*
X266424Y126266D01*
X266410Y126261D01*
X266369Y126252D01*
X266267Y126236D01*
X266250Y126226D01*
X266230Y126222D01*
X266141Y126169D01*
X266050Y126120D01*
X266036Y126106D01*
X266019Y126096D01*
X265952Y126017D01*
X265880Y125942D01*
X265872Y125924D01*
X265859Y125909D01*
X265820Y125813D01*
X265777Y125719D01*
X265775Y125699D01*
X265767Y125681D01*
X265749Y125514D01*
X265749Y107178D01*
X265763Y107088D01*
X265771Y106997D01*
X265783Y106967D01*
X265788Y106935D01*
X265831Y106855D01*
X265867Y106771D01*
X265893Y106739D01*
X265904Y106718D01*
X265927Y106696D01*
X265972Y106640D01*
X295149Y77463D01*
X295149Y67564D01*
X295168Y67449D01*
X295185Y67333D01*
X295187Y67327D01*
X295188Y67321D01*
X295243Y67219D01*
X295296Y67114D01*
X295301Y67109D01*
X295304Y67104D01*
X295388Y67024D01*
X295472Y66942D01*
X295478Y66938D01*
X295482Y66935D01*
X295499Y66927D01*
X295619Y66861D01*
X297280Y66173D01*
X299853Y63600D01*
X301245Y60239D01*
X301245Y41361D01*
X299853Y38000D01*
X297280Y35427D01*
X293919Y34035D01*
X290281Y34035D01*
X286920Y35427D01*
X284347Y38000D01*
X282955Y41361D01*
X282955Y60239D01*
X284347Y63600D01*
X286920Y66173D01*
X288581Y66861D01*
X288681Y66922D01*
X288781Y66982D01*
X288785Y66987D01*
X288790Y66990D01*
X288865Y67080D01*
X288941Y67169D01*
X288943Y67175D01*
X288947Y67180D01*
X288989Y67288D01*
X289033Y67397D01*
X289034Y67405D01*
X289035Y67409D01*
X289036Y67428D01*
X289051Y67564D01*
X289051Y74622D01*
X289037Y74712D01*
X289029Y74803D01*
X289017Y74833D01*
X289012Y74865D01*
X288969Y74945D01*
X288933Y75029D01*
X288907Y75061D01*
X288896Y75082D01*
X288873Y75104D01*
X288828Y75160D01*
X259651Y104337D01*
X259651Y125514D01*
X259648Y125534D01*
X259650Y125553D01*
X259628Y125655D01*
X259612Y125757D01*
X259602Y125774D01*
X259598Y125794D01*
X259545Y125883D01*
X259496Y125974D01*
X259482Y125988D01*
X259472Y126005D01*
X259393Y126072D01*
X259318Y126144D01*
X259300Y126152D01*
X259285Y126165D01*
X259189Y126204D01*
X259095Y126247D01*
X259075Y126249D01*
X259057Y126257D01*
X259008Y126262D01*
X259003Y126266D01*
X258902Y126291D01*
X258803Y126321D01*
X258783Y126321D01*
X258764Y126326D01*
X258661Y126318D01*
X258558Y126315D01*
X258539Y126308D01*
X258519Y126307D01*
X258424Y126266D01*
X258410Y126261D01*
X258369Y126252D01*
X258267Y126236D01*
X258250Y126226D01*
X258230Y126222D01*
X258141Y126169D01*
X258050Y126120D01*
X258036Y126106D01*
X258019Y126096D01*
X257952Y126017D01*
X257880Y125942D01*
X257872Y125924D01*
X257859Y125909D01*
X257820Y125813D01*
X257777Y125719D01*
X257775Y125699D01*
X257767Y125681D01*
X257749Y125514D01*
X257749Y102478D01*
X257763Y102388D01*
X257771Y102297D01*
X257783Y102267D01*
X257788Y102235D01*
X257831Y102155D01*
X257867Y102071D01*
X257893Y102039D01*
X257904Y102018D01*
X257927Y101996D01*
X257972Y101940D01*
X269749Y90163D01*
X269749Y67564D01*
X269768Y67449D01*
X269785Y67333D01*
X269787Y67327D01*
X269788Y67321D01*
X269843Y67219D01*
X269896Y67114D01*
X269901Y67109D01*
X269904Y67104D01*
X269988Y67024D01*
X270072Y66942D01*
X270078Y66938D01*
X270082Y66935D01*
X270099Y66927D01*
X270219Y66861D01*
X271880Y66173D01*
X274453Y63600D01*
X275845Y60239D01*
X275845Y41361D01*
X274453Y38000D01*
X271880Y35427D01*
X268519Y34035D01*
X264881Y34035D01*
X261520Y35427D01*
X258947Y38000D01*
X257555Y41361D01*
X257555Y60239D01*
X258947Y63600D01*
X261520Y66173D01*
X263181Y66861D01*
X263281Y66922D01*
X263381Y66982D01*
X263385Y66987D01*
X263390Y66990D01*
X263465Y67080D01*
X263541Y67169D01*
X263543Y67175D01*
X263547Y67180D01*
X263589Y67288D01*
X263633Y67397D01*
X263634Y67405D01*
X263635Y67409D01*
X263636Y67428D01*
X263651Y67564D01*
X263651Y87322D01*
X263649Y87334D01*
X263650Y87342D01*
X263641Y87384D01*
X263637Y87412D01*
X263629Y87503D01*
X263617Y87533D01*
X263612Y87565D01*
X263569Y87645D01*
X263533Y87729D01*
X263507Y87761D01*
X263496Y87782D01*
X263473Y87804D01*
X263428Y87860D01*
X253660Y97628D01*
X251651Y99637D01*
X251651Y125514D01*
X251648Y125534D01*
X251650Y125553D01*
X251628Y125655D01*
X251612Y125757D01*
X251602Y125774D01*
X251598Y125794D01*
X251545Y125883D01*
X251496Y125974D01*
X251482Y125988D01*
X251472Y126005D01*
X251393Y126072D01*
X251318Y126144D01*
X251300Y126152D01*
X251285Y126165D01*
X251189Y126204D01*
X251095Y126247D01*
X251075Y126249D01*
X251057Y126257D01*
X251008Y126262D01*
X251003Y126266D01*
X250902Y126291D01*
X250803Y126321D01*
X250783Y126321D01*
X250764Y126326D01*
X250661Y126318D01*
X250558Y126315D01*
X250539Y126308D01*
X250519Y126307D01*
X250424Y126266D01*
X250410Y126261D01*
X250369Y126252D01*
X250267Y126236D01*
X250250Y126226D01*
X250230Y126222D01*
X250141Y126169D01*
X250050Y126120D01*
X250036Y126106D01*
X250019Y126096D01*
X249952Y126017D01*
X249880Y125942D01*
X249872Y125924D01*
X249859Y125909D01*
X249820Y125813D01*
X249777Y125719D01*
X249775Y125699D01*
X249767Y125681D01*
X249749Y125514D01*
X249749Y62071D01*
X249759Y62006D01*
X249760Y61941D01*
X249783Y61860D01*
X249788Y61828D01*
X249798Y61811D01*
X249807Y61779D01*
X250445Y60239D01*
X250445Y41361D01*
X249053Y38000D01*
X246480Y35427D01*
X243119Y34035D01*
X239481Y34035D01*
X236120Y35427D01*
X233547Y38000D01*
X232155Y41361D01*
X232155Y60239D01*
X233547Y63600D01*
X236120Y66173D01*
X239481Y67565D01*
X242890Y67565D01*
X242910Y67568D01*
X242929Y67566D01*
X243031Y67588D01*
X243133Y67604D01*
X243150Y67614D01*
X243170Y67618D01*
X243259Y67671D01*
X243350Y67720D01*
X243364Y67734D01*
X243381Y67744D01*
X243448Y67823D01*
X243520Y67898D01*
X243528Y67916D01*
X243541Y67931D01*
X243580Y68027D01*
X243623Y68121D01*
X243625Y68141D01*
X243633Y68159D01*
X243651Y68326D01*
X243651Y125514D01*
X243648Y125534D01*
X243650Y125553D01*
X243628Y125655D01*
X243612Y125757D01*
X243602Y125774D01*
X243598Y125794D01*
X243545Y125883D01*
X243496Y125974D01*
X243482Y125988D01*
X243472Y126005D01*
X243393Y126072D01*
X243318Y126144D01*
X243300Y126152D01*
X243285Y126165D01*
X243189Y126204D01*
X243095Y126247D01*
X243075Y126249D01*
X243057Y126257D01*
X243008Y126262D01*
X243003Y126266D01*
X242902Y126291D01*
X242803Y126321D01*
X242783Y126321D01*
X242764Y126326D01*
X242661Y126318D01*
X242558Y126315D01*
X242539Y126308D01*
X242519Y126307D01*
X242445Y126275D01*
X235068Y126275D01*
X235066Y126278D01*
X235050Y126289D01*
X235037Y126305D01*
X234950Y126361D01*
X234866Y126421D01*
X234847Y126427D01*
X234830Y126438D01*
X234730Y126463D01*
X234631Y126494D01*
X234611Y126493D01*
X234592Y126498D01*
X234489Y126490D01*
X234385Y126487D01*
X234367Y126480D01*
X234347Y126479D01*
X234252Y126438D01*
X234154Y126403D01*
X234139Y126390D01*
X234120Y126383D01*
X233989Y126278D01*
X219172Y111460D01*
X219119Y111386D01*
X219059Y111317D01*
X219047Y111287D01*
X219028Y111260D01*
X219001Y111173D01*
X218967Y111089D01*
X218963Y111048D01*
X218956Y111025D01*
X218957Y110993D01*
X218949Y110922D01*
X218949Y67564D01*
X218968Y67449D01*
X218985Y67333D01*
X218987Y67327D01*
X218988Y67321D01*
X219043Y67219D01*
X219096Y67114D01*
X219101Y67109D01*
X219104Y67104D01*
X219188Y67024D01*
X219272Y66942D01*
X219278Y66938D01*
X219282Y66935D01*
X219299Y66927D01*
X219419Y66861D01*
X221080Y66173D01*
X223653Y63600D01*
X225045Y60239D01*
X225045Y41361D01*
X223653Y38000D01*
X221080Y35427D01*
X217719Y34035D01*
X214081Y34035D01*
X210720Y35427D01*
X208147Y38000D01*
X206755Y41361D01*
X206755Y60239D01*
X208147Y63600D01*
X210720Y66173D01*
X212381Y66861D01*
X212481Y66922D01*
X212581Y66982D01*
X212585Y66987D01*
X212590Y66990D01*
X212665Y67080D01*
X212741Y67169D01*
X212743Y67175D01*
X212747Y67180D01*
X212789Y67288D01*
X212833Y67397D01*
X212834Y67405D01*
X212835Y67409D01*
X212836Y67428D01*
X212851Y67564D01*
X212851Y113763D01*
X233952Y134864D01*
X234005Y134938D01*
X234065Y135007D01*
X234077Y135037D01*
X234096Y135064D01*
X234123Y135151D01*
X234157Y135235D01*
X234161Y135276D01*
X234168Y135299D01*
X234167Y135331D01*
X234175Y135402D01*
X234175Y143432D01*
X235068Y144325D01*
X242436Y144325D01*
X242498Y144309D01*
X242596Y144279D01*
X242616Y144279D01*
X242636Y144274D01*
X242739Y144282D01*
X242842Y144285D01*
X242861Y144292D01*
X242881Y144293D01*
X242954Y144325D01*
X250436Y144325D01*
X250498Y144309D01*
X250596Y144279D01*
X250616Y144279D01*
X250636Y144274D01*
X250739Y144282D01*
X250842Y144285D01*
X250861Y144292D01*
X250881Y144293D01*
X250954Y144325D01*
X258436Y144325D01*
X258498Y144309D01*
X258596Y144279D01*
X258616Y144279D01*
X258636Y144274D01*
X258739Y144282D01*
X258842Y144285D01*
X258861Y144292D01*
X258881Y144293D01*
X258954Y144325D01*
X266436Y144325D01*
X266498Y144309D01*
X266596Y144279D01*
X266616Y144279D01*
X266636Y144274D01*
X266739Y144282D01*
X266842Y144285D01*
X266861Y144292D01*
X266881Y144293D01*
X266954Y144325D01*
X274436Y144325D01*
X274498Y144309D01*
X274596Y144279D01*
X274616Y144279D01*
X274636Y144274D01*
X274739Y144282D01*
X274842Y144285D01*
X274861Y144292D01*
X274881Y144293D01*
X274954Y144325D01*
X282436Y144325D01*
X282498Y144309D01*
X282596Y144279D01*
X282616Y144279D01*
X282636Y144274D01*
X282739Y144282D01*
X282842Y144285D01*
X282861Y144292D01*
X282881Y144293D01*
X282954Y144325D01*
X290436Y144325D01*
X290498Y144309D01*
X290596Y144279D01*
X290616Y144279D01*
X290636Y144274D01*
X290739Y144282D01*
X290842Y144285D01*
X290861Y144292D01*
X290881Y144293D01*
X290954Y144325D01*
X298332Y144325D01*
X299225Y143432D01*
X299225Y139110D01*
X299228Y139090D01*
X299226Y139071D01*
X299248Y138969D01*
X299264Y138867D01*
X299274Y138850D01*
X299278Y138830D01*
X299331Y138741D01*
X299380Y138650D01*
X299394Y138636D01*
X299404Y138619D01*
X299483Y138552D01*
X299558Y138480D01*
X299576Y138472D01*
X299591Y138459D01*
X299687Y138420D01*
X299781Y138377D01*
X299801Y138375D01*
X299819Y138367D01*
X299986Y138349D01*
X310463Y138349D01*
X318540Y130272D01*
X318614Y130219D01*
X318683Y130159D01*
X318713Y130147D01*
X318740Y130128D01*
X318827Y130101D01*
X318911Y130067D01*
X318952Y130063D01*
X318975Y130056D01*
X319007Y130057D01*
X319078Y130049D01*
X363529Y130049D01*
X363619Y130063D01*
X363710Y130071D01*
X363739Y130083D01*
X363771Y130088D01*
X363852Y130131D01*
X363936Y130167D01*
X363968Y130193D01*
X363989Y130204D01*
X364011Y130227D01*
X364067Y130272D01*
X366102Y132307D01*
X370498Y132307D01*
X373607Y129198D01*
X373607Y124802D01*
X370498Y121693D01*
X366102Y121693D01*
X364067Y123728D01*
X363993Y123781D01*
X363923Y123841D01*
X363893Y123853D01*
X363867Y123872D01*
X363780Y123899D01*
X363695Y123933D01*
X363654Y123937D01*
X363632Y123944D01*
X363600Y123943D01*
X363529Y123951D01*
X316237Y123951D01*
X308160Y132028D01*
X308086Y132081D01*
X308017Y132141D01*
X307987Y132153D01*
X307960Y132172D01*
X307873Y132199D01*
X307789Y132233D01*
X307748Y132237D01*
X307725Y132244D01*
X307693Y132243D01*
X307622Y132251D01*
X299986Y132251D01*
X299966Y132248D01*
X299947Y132250D01*
X299845Y132228D01*
X299743Y132212D01*
X299726Y132202D01*
X299706Y132198D01*
X299617Y132145D01*
X299526Y132096D01*
X299512Y132082D01*
X299495Y132072D01*
X299428Y131993D01*
X299356Y131918D01*
X299348Y131900D01*
X299335Y131885D01*
X299296Y131789D01*
X299253Y131695D01*
X299251Y131675D01*
X299243Y131657D01*
X299225Y131490D01*
X299225Y127168D01*
X298332Y126275D01*
X295064Y126275D01*
X294993Y126264D01*
X294921Y126262D01*
X294872Y126244D01*
X294821Y126236D01*
X294758Y126202D01*
X294690Y126177D01*
X294650Y126145D01*
X294603Y126120D01*
X294554Y126068D01*
X294498Y126024D01*
X294470Y125980D01*
X294434Y125942D01*
X294404Y125877D01*
X294365Y125817D01*
X294352Y125766D01*
X294330Y125719D01*
X294323Y125648D01*
X294305Y125578D01*
X294309Y125526D01*
X294303Y125475D01*
X294319Y125404D01*
X294324Y125333D01*
X294345Y125285D01*
X294356Y125234D01*
X294392Y125173D01*
X294421Y125107D01*
X294465Y125051D01*
X294482Y125023D01*
X294500Y125008D01*
X294525Y124976D01*
X304177Y115324D01*
X304251Y115271D01*
X304321Y115211D01*
X304351Y115199D01*
X304377Y115180D01*
X304464Y115153D01*
X304549Y115119D01*
X304590Y115115D01*
X304612Y115108D01*
X304644Y115109D01*
X304716Y115101D01*
X381818Y115101D01*
X383827Y113092D01*
X434938Y61981D01*
X434975Y61954D01*
X435006Y61920D01*
X435074Y61883D01*
X435137Y61837D01*
X435181Y61824D01*
X435221Y61802D01*
X435298Y61788D01*
X435372Y61765D01*
X435418Y61766D01*
X435463Y61758D01*
X435540Y61769D01*
X435618Y61771D01*
X435661Y61787D01*
X435707Y61794D01*
X435776Y61829D01*
X435849Y61856D01*
X435885Y61885D01*
X435926Y61905D01*
X435981Y61961D01*
X436041Y62010D01*
X436066Y62048D01*
X436098Y62081D01*
X436164Y62201D01*
X436174Y62216D01*
X436175Y62221D01*
X436179Y62228D01*
X436747Y63600D01*
X439320Y66173D01*
X440981Y66861D01*
X441081Y66922D01*
X441181Y66982D01*
X441185Y66987D01*
X441190Y66990D01*
X441265Y67080D01*
X441341Y67169D01*
X441343Y67175D01*
X441347Y67180D01*
X441389Y67288D01*
X441433Y67397D01*
X441434Y67405D01*
X441435Y67409D01*
X441436Y67428D01*
X441451Y67564D01*
X441451Y74622D01*
X441437Y74712D01*
X441429Y74803D01*
X441417Y74833D01*
X441412Y74865D01*
X441369Y74945D01*
X441333Y75029D01*
X441307Y75061D01*
X441296Y75082D01*
X441273Y75104D01*
X441228Y75160D01*
X361860Y154528D01*
X361786Y154581D01*
X361717Y154641D01*
X361687Y154653D01*
X361660Y154672D01*
X361573Y154699D01*
X361489Y154733D01*
X361448Y154737D01*
X361425Y154744D01*
X361393Y154743D01*
X361322Y154751D01*
X318986Y154751D01*
X318966Y154748D01*
X318947Y154750D01*
X318845Y154728D01*
X318743Y154712D01*
X318726Y154702D01*
X318706Y154698D01*
X318617Y154645D01*
X318526Y154596D01*
X318512Y154582D01*
X318495Y154572D01*
X318428Y154493D01*
X318356Y154418D01*
X318348Y154400D01*
X318335Y154385D01*
X318296Y154289D01*
X318253Y154195D01*
X318251Y154175D01*
X318243Y154157D01*
X318238Y154108D01*
X318234Y154103D01*
X318209Y154002D01*
X318179Y153903D01*
X318179Y153883D01*
X318174Y153864D01*
X318182Y153761D01*
X318185Y153658D01*
X318192Y153639D01*
X318193Y153619D01*
X318234Y153524D01*
X318239Y153510D01*
X318248Y153469D01*
X318264Y153367D01*
X318274Y153350D01*
X318278Y153330D01*
X318331Y153241D01*
X318380Y153150D01*
X318394Y153136D01*
X318404Y153119D01*
X318483Y153052D01*
X318558Y152980D01*
X318576Y152972D01*
X318591Y152959D01*
X318687Y152920D01*
X318781Y152877D01*
X318801Y152875D01*
X318819Y152867D01*
X318986Y152849D01*
X346763Y152849D01*
X354382Y145230D01*
X354456Y145177D01*
X354525Y145117D01*
X354555Y145105D01*
X354582Y145086D01*
X354669Y145059D01*
X354753Y145025D01*
X354794Y145021D01*
X354817Y145014D01*
X354849Y145015D01*
X354920Y145007D01*
X357798Y145007D01*
X360907Y141898D01*
X360907Y137502D01*
X357798Y134393D01*
X353402Y134393D01*
X350293Y137502D01*
X350293Y140380D01*
X350279Y140470D01*
X350271Y140561D01*
X350259Y140591D01*
X350254Y140623D01*
X350211Y140703D01*
X350175Y140787D01*
X350149Y140819D01*
X350138Y140840D01*
X350115Y140862D01*
X350070Y140918D01*
X344460Y146528D01*
X344386Y146581D01*
X344317Y146641D01*
X344287Y146653D01*
X344260Y146672D01*
X344173Y146699D01*
X344089Y146733D01*
X344048Y146737D01*
X344025Y146744D01*
X343993Y146743D01*
X343922Y146751D01*
X318986Y146751D01*
X318966Y146748D01*
X318947Y146750D01*
X318845Y146728D01*
X318743Y146712D01*
X318726Y146702D01*
X318706Y146698D01*
X318617Y146645D01*
X318526Y146596D01*
X318512Y146582D01*
X318495Y146572D01*
X318428Y146493D01*
X318356Y146418D01*
X318348Y146400D01*
X318335Y146385D01*
X318296Y146289D01*
X318254Y146198D01*
X317332Y145275D01*
X301068Y145275D01*
X300175Y146168D01*
X300175Y153536D01*
X300191Y153598D01*
X300221Y153696D01*
X300221Y153716D01*
X300226Y153736D01*
X300218Y153839D01*
X300215Y153942D01*
X300208Y153961D01*
X300207Y153981D01*
X300175Y154054D01*
X300175Y155942D01*
X300172Y155962D01*
X300174Y155981D01*
X300152Y156083D01*
X300136Y156185D01*
X300126Y156202D01*
X300122Y156222D01*
X300069Y156311D01*
X300020Y156402D01*
X300006Y156416D01*
X299996Y156433D01*
X299917Y156500D01*
X299842Y156572D01*
X299824Y156580D01*
X299809Y156593D01*
X299713Y156632D01*
X299619Y156675D01*
X299599Y156677D01*
X299581Y156685D01*
X299414Y156703D01*
X273775Y156703D01*
X267950Y162528D01*
X267876Y162581D01*
X267806Y162641D01*
X267776Y162653D01*
X267750Y162672D01*
X267663Y162699D01*
X267578Y162733D01*
X267537Y162737D01*
X267515Y162744D01*
X267483Y162743D01*
X267411Y162751D01*
X233986Y162751D01*
X233966Y162748D01*
X233947Y162750D01*
X233845Y162728D01*
X233743Y162712D01*
X233726Y162702D01*
X233706Y162698D01*
X233617Y162645D01*
X233526Y162596D01*
X233512Y162582D01*
X233495Y162572D01*
X233428Y162493D01*
X233356Y162418D01*
X233348Y162400D01*
X233335Y162385D01*
X233296Y162289D01*
X233253Y162195D01*
X233251Y162175D01*
X233243Y162157D01*
X233238Y162108D01*
X233234Y162103D01*
X233209Y162002D01*
X233179Y161904D01*
X233179Y161884D01*
X233174Y161864D01*
X233182Y161761D01*
X233185Y161658D01*
X233192Y161639D01*
X233193Y161619D01*
X233225Y161546D01*
X233225Y154064D01*
X233209Y154002D01*
X233179Y153904D01*
X233179Y153884D01*
X233174Y153864D01*
X233182Y153761D01*
X233185Y153658D01*
X233192Y153639D01*
X233193Y153619D01*
X233225Y153546D01*
X233225Y146168D01*
X232332Y145275D01*
X226102Y145275D01*
X226012Y145261D01*
X225921Y145253D01*
X225891Y145241D01*
X225859Y145236D01*
X225779Y145193D01*
X225695Y145157D01*
X225663Y145131D01*
X225642Y145120D01*
X225620Y145097D01*
X225564Y145052D01*
X207763Y127251D01*
X126586Y127251D01*
X126566Y127248D01*
X126547Y127250D01*
X126445Y127228D01*
X126343Y127212D01*
X126326Y127202D01*
X126306Y127198D01*
X126217Y127145D01*
X126126Y127096D01*
X126112Y127082D01*
X126095Y127072D01*
X126028Y126993D01*
X125956Y126918D01*
X125948Y126900D01*
X125935Y126885D01*
X125896Y126789D01*
X125853Y126695D01*
X125851Y126675D01*
X125843Y126657D01*
X125825Y126490D01*
X125825Y102168D01*
X124932Y101275D01*
X103668Y101275D01*
X102775Y102168D01*
X102775Y126390D01*
X102772Y126410D01*
X102774Y126429D01*
X102752Y126531D01*
X102736Y126633D01*
X102726Y126650D01*
X102722Y126670D01*
X102669Y126759D01*
X102620Y126850D01*
X102606Y126864D01*
X102596Y126881D01*
X102517Y126948D01*
X102442Y127020D01*
X102424Y127028D01*
X102409Y127041D01*
X102313Y127080D01*
X102219Y127123D01*
X102199Y127125D01*
X102181Y127133D01*
X102014Y127151D01*
X73286Y127151D01*
X73266Y127148D01*
X73247Y127150D01*
X73145Y127128D01*
X73043Y127112D01*
X73026Y127102D01*
X73006Y127098D01*
X72917Y127045D01*
X72826Y126996D01*
X72812Y126982D01*
X72795Y126972D01*
X72728Y126893D01*
X72656Y126818D01*
X72648Y126800D01*
X72635Y126785D01*
X72596Y126689D01*
X72553Y126595D01*
X72551Y126575D01*
X72543Y126557D01*
X72525Y126390D01*
X72525Y123068D01*
X71632Y122175D01*
X55368Y122175D01*
X54475Y123068D01*
X54475Y137332D01*
X55368Y138225D01*
X71632Y138225D01*
X72525Y137332D01*
X72525Y134010D01*
X72528Y133990D01*
X72526Y133971D01*
X72548Y133869D01*
X72564Y133767D01*
X72574Y133750D01*
X72578Y133730D01*
X72631Y133641D01*
X72680Y133550D01*
X72694Y133536D01*
X72704Y133519D01*
X72783Y133452D01*
X72858Y133380D01*
X72876Y133372D01*
X72891Y133359D01*
X72987Y133320D01*
X73081Y133277D01*
X73101Y133275D01*
X73119Y133267D01*
X73286Y133249D01*
X102014Y133249D01*
X102034Y133252D01*
X102053Y133250D01*
X102155Y133272D01*
X102257Y133288D01*
X102274Y133298D01*
X102294Y133302D01*
X102383Y133355D01*
X102474Y133404D01*
X102488Y133418D01*
X102505Y133428D01*
X102572Y133507D01*
X102644Y133582D01*
X102652Y133600D01*
X102665Y133615D01*
X102704Y133711D01*
X102747Y133805D01*
X102749Y133825D01*
X102757Y133843D01*
X102775Y134010D01*
X102775Y158432D01*
X103668Y159325D01*
X124932Y159325D01*
X125825Y158432D01*
X125825Y134110D01*
X125828Y134090D01*
X125826Y134071D01*
X125848Y133969D01*
X125864Y133867D01*
X125874Y133850D01*
X125878Y133830D01*
X125931Y133741D01*
X125980Y133650D01*
X125994Y133636D01*
X126004Y133619D01*
X126083Y133552D01*
X126158Y133480D01*
X126176Y133472D01*
X126191Y133459D01*
X126287Y133420D01*
X126381Y133377D01*
X126401Y133375D01*
X126419Y133367D01*
X126586Y133349D01*
X204922Y133349D01*
X205012Y133363D01*
X205103Y133371D01*
X205133Y133383D01*
X205165Y133388D01*
X205245Y133431D01*
X205329Y133467D01*
X205361Y133493D01*
X205382Y133504D01*
X205404Y133527D01*
X205460Y133572D01*
X216078Y144189D01*
X216089Y144206D01*
X216105Y144218D01*
X216161Y144305D01*
X216221Y144389D01*
X216227Y144408D01*
X216238Y144425D01*
X216263Y144525D01*
X216294Y144624D01*
X216293Y144644D01*
X216298Y144663D01*
X216290Y144766D01*
X216287Y144870D01*
X216280Y144889D01*
X216279Y144909D01*
X216239Y145004D01*
X216203Y145101D01*
X216190Y145117D01*
X216183Y145135D01*
X216078Y145266D01*
X215175Y146168D01*
X215175Y153536D01*
X215191Y153598D01*
X215221Y153697D01*
X215221Y153717D01*
X215226Y153736D01*
X215218Y153839D01*
X215215Y153942D01*
X215208Y153961D01*
X215207Y153981D01*
X215175Y154055D01*
X215175Y155942D01*
X215172Y155962D01*
X215174Y155981D01*
X215152Y156083D01*
X215136Y156185D01*
X215126Y156202D01*
X215122Y156222D01*
X215069Y156311D01*
X215020Y156402D01*
X215006Y156416D01*
X214996Y156433D01*
X214917Y156500D01*
X214842Y156572D01*
X214824Y156580D01*
X214809Y156593D01*
X214713Y156632D01*
X214619Y156675D01*
X214599Y156677D01*
X214581Y156685D01*
X214414Y156703D01*
X178585Y156703D01*
X127124Y208164D01*
X127066Y208206D01*
X127014Y208255D01*
X126967Y208277D01*
X126925Y208308D01*
X126856Y208329D01*
X126791Y208359D01*
X126739Y208365D01*
X126689Y208380D01*
X126618Y208378D01*
X126547Y208386D01*
X126496Y208375D01*
X126444Y208374D01*
X126376Y208349D01*
X126306Y208334D01*
X126261Y208307D01*
X126213Y208289D01*
X126157Y208244D01*
X126095Y208208D01*
X126061Y208168D01*
X126021Y208136D01*
X125982Y208075D01*
X125935Y208021D01*
X125916Y207972D01*
X125888Y207929D01*
X125870Y207859D01*
X125843Y207793D01*
X125835Y207721D01*
X125827Y207690D01*
X125829Y207667D01*
X125825Y207626D01*
X125825Y197168D01*
X124932Y196275D01*
X103668Y196275D01*
X102775Y197168D01*
X102775Y221590D01*
X102772Y221610D01*
X102774Y221629D01*
X102752Y221731D01*
X102736Y221833D01*
X102726Y221850D01*
X102722Y221870D01*
X102669Y221959D01*
X102620Y222050D01*
X102606Y222064D01*
X102596Y222081D01*
X102517Y222148D01*
X102442Y222220D01*
X102424Y222228D01*
X102409Y222241D01*
X102313Y222280D01*
X102219Y222323D01*
X102199Y222325D01*
X102181Y222333D01*
X102014Y222351D01*
X73286Y222351D01*
X73266Y222348D01*
X73247Y222350D01*
X73145Y222328D01*
X73043Y222312D01*
X73026Y222302D01*
X73006Y222298D01*
X72917Y222245D01*
X72826Y222196D01*
X72812Y222182D01*
X72795Y222172D01*
X72728Y222093D01*
X72656Y222018D01*
X72648Y222000D01*
X72635Y221985D01*
X72596Y221889D01*
X72553Y221795D01*
X72551Y221775D01*
X72543Y221757D01*
X72525Y221590D01*
X72525Y218268D01*
X71632Y217375D01*
X55368Y217375D01*
X54475Y218268D01*
X54475Y232532D01*
X55368Y233425D01*
X71632Y233425D01*
X72525Y232532D01*
X72525Y229210D01*
X72528Y229190D01*
X72526Y229171D01*
X72548Y229069D01*
X72564Y228967D01*
X72574Y228950D01*
X72578Y228930D01*
X72631Y228841D01*
X72680Y228750D01*
X72694Y228736D01*
X72704Y228719D01*
X72783Y228652D01*
X72858Y228580D01*
X72876Y228572D01*
X72891Y228559D01*
X72987Y228520D01*
X73081Y228477D01*
X73101Y228475D01*
X73119Y228467D01*
X73286Y228449D01*
X102014Y228449D01*
X102034Y228452D01*
X102053Y228450D01*
X102155Y228472D01*
X102257Y228488D01*
X102274Y228498D01*
X102294Y228502D01*
X102383Y228555D01*
X102474Y228604D01*
X102488Y228618D01*
X102505Y228628D01*
X102572Y228707D01*
X102644Y228782D01*
X102652Y228800D01*
X102665Y228815D01*
X102704Y228911D01*
X102747Y229005D01*
X102749Y229025D01*
X102757Y229043D01*
X102775Y229210D01*
X102775Y253432D01*
X103668Y254325D01*
X124932Y254325D01*
X125825Y253432D01*
X125825Y218402D01*
X125839Y218312D01*
X125847Y218221D01*
X125859Y218191D01*
X125864Y218159D01*
X125907Y218079D01*
X125943Y217995D01*
X125969Y217963D01*
X125980Y217942D01*
X126003Y217920D01*
X126048Y217864D01*
X180888Y163024D01*
X180962Y162971D01*
X181031Y162911D01*
X181061Y162899D01*
X181088Y162880D01*
X181175Y162853D01*
X181259Y162819D01*
X181300Y162815D01*
X181323Y162808D01*
X181355Y162809D01*
X181426Y162801D01*
X214414Y162801D01*
X214434Y162804D01*
X214453Y162802D01*
X214555Y162824D01*
X214657Y162840D01*
X214674Y162850D01*
X214694Y162854D01*
X214783Y162907D01*
X214874Y162956D01*
X214888Y162970D01*
X214905Y162980D01*
X214972Y163059D01*
X215044Y163134D01*
X215052Y163152D01*
X215065Y163167D01*
X215104Y163263D01*
X215147Y163357D01*
X215149Y163377D01*
X215157Y163395D01*
X215175Y163562D01*
X215175Y168416D01*
X215161Y168506D01*
X215153Y168597D01*
X215141Y168627D01*
X215136Y168659D01*
X215093Y168740D01*
X215057Y168824D01*
X215031Y168856D01*
X215020Y168876D01*
X214997Y168899D01*
X214952Y168955D01*
X214667Y169240D01*
X214332Y169819D01*
X214159Y170466D01*
X214159Y172301D01*
X223462Y172301D01*
X223481Y172304D01*
X223501Y172302D01*
X223603Y172324D01*
X223705Y172340D01*
X223722Y172350D01*
X223742Y172354D01*
X223831Y172407D01*
X223922Y172456D01*
X223936Y172470D01*
X223953Y172480D01*
X224020Y172559D01*
X224091Y172634D01*
X224100Y172652D01*
X224113Y172667D01*
X224151Y172763D01*
X224195Y172857D01*
X224197Y172877D01*
X224204Y172895D01*
X224217Y172819D01*
X224226Y172802D01*
X224230Y172782D01*
X224283Y172693D01*
X224332Y172602D01*
X224346Y172588D01*
X224356Y172571D01*
X224435Y172504D01*
X224510Y172432D01*
X224528Y172424D01*
X224543Y172411D01*
X224640Y172372D01*
X224733Y172329D01*
X224753Y172327D01*
X224771Y172319D01*
X224938Y172301D01*
X234241Y172301D01*
X234241Y170466D01*
X234064Y169807D01*
X234052Y169686D01*
X234039Y169571D01*
X234040Y169566D01*
X234040Y169562D01*
X234066Y169446D01*
X234092Y169330D01*
X234094Y169327D01*
X234095Y169323D01*
X234157Y169221D01*
X234218Y169119D01*
X234221Y169116D01*
X234223Y169113D01*
X234314Y169037D01*
X234405Y168959D01*
X234409Y168958D01*
X234412Y168955D01*
X234521Y168912D01*
X234633Y168867D01*
X234638Y168867D01*
X234641Y168865D01*
X234655Y168865D01*
X234800Y168849D01*
X244102Y168849D01*
X244173Y168860D01*
X244244Y168862D01*
X244293Y168880D01*
X244345Y168888D01*
X244408Y168922D01*
X244475Y168947D01*
X244516Y168979D01*
X244562Y169004D01*
X244611Y169056D01*
X244667Y169100D01*
X244696Y169144D01*
X244731Y169182D01*
X244762Y169247D01*
X244800Y169307D01*
X244813Y169358D01*
X244835Y169405D01*
X244843Y169476D01*
X244860Y169546D01*
X244856Y169598D01*
X244862Y169649D01*
X244847Y169720D01*
X244841Y169791D01*
X244821Y169839D01*
X244810Y169890D01*
X244773Y169951D01*
X244745Y170017D01*
X244700Y170073D01*
X244684Y170101D01*
X244666Y170116D01*
X244640Y170148D01*
X236260Y178528D01*
X236186Y178581D01*
X236117Y178641D01*
X236087Y178653D01*
X236060Y178672D01*
X235973Y178699D01*
X235889Y178733D01*
X235848Y178737D01*
X235825Y178744D01*
X235793Y178743D01*
X235722Y178751D01*
X234800Y178751D01*
X234683Y178732D01*
X234565Y178714D01*
X234561Y178712D01*
X234557Y178712D01*
X234452Y178656D01*
X234346Y178601D01*
X234343Y178598D01*
X234339Y178596D01*
X234258Y178511D01*
X234175Y178425D01*
X234173Y178421D01*
X234170Y178418D01*
X234120Y178311D01*
X234069Y178203D01*
X234068Y178199D01*
X234066Y178195D01*
X234053Y178077D01*
X234039Y177959D01*
X234040Y177954D01*
X234039Y177951D01*
X234042Y177937D01*
X234064Y177793D01*
X234241Y177134D01*
X234241Y175299D01*
X224938Y175299D01*
X224919Y175296D01*
X224899Y175298D01*
X224797Y175276D01*
X224695Y175260D01*
X224678Y175250D01*
X224658Y175246D01*
X224569Y175193D01*
X224478Y175144D01*
X224464Y175130D01*
X224447Y175120D01*
X224380Y175041D01*
X224309Y174966D01*
X224300Y174948D01*
X224287Y174933D01*
X224249Y174837D01*
X224205Y174743D01*
X224203Y174723D01*
X224196Y174705D01*
X224183Y174781D01*
X224174Y174798D01*
X224170Y174818D01*
X224117Y174907D01*
X224068Y174998D01*
X224054Y175012D01*
X224044Y175029D01*
X223965Y175096D01*
X223890Y175168D01*
X223872Y175176D01*
X223857Y175189D01*
X223760Y175228D01*
X223667Y175271D01*
X223647Y175273D01*
X223629Y175281D01*
X223462Y175299D01*
X215516Y175299D01*
X215426Y175285D01*
X215335Y175277D01*
X215305Y175265D01*
X215273Y175260D01*
X215192Y175217D01*
X215108Y175181D01*
X215076Y175155D01*
X215056Y175144D01*
X215033Y175121D01*
X214977Y175076D01*
X214652Y174751D01*
X195271Y174751D01*
X195181Y174737D01*
X195090Y174729D01*
X195061Y174717D01*
X195029Y174712D01*
X194948Y174669D01*
X194864Y174633D01*
X194832Y174607D01*
X194811Y174596D01*
X194789Y174573D01*
X194733Y174528D01*
X192698Y172493D01*
X188302Y172493D01*
X185193Y175602D01*
X185193Y179998D01*
X188302Y183107D01*
X192698Y183107D01*
X194733Y181072D01*
X194807Y181019D01*
X194877Y180959D01*
X194907Y180947D01*
X194933Y180928D01*
X195020Y180901D01*
X195105Y180867D01*
X195146Y180863D01*
X195168Y180856D01*
X195200Y180857D01*
X195271Y180849D01*
X211811Y180849D01*
X211901Y180863D01*
X211992Y180871D01*
X212022Y180883D01*
X212054Y180888D01*
X212135Y180931D01*
X212219Y180967D01*
X212251Y180993D01*
X212271Y181004D01*
X212294Y181027D01*
X212350Y181072D01*
X214175Y182897D01*
X214414Y182897D01*
X214434Y182900D01*
X214453Y182898D01*
X214555Y182920D01*
X214657Y182936D01*
X214674Y182946D01*
X214694Y182950D01*
X214783Y183003D01*
X214874Y183052D01*
X214888Y183066D01*
X214905Y183076D01*
X214972Y183155D01*
X215044Y183230D01*
X215052Y183248D01*
X215065Y183263D01*
X215104Y183359D01*
X215147Y183453D01*
X215149Y183473D01*
X215157Y183491D01*
X215175Y183658D01*
X215175Y184416D01*
X215161Y184506D01*
X215153Y184597D01*
X215141Y184627D01*
X215136Y184659D01*
X215093Y184740D01*
X215057Y184824D01*
X215031Y184856D01*
X215020Y184876D01*
X214997Y184899D01*
X214952Y184955D01*
X214667Y185240D01*
X214332Y185819D01*
X214159Y186466D01*
X214159Y188301D01*
X223462Y188301D01*
X223481Y188304D01*
X223501Y188302D01*
X223603Y188324D01*
X223705Y188340D01*
X223722Y188350D01*
X223742Y188354D01*
X223831Y188407D01*
X223922Y188456D01*
X223936Y188470D01*
X223953Y188480D01*
X224020Y188559D01*
X224091Y188634D01*
X224100Y188652D01*
X224113Y188667D01*
X224151Y188763D01*
X224195Y188857D01*
X224197Y188877D01*
X224204Y188895D01*
X224217Y188819D01*
X224226Y188802D01*
X224230Y188782D01*
X224283Y188693D01*
X224332Y188602D01*
X224346Y188588D01*
X224356Y188571D01*
X224435Y188504D01*
X224510Y188432D01*
X224528Y188424D01*
X224543Y188411D01*
X224640Y188372D01*
X224733Y188329D01*
X224753Y188327D01*
X224771Y188319D01*
X224938Y188301D01*
X234241Y188301D01*
X234241Y186466D01*
X234064Y185807D01*
X234052Y185688D01*
X234039Y185571D01*
X234040Y185566D01*
X234040Y185562D01*
X234066Y185447D01*
X234092Y185330D01*
X234094Y185327D01*
X234095Y185323D01*
X234157Y185221D01*
X234218Y185119D01*
X234221Y185116D01*
X234223Y185113D01*
X234314Y185037D01*
X234405Y184959D01*
X234409Y184958D01*
X234412Y184955D01*
X234521Y184912D01*
X234633Y184867D01*
X234638Y184867D01*
X234641Y184865D01*
X234655Y184865D01*
X234800Y184849D01*
X238563Y184849D01*
X254340Y169072D01*
X254414Y169019D01*
X254483Y168959D01*
X254513Y168947D01*
X254540Y168928D01*
X254627Y168901D01*
X254711Y168867D01*
X254752Y168863D01*
X254775Y168856D01*
X254807Y168857D01*
X254878Y168849D01*
X270252Y168849D01*
X276077Y163024D01*
X276151Y162971D01*
X276221Y162911D01*
X276251Y162899D01*
X276277Y162880D01*
X276364Y162853D01*
X276449Y162819D01*
X276490Y162815D01*
X276512Y162808D01*
X276544Y162809D01*
X276616Y162801D01*
X288250Y162801D01*
X288321Y162812D01*
X288392Y162814D01*
X288441Y162832D01*
X288493Y162840D01*
X288556Y162874D01*
X288623Y162899D01*
X288664Y162931D01*
X288710Y162956D01*
X288759Y163008D01*
X288815Y163052D01*
X288844Y163096D01*
X288879Y163134D01*
X288910Y163199D01*
X288948Y163259D01*
X288961Y163310D01*
X288983Y163357D01*
X288991Y163428D01*
X289008Y163498D01*
X289004Y163550D01*
X289010Y163601D01*
X288995Y163672D01*
X288989Y163743D01*
X288969Y163791D01*
X288958Y163842D01*
X288921Y163903D01*
X288893Y163969D01*
X288848Y164025D01*
X288832Y164053D01*
X288814Y164068D01*
X288788Y164100D01*
X280618Y172270D01*
X280544Y172323D01*
X280475Y172383D01*
X280445Y172395D01*
X280418Y172414D01*
X280331Y172441D01*
X280247Y172475D01*
X280206Y172479D01*
X280183Y172486D01*
X280151Y172485D01*
X280080Y172493D01*
X277202Y172493D01*
X274093Y175602D01*
X274093Y179998D01*
X277202Y183107D01*
X281598Y183107D01*
X284707Y179998D01*
X284707Y177120D01*
X284709Y177104D01*
X284708Y177091D01*
X284722Y177026D01*
X284729Y176939D01*
X284741Y176909D01*
X284746Y176877D01*
X284759Y176853D01*
X284760Y176850D01*
X284768Y176837D01*
X284789Y176797D01*
X284825Y176713D01*
X284851Y176681D01*
X284862Y176660D01*
X284885Y176638D01*
X284930Y176582D01*
X293140Y168372D01*
X293214Y168319D01*
X293283Y168259D01*
X293313Y168247D01*
X293340Y168228D01*
X293427Y168201D01*
X293511Y168167D01*
X293552Y168163D01*
X293575Y168156D01*
X293607Y168157D01*
X293678Y168149D01*
X299414Y168149D01*
X299434Y168152D01*
X299453Y168150D01*
X299555Y168172D01*
X299657Y168188D01*
X299674Y168198D01*
X299694Y168202D01*
X299783Y168255D01*
X299874Y168304D01*
X299888Y168318D01*
X299905Y168328D01*
X299972Y168407D01*
X300044Y168482D01*
X300052Y168500D01*
X300065Y168515D01*
X300104Y168611D01*
X300147Y168705D01*
X300149Y168725D01*
X300157Y168743D01*
X300175Y168910D01*
X300175Y169536D01*
X300191Y169598D01*
X300221Y169696D01*
X300221Y169716D01*
X300226Y169736D01*
X300218Y169839D01*
X300215Y169942D01*
X300208Y169961D01*
X300207Y169981D01*
X300175Y170054D01*
X300175Y176416D01*
X300161Y176506D01*
X300153Y176597D01*
X300141Y176627D01*
X300136Y176659D01*
X300093Y176740D01*
X300057Y176824D01*
X300031Y176856D01*
X300020Y176876D01*
X299997Y176899D01*
X299952Y176955D01*
X299667Y177240D01*
X299332Y177819D01*
X299159Y178466D01*
X299159Y180301D01*
X308462Y180301D01*
X308481Y180304D01*
X308501Y180302D01*
X308603Y180324D01*
X308705Y180340D01*
X308722Y180350D01*
X308742Y180354D01*
X308831Y180407D01*
X308922Y180456D01*
X308936Y180470D01*
X308953Y180480D01*
X309020Y180559D01*
X309091Y180634D01*
X309100Y180652D01*
X309113Y180667D01*
X309151Y180763D01*
X309195Y180857D01*
X309197Y180877D01*
X309204Y180895D01*
X309217Y180819D01*
X309226Y180802D01*
X309230Y180782D01*
X309283Y180693D01*
X309332Y180602D01*
X309346Y180588D01*
X309356Y180571D01*
X309435Y180504D01*
X309510Y180432D01*
X309528Y180424D01*
X309543Y180411D01*
X309640Y180372D01*
X309733Y180329D01*
X309753Y180327D01*
X309771Y180319D01*
X309938Y180301D01*
X319241Y180301D01*
X319241Y178465D01*
X319068Y177819D01*
X318733Y177240D01*
X318448Y176955D01*
X318395Y176881D01*
X318335Y176811D01*
X318323Y176781D01*
X318304Y176755D01*
X318277Y176668D01*
X318243Y176583D01*
X318239Y176542D01*
X318232Y176520D01*
X318233Y176488D01*
X318225Y176416D01*
X318225Y170064D01*
X318209Y170002D01*
X318179Y169903D01*
X318179Y169883D01*
X318174Y169864D01*
X318182Y169761D01*
X318185Y169658D01*
X318192Y169639D01*
X318193Y169619D01*
X318225Y169545D01*
X318225Y162064D01*
X318209Y162002D01*
X318179Y161903D01*
X318179Y161883D01*
X318174Y161864D01*
X318182Y161761D01*
X318185Y161658D01*
X318192Y161639D01*
X318193Y161619D01*
X318234Y161524D01*
X318239Y161510D01*
X318248Y161469D01*
X318264Y161367D01*
X318274Y161350D01*
X318278Y161330D01*
X318331Y161241D01*
X318380Y161150D01*
X318394Y161136D01*
X318404Y161119D01*
X318483Y161052D01*
X318558Y160980D01*
X318576Y160972D01*
X318591Y160959D01*
X318687Y160920D01*
X318781Y160877D01*
X318801Y160875D01*
X318819Y160867D01*
X318986Y160849D01*
X364163Y160849D01*
X447549Y77463D01*
X447549Y67564D01*
X447568Y67449D01*
X447585Y67333D01*
X447587Y67327D01*
X447588Y67321D01*
X447643Y67219D01*
X447696Y67114D01*
X447701Y67109D01*
X447704Y67104D01*
X447788Y67024D01*
X447872Y66942D01*
X447878Y66938D01*
X447882Y66935D01*
X447899Y66927D01*
X448019Y66861D01*
X449680Y66173D01*
X450820Y65033D01*
X450878Y64991D01*
X450930Y64942D01*
X450977Y64920D01*
X451019Y64889D01*
X451088Y64868D01*
X451153Y64838D01*
X451205Y64832D01*
X451255Y64817D01*
X451326Y64819D01*
X451397Y64811D01*
X451448Y64822D01*
X451500Y64823D01*
X451568Y64848D01*
X451638Y64863D01*
X451683Y64890D01*
X451731Y64908D01*
X451787Y64953D01*
X451849Y64989D01*
X451883Y65029D01*
X451923Y65061D01*
X451962Y65122D01*
X452009Y65176D01*
X452028Y65225D01*
X452056Y65268D01*
X452074Y65338D01*
X452101Y65404D01*
X452109Y65476D01*
X452117Y65507D01*
X452115Y65530D01*
X452119Y65571D01*
X452119Y86313D01*
X452105Y86403D01*
X452097Y86494D01*
X452085Y86524D01*
X452080Y86556D01*
X452037Y86636D01*
X452001Y86720D01*
X451975Y86752D01*
X451964Y86773D01*
X451941Y86795D01*
X451896Y86851D01*
X349506Y189241D01*
X349448Y189283D01*
X349396Y189333D01*
X349349Y189355D01*
X349307Y189385D01*
X349238Y189406D01*
X349173Y189436D01*
X349121Y189442D01*
X349071Y189457D01*
X349000Y189455D01*
X348929Y189463D01*
X348878Y189452D01*
X348826Y189451D01*
X348758Y189426D01*
X348688Y189411D01*
X348644Y189384D01*
X348595Y189366D01*
X348539Y189322D01*
X348477Y189285D01*
X348443Y189245D01*
X348403Y189213D01*
X348364Y189152D01*
X348317Y189098D01*
X348298Y189050D01*
X348270Y189006D01*
X348252Y188936D01*
X348225Y188870D01*
X348217Y188798D01*
X348209Y188767D01*
X348211Y188744D01*
X348207Y188703D01*
X348207Y188302D01*
X345098Y185193D01*
X340702Y185193D01*
X338667Y187228D01*
X338593Y187281D01*
X338523Y187341D01*
X338493Y187353D01*
X338467Y187372D01*
X338380Y187399D01*
X338295Y187433D01*
X338254Y187437D01*
X338232Y187444D01*
X338200Y187443D01*
X338129Y187451D01*
X322048Y187451D01*
X319524Y189975D01*
X319466Y190017D01*
X319414Y190066D01*
X319367Y190088D01*
X319325Y190118D01*
X319256Y190139D01*
X319191Y190170D01*
X319139Y190175D01*
X319089Y190191D01*
X319018Y190189D01*
X318947Y190197D01*
X318896Y190186D01*
X318844Y190184D01*
X318776Y190160D01*
X318706Y190144D01*
X318661Y190118D01*
X318613Y190100D01*
X318557Y190055D01*
X318495Y190018D01*
X318461Y189979D01*
X318421Y189946D01*
X318382Y189886D01*
X318335Y189831D01*
X318316Y189783D01*
X318288Y189739D01*
X318270Y189670D01*
X318243Y189603D01*
X318235Y189532D01*
X318227Y189501D01*
X318229Y189477D01*
X318225Y189436D01*
X318225Y187184D01*
X318239Y187094D01*
X318247Y187003D01*
X318259Y186973D01*
X318264Y186941D01*
X318307Y186860D01*
X318343Y186776D01*
X318369Y186744D01*
X318380Y186724D01*
X318403Y186701D01*
X318448Y186645D01*
X318733Y186360D01*
X319068Y185781D01*
X319241Y185134D01*
X319241Y183299D01*
X309938Y183299D01*
X309919Y183296D01*
X309899Y183298D01*
X309797Y183276D01*
X309695Y183260D01*
X309678Y183250D01*
X309658Y183246D01*
X309569Y183193D01*
X309478Y183144D01*
X309464Y183130D01*
X309447Y183120D01*
X309380Y183041D01*
X309309Y182966D01*
X309300Y182948D01*
X309287Y182933D01*
X309249Y182837D01*
X309205Y182743D01*
X309203Y182723D01*
X309196Y182705D01*
X309183Y182781D01*
X309174Y182798D01*
X309170Y182818D01*
X309117Y182907D01*
X309068Y182998D01*
X309054Y183012D01*
X309044Y183029D01*
X308965Y183096D01*
X308890Y183168D01*
X308872Y183176D01*
X308857Y183189D01*
X308760Y183228D01*
X308667Y183271D01*
X308647Y183273D01*
X308629Y183281D01*
X308462Y183299D01*
X299159Y183299D01*
X299159Y185134D01*
X299332Y185781D01*
X299667Y186360D01*
X299952Y186645D01*
X300005Y186719D01*
X300065Y186789D01*
X300077Y186819D01*
X300096Y186845D01*
X300123Y186932D01*
X300157Y187017D01*
X300161Y187058D01*
X300168Y187080D01*
X300167Y187112D01*
X300175Y187184D01*
X300175Y193536D01*
X300191Y193598D01*
X300221Y193696D01*
X300221Y193716D01*
X300226Y193736D01*
X300218Y193839D01*
X300215Y193942D01*
X300208Y193961D01*
X300207Y193981D01*
X300175Y194054D01*
X300175Y201536D01*
X300191Y201598D01*
X300221Y201696D01*
X300221Y201716D01*
X300226Y201736D01*
X300218Y201839D01*
X300215Y201942D01*
X300208Y201961D01*
X300207Y201981D01*
X300175Y202054D01*
X300175Y209432D01*
X301068Y210325D01*
X317332Y210325D01*
X318225Y209432D01*
X318225Y207658D01*
X318228Y207638D01*
X318226Y207619D01*
X318248Y207517D01*
X318264Y207415D01*
X318274Y207398D01*
X318278Y207378D01*
X318331Y207289D01*
X318380Y207198D01*
X318394Y207184D01*
X318404Y207167D01*
X318483Y207100D01*
X318558Y207028D01*
X318576Y207020D01*
X318591Y207007D01*
X318687Y206968D01*
X318781Y206925D01*
X318801Y206923D01*
X318819Y206915D01*
X318986Y206897D01*
X319225Y206897D01*
X319650Y206472D01*
X319724Y206419D01*
X319794Y206359D01*
X319824Y206347D01*
X319850Y206328D01*
X319937Y206301D01*
X320022Y206267D01*
X320063Y206263D01*
X320085Y206256D01*
X320117Y206257D01*
X320189Y206249D01*
X325429Y206249D01*
X325519Y206263D01*
X325610Y206271D01*
X325639Y206283D01*
X325671Y206288D01*
X325752Y206331D01*
X325836Y206367D01*
X325868Y206393D01*
X325889Y206404D01*
X325911Y206427D01*
X325967Y206472D01*
X328002Y208507D01*
X328403Y208507D01*
X328474Y208518D01*
X328545Y208520D01*
X328594Y208538D01*
X328646Y208546D01*
X328709Y208580D01*
X328776Y208605D01*
X328817Y208637D01*
X328863Y208662D01*
X328912Y208714D01*
X328968Y208758D01*
X328997Y208802D01*
X329033Y208840D01*
X329063Y208905D01*
X329101Y208965D01*
X329114Y209016D01*
X329136Y209063D01*
X329144Y209134D01*
X329162Y209204D01*
X329157Y209256D01*
X329163Y209307D01*
X329148Y209378D01*
X329142Y209449D01*
X329122Y209497D01*
X329111Y209548D01*
X329074Y209609D01*
X329046Y209675D01*
X329001Y209731D01*
X328985Y209759D01*
X328967Y209774D01*
X328941Y209806D01*
X327151Y211596D01*
X327151Y288036D01*
X327132Y288151D01*
X327115Y288267D01*
X327113Y288273D01*
X327112Y288279D01*
X327057Y288381D01*
X327004Y288486D01*
X326999Y288491D01*
X326996Y288496D01*
X326912Y288576D01*
X326828Y288658D01*
X326822Y288662D01*
X326818Y288665D01*
X326801Y288673D01*
X326681Y288739D01*
X325020Y289427D01*
X322447Y292000D01*
X321055Y295361D01*
X321055Y314239D01*
X322447Y317600D01*
X325020Y320173D01*
X328381Y321565D01*
X332019Y321565D01*
X335380Y320173D01*
X337953Y317600D01*
X339345Y314239D01*
X339345Y295361D01*
X337953Y292000D01*
X335380Y289427D01*
X333719Y288739D01*
X333619Y288678D01*
X333519Y288618D01*
X333515Y288613D01*
X333510Y288610D01*
X333435Y288520D01*
X333359Y288431D01*
X333357Y288425D01*
X333353Y288420D01*
X333311Y288312D01*
X333267Y288203D01*
X333266Y288195D01*
X333265Y288191D01*
X333264Y288172D01*
X333249Y288036D01*
X333249Y214437D01*
X333256Y214393D01*
X333256Y214392D01*
X333257Y214384D01*
X333263Y214347D01*
X333271Y214256D01*
X333283Y214226D01*
X333288Y214195D01*
X333306Y214162D01*
X333308Y214151D01*
X333333Y214110D01*
X333367Y214030D01*
X333393Y213998D01*
X333404Y213977D01*
X333424Y213958D01*
X333434Y213940D01*
X333448Y213928D01*
X333472Y213899D01*
X456208Y91163D01*
X458217Y89154D01*
X458217Y37498D01*
X450182Y29463D01*
X438818Y29463D01*
G37*
%LPD*%
%LPC*%
G36*
X235068Y211275D02*
X235068Y211275D01*
X234175Y212168D01*
X234175Y228432D01*
X235103Y229360D01*
X235133Y229364D01*
X235150Y229374D01*
X235170Y229378D01*
X235259Y229431D01*
X235350Y229480D01*
X235364Y229494D01*
X235381Y229504D01*
X235448Y229583D01*
X235520Y229658D01*
X235528Y229676D01*
X235541Y229691D01*
X235580Y229787D01*
X235623Y229881D01*
X235625Y229901D01*
X235633Y229919D01*
X235651Y230086D01*
X235651Y239963D01*
X235770Y240082D01*
X235823Y240156D01*
X235883Y240225D01*
X235895Y240255D01*
X235914Y240282D01*
X235941Y240369D01*
X235975Y240453D01*
X235979Y240494D01*
X235986Y240517D01*
X235985Y240549D01*
X235993Y240620D01*
X235993Y243498D01*
X239102Y246607D01*
X243498Y246607D01*
X246607Y243498D01*
X246607Y239102D01*
X243498Y235993D01*
X242510Y235993D01*
X242490Y235990D01*
X242471Y235992D01*
X242369Y235970D01*
X242267Y235954D01*
X242250Y235944D01*
X242230Y235940D01*
X242141Y235887D01*
X242050Y235838D01*
X242036Y235824D01*
X242019Y235814D01*
X241952Y235735D01*
X241880Y235660D01*
X241872Y235642D01*
X241859Y235627D01*
X241820Y235531D01*
X241777Y235437D01*
X241775Y235417D01*
X241767Y235399D01*
X241749Y235232D01*
X241749Y230086D01*
X241752Y230066D01*
X241750Y230047D01*
X241772Y229945D01*
X241788Y229843D01*
X241798Y229826D01*
X241802Y229806D01*
X241855Y229717D01*
X241904Y229626D01*
X241918Y229612D01*
X241928Y229595D01*
X242007Y229528D01*
X242082Y229456D01*
X242100Y229448D01*
X242115Y229435D01*
X242211Y229396D01*
X242305Y229353D01*
X242325Y229351D01*
X242343Y229343D01*
X242392Y229338D01*
X242397Y229334D01*
X242498Y229309D01*
X242597Y229279D01*
X242617Y229279D01*
X242636Y229274D01*
X242739Y229282D01*
X242842Y229285D01*
X242861Y229292D01*
X242881Y229293D01*
X242955Y229325D01*
X244842Y229325D01*
X244862Y229328D01*
X244881Y229326D01*
X244983Y229348D01*
X245085Y229364D01*
X245102Y229374D01*
X245122Y229378D01*
X245211Y229431D01*
X245302Y229480D01*
X245316Y229494D01*
X245333Y229504D01*
X245400Y229583D01*
X245472Y229658D01*
X245480Y229676D01*
X245493Y229691D01*
X245532Y229787D01*
X245575Y229881D01*
X245577Y229901D01*
X245585Y229919D01*
X245603Y230086D01*
X245603Y230325D01*
X250728Y235450D01*
X250781Y235524D01*
X250841Y235594D01*
X250853Y235624D01*
X250872Y235650D01*
X250899Y235737D01*
X250933Y235822D01*
X250937Y235863D01*
X250944Y235885D01*
X250943Y235917D01*
X250951Y235989D01*
X250951Y236529D01*
X250949Y236540D01*
X250950Y236547D01*
X250942Y236584D01*
X250937Y236619D01*
X250929Y236710D01*
X250917Y236739D01*
X250912Y236771D01*
X250869Y236852D01*
X250833Y236936D01*
X250807Y236968D01*
X250796Y236989D01*
X250773Y237011D01*
X250728Y237067D01*
X248693Y239102D01*
X248693Y243498D01*
X251802Y246607D01*
X252203Y246607D01*
X252274Y246618D01*
X252345Y246620D01*
X252394Y246638D01*
X252446Y246646D01*
X252509Y246680D01*
X252576Y246705D01*
X252617Y246737D01*
X252663Y246762D01*
X252712Y246814D01*
X252768Y246858D01*
X252797Y246902D01*
X252833Y246940D01*
X252863Y247005D01*
X252901Y247065D01*
X252914Y247116D01*
X252936Y247163D01*
X252944Y247234D01*
X252962Y247304D01*
X252957Y247356D01*
X252963Y247407D01*
X252948Y247478D01*
X252942Y247549D01*
X252922Y247597D01*
X252911Y247648D01*
X252874Y247709D01*
X252846Y247775D01*
X252801Y247831D01*
X252785Y247859D01*
X252767Y247874D01*
X252741Y247906D01*
X194674Y305973D01*
X194600Y306026D01*
X194531Y306086D01*
X194501Y306098D01*
X194474Y306117D01*
X194388Y306144D01*
X194303Y306178D01*
X194262Y306182D01*
X194239Y306189D01*
X194207Y306188D01*
X194136Y306196D01*
X184666Y306196D01*
X182657Y308205D01*
X177859Y313004D01*
X175850Y315012D01*
X175850Y345388D01*
X193683Y363221D01*
X244583Y363221D01*
X294356Y313448D01*
X294414Y313406D01*
X294466Y313357D01*
X294513Y313335D01*
X294555Y313304D01*
X294624Y313283D01*
X294689Y313253D01*
X294741Y313247D01*
X294791Y313232D01*
X294862Y313234D01*
X294933Y313226D01*
X294984Y313237D01*
X295036Y313238D01*
X295104Y313263D01*
X295174Y313278D01*
X295219Y313305D01*
X295267Y313323D01*
X295323Y313368D01*
X295385Y313404D01*
X295419Y313444D01*
X295459Y313476D01*
X295498Y313537D01*
X295545Y313591D01*
X295564Y313640D01*
X295592Y313683D01*
X295610Y313753D01*
X295637Y313819D01*
X295645Y313891D01*
X295653Y313922D01*
X295651Y313945D01*
X295655Y313986D01*
X295655Y314239D01*
X297047Y317600D01*
X299620Y320173D01*
X302981Y321565D01*
X306619Y321565D01*
X309980Y320173D01*
X312553Y317600D01*
X313945Y314239D01*
X313945Y295361D01*
X312553Y292000D01*
X309980Y289427D01*
X306619Y288035D01*
X302981Y288035D01*
X299620Y289427D01*
X297047Y292000D01*
X295655Y295361D01*
X295655Y303210D01*
X295641Y303300D01*
X295633Y303391D01*
X295621Y303421D01*
X295616Y303453D01*
X295573Y303533D01*
X295537Y303617D01*
X295511Y303649D01*
X295500Y303670D01*
X295477Y303692D01*
X295432Y303748D01*
X257250Y341931D01*
X257192Y341972D01*
X257140Y342022D01*
X257092Y342044D01*
X257050Y342074D01*
X256982Y342095D01*
X256916Y342126D01*
X256865Y342131D01*
X256815Y342147D01*
X256743Y342145D01*
X256672Y342153D01*
X256621Y342142D01*
X256569Y342140D01*
X256502Y342116D01*
X256432Y342100D01*
X256387Y342074D01*
X256338Y342056D01*
X256282Y342011D01*
X256221Y341974D01*
X256187Y341935D01*
X256146Y341902D01*
X256107Y341842D01*
X256061Y341787D01*
X256041Y341739D01*
X256013Y341695D01*
X255996Y341626D01*
X255969Y341559D01*
X255961Y341488D01*
X255953Y341457D01*
X255955Y341433D01*
X255950Y341392D01*
X255950Y269377D01*
X255965Y269287D01*
X255972Y269196D01*
X255985Y269166D01*
X255990Y269134D01*
X256033Y269053D01*
X256068Y268969D01*
X256094Y268937D01*
X256105Y268917D01*
X256128Y268894D01*
X256173Y268838D01*
X280440Y244572D01*
X282449Y242563D01*
X282449Y230086D01*
X282452Y230066D01*
X282450Y230047D01*
X282472Y229945D01*
X282488Y229843D01*
X282498Y229826D01*
X282502Y229806D01*
X282555Y229717D01*
X282604Y229626D01*
X282618Y229612D01*
X282628Y229595D01*
X282707Y229528D01*
X282782Y229456D01*
X282800Y229448D01*
X282815Y229435D01*
X282911Y229396D01*
X283005Y229353D01*
X283025Y229351D01*
X283043Y229343D01*
X283210Y229325D01*
X290436Y229325D01*
X290498Y229309D01*
X290597Y229279D01*
X290617Y229279D01*
X290636Y229274D01*
X290739Y229282D01*
X290842Y229285D01*
X290861Y229292D01*
X290881Y229293D01*
X290955Y229325D01*
X298332Y229325D01*
X299225Y228432D01*
X299225Y212168D01*
X298332Y211275D01*
X290964Y211275D01*
X290902Y211291D01*
X290804Y211321D01*
X290784Y211321D01*
X290764Y211326D01*
X290661Y211318D01*
X290558Y211315D01*
X290539Y211308D01*
X290519Y211307D01*
X290446Y211275D01*
X282964Y211275D01*
X282902Y211291D01*
X282804Y211321D01*
X282784Y211321D01*
X282764Y211326D01*
X282661Y211318D01*
X282558Y211315D01*
X282539Y211308D01*
X282519Y211307D01*
X282446Y211275D01*
X274964Y211275D01*
X274902Y211291D01*
X274804Y211321D01*
X274784Y211321D01*
X274764Y211326D01*
X274661Y211318D01*
X274558Y211315D01*
X274539Y211308D01*
X274519Y211307D01*
X274446Y211275D01*
X266964Y211275D01*
X266902Y211291D01*
X266804Y211321D01*
X266784Y211321D01*
X266764Y211326D01*
X266661Y211318D01*
X266558Y211315D01*
X266539Y211308D01*
X266519Y211307D01*
X266446Y211275D01*
X258964Y211275D01*
X258902Y211291D01*
X258804Y211321D01*
X258784Y211321D01*
X258764Y211326D01*
X258661Y211318D01*
X258558Y211315D01*
X258539Y211308D01*
X258519Y211307D01*
X258446Y211275D01*
X250964Y211275D01*
X250902Y211291D01*
X250804Y211321D01*
X250784Y211321D01*
X250764Y211326D01*
X250661Y211318D01*
X250558Y211315D01*
X250539Y211308D01*
X250519Y211307D01*
X250446Y211275D01*
X242964Y211275D01*
X242902Y211291D01*
X242804Y211321D01*
X242784Y211321D01*
X242764Y211326D01*
X242661Y211318D01*
X242558Y211315D01*
X242539Y211308D01*
X242519Y211307D01*
X242446Y211275D01*
X235068Y211275D01*
G37*
%LPD*%
%LPC*%
G36*
X146718Y29463D02*
X146718Y29463D01*
X136562Y39619D01*
X136525Y39646D01*
X136494Y39680D01*
X136426Y39717D01*
X136363Y39763D01*
X136319Y39776D01*
X136279Y39798D01*
X136202Y39812D01*
X136128Y39835D01*
X136082Y39834D01*
X136037Y39842D01*
X135960Y39831D01*
X135882Y39829D01*
X135839Y39813D01*
X135793Y39806D01*
X135724Y39771D01*
X135651Y39744D01*
X135615Y39715D01*
X135574Y39695D01*
X135519Y39639D01*
X135459Y39590D01*
X135434Y39552D01*
X135402Y39519D01*
X135336Y39399D01*
X135326Y39384D01*
X135325Y39379D01*
X135321Y39372D01*
X134753Y38000D01*
X132180Y35427D01*
X128819Y34035D01*
X125181Y34035D01*
X121820Y35427D01*
X119247Y38000D01*
X117855Y41361D01*
X117855Y60239D01*
X119247Y63600D01*
X121820Y66173D01*
X125181Y67565D01*
X128819Y67565D01*
X132180Y66173D01*
X134753Y63600D01*
X136145Y60239D01*
X136145Y48975D01*
X136159Y48885D01*
X136167Y48794D01*
X136179Y48765D01*
X136184Y48733D01*
X136227Y48652D01*
X136263Y48568D01*
X136289Y48536D01*
X136300Y48515D01*
X136323Y48493D01*
X136368Y48437D01*
X140940Y43865D01*
X140998Y43823D01*
X141050Y43774D01*
X141097Y43752D01*
X141139Y43721D01*
X141208Y43700D01*
X141273Y43670D01*
X141325Y43664D01*
X141375Y43649D01*
X141446Y43651D01*
X141517Y43643D01*
X141568Y43654D01*
X141620Y43655D01*
X141688Y43680D01*
X141758Y43695D01*
X141803Y43722D01*
X141851Y43740D01*
X141907Y43785D01*
X141969Y43821D01*
X142003Y43861D01*
X142043Y43894D01*
X142082Y43954D01*
X142129Y44008D01*
X142148Y44057D01*
X142176Y44100D01*
X142194Y44170D01*
X142221Y44237D01*
X142229Y44308D01*
X142237Y44339D01*
X142235Y44362D01*
X142239Y44403D01*
X142239Y49277D01*
X151638Y49277D01*
X151658Y49280D01*
X151677Y49278D01*
X151779Y49300D01*
X151881Y49317D01*
X151898Y49326D01*
X151918Y49330D01*
X152007Y49383D01*
X152098Y49432D01*
X152112Y49446D01*
X152129Y49456D01*
X152196Y49535D01*
X152267Y49610D01*
X152276Y49628D01*
X152289Y49643D01*
X152327Y49739D01*
X152371Y49833D01*
X152373Y49853D01*
X152381Y49871D01*
X152399Y50038D01*
X152399Y50801D01*
X153162Y50801D01*
X153182Y50804D01*
X153201Y50802D01*
X153303Y50824D01*
X153405Y50841D01*
X153422Y50850D01*
X153442Y50854D01*
X153531Y50907D01*
X153622Y50956D01*
X153636Y50970D01*
X153653Y50980D01*
X153720Y51059D01*
X153791Y51134D01*
X153800Y51152D01*
X153813Y51167D01*
X153852Y51263D01*
X153895Y51357D01*
X153897Y51377D01*
X153905Y51395D01*
X153923Y51562D01*
X153923Y68466D01*
X154779Y68331D01*
X156300Y67836D01*
X157725Y67110D01*
X159019Y66170D01*
X159101Y66089D01*
X159117Y66077D01*
X159129Y66062D01*
X159216Y66006D01*
X159300Y65945D01*
X159319Y65939D01*
X159336Y65929D01*
X159436Y65903D01*
X159535Y65873D01*
X159555Y65873D01*
X159575Y65869D01*
X159678Y65877D01*
X159781Y65879D01*
X159800Y65886D01*
X159820Y65888D01*
X159915Y65928D01*
X160012Y65964D01*
X160028Y65976D01*
X160046Y65984D01*
X160177Y66089D01*
X162028Y67940D01*
X171648Y77560D01*
X171690Y77618D01*
X171739Y77670D01*
X171761Y77717D01*
X171792Y77759D01*
X171813Y77828D01*
X171843Y77893D01*
X171849Y77945D01*
X171864Y77995D01*
X171862Y78066D01*
X171870Y78137D01*
X171859Y78188D01*
X171858Y78240D01*
X171833Y78308D01*
X171818Y78378D01*
X171791Y78423D01*
X171773Y78471D01*
X171728Y78527D01*
X171692Y78589D01*
X171652Y78623D01*
X171620Y78663D01*
X171559Y78702D01*
X171505Y78749D01*
X171456Y78768D01*
X171413Y78796D01*
X171343Y78814D01*
X171277Y78841D01*
X171205Y78849D01*
X171174Y78857D01*
X171151Y78855D01*
X171110Y78859D01*
X169823Y78859D01*
X169823Y87377D01*
X177341Y87377D01*
X177341Y85090D01*
X177352Y85019D01*
X177354Y84948D01*
X177372Y84899D01*
X177380Y84847D01*
X177414Y84784D01*
X177439Y84717D01*
X177471Y84676D01*
X177496Y84630D01*
X177547Y84581D01*
X177592Y84525D01*
X177636Y84496D01*
X177674Y84461D01*
X177739Y84430D01*
X177799Y84392D01*
X177850Y84379D01*
X177897Y84357D01*
X177968Y84349D01*
X178038Y84332D01*
X178090Y84336D01*
X178141Y84330D01*
X178212Y84345D01*
X178283Y84351D01*
X178331Y84371D01*
X178382Y84382D01*
X178443Y84419D01*
X178509Y84447D01*
X178565Y84492D01*
X178593Y84508D01*
X178608Y84526D01*
X178640Y84552D01*
X179052Y84964D01*
X179106Y85038D01*
X179165Y85107D01*
X179177Y85137D01*
X179196Y85164D01*
X179223Y85251D01*
X179257Y85335D01*
X179261Y85376D01*
X179268Y85399D01*
X179267Y85431D01*
X179275Y85502D01*
X179275Y97032D01*
X180168Y97925D01*
X186690Y97925D01*
X186710Y97928D01*
X186729Y97926D01*
X186831Y97948D01*
X186933Y97964D01*
X186950Y97974D01*
X186970Y97978D01*
X187059Y98031D01*
X187150Y98080D01*
X187164Y98094D01*
X187181Y98104D01*
X187248Y98183D01*
X187320Y98258D01*
X187328Y98276D01*
X187341Y98291D01*
X187380Y98387D01*
X187423Y98481D01*
X187425Y98501D01*
X187433Y98519D01*
X187451Y98686D01*
X187451Y109529D01*
X187437Y109619D01*
X187429Y109710D01*
X187417Y109739D01*
X187412Y109771D01*
X187369Y109852D01*
X187333Y109936D01*
X187307Y109968D01*
X187296Y109989D01*
X187273Y110011D01*
X187228Y110067D01*
X185193Y112102D01*
X185193Y116498D01*
X188302Y119607D01*
X192698Y119607D01*
X195807Y116498D01*
X195807Y112102D01*
X193772Y110067D01*
X193719Y109993D01*
X193659Y109923D01*
X193647Y109893D01*
X193628Y109867D01*
X193601Y109780D01*
X193567Y109695D01*
X193563Y109654D01*
X193556Y109632D01*
X193557Y109600D01*
X193549Y109529D01*
X193549Y98686D01*
X193552Y98666D01*
X193550Y98647D01*
X193572Y98545D01*
X193588Y98443D01*
X193598Y98426D01*
X193602Y98406D01*
X193655Y98317D01*
X193704Y98226D01*
X193718Y98212D01*
X193728Y98195D01*
X193807Y98128D01*
X193882Y98056D01*
X193900Y98048D01*
X193915Y98035D01*
X194011Y97996D01*
X194105Y97953D01*
X194125Y97951D01*
X194143Y97943D01*
X194310Y97925D01*
X194432Y97925D01*
X195325Y97032D01*
X195325Y80768D01*
X194432Y79875D01*
X182902Y79875D01*
X182812Y79861D01*
X182721Y79853D01*
X182691Y79841D01*
X182659Y79836D01*
X182579Y79793D01*
X182495Y79757D01*
X182463Y79731D01*
X182442Y79720D01*
X182420Y79697D01*
X182364Y79652D01*
X166340Y63628D01*
X166287Y63554D01*
X166227Y63485D01*
X166215Y63455D01*
X166196Y63428D01*
X166169Y63341D01*
X166135Y63257D01*
X166131Y63216D01*
X166124Y63193D01*
X166125Y63161D01*
X166117Y63090D01*
X166117Y37498D01*
X158082Y29463D01*
X146718Y29463D01*
G37*
%LPD*%
%LPC*%
G36*
X391502Y159793D02*
X391502Y159793D01*
X388393Y162902D01*
X388393Y165780D01*
X388379Y165870D01*
X388371Y165961D01*
X388359Y165991D01*
X388354Y166023D01*
X388311Y166103D01*
X388275Y166187D01*
X388249Y166219D01*
X388238Y166240D01*
X388215Y166262D01*
X388170Y166318D01*
X352551Y201937D01*
X352551Y288036D01*
X352532Y288151D01*
X352515Y288267D01*
X352513Y288273D01*
X352512Y288279D01*
X352457Y288381D01*
X352404Y288486D01*
X352399Y288491D01*
X352396Y288496D01*
X352312Y288576D01*
X352228Y288658D01*
X352222Y288662D01*
X352218Y288665D01*
X352201Y288673D01*
X352081Y288739D01*
X350420Y289427D01*
X347847Y292000D01*
X346455Y295361D01*
X346455Y314239D01*
X347847Y317600D01*
X350420Y320173D01*
X353781Y321565D01*
X357419Y321565D01*
X360780Y320173D01*
X363353Y317600D01*
X364745Y314239D01*
X364745Y295361D01*
X363353Y292000D01*
X360780Y289427D01*
X359119Y288739D01*
X359019Y288678D01*
X358919Y288618D01*
X358915Y288613D01*
X358910Y288610D01*
X358835Y288520D01*
X358759Y288431D01*
X358757Y288425D01*
X358753Y288420D01*
X358711Y288312D01*
X358667Y288203D01*
X358666Y288195D01*
X358665Y288191D01*
X358664Y288172D01*
X358649Y288036D01*
X358649Y204778D01*
X358663Y204688D01*
X358671Y204597D01*
X358683Y204567D01*
X358688Y204535D01*
X358731Y204455D01*
X358767Y204371D01*
X358793Y204339D01*
X358804Y204318D01*
X358827Y204296D01*
X358872Y204240D01*
X392482Y170630D01*
X392556Y170577D01*
X392625Y170517D01*
X392655Y170505D01*
X392682Y170486D01*
X392769Y170459D01*
X392853Y170425D01*
X392894Y170421D01*
X392917Y170414D01*
X392949Y170415D01*
X393020Y170407D01*
X395898Y170407D01*
X399007Y167298D01*
X399007Y162902D01*
X395898Y159793D01*
X391502Y159793D01*
G37*
%LPD*%
%LPC*%
G36*
X124516Y310768D02*
X124516Y310768D01*
X120665Y312363D01*
X117717Y315311D01*
X116122Y319162D01*
X116122Y341238D01*
X117717Y345089D01*
X120665Y348037D01*
X124516Y349632D01*
X128684Y349632D01*
X132535Y348037D01*
X135483Y345089D01*
X137078Y341238D01*
X137078Y319162D01*
X135483Y315311D01*
X132535Y312363D01*
X128684Y310768D01*
X124516Y310768D01*
G37*
%LPD*%
%LPC*%
G36*
X379181Y288035D02*
X379181Y288035D01*
X375820Y289427D01*
X373247Y292000D01*
X371855Y295361D01*
X371855Y314239D01*
X373247Y317600D01*
X375820Y320173D01*
X379181Y321565D01*
X382819Y321565D01*
X386180Y320173D01*
X388753Y317600D01*
X390145Y314239D01*
X390145Y295361D01*
X388753Y292000D01*
X386180Y289427D01*
X382819Y288035D01*
X379181Y288035D01*
G37*
%LPD*%
%LPC*%
G36*
X409661Y244855D02*
X409661Y244855D01*
X406300Y246247D01*
X403727Y248820D01*
X402335Y252181D01*
X402335Y255819D01*
X403727Y259180D01*
X406300Y261753D01*
X409661Y263145D01*
X428539Y263145D01*
X431900Y261753D01*
X434473Y259180D01*
X435865Y255819D01*
X435865Y252181D01*
X434473Y248820D01*
X431900Y246247D01*
X428539Y244855D01*
X409661Y244855D01*
G37*
%LPD*%
%LPC*%
G36*
X409661Y219455D02*
X409661Y219455D01*
X406300Y220847D01*
X403727Y223420D01*
X402335Y226781D01*
X402335Y230419D01*
X403727Y233780D01*
X406300Y236353D01*
X409661Y237745D01*
X428539Y237745D01*
X431900Y236353D01*
X434473Y233780D01*
X435865Y230419D01*
X435865Y226781D01*
X434473Y223420D01*
X431900Y220847D01*
X428539Y219455D01*
X409661Y219455D01*
G37*
%LPD*%
%LPC*%
G36*
X175981Y34035D02*
X175981Y34035D01*
X172620Y35427D01*
X170047Y38000D01*
X168655Y41361D01*
X168655Y60239D01*
X170047Y63600D01*
X172620Y66173D01*
X175981Y67565D01*
X179619Y67565D01*
X182980Y66173D01*
X185553Y63600D01*
X186945Y60239D01*
X186945Y41361D01*
X185553Y38000D01*
X182980Y35427D01*
X179619Y34035D01*
X175981Y34035D01*
G37*
%LPD*%
%LPC*%
G36*
X366481Y34035D02*
X366481Y34035D01*
X363120Y35427D01*
X360547Y38000D01*
X359155Y41361D01*
X359155Y60239D01*
X360547Y63600D01*
X363120Y66173D01*
X366481Y67565D01*
X370119Y67565D01*
X373480Y66173D01*
X376053Y63600D01*
X377445Y60239D01*
X377445Y41361D01*
X376053Y38000D01*
X373480Y35427D01*
X370119Y34035D01*
X366481Y34035D01*
G37*
%LPD*%
%LPC*%
G36*
X409661Y194055D02*
X409661Y194055D01*
X406300Y195447D01*
X403727Y198020D01*
X402335Y201381D01*
X402335Y205019D01*
X403727Y208380D01*
X406300Y210953D01*
X409661Y212345D01*
X428539Y212345D01*
X431900Y210953D01*
X434473Y208380D01*
X435865Y205019D01*
X435865Y201381D01*
X434473Y198020D01*
X431900Y195447D01*
X428539Y194055D01*
X409661Y194055D01*
G37*
%LPD*%
%LPC*%
G36*
X391881Y34035D02*
X391881Y34035D01*
X388520Y35427D01*
X385947Y38000D01*
X384555Y41361D01*
X384555Y60239D01*
X385947Y63600D01*
X388520Y66173D01*
X391881Y67565D01*
X395519Y67565D01*
X398880Y66173D01*
X401453Y63600D01*
X402845Y60239D01*
X402845Y41361D01*
X401453Y38000D01*
X398880Y35427D01*
X395519Y34035D01*
X391881Y34035D01*
G37*
%LPD*%
%LPC*%
G36*
X224183Y190781D02*
X224183Y190781D01*
X224174Y190798D01*
X224170Y190818D01*
X224117Y190907D01*
X224068Y190998D01*
X224054Y191012D01*
X224044Y191029D01*
X223965Y191096D01*
X223890Y191168D01*
X223872Y191176D01*
X223857Y191189D01*
X223760Y191228D01*
X223667Y191271D01*
X223647Y191273D01*
X223629Y191281D01*
X223462Y191299D01*
X214159Y191299D01*
X214159Y193134D01*
X214332Y193781D01*
X214667Y194360D01*
X214952Y194645D01*
X215005Y194719D01*
X215065Y194789D01*
X215077Y194819D01*
X215096Y194845D01*
X215123Y194932D01*
X215157Y195017D01*
X215161Y195058D01*
X215168Y195080D01*
X215167Y195112D01*
X215175Y195184D01*
X215175Y201536D01*
X215191Y201598D01*
X215221Y201697D01*
X215221Y201717D01*
X215226Y201736D01*
X215218Y201839D01*
X215215Y201942D01*
X215208Y201961D01*
X215207Y201981D01*
X215175Y202055D01*
X215175Y209432D01*
X216068Y210325D01*
X232332Y210325D01*
X233225Y209432D01*
X233225Y202064D01*
X233209Y202002D01*
X233179Y201904D01*
X233179Y201884D01*
X233174Y201864D01*
X233182Y201761D01*
X233185Y201658D01*
X233192Y201639D01*
X233193Y201619D01*
X233225Y201546D01*
X233225Y195184D01*
X233239Y195094D01*
X233247Y195003D01*
X233259Y194973D01*
X233264Y194941D01*
X233307Y194860D01*
X233343Y194776D01*
X233369Y194744D01*
X233380Y194724D01*
X233403Y194701D01*
X233448Y194645D01*
X233733Y194360D01*
X234068Y193781D01*
X234241Y193134D01*
X234241Y191299D01*
X224938Y191299D01*
X224919Y191296D01*
X224899Y191298D01*
X224797Y191276D01*
X224695Y191260D01*
X224678Y191250D01*
X224658Y191246D01*
X224569Y191193D01*
X224478Y191144D01*
X224464Y191130D01*
X224447Y191120D01*
X224380Y191041D01*
X224309Y190966D01*
X224300Y190948D01*
X224287Y190933D01*
X224249Y190837D01*
X224205Y190743D01*
X224203Y190723D01*
X224196Y190705D01*
X224183Y190781D01*
G37*
%LPD*%
%LPC*%
G36*
X78123Y331723D02*
X78123Y331723D01*
X78123Y350550D01*
X79292Y350365D01*
X81012Y349806D01*
X82624Y348984D01*
X84088Y347921D01*
X85367Y346642D01*
X86431Y345178D01*
X87252Y343566D01*
X87811Y341845D01*
X88094Y340058D01*
X88094Y331723D01*
X78123Y331723D01*
G37*
%LPD*%
%LPC*%
G36*
X78123Y328677D02*
X78123Y328677D01*
X88094Y328677D01*
X88094Y320342D01*
X87811Y318555D01*
X87252Y316834D01*
X86431Y315222D01*
X85367Y313758D01*
X84088Y312479D01*
X82624Y311416D01*
X81012Y310594D01*
X79292Y310035D01*
X78123Y309850D01*
X78123Y328677D01*
G37*
%LPD*%
%LPC*%
G36*
X65106Y331723D02*
X65106Y331723D01*
X65106Y340058D01*
X65389Y341845D01*
X65948Y343566D01*
X66769Y345178D01*
X67833Y346642D01*
X69112Y347921D01*
X70576Y348984D01*
X72188Y349806D01*
X73908Y350365D01*
X75077Y350550D01*
X75077Y331723D01*
X65106Y331723D01*
G37*
%LPD*%
%LPC*%
G36*
X73908Y310035D02*
X73908Y310035D01*
X72188Y310594D01*
X70576Y311416D01*
X69112Y312479D01*
X67833Y313758D01*
X66769Y315222D01*
X65948Y316834D01*
X65389Y318555D01*
X65106Y320342D01*
X65106Y328677D01*
X75077Y328677D01*
X75077Y309850D01*
X73908Y310035D01*
G37*
%LPD*%
%LPC*%
G36*
X420623Y179323D02*
X420623Y179323D01*
X420623Y187961D01*
X427520Y187961D01*
X429099Y187711D01*
X430620Y187216D01*
X432045Y186490D01*
X433339Y185550D01*
X434470Y184419D01*
X435410Y183125D01*
X436136Y181700D01*
X436631Y180179D01*
X436766Y179323D01*
X420623Y179323D01*
G37*
%LPD*%
%LPC*%
G36*
X401434Y179323D02*
X401434Y179323D01*
X401569Y180179D01*
X402064Y181700D01*
X402790Y183125D01*
X403730Y184419D01*
X404861Y185550D01*
X406155Y186490D01*
X407580Y187216D01*
X409101Y187711D01*
X410680Y187961D01*
X417577Y187961D01*
X417577Y179323D01*
X401434Y179323D01*
G37*
%LPD*%
%LPC*%
G36*
X420623Y49277D02*
X420623Y49277D01*
X429261Y49277D01*
X429261Y42380D01*
X429011Y40801D01*
X428516Y39280D01*
X427790Y37855D01*
X426850Y36561D01*
X425719Y35430D01*
X424425Y34490D01*
X423000Y33764D01*
X421479Y33269D01*
X420623Y33134D01*
X420623Y49277D01*
G37*
%LPD*%
%LPC*%
G36*
X420623Y167639D02*
X420623Y167639D01*
X420623Y176277D01*
X436766Y176277D01*
X436631Y175421D01*
X436136Y173900D01*
X435410Y172475D01*
X434470Y171181D01*
X433339Y170050D01*
X432045Y169110D01*
X430620Y168384D01*
X429099Y167889D01*
X427520Y167639D01*
X420623Y167639D01*
G37*
%LPD*%
%LPC*%
G36*
X142239Y52323D02*
X142239Y52323D01*
X142239Y59220D01*
X142489Y60799D01*
X142984Y62320D01*
X143710Y63745D01*
X144650Y65039D01*
X145781Y66170D01*
X147075Y67110D01*
X148500Y67836D01*
X150021Y68331D01*
X150877Y68466D01*
X150877Y52323D01*
X142239Y52323D01*
G37*
%LPD*%
%LPC*%
G36*
X410680Y167639D02*
X410680Y167639D01*
X409101Y167889D01*
X407580Y168384D01*
X406155Y169110D01*
X404861Y170050D01*
X403730Y171181D01*
X402790Y172475D01*
X402064Y173900D01*
X401569Y175421D01*
X401434Y176277D01*
X417577Y176277D01*
X417577Y167639D01*
X410680Y167639D01*
G37*
%LPD*%
%LPC*%
G36*
X416721Y33269D02*
X416721Y33269D01*
X415200Y33764D01*
X413775Y34490D01*
X412481Y35430D01*
X411350Y36561D01*
X410410Y37855D01*
X409684Y39280D01*
X409189Y40801D01*
X408939Y42380D01*
X408939Y49277D01*
X417577Y49277D01*
X417577Y33134D01*
X416721Y33269D01*
G37*
%LPD*%
%LPC*%
G36*
X65023Y150723D02*
X65023Y150723D01*
X65023Y158241D01*
X71334Y158241D01*
X71981Y158068D01*
X72560Y157733D01*
X73033Y157260D01*
X73368Y156681D01*
X73541Y156034D01*
X73541Y150723D01*
X65023Y150723D01*
G37*
%LPD*%
%LPC*%
G36*
X169823Y90423D02*
X169823Y90423D01*
X169823Y98941D01*
X175134Y98941D01*
X175781Y98768D01*
X176360Y98433D01*
X176833Y97960D01*
X177168Y97381D01*
X177341Y96734D01*
X177341Y90423D01*
X169823Y90423D01*
G37*
%LPD*%
%LPC*%
G36*
X65023Y207923D02*
X65023Y207923D01*
X65023Y215441D01*
X71334Y215441D01*
X71981Y215268D01*
X72560Y214933D01*
X73033Y214460D01*
X73368Y213881D01*
X73541Y213234D01*
X73541Y207923D01*
X65023Y207923D01*
G37*
%LPD*%
%LPC*%
G36*
X53459Y150723D02*
X53459Y150723D01*
X53459Y156034D01*
X53632Y156681D01*
X53967Y157260D01*
X54440Y157733D01*
X55019Y158068D01*
X55666Y158241D01*
X61977Y158241D01*
X61977Y150723D01*
X53459Y150723D01*
G37*
%LPD*%
%LPC*%
G36*
X53459Y207923D02*
X53459Y207923D01*
X53459Y213234D01*
X53632Y213881D01*
X53967Y214460D01*
X54440Y214933D01*
X55019Y215268D01*
X55666Y215441D01*
X61977Y215441D01*
X61977Y207923D01*
X53459Y207923D01*
G37*
%LPD*%
%LPC*%
G36*
X65023Y140159D02*
X65023Y140159D01*
X65023Y147677D01*
X73541Y147677D01*
X73541Y142366D01*
X73368Y141719D01*
X73033Y141140D01*
X72560Y140667D01*
X71981Y140332D01*
X71334Y140159D01*
X65023Y140159D01*
G37*
%LPD*%
%LPC*%
G36*
X65023Y197359D02*
X65023Y197359D01*
X65023Y204877D01*
X73541Y204877D01*
X73541Y199566D01*
X73368Y198919D01*
X73033Y198340D01*
X72560Y197867D01*
X71981Y197532D01*
X71334Y197359D01*
X65023Y197359D01*
G37*
%LPD*%
%LPC*%
G36*
X159259Y90423D02*
X159259Y90423D01*
X159259Y96734D01*
X159432Y97381D01*
X159767Y97960D01*
X160240Y98433D01*
X160819Y98768D01*
X161466Y98941D01*
X166777Y98941D01*
X166777Y90423D01*
X159259Y90423D01*
G37*
%LPD*%
%LPC*%
G36*
X55666Y197359D02*
X55666Y197359D01*
X55019Y197532D01*
X54440Y197867D01*
X53967Y198340D01*
X53632Y198919D01*
X53459Y199566D01*
X53459Y204877D01*
X61977Y204877D01*
X61977Y197359D01*
X55666Y197359D01*
G37*
%LPD*%
%LPC*%
G36*
X55666Y140159D02*
X55666Y140159D01*
X55019Y140332D01*
X54440Y140667D01*
X53967Y141140D01*
X53632Y141719D01*
X53459Y142366D01*
X53459Y147677D01*
X61977Y147677D01*
X61977Y140159D01*
X55666Y140159D01*
G37*
%LPD*%
%LPC*%
G36*
X161466Y78859D02*
X161466Y78859D01*
X160819Y79032D01*
X160240Y79367D01*
X159767Y79840D01*
X159432Y80419D01*
X159259Y81066D01*
X159259Y87377D01*
X166777Y87377D01*
X166777Y78859D01*
X161466Y78859D01*
G37*
%LPD*%
%LPC*%
G36*
X76599Y330199D02*
X76599Y330199D01*
X76599Y330201D01*
X76601Y330201D01*
X76601Y330199D01*
X76599Y330199D01*
G37*
%LPD*%
%LPC*%
G36*
X419099Y177799D02*
X419099Y177799D01*
X419099Y177801D01*
X419101Y177801D01*
X419101Y177799D01*
X419099Y177799D01*
G37*
%LPD*%
%LPC*%
G36*
X63499Y149199D02*
X63499Y149199D01*
X63499Y149201D01*
X63501Y149201D01*
X63501Y149199D01*
X63499Y149199D01*
G37*
%LPD*%
%LPC*%
G36*
X168299Y88899D02*
X168299Y88899D01*
X168299Y88901D01*
X168301Y88901D01*
X168301Y88899D01*
X168299Y88899D01*
G37*
%LPD*%
%LPC*%
G36*
X63499Y206399D02*
X63499Y206399D01*
X63499Y206401D01*
X63501Y206401D01*
X63501Y206399D01*
X63499Y206399D01*
G37*
%LPD*%
D10*
X187300Y88900D03*
X168300Y88900D03*
D11*
X63500Y225400D03*
X63500Y206400D03*
X63500Y130200D03*
X63500Y149200D03*
D12*
X224200Y205800D03*
X224200Y197800D03*
X224200Y189800D03*
X224200Y181800D03*
X224200Y173800D03*
X224200Y165800D03*
X224200Y157800D03*
X224200Y149800D03*
D13*
X238700Y135300D03*
X246700Y135300D03*
X254700Y135300D03*
X262700Y135300D03*
X270700Y135300D03*
X278700Y135300D03*
X286700Y135300D03*
X294700Y135300D03*
D12*
X309200Y149800D03*
X309200Y157800D03*
X309200Y165800D03*
X309200Y173800D03*
X309200Y181800D03*
X309200Y189800D03*
X309200Y197800D03*
X309200Y205800D03*
D13*
X294700Y220300D03*
X286700Y220300D03*
X278700Y220300D03*
X270700Y220300D03*
X262700Y220300D03*
X254700Y220300D03*
X246700Y220300D03*
X238700Y220300D03*
D14*
X114300Y225300D03*
X114300Y130300D03*
D15*
X411480Y177800D02*
X426720Y177800D01*
X426720Y203200D02*
X411480Y203200D01*
X411480Y228600D02*
X426720Y228600D01*
X426720Y254000D02*
X411480Y254000D01*
X444500Y58420D02*
X444500Y43180D01*
X419100Y43180D02*
X419100Y58420D01*
X393700Y58420D02*
X393700Y43180D01*
X368300Y43180D02*
X368300Y58420D01*
X342900Y58420D02*
X342900Y43180D01*
X317500Y43180D02*
X317500Y58420D01*
X292100Y58420D02*
X292100Y43180D01*
X266700Y43180D02*
X266700Y58420D01*
X241300Y58420D02*
X241300Y43180D01*
X215900Y43180D02*
X215900Y58420D01*
D16*
X126600Y321247D02*
X126600Y339154D01*
X76600Y339154D02*
X76600Y321247D01*
X240900Y321247D02*
X240900Y339154D01*
X190900Y339154D02*
X190900Y321247D01*
D15*
X304800Y312420D02*
X304800Y297180D01*
X330200Y297180D02*
X330200Y312420D01*
X355600Y312420D02*
X355600Y297180D01*
X381000Y297180D02*
X381000Y312420D01*
X127000Y58420D02*
X127000Y43180D01*
X152400Y43180D02*
X152400Y58420D01*
X177800Y58420D02*
X177800Y43180D01*
D17*
X63500Y177800D02*
X63500Y206400D01*
X63500Y177800D02*
X63500Y149200D01*
X300438Y183752D02*
X307248Y183752D01*
X309200Y181800D01*
X228600Y189800D02*
X224200Y189800D01*
X228600Y189800D02*
X294390Y189800D01*
X300438Y183752D01*
X183670Y197330D02*
X140100Y240900D01*
X183670Y197330D02*
X190500Y190500D01*
X227900Y190500D02*
X228600Y189800D01*
X227900Y190500D02*
X190500Y190500D01*
X215855Y173800D02*
X224200Y173800D01*
X187671Y170970D02*
X183670Y174971D01*
X213025Y170970D02*
X215855Y173800D01*
X213025Y170970D02*
X187671Y170970D01*
X183670Y174971D02*
X183670Y197330D01*
X309200Y181800D02*
X351600Y181800D01*
X355600Y177800D01*
D18*
X355600Y177800D03*
D17*
X168300Y88900D02*
X76200Y88900D01*
X38100Y127000D01*
X38100Y152400D01*
X63500Y177800D01*
X52952Y217638D02*
X52952Y233163D01*
X63500Y207090D02*
X63500Y206400D01*
X63500Y207090D02*
X52952Y217638D01*
X140100Y266700D02*
X76600Y330200D01*
X140100Y266700D02*
X140100Y240900D01*
X76600Y256811D02*
X52952Y233163D01*
X76600Y256811D02*
X76600Y330200D01*
X419100Y177800D02*
X419100Y130425D01*
X459740Y89785D01*
X459740Y36867D01*
X450813Y27940D01*
X438187Y27940D01*
X429260Y36867D01*
X429260Y40640D01*
X419100Y50800D01*
X168300Y88900D02*
X152400Y73000D01*
X152400Y50800D01*
X275038Y159752D02*
X307248Y159752D01*
X309200Y157800D01*
X253300Y165800D02*
X224200Y165800D01*
X253300Y165800D02*
X268990Y165800D01*
X275038Y159752D01*
X237300Y181800D02*
X224200Y181800D01*
X237300Y181800D02*
X253300Y165800D01*
D18*
X190500Y177800D03*
D17*
X222248Y179848D02*
X224200Y181800D01*
X222248Y179848D02*
X215438Y179848D01*
X213390Y177800D02*
X190500Y177800D01*
X213390Y177800D02*
X215438Y179848D01*
X309200Y157800D02*
X362900Y157800D01*
X444500Y76200D01*
X444500Y50800D01*
D18*
X190500Y114300D03*
D17*
X190500Y92100D01*
X187300Y88900D01*
X156819Y32512D02*
X147981Y32512D01*
X156819Y32512D02*
X163068Y38761D01*
X129693Y50800D02*
X127000Y50800D01*
X163068Y64668D02*
X187300Y88900D01*
X147981Y32512D02*
X129693Y50800D01*
X163068Y38761D02*
X163068Y64668D01*
X278700Y220300D02*
X279400Y221000D01*
X279400Y241300D01*
X252902Y344125D02*
X245871Y351155D01*
X245745Y351155D01*
X241300Y355600D01*
X252902Y344125D02*
X252902Y267799D01*
X241300Y355600D02*
X203200Y355600D01*
X190900Y343300D01*
X252902Y267799D02*
X279400Y241300D01*
X190900Y330200D02*
X190900Y343300D01*
X270700Y243534D02*
X270700Y220300D01*
X270700Y243534D02*
X241300Y272934D01*
X241300Y329800D01*
X240900Y330200D01*
X222248Y159752D02*
X224200Y157800D01*
X222248Y159752D02*
X179848Y159752D01*
X114200Y225400D02*
X63500Y225400D01*
X114200Y225400D02*
X114300Y225300D01*
X179848Y159752D01*
X224200Y149800D02*
X224200Y148000D01*
X206500Y130300D01*
X114200Y130200D02*
X63500Y130200D01*
X114200Y130200D02*
X114300Y130300D01*
X206500Y130300D01*
X238700Y238700D02*
X241300Y241300D01*
D18*
X241300Y241300D03*
D17*
X238700Y238700D02*
X238700Y220300D01*
D18*
X254000Y241300D03*
D17*
X254000Y234411D01*
X251095Y231505D01*
X248652Y229063D02*
X248652Y222252D01*
X246700Y220300D01*
X248652Y229063D02*
X251095Y231505D01*
X280652Y133348D02*
X280652Y113838D01*
X330200Y64290D02*
X330200Y63500D01*
X342900Y50800D01*
X330200Y64290D02*
X280652Y113838D01*
X280652Y133348D02*
X278700Y135300D01*
X317500Y68990D02*
X317500Y50800D01*
X270700Y115790D02*
X270700Y135300D01*
X270700Y115790D02*
X317500Y68990D01*
X292100Y76200D02*
X262700Y105600D01*
X292100Y76200D02*
X292100Y50800D01*
X262700Y105600D02*
X262700Y135300D01*
X266700Y88900D02*
X266700Y50800D01*
X266700Y88900D02*
X254700Y100900D01*
X254700Y135300D01*
X246700Y135300D02*
X246700Y56200D01*
X241300Y50800D01*
X215900Y50800D02*
X215900Y112500D01*
X238700Y135300D01*
D18*
X330200Y203200D03*
D17*
X318611Y203200D01*
X317963Y203848D01*
X311152Y203848D01*
X309200Y205800D01*
D18*
X342900Y190500D03*
D17*
X317963Y195848D02*
X311152Y195848D01*
X309200Y197800D01*
X323311Y190500D02*
X342900Y190500D01*
X323311Y190500D02*
X317963Y195848D01*
X185929Y309245D02*
X178899Y316275D01*
X178899Y344125D01*
X298692Y304800D02*
X304800Y304800D01*
X194946Y360172D02*
X178899Y344125D01*
X194946Y360172D02*
X243320Y360172D01*
X298692Y304800D01*
X262700Y242259D02*
X262700Y220300D01*
X262700Y242259D02*
X195714Y309245D01*
X185929Y309245D01*
X455168Y38761D02*
X448919Y32512D01*
X440081Y32512D01*
X433832Y38761D01*
X303138Y112052D02*
X288652Y126538D01*
X330200Y212859D02*
X330200Y304800D01*
X288652Y133348D02*
X288652Y126538D01*
X288652Y133348D02*
X286700Y135300D01*
X433832Y58775D02*
X433832Y38761D01*
X433832Y58775D02*
X380555Y112052D01*
X303138Y112052D01*
X330200Y212859D02*
X455168Y87891D01*
X455168Y38761D01*
X309200Y135300D02*
X294700Y135300D01*
X309200Y135300D02*
X317500Y127000D01*
X368300Y127000D01*
D18*
X368300Y127000D03*
X393700Y165100D03*
D17*
X355600Y203200D01*
X355600Y304800D01*
X345500Y149800D02*
X309200Y149800D01*
X345500Y149800D02*
X355600Y139700D01*
D18*
X355600Y139700D03*
X279400Y177800D03*
D17*
X308500Y165100D02*
X309200Y165800D01*
X308500Y165100D02*
X292100Y165100D01*
X279400Y177800D01*
M02*
