M48
;GenerationSoftware,Autodesk,EAGLE,9.6.2*%
;CreationDate,2022-04-24T19:25:39Z*%
FMAT,2
ICI,OFF
METRIC,TZ,000.000
T4C0.350
T3C1.016
T2C1.194
T1C2.540
%
G90
M71
T1
X48260Y2540
X2540Y2540
X48260Y38100
X2540Y38100
T2
X24090Y33020
X7660Y33020
X12660Y33020
X19090Y33020
T3
X41910Y5080
X30480Y30480
X33020Y30480
X35560Y30480
X38100Y30480
X12700Y5080
X15240Y5080
X41910Y17780
X41910Y20320
X41910Y22860
X41910Y25400
X44450Y5080
X17780Y5080
X39370Y5080
X36830Y5080
X34290Y5080
X31750Y5080
X29210Y5080
X26670Y5080
X24130Y5080
X21590Y5080
T4
X19050Y17780
X19050Y11430
X24130Y24130
X25400Y24130
X33020Y20320
X34290Y19050
X39370Y16510
X36830Y12700
X27940Y17780
X35560Y13970
X35560Y17780
M30