G04 EAGLE Gerber RS-274X export*
G75*
%MOMM*%
%FSLAX34Y34*%
%LPD*%
%IN*%
%IPPOS*%
%AMOC8*
5,1,8,0,0,1.08239X$1,22.5*%
G01*
%ADD10C,0.254000*%


D10*
X0Y0D02*
X507800Y0D01*
X507800Y403100D01*
X0Y403100D01*
X0Y0D01*
X495300Y24901D02*
X495222Y23906D01*
X495066Y22920D01*
X494833Y21950D01*
X494524Y21001D01*
X494142Y20079D01*
X493689Y19190D01*
X493168Y18339D01*
X492581Y17531D01*
X491933Y16773D01*
X491227Y16067D01*
X490469Y15419D01*
X489661Y14832D01*
X488810Y14311D01*
X487921Y13858D01*
X486999Y13476D01*
X486050Y13167D01*
X485080Y12934D01*
X484094Y12778D01*
X483099Y12700D01*
X482101Y12700D01*
X481106Y12778D01*
X480120Y12934D01*
X479150Y13167D01*
X478201Y13476D01*
X477279Y13858D01*
X476390Y14311D01*
X475539Y14832D01*
X474731Y15419D01*
X473973Y16067D01*
X473267Y16773D01*
X472619Y17531D01*
X472032Y18339D01*
X471511Y19190D01*
X471058Y20079D01*
X470676Y21001D01*
X470367Y21950D01*
X470134Y22920D01*
X469978Y23906D01*
X469900Y24901D01*
X469900Y25899D01*
X469978Y26894D01*
X470134Y27880D01*
X470367Y28850D01*
X470676Y29799D01*
X471058Y30721D01*
X471511Y31610D01*
X472032Y32461D01*
X472619Y33269D01*
X473267Y34027D01*
X473973Y34733D01*
X474731Y35381D01*
X475539Y35968D01*
X476390Y36489D01*
X477279Y36942D01*
X478201Y37324D01*
X479150Y37633D01*
X480120Y37866D01*
X481106Y38022D01*
X482101Y38100D01*
X483099Y38100D01*
X484094Y38022D01*
X485080Y37866D01*
X486050Y37633D01*
X486999Y37324D01*
X487921Y36942D01*
X488810Y36489D01*
X489661Y35968D01*
X490469Y35381D01*
X491227Y34733D01*
X491933Y34027D01*
X492581Y33269D01*
X493168Y32461D01*
X493689Y31610D01*
X494142Y30721D01*
X494524Y29799D01*
X494833Y28850D01*
X495066Y27880D01*
X495222Y26894D01*
X495300Y25899D01*
X495300Y24901D01*
X38100Y24901D02*
X38022Y23906D01*
X37866Y22920D01*
X37633Y21950D01*
X37324Y21001D01*
X36942Y20079D01*
X36489Y19190D01*
X35968Y18339D01*
X35381Y17531D01*
X34733Y16773D01*
X34027Y16067D01*
X33269Y15419D01*
X32461Y14832D01*
X31610Y14311D01*
X30721Y13858D01*
X29799Y13476D01*
X28850Y13167D01*
X27880Y12934D01*
X26894Y12778D01*
X25899Y12700D01*
X24901Y12700D01*
X23906Y12778D01*
X22920Y12934D01*
X21950Y13167D01*
X21001Y13476D01*
X20079Y13858D01*
X19190Y14311D01*
X18339Y14832D01*
X17531Y15419D01*
X16773Y16067D01*
X16067Y16773D01*
X15419Y17531D01*
X14832Y18339D01*
X14311Y19190D01*
X13858Y20079D01*
X13476Y21001D01*
X13167Y21950D01*
X12934Y22920D01*
X12778Y23906D01*
X12700Y24901D01*
X12700Y25899D01*
X12778Y26894D01*
X12934Y27880D01*
X13167Y28850D01*
X13476Y29799D01*
X13858Y30721D01*
X14311Y31610D01*
X14832Y32461D01*
X15419Y33269D01*
X16067Y34027D01*
X16773Y34733D01*
X17531Y35381D01*
X18339Y35968D01*
X19190Y36489D01*
X20079Y36942D01*
X21001Y37324D01*
X21950Y37633D01*
X22920Y37866D01*
X23906Y38022D01*
X24901Y38100D01*
X25899Y38100D01*
X26894Y38022D01*
X27880Y37866D01*
X28850Y37633D01*
X29799Y37324D01*
X30721Y36942D01*
X31610Y36489D01*
X32461Y35968D01*
X33269Y35381D01*
X34027Y34733D01*
X34733Y34027D01*
X35381Y33269D01*
X35968Y32461D01*
X36489Y31610D01*
X36942Y30721D01*
X37324Y29799D01*
X37633Y28850D01*
X37866Y27880D01*
X38022Y26894D01*
X38100Y25899D01*
X38100Y24901D01*
X495300Y380501D02*
X495222Y379506D01*
X495066Y378520D01*
X494833Y377550D01*
X494524Y376601D01*
X494142Y375679D01*
X493689Y374790D01*
X493168Y373939D01*
X492581Y373131D01*
X491933Y372373D01*
X491227Y371667D01*
X490469Y371019D01*
X489661Y370432D01*
X488810Y369911D01*
X487921Y369458D01*
X486999Y369076D01*
X486050Y368767D01*
X485080Y368534D01*
X484094Y368378D01*
X483099Y368300D01*
X482101Y368300D01*
X481106Y368378D01*
X480120Y368534D01*
X479150Y368767D01*
X478201Y369076D01*
X477279Y369458D01*
X476390Y369911D01*
X475539Y370432D01*
X474731Y371019D01*
X473973Y371667D01*
X473267Y372373D01*
X472619Y373131D01*
X472032Y373939D01*
X471511Y374790D01*
X471058Y375679D01*
X470676Y376601D01*
X470367Y377550D01*
X470134Y378520D01*
X469978Y379506D01*
X469900Y380501D01*
X469900Y381499D01*
X469978Y382494D01*
X470134Y383480D01*
X470367Y384450D01*
X470676Y385399D01*
X471058Y386321D01*
X471511Y387210D01*
X472032Y388061D01*
X472619Y388869D01*
X473267Y389627D01*
X473973Y390333D01*
X474731Y390981D01*
X475539Y391568D01*
X476390Y392089D01*
X477279Y392542D01*
X478201Y392924D01*
X479150Y393233D01*
X480120Y393466D01*
X481106Y393622D01*
X482101Y393700D01*
X483099Y393700D01*
X484094Y393622D01*
X485080Y393466D01*
X486050Y393233D01*
X486999Y392924D01*
X487921Y392542D01*
X488810Y392089D01*
X489661Y391568D01*
X490469Y390981D01*
X491227Y390333D01*
X491933Y389627D01*
X492581Y388869D01*
X493168Y388061D01*
X493689Y387210D01*
X494142Y386321D01*
X494524Y385399D01*
X494833Y384450D01*
X495066Y383480D01*
X495222Y382494D01*
X495300Y381499D01*
X495300Y380501D01*
X38100Y380501D02*
X38022Y379506D01*
X37866Y378520D01*
X37633Y377550D01*
X37324Y376601D01*
X36942Y375679D01*
X36489Y374790D01*
X35968Y373939D01*
X35381Y373131D01*
X34733Y372373D01*
X34027Y371667D01*
X33269Y371019D01*
X32461Y370432D01*
X31610Y369911D01*
X30721Y369458D01*
X29799Y369076D01*
X28850Y368767D01*
X27880Y368534D01*
X26894Y368378D01*
X25899Y368300D01*
X24901Y368300D01*
X23906Y368378D01*
X22920Y368534D01*
X21950Y368767D01*
X21001Y369076D01*
X20079Y369458D01*
X19190Y369911D01*
X18339Y370432D01*
X17531Y371019D01*
X16773Y371667D01*
X16067Y372373D01*
X15419Y373131D01*
X14832Y373939D01*
X14311Y374790D01*
X13858Y375679D01*
X13476Y376601D01*
X13167Y377550D01*
X12934Y378520D01*
X12778Y379506D01*
X12700Y380501D01*
X12700Y381499D01*
X12778Y382494D01*
X12934Y383480D01*
X13167Y384450D01*
X13476Y385399D01*
X13858Y386321D01*
X14311Y387210D01*
X14832Y388061D01*
X15419Y388869D01*
X16067Y389627D01*
X16773Y390333D01*
X17531Y390981D01*
X18339Y391568D01*
X19190Y392089D01*
X20079Y392542D01*
X21001Y392924D01*
X21950Y393233D01*
X22920Y393466D01*
X23906Y393622D01*
X24901Y393700D01*
X25899Y393700D01*
X26894Y393622D01*
X27880Y393466D01*
X28850Y393233D01*
X29799Y392924D01*
X30721Y392542D01*
X31610Y392089D01*
X32461Y391568D01*
X33269Y390981D01*
X34027Y390333D01*
X34733Y389627D01*
X35381Y388869D01*
X35968Y388061D01*
X36489Y387210D01*
X36942Y386321D01*
X37324Y385399D01*
X37633Y384450D01*
X37866Y383480D01*
X38022Y382494D01*
X38100Y381499D01*
X38100Y380501D01*
M02*
