G04 EAGLE Gerber RS-274X export*
G75*
%MOMM*%
%FSLAX34Y34*%
%LPD*%
%INSilkscreen Top*%
%IPPOS*%
%AMOC8*
5,1,8,0,0,1.08239X$1,22.5*%
G01*
%ADD10C,0.152400*%
%ADD11C,0.203200*%
%ADD12C,0.050800*%
%ADD13C,0.101600*%
%ADD14C,0.200000*%
%ADD15C,0.400000*%
%ADD16C,0.127000*%


D10*
X57884Y390793D02*
X60593Y390793D01*
X60593Y381762D01*
X55174Y381762D01*
X55056Y381764D01*
X54938Y381770D01*
X54820Y381779D01*
X54703Y381793D01*
X54586Y381810D01*
X54469Y381831D01*
X54354Y381856D01*
X54239Y381885D01*
X54125Y381918D01*
X54013Y381954D01*
X53902Y381994D01*
X53792Y382037D01*
X53683Y382084D01*
X53576Y382134D01*
X53471Y382189D01*
X53368Y382246D01*
X53267Y382307D01*
X53167Y382371D01*
X53070Y382438D01*
X52975Y382508D01*
X52883Y382582D01*
X52792Y382658D01*
X52705Y382738D01*
X52620Y382820D01*
X52538Y382905D01*
X52458Y382992D01*
X52382Y383083D01*
X52308Y383175D01*
X52238Y383270D01*
X52171Y383367D01*
X52107Y383467D01*
X52046Y383568D01*
X51989Y383671D01*
X51934Y383776D01*
X51884Y383883D01*
X51837Y383992D01*
X51794Y384102D01*
X51754Y384213D01*
X51718Y384325D01*
X51685Y384439D01*
X51656Y384554D01*
X51631Y384669D01*
X51610Y384786D01*
X51593Y384903D01*
X51579Y385020D01*
X51570Y385138D01*
X51564Y385256D01*
X51562Y385374D01*
X51562Y394406D01*
X51564Y394524D01*
X51570Y394642D01*
X51579Y394760D01*
X51593Y394877D01*
X51610Y394994D01*
X51631Y395111D01*
X51656Y395226D01*
X51685Y395341D01*
X51718Y395455D01*
X51754Y395567D01*
X51794Y395678D01*
X51837Y395788D01*
X51884Y395897D01*
X51934Y396004D01*
X51988Y396109D01*
X52046Y396212D01*
X52107Y396313D01*
X52171Y396413D01*
X52238Y396510D01*
X52308Y396605D01*
X52382Y396697D01*
X52458Y396788D01*
X52538Y396875D01*
X52620Y396960D01*
X52705Y397042D01*
X52792Y397122D01*
X52883Y397198D01*
X52975Y397272D01*
X53070Y397342D01*
X53167Y397409D01*
X53267Y397473D01*
X53368Y397534D01*
X53471Y397591D01*
X53576Y397645D01*
X53683Y397696D01*
X53792Y397743D01*
X53902Y397786D01*
X54013Y397826D01*
X54125Y397862D01*
X54239Y397895D01*
X54354Y397924D01*
X54469Y397949D01*
X54586Y397970D01*
X54703Y397987D01*
X54820Y398001D01*
X54938Y398010D01*
X55056Y398016D01*
X55174Y398018D01*
X60593Y398018D01*
X68235Y398018D02*
X68235Y381762D01*
X77266Y381762D02*
X68235Y398018D01*
X77266Y398018D02*
X77266Y381762D01*
X84909Y381762D02*
X84909Y398018D01*
X89424Y398018D01*
X89555Y398016D01*
X89687Y398010D01*
X89818Y398001D01*
X89948Y397987D01*
X90079Y397970D01*
X90208Y397949D01*
X90337Y397925D01*
X90465Y397896D01*
X90593Y397864D01*
X90719Y397828D01*
X90844Y397789D01*
X90969Y397746D01*
X91091Y397699D01*
X91213Y397649D01*
X91333Y397595D01*
X91451Y397538D01*
X91567Y397477D01*
X91682Y397413D01*
X91795Y397346D01*
X91906Y397275D01*
X92014Y397201D01*
X92121Y397124D01*
X92225Y397044D01*
X92327Y396961D01*
X92426Y396876D01*
X92523Y396787D01*
X92617Y396695D01*
X92709Y396601D01*
X92798Y396504D01*
X92883Y396405D01*
X92966Y396303D01*
X93046Y396199D01*
X93123Y396092D01*
X93197Y395984D01*
X93268Y395873D01*
X93335Y395760D01*
X93399Y395645D01*
X93460Y395529D01*
X93517Y395411D01*
X93571Y395291D01*
X93621Y395169D01*
X93668Y395047D01*
X93711Y394922D01*
X93750Y394797D01*
X93786Y394671D01*
X93818Y394543D01*
X93847Y394415D01*
X93871Y394286D01*
X93892Y394157D01*
X93909Y394026D01*
X93923Y393896D01*
X93932Y393765D01*
X93938Y393633D01*
X93940Y393502D01*
X93940Y386278D01*
X93938Y386147D01*
X93932Y386015D01*
X93923Y385884D01*
X93909Y385754D01*
X93892Y385623D01*
X93871Y385494D01*
X93847Y385365D01*
X93818Y385237D01*
X93786Y385109D01*
X93750Y384983D01*
X93711Y384858D01*
X93668Y384733D01*
X93621Y384611D01*
X93571Y384489D01*
X93517Y384369D01*
X93460Y384251D01*
X93399Y384135D01*
X93335Y384020D01*
X93268Y383907D01*
X93197Y383796D01*
X93123Y383688D01*
X93046Y383581D01*
X92966Y383477D01*
X92883Y383375D01*
X92798Y383276D01*
X92709Y383179D01*
X92617Y383085D01*
X92523Y382993D01*
X92426Y382904D01*
X92327Y382819D01*
X92225Y382736D01*
X92121Y382656D01*
X92014Y382579D01*
X91906Y382505D01*
X91795Y382434D01*
X91682Y382367D01*
X91567Y382303D01*
X91451Y382242D01*
X91333Y382185D01*
X91213Y382131D01*
X91091Y382081D01*
X90969Y382034D01*
X90844Y381991D01*
X90719Y381952D01*
X90593Y381916D01*
X90465Y381884D01*
X90337Y381855D01*
X90208Y381831D01*
X90078Y381810D01*
X89948Y381793D01*
X89818Y381779D01*
X89687Y381770D01*
X89555Y381764D01*
X89424Y381762D01*
X84909Y381762D01*
X109398Y381762D02*
X114816Y381762D01*
X114934Y381764D01*
X115052Y381770D01*
X115170Y381779D01*
X115287Y381793D01*
X115404Y381810D01*
X115521Y381831D01*
X115636Y381856D01*
X115751Y381885D01*
X115865Y381918D01*
X115977Y381954D01*
X116088Y381994D01*
X116198Y382037D01*
X116307Y382084D01*
X116414Y382134D01*
X116519Y382189D01*
X116622Y382246D01*
X116723Y382307D01*
X116823Y382371D01*
X116920Y382438D01*
X117015Y382508D01*
X117107Y382582D01*
X117198Y382658D01*
X117285Y382738D01*
X117370Y382820D01*
X117452Y382905D01*
X117532Y382992D01*
X117608Y383083D01*
X117682Y383175D01*
X117752Y383270D01*
X117819Y383367D01*
X117883Y383467D01*
X117944Y383568D01*
X118001Y383671D01*
X118056Y383776D01*
X118106Y383883D01*
X118153Y383992D01*
X118196Y384102D01*
X118236Y384213D01*
X118272Y384325D01*
X118305Y384439D01*
X118334Y384554D01*
X118359Y384669D01*
X118380Y384786D01*
X118397Y384903D01*
X118411Y385020D01*
X118420Y385138D01*
X118426Y385256D01*
X118428Y385374D01*
X118429Y385374D02*
X118429Y387181D01*
X118428Y387181D02*
X118426Y387299D01*
X118420Y387417D01*
X118411Y387535D01*
X118397Y387652D01*
X118380Y387769D01*
X118359Y387886D01*
X118334Y388001D01*
X118305Y388116D01*
X118272Y388230D01*
X118236Y388342D01*
X118196Y388453D01*
X118153Y388563D01*
X118106Y388672D01*
X118056Y388779D01*
X118001Y388884D01*
X117944Y388987D01*
X117883Y389088D01*
X117819Y389188D01*
X117752Y389285D01*
X117682Y389380D01*
X117608Y389472D01*
X117532Y389563D01*
X117452Y389650D01*
X117370Y389735D01*
X117285Y389817D01*
X117198Y389897D01*
X117107Y389973D01*
X117015Y390047D01*
X116920Y390117D01*
X116823Y390184D01*
X116723Y390248D01*
X116622Y390309D01*
X116519Y390366D01*
X116414Y390421D01*
X116307Y390471D01*
X116198Y390518D01*
X116088Y390561D01*
X115977Y390601D01*
X115865Y390637D01*
X115751Y390670D01*
X115636Y390699D01*
X115521Y390724D01*
X115404Y390745D01*
X115287Y390762D01*
X115170Y390776D01*
X115052Y390785D01*
X114934Y390791D01*
X114816Y390793D01*
X109398Y390793D01*
X109398Y398018D01*
X118429Y398018D01*
X124126Y398018D02*
X129544Y381762D01*
X134963Y398018D01*
X171281Y381762D02*
X171399Y381764D01*
X171517Y381770D01*
X171635Y381779D01*
X171752Y381793D01*
X171869Y381810D01*
X171986Y381831D01*
X172101Y381856D01*
X172216Y381885D01*
X172330Y381918D01*
X172442Y381954D01*
X172553Y381994D01*
X172663Y382037D01*
X172772Y382084D01*
X172879Y382134D01*
X172984Y382189D01*
X173087Y382246D01*
X173188Y382307D01*
X173288Y382371D01*
X173385Y382438D01*
X173480Y382508D01*
X173572Y382582D01*
X173663Y382658D01*
X173750Y382738D01*
X173835Y382820D01*
X173917Y382905D01*
X173997Y382992D01*
X174073Y383083D01*
X174147Y383175D01*
X174217Y383270D01*
X174284Y383367D01*
X174348Y383467D01*
X174409Y383568D01*
X174466Y383671D01*
X174521Y383776D01*
X174571Y383883D01*
X174618Y383992D01*
X174661Y384102D01*
X174701Y384213D01*
X174737Y384325D01*
X174770Y384439D01*
X174799Y384554D01*
X174824Y384669D01*
X174845Y384786D01*
X174862Y384903D01*
X174876Y385020D01*
X174885Y385138D01*
X174891Y385256D01*
X174893Y385374D01*
X171281Y381762D02*
X171098Y381764D01*
X170916Y381771D01*
X170734Y381782D01*
X170552Y381797D01*
X170370Y381817D01*
X170189Y381840D01*
X170009Y381869D01*
X169829Y381901D01*
X169650Y381938D01*
X169473Y381979D01*
X169296Y382025D01*
X169120Y382074D01*
X168946Y382128D01*
X168772Y382186D01*
X168601Y382248D01*
X168431Y382314D01*
X168262Y382385D01*
X168095Y382459D01*
X167930Y382537D01*
X167767Y382619D01*
X167606Y382705D01*
X167447Y382795D01*
X167290Y382889D01*
X167136Y382986D01*
X166984Y383087D01*
X166834Y383192D01*
X166687Y383300D01*
X166543Y383411D01*
X166401Y383526D01*
X166262Y383645D01*
X166126Y383767D01*
X165993Y383892D01*
X165863Y384020D01*
X166314Y394406D02*
X166316Y394524D01*
X166322Y394642D01*
X166331Y394760D01*
X166345Y394877D01*
X166362Y394994D01*
X166383Y395111D01*
X166408Y395226D01*
X166437Y395341D01*
X166470Y395455D01*
X166506Y395567D01*
X166546Y395678D01*
X166589Y395788D01*
X166636Y395897D01*
X166686Y396004D01*
X166741Y396109D01*
X166798Y396212D01*
X166859Y396313D01*
X166923Y396413D01*
X166990Y396510D01*
X167060Y396605D01*
X167134Y396697D01*
X167210Y396788D01*
X167290Y396875D01*
X167372Y396960D01*
X167457Y397042D01*
X167544Y397122D01*
X167635Y397198D01*
X167727Y397272D01*
X167822Y397342D01*
X167919Y397409D01*
X168019Y397473D01*
X168120Y397534D01*
X168223Y397592D01*
X168328Y397646D01*
X168435Y397696D01*
X168544Y397743D01*
X168654Y397787D01*
X168765Y397826D01*
X168878Y397862D01*
X168991Y397895D01*
X169106Y397924D01*
X169221Y397949D01*
X169338Y397970D01*
X169455Y397987D01*
X169572Y398001D01*
X169690Y398010D01*
X169808Y398016D01*
X169926Y398018D01*
X170087Y398016D01*
X170249Y398010D01*
X170410Y398001D01*
X170571Y397987D01*
X170731Y397970D01*
X170891Y397949D01*
X171051Y397924D01*
X171210Y397895D01*
X171368Y397863D01*
X171525Y397827D01*
X171681Y397787D01*
X171837Y397743D01*
X171991Y397695D01*
X172144Y397644D01*
X172296Y397590D01*
X172447Y397531D01*
X172596Y397470D01*
X172743Y397404D01*
X172889Y397335D01*
X173034Y397263D01*
X173176Y397187D01*
X173317Y397108D01*
X173456Y397026D01*
X173592Y396940D01*
X173727Y396851D01*
X173860Y396759D01*
X173990Y396663D01*
X168119Y391245D02*
X168018Y391307D01*
X167918Y391372D01*
X167821Y391441D01*
X167726Y391513D01*
X167633Y391587D01*
X167543Y391665D01*
X167455Y391746D01*
X167370Y391829D01*
X167288Y391915D01*
X167209Y392004D01*
X167132Y392095D01*
X167059Y392189D01*
X166988Y392285D01*
X166921Y392383D01*
X166857Y392483D01*
X166796Y392586D01*
X166739Y392690D01*
X166685Y392796D01*
X166635Y392904D01*
X166588Y393013D01*
X166544Y393124D01*
X166504Y393236D01*
X166468Y393350D01*
X166436Y393464D01*
X166407Y393580D01*
X166382Y393696D01*
X166361Y393813D01*
X166344Y393931D01*
X166330Y394049D01*
X166321Y394168D01*
X166315Y394287D01*
X166313Y394406D01*
X173087Y388535D02*
X173188Y388473D01*
X173288Y388408D01*
X173385Y388339D01*
X173480Y388267D01*
X173573Y388193D01*
X173663Y388115D01*
X173751Y388034D01*
X173836Y387951D01*
X173918Y387865D01*
X173997Y387776D01*
X174074Y387685D01*
X174147Y387591D01*
X174218Y387495D01*
X174285Y387397D01*
X174349Y387297D01*
X174410Y387194D01*
X174467Y387090D01*
X174521Y386984D01*
X174571Y386876D01*
X174618Y386767D01*
X174662Y386656D01*
X174702Y386544D01*
X174738Y386430D01*
X174770Y386316D01*
X174799Y386200D01*
X174824Y386084D01*
X174845Y385967D01*
X174862Y385849D01*
X174876Y385731D01*
X174885Y385612D01*
X174891Y385493D01*
X174893Y385374D01*
X173087Y388535D02*
X168120Y391245D01*
X181493Y398018D02*
X181493Y381762D01*
X181493Y398018D02*
X186009Y398018D01*
X186140Y398016D01*
X186272Y398010D01*
X186403Y398001D01*
X186533Y397987D01*
X186664Y397970D01*
X186793Y397949D01*
X186922Y397925D01*
X187050Y397896D01*
X187178Y397864D01*
X187304Y397828D01*
X187429Y397789D01*
X187554Y397746D01*
X187676Y397699D01*
X187798Y397649D01*
X187918Y397595D01*
X188036Y397538D01*
X188152Y397477D01*
X188267Y397413D01*
X188380Y397346D01*
X188491Y397275D01*
X188599Y397201D01*
X188706Y397124D01*
X188810Y397044D01*
X188912Y396961D01*
X189011Y396876D01*
X189108Y396787D01*
X189202Y396695D01*
X189294Y396601D01*
X189383Y396504D01*
X189468Y396405D01*
X189551Y396303D01*
X189631Y396199D01*
X189708Y396092D01*
X189782Y395984D01*
X189853Y395873D01*
X189920Y395760D01*
X189984Y395645D01*
X190045Y395529D01*
X190102Y395411D01*
X190156Y395291D01*
X190206Y395169D01*
X190253Y395047D01*
X190296Y394922D01*
X190335Y394797D01*
X190371Y394671D01*
X190403Y394543D01*
X190432Y394415D01*
X190456Y394286D01*
X190477Y394157D01*
X190494Y394026D01*
X190508Y393896D01*
X190517Y393765D01*
X190523Y393633D01*
X190525Y393502D01*
X190524Y393502D02*
X190524Y386278D01*
X190525Y386278D02*
X190523Y386147D01*
X190517Y386015D01*
X190508Y385884D01*
X190494Y385754D01*
X190477Y385623D01*
X190456Y385494D01*
X190432Y385365D01*
X190403Y385237D01*
X190371Y385109D01*
X190335Y384983D01*
X190296Y384858D01*
X190253Y384733D01*
X190206Y384611D01*
X190156Y384489D01*
X190102Y384369D01*
X190045Y384251D01*
X189984Y384135D01*
X189920Y384020D01*
X189853Y383907D01*
X189782Y383796D01*
X189708Y383688D01*
X189631Y383581D01*
X189551Y383477D01*
X189468Y383375D01*
X189383Y383276D01*
X189294Y383179D01*
X189202Y383085D01*
X189108Y382993D01*
X189011Y382904D01*
X188912Y382819D01*
X188810Y382736D01*
X188706Y382656D01*
X188599Y382579D01*
X188491Y382505D01*
X188380Y382434D01*
X188267Y382367D01*
X188152Y382303D01*
X188036Y382242D01*
X187918Y382185D01*
X187798Y382131D01*
X187676Y382081D01*
X187554Y382034D01*
X187429Y381991D01*
X187304Y381952D01*
X187178Y381916D01*
X187050Y381884D01*
X186922Y381855D01*
X186793Y381831D01*
X186663Y381810D01*
X186533Y381793D01*
X186403Y381779D01*
X186272Y381770D01*
X186140Y381764D01*
X186009Y381762D01*
X181493Y381762D01*
X196742Y381762D02*
X202161Y398018D01*
X207580Y381762D01*
X206225Y385826D02*
X198097Y385826D01*
X226511Y381762D02*
X226629Y381764D01*
X226747Y381770D01*
X226865Y381779D01*
X226982Y381793D01*
X227099Y381810D01*
X227216Y381831D01*
X227331Y381856D01*
X227446Y381885D01*
X227560Y381918D01*
X227672Y381954D01*
X227783Y381994D01*
X227893Y382037D01*
X228002Y382084D01*
X228109Y382134D01*
X228214Y382189D01*
X228317Y382246D01*
X228418Y382307D01*
X228518Y382371D01*
X228615Y382438D01*
X228710Y382508D01*
X228802Y382582D01*
X228893Y382658D01*
X228980Y382738D01*
X229065Y382820D01*
X229147Y382905D01*
X229227Y382992D01*
X229303Y383083D01*
X229377Y383175D01*
X229447Y383270D01*
X229514Y383367D01*
X229578Y383467D01*
X229639Y383568D01*
X229696Y383671D01*
X229751Y383776D01*
X229801Y383883D01*
X229848Y383992D01*
X229891Y384102D01*
X229931Y384213D01*
X229967Y384325D01*
X230000Y384439D01*
X230029Y384554D01*
X230054Y384669D01*
X230075Y384786D01*
X230092Y384903D01*
X230106Y385020D01*
X230115Y385138D01*
X230121Y385256D01*
X230123Y385374D01*
X226511Y381762D02*
X226328Y381764D01*
X226146Y381771D01*
X225964Y381782D01*
X225782Y381797D01*
X225600Y381817D01*
X225419Y381840D01*
X225239Y381869D01*
X225059Y381901D01*
X224880Y381938D01*
X224703Y381979D01*
X224526Y382025D01*
X224350Y382074D01*
X224176Y382128D01*
X224002Y382186D01*
X223831Y382248D01*
X223661Y382314D01*
X223492Y382385D01*
X223325Y382459D01*
X223160Y382537D01*
X222997Y382619D01*
X222836Y382705D01*
X222677Y382795D01*
X222520Y382889D01*
X222366Y382986D01*
X222214Y383087D01*
X222064Y383192D01*
X221917Y383300D01*
X221773Y383411D01*
X221631Y383526D01*
X221492Y383645D01*
X221356Y383767D01*
X221223Y383892D01*
X221093Y384020D01*
X221544Y394406D02*
X221546Y394524D01*
X221552Y394642D01*
X221561Y394760D01*
X221575Y394877D01*
X221592Y394994D01*
X221613Y395111D01*
X221638Y395226D01*
X221667Y395341D01*
X221700Y395455D01*
X221736Y395567D01*
X221776Y395678D01*
X221819Y395788D01*
X221866Y395897D01*
X221916Y396004D01*
X221971Y396109D01*
X222028Y396212D01*
X222089Y396313D01*
X222153Y396413D01*
X222220Y396510D01*
X222290Y396605D01*
X222364Y396697D01*
X222440Y396788D01*
X222520Y396875D01*
X222602Y396960D01*
X222687Y397042D01*
X222774Y397122D01*
X222865Y397198D01*
X222957Y397272D01*
X223052Y397342D01*
X223149Y397409D01*
X223249Y397473D01*
X223350Y397534D01*
X223453Y397592D01*
X223558Y397646D01*
X223665Y397696D01*
X223774Y397743D01*
X223884Y397787D01*
X223995Y397826D01*
X224108Y397862D01*
X224221Y397895D01*
X224336Y397924D01*
X224451Y397949D01*
X224568Y397970D01*
X224685Y397987D01*
X224802Y398001D01*
X224920Y398010D01*
X225038Y398016D01*
X225156Y398018D01*
X225317Y398016D01*
X225479Y398010D01*
X225640Y398001D01*
X225801Y397987D01*
X225961Y397970D01*
X226121Y397949D01*
X226281Y397924D01*
X226440Y397895D01*
X226598Y397863D01*
X226755Y397827D01*
X226911Y397787D01*
X227067Y397743D01*
X227221Y397695D01*
X227374Y397644D01*
X227526Y397590D01*
X227677Y397531D01*
X227826Y397470D01*
X227973Y397404D01*
X228119Y397335D01*
X228264Y397263D01*
X228406Y397187D01*
X228547Y397108D01*
X228686Y397026D01*
X228822Y396940D01*
X228957Y396851D01*
X229090Y396759D01*
X229220Y396663D01*
X223350Y391245D02*
X223249Y391307D01*
X223149Y391372D01*
X223052Y391441D01*
X222957Y391513D01*
X222864Y391587D01*
X222774Y391665D01*
X222686Y391746D01*
X222601Y391829D01*
X222519Y391915D01*
X222440Y392004D01*
X222363Y392095D01*
X222290Y392189D01*
X222219Y392285D01*
X222152Y392383D01*
X222088Y392483D01*
X222027Y392586D01*
X221970Y392690D01*
X221916Y392796D01*
X221866Y392904D01*
X221819Y393013D01*
X221775Y393124D01*
X221735Y393236D01*
X221699Y393350D01*
X221667Y393464D01*
X221638Y393580D01*
X221613Y393696D01*
X221592Y393813D01*
X221575Y393931D01*
X221561Y394049D01*
X221552Y394168D01*
X221546Y394287D01*
X221544Y394406D01*
X228318Y388535D02*
X228419Y388473D01*
X228519Y388408D01*
X228616Y388339D01*
X228711Y388267D01*
X228804Y388193D01*
X228894Y388115D01*
X228982Y388034D01*
X229067Y387951D01*
X229149Y387865D01*
X229228Y387776D01*
X229305Y387685D01*
X229378Y387591D01*
X229449Y387495D01*
X229516Y387397D01*
X229580Y387297D01*
X229641Y387194D01*
X229698Y387090D01*
X229752Y386984D01*
X229802Y386876D01*
X229849Y386767D01*
X229893Y386656D01*
X229933Y386544D01*
X229969Y386430D01*
X230001Y386316D01*
X230030Y386200D01*
X230055Y386084D01*
X230076Y385967D01*
X230093Y385849D01*
X230107Y385731D01*
X230116Y385612D01*
X230122Y385493D01*
X230124Y385374D01*
X228317Y388535D02*
X223350Y391245D01*
X239776Y381762D02*
X243388Y381762D01*
X239776Y381762D02*
X239658Y381764D01*
X239540Y381770D01*
X239422Y381779D01*
X239305Y381793D01*
X239188Y381810D01*
X239071Y381831D01*
X238956Y381856D01*
X238841Y381885D01*
X238727Y381918D01*
X238615Y381954D01*
X238504Y381994D01*
X238394Y382037D01*
X238285Y382084D01*
X238178Y382134D01*
X238073Y382189D01*
X237970Y382246D01*
X237869Y382307D01*
X237769Y382371D01*
X237672Y382438D01*
X237577Y382508D01*
X237485Y382582D01*
X237394Y382658D01*
X237307Y382738D01*
X237222Y382820D01*
X237140Y382905D01*
X237060Y382992D01*
X236984Y383083D01*
X236910Y383175D01*
X236840Y383270D01*
X236773Y383367D01*
X236709Y383467D01*
X236648Y383568D01*
X236591Y383671D01*
X236536Y383776D01*
X236486Y383883D01*
X236439Y383992D01*
X236396Y384102D01*
X236356Y384213D01*
X236320Y384325D01*
X236287Y384439D01*
X236258Y384554D01*
X236233Y384669D01*
X236212Y384786D01*
X236195Y384903D01*
X236181Y385020D01*
X236172Y385138D01*
X236166Y385256D01*
X236164Y385374D01*
X236163Y385374D02*
X236163Y394406D01*
X236164Y394406D02*
X236166Y394524D01*
X236172Y394642D01*
X236181Y394760D01*
X236195Y394877D01*
X236212Y394994D01*
X236233Y395111D01*
X236258Y395226D01*
X236287Y395341D01*
X236320Y395455D01*
X236356Y395567D01*
X236396Y395678D01*
X236439Y395788D01*
X236486Y395897D01*
X236536Y396004D01*
X236590Y396109D01*
X236648Y396212D01*
X236709Y396313D01*
X236773Y396413D01*
X236840Y396510D01*
X236910Y396605D01*
X236984Y396697D01*
X237060Y396788D01*
X237140Y396875D01*
X237222Y396960D01*
X237307Y397042D01*
X237394Y397122D01*
X237485Y397198D01*
X237577Y397272D01*
X237672Y397342D01*
X237769Y397409D01*
X237869Y397473D01*
X237970Y397534D01*
X238073Y397591D01*
X238178Y397645D01*
X238285Y397696D01*
X238394Y397743D01*
X238504Y397786D01*
X238615Y397826D01*
X238727Y397862D01*
X238841Y397895D01*
X238956Y397924D01*
X239071Y397949D01*
X239188Y397970D01*
X239305Y397987D01*
X239422Y398001D01*
X239540Y398010D01*
X239658Y398016D01*
X239776Y398018D01*
X243388Y398018D01*
X249779Y398018D02*
X249779Y381762D01*
X257004Y381762D01*
D11*
X312956Y379984D02*
X313106Y379982D01*
X313257Y379976D01*
X313407Y379967D01*
X313557Y379953D01*
X313706Y379936D01*
X313855Y379914D01*
X314003Y379889D01*
X314151Y379860D01*
X314298Y379828D01*
X314444Y379791D01*
X314589Y379751D01*
X314733Y379707D01*
X314875Y379660D01*
X315017Y379608D01*
X315157Y379554D01*
X315295Y379495D01*
X315433Y379433D01*
X315568Y379368D01*
X315702Y379299D01*
X315833Y379226D01*
X315963Y379150D01*
X316091Y379071D01*
X316217Y378989D01*
X316341Y378903D01*
X316462Y378815D01*
X316582Y378723D01*
X316698Y378628D01*
X316813Y378530D01*
X316924Y378429D01*
X317033Y378326D01*
X317140Y378219D01*
X317243Y378110D01*
X317344Y377999D01*
X317442Y377884D01*
X317537Y377768D01*
X317629Y377648D01*
X317717Y377527D01*
X317803Y377403D01*
X317885Y377277D01*
X317964Y377149D01*
X318040Y377019D01*
X318113Y376888D01*
X318182Y376754D01*
X318247Y376619D01*
X318309Y376481D01*
X318368Y376343D01*
X318422Y376203D01*
X318474Y376061D01*
X318521Y375919D01*
X318565Y375775D01*
X318605Y375630D01*
X318642Y375484D01*
X318674Y375337D01*
X318703Y375189D01*
X318728Y375041D01*
X318750Y374892D01*
X318767Y374743D01*
X318781Y374593D01*
X318790Y374443D01*
X318796Y374292D01*
X318798Y374142D01*
X312956Y379984D02*
X312775Y379982D01*
X312593Y379975D01*
X312412Y379964D01*
X312231Y379949D01*
X312051Y379929D01*
X311871Y379905D01*
X311692Y379877D01*
X311513Y379844D01*
X311335Y379807D01*
X311159Y379766D01*
X310983Y379720D01*
X310808Y379670D01*
X310635Y379616D01*
X310463Y379558D01*
X310293Y379496D01*
X310124Y379429D01*
X309957Y379359D01*
X309791Y379284D01*
X309628Y379206D01*
X309466Y379123D01*
X309306Y379037D01*
X309149Y378947D01*
X308993Y378853D01*
X308840Y378755D01*
X308690Y378654D01*
X308542Y378549D01*
X308396Y378440D01*
X308253Y378328D01*
X308113Y378213D01*
X307976Y378094D01*
X307842Y377972D01*
X307711Y377846D01*
X307582Y377718D01*
X307457Y377587D01*
X307335Y377452D01*
X307217Y377315D01*
X307101Y377175D01*
X306990Y377032D01*
X306881Y376886D01*
X306776Y376738D01*
X306675Y376587D01*
X306578Y376434D01*
X306484Y376279D01*
X306394Y376121D01*
X306308Y375961D01*
X306226Y375799D01*
X306147Y375636D01*
X306073Y375470D01*
X306003Y375303D01*
X305936Y375134D01*
X305874Y374963D01*
X305816Y374791D01*
X316851Y369598D02*
X316961Y369706D01*
X317068Y369816D01*
X317173Y369929D01*
X317275Y370044D01*
X317374Y370162D01*
X317470Y370282D01*
X317564Y370405D01*
X317654Y370529D01*
X317741Y370656D01*
X317825Y370785D01*
X317906Y370917D01*
X317983Y371050D01*
X318057Y371185D01*
X318128Y371321D01*
X318196Y371460D01*
X318260Y371600D01*
X318321Y371741D01*
X318378Y371884D01*
X318431Y372028D01*
X318481Y372174D01*
X318528Y372321D01*
X318571Y372469D01*
X318610Y372618D01*
X318646Y372767D01*
X318677Y372918D01*
X318706Y373069D01*
X318730Y373221D01*
X318751Y373374D01*
X318768Y373527D01*
X318781Y373680D01*
X318790Y373834D01*
X318796Y373988D01*
X318798Y374142D01*
X316851Y369598D02*
X305816Y356616D01*
X318798Y356616D01*
X329010Y356616D02*
X329010Y379984D01*
X326414Y356616D02*
X331607Y356616D01*
X331607Y379984D02*
X326414Y379984D01*
X344321Y379984D02*
X344321Y356616D01*
X337830Y379984D02*
X350812Y379984D01*
X359632Y379984D02*
X359632Y356616D01*
X357036Y356616D02*
X362229Y356616D01*
X362229Y379984D02*
X357036Y379984D01*
X369844Y373493D02*
X369844Y363107D01*
X369844Y373493D02*
X369846Y373652D01*
X369852Y373811D01*
X369862Y373971D01*
X369875Y374129D01*
X369893Y374288D01*
X369914Y374445D01*
X369940Y374603D01*
X369969Y374759D01*
X370002Y374915D01*
X370039Y375070D01*
X370079Y375224D01*
X370124Y375377D01*
X370172Y375529D01*
X370223Y375680D01*
X370279Y375829D01*
X370338Y375977D01*
X370401Y376123D01*
X370467Y376268D01*
X370537Y376411D01*
X370610Y376553D01*
X370687Y376692D01*
X370767Y376830D01*
X370851Y376966D01*
X370938Y377099D01*
X371028Y377231D01*
X371121Y377360D01*
X371218Y377486D01*
X371317Y377611D01*
X371420Y377733D01*
X371525Y377852D01*
X371634Y377969D01*
X371745Y378083D01*
X371859Y378194D01*
X371976Y378303D01*
X372095Y378408D01*
X372217Y378511D01*
X372342Y378610D01*
X372468Y378707D01*
X372597Y378800D01*
X372729Y378890D01*
X372862Y378977D01*
X372998Y379061D01*
X373136Y379141D01*
X373275Y379218D01*
X373417Y379291D01*
X373560Y379361D01*
X373705Y379427D01*
X373851Y379490D01*
X373999Y379549D01*
X374148Y379605D01*
X374299Y379656D01*
X374451Y379704D01*
X374604Y379749D01*
X374758Y379789D01*
X374913Y379826D01*
X375069Y379859D01*
X375225Y379888D01*
X375383Y379914D01*
X375540Y379935D01*
X375699Y379953D01*
X375857Y379966D01*
X376017Y379976D01*
X376176Y379982D01*
X376335Y379984D01*
X376494Y379982D01*
X376653Y379976D01*
X376813Y379966D01*
X376971Y379953D01*
X377130Y379935D01*
X377287Y379914D01*
X377445Y379888D01*
X377601Y379859D01*
X377757Y379826D01*
X377912Y379789D01*
X378066Y379749D01*
X378219Y379704D01*
X378371Y379656D01*
X378522Y379605D01*
X378671Y379549D01*
X378819Y379490D01*
X378965Y379427D01*
X379110Y379361D01*
X379253Y379291D01*
X379395Y379218D01*
X379534Y379141D01*
X379672Y379061D01*
X379808Y378977D01*
X379941Y378890D01*
X380073Y378800D01*
X380202Y378707D01*
X380328Y378610D01*
X380453Y378511D01*
X380575Y378408D01*
X380694Y378303D01*
X380811Y378194D01*
X380925Y378083D01*
X381036Y377969D01*
X381145Y377852D01*
X381250Y377733D01*
X381353Y377611D01*
X381452Y377486D01*
X381549Y377360D01*
X381642Y377231D01*
X381732Y377099D01*
X381819Y376966D01*
X381903Y376830D01*
X381983Y376692D01*
X382060Y376553D01*
X382133Y376411D01*
X382203Y376268D01*
X382269Y376123D01*
X382332Y375977D01*
X382391Y375829D01*
X382447Y375680D01*
X382498Y375529D01*
X382546Y375377D01*
X382591Y375224D01*
X382631Y375070D01*
X382668Y374915D01*
X382701Y374759D01*
X382730Y374603D01*
X382756Y374445D01*
X382777Y374288D01*
X382795Y374129D01*
X382808Y373971D01*
X382818Y373811D01*
X382824Y373652D01*
X382826Y373493D01*
X382826Y363107D01*
X382824Y362948D01*
X382818Y362789D01*
X382808Y362629D01*
X382795Y362471D01*
X382777Y362312D01*
X382756Y362155D01*
X382730Y361997D01*
X382701Y361841D01*
X382668Y361685D01*
X382631Y361530D01*
X382591Y361376D01*
X382546Y361223D01*
X382498Y361071D01*
X382447Y360920D01*
X382391Y360771D01*
X382332Y360623D01*
X382269Y360477D01*
X382203Y360332D01*
X382133Y360189D01*
X382060Y360047D01*
X381983Y359908D01*
X381903Y359770D01*
X381819Y359634D01*
X381732Y359501D01*
X381642Y359369D01*
X381549Y359240D01*
X381452Y359114D01*
X381353Y358989D01*
X381250Y358867D01*
X381145Y358748D01*
X381036Y358631D01*
X380925Y358517D01*
X380811Y358406D01*
X380694Y358297D01*
X380575Y358192D01*
X380453Y358089D01*
X380328Y357990D01*
X380202Y357893D01*
X380073Y357800D01*
X379941Y357710D01*
X379808Y357623D01*
X379672Y357539D01*
X379534Y357459D01*
X379395Y357382D01*
X379253Y357309D01*
X379110Y357239D01*
X378965Y357173D01*
X378819Y357110D01*
X378671Y357051D01*
X378522Y356995D01*
X378371Y356944D01*
X378219Y356896D01*
X378066Y356851D01*
X377912Y356811D01*
X377757Y356774D01*
X377601Y356741D01*
X377445Y356712D01*
X377287Y356686D01*
X377130Y356665D01*
X376971Y356647D01*
X376813Y356634D01*
X376653Y356624D01*
X376494Y356618D01*
X376335Y356616D01*
X376176Y356618D01*
X376017Y356624D01*
X375857Y356634D01*
X375699Y356647D01*
X375540Y356665D01*
X375383Y356686D01*
X375225Y356712D01*
X375069Y356741D01*
X374913Y356774D01*
X374758Y356811D01*
X374604Y356851D01*
X374451Y356896D01*
X374299Y356944D01*
X374148Y356995D01*
X373999Y357051D01*
X373851Y357110D01*
X373705Y357173D01*
X373560Y357239D01*
X373417Y357309D01*
X373275Y357382D01*
X373136Y357459D01*
X372998Y357539D01*
X372862Y357623D01*
X372729Y357710D01*
X372597Y357800D01*
X372468Y357893D01*
X372342Y357990D01*
X372217Y358089D01*
X372095Y358192D01*
X371976Y358297D01*
X371859Y358406D01*
X371745Y358517D01*
X371634Y358631D01*
X371525Y358748D01*
X371420Y358867D01*
X371317Y358989D01*
X371218Y359114D01*
X371121Y359240D01*
X371028Y359369D01*
X370938Y359501D01*
X370851Y359634D01*
X370767Y359770D01*
X370687Y359908D01*
X370610Y360047D01*
X370537Y360189D01*
X370467Y360332D01*
X370401Y360477D01*
X370338Y360623D01*
X370279Y360771D01*
X370223Y360920D01*
X370172Y361071D01*
X370124Y361223D01*
X370079Y361376D01*
X370039Y361530D01*
X370002Y361685D01*
X369969Y361841D01*
X369940Y361997D01*
X369914Y362155D01*
X369893Y362312D01*
X369875Y362471D01*
X369862Y362629D01*
X369852Y362789D01*
X369846Y362948D01*
X369844Y363107D01*
X395822Y356616D02*
X395822Y379984D01*
X389331Y379984D02*
X402313Y379984D01*
X470916Y123105D02*
X489091Y123105D01*
X489234Y123103D01*
X489377Y123097D01*
X489520Y123087D01*
X489662Y123073D01*
X489804Y123056D01*
X489946Y123034D01*
X490087Y123009D01*
X490227Y122979D01*
X490366Y122946D01*
X490504Y122909D01*
X490641Y122868D01*
X490777Y122824D01*
X490912Y122775D01*
X491045Y122723D01*
X491177Y122668D01*
X491307Y122608D01*
X491436Y122545D01*
X491563Y122479D01*
X491688Y122409D01*
X491810Y122336D01*
X491931Y122259D01*
X492050Y122179D01*
X492166Y122096D01*
X492281Y122010D01*
X492392Y121921D01*
X492502Y121828D01*
X492608Y121733D01*
X492712Y121634D01*
X492813Y121533D01*
X492912Y121429D01*
X493007Y121323D01*
X493100Y121213D01*
X493189Y121102D01*
X493275Y120987D01*
X493358Y120871D01*
X493438Y120752D01*
X493515Y120631D01*
X493588Y120509D01*
X493658Y120384D01*
X493724Y120257D01*
X493787Y120128D01*
X493847Y119998D01*
X493902Y119866D01*
X493954Y119733D01*
X494003Y119598D01*
X494047Y119462D01*
X494088Y119325D01*
X494125Y119187D01*
X494158Y119048D01*
X494188Y118908D01*
X494213Y118767D01*
X494235Y118625D01*
X494252Y118483D01*
X494266Y118341D01*
X494276Y118198D01*
X494282Y118055D01*
X494284Y117912D01*
X494284Y115316D01*
X494284Y135469D02*
X494284Y141960D01*
X494284Y135469D02*
X494282Y135347D01*
X494276Y135224D01*
X494267Y135102D01*
X494253Y134981D01*
X494236Y134860D01*
X494215Y134739D01*
X494190Y134619D01*
X494162Y134500D01*
X494129Y134382D01*
X494093Y134265D01*
X494054Y134150D01*
X494010Y134035D01*
X493964Y133922D01*
X493913Y133811D01*
X493859Y133701D01*
X493802Y133593D01*
X493742Y133486D01*
X493678Y133382D01*
X493610Y133280D01*
X493540Y133180D01*
X493467Y133082D01*
X493390Y132986D01*
X493311Y132893D01*
X493228Y132803D01*
X493143Y132715D01*
X493055Y132630D01*
X492965Y132547D01*
X492872Y132468D01*
X492776Y132391D01*
X492678Y132318D01*
X492578Y132248D01*
X492476Y132180D01*
X492372Y132116D01*
X492265Y132056D01*
X492157Y131999D01*
X492047Y131945D01*
X491936Y131894D01*
X491823Y131848D01*
X491708Y131804D01*
X491593Y131765D01*
X491476Y131729D01*
X491358Y131696D01*
X491239Y131668D01*
X491119Y131643D01*
X490998Y131622D01*
X490877Y131605D01*
X490756Y131591D01*
X490634Y131582D01*
X490511Y131576D01*
X490389Y131574D01*
X483898Y131574D01*
X483755Y131576D01*
X483612Y131582D01*
X483469Y131592D01*
X483327Y131606D01*
X483185Y131623D01*
X483043Y131645D01*
X482902Y131670D01*
X482762Y131700D01*
X482623Y131733D01*
X482485Y131770D01*
X482348Y131811D01*
X482212Y131855D01*
X482077Y131904D01*
X481944Y131956D01*
X481812Y132011D01*
X481682Y132071D01*
X481553Y132134D01*
X481426Y132200D01*
X481301Y132270D01*
X481179Y132343D01*
X481058Y132420D01*
X480939Y132500D01*
X480823Y132583D01*
X480708Y132669D01*
X480597Y132758D01*
X480487Y132851D01*
X480381Y132946D01*
X480277Y133045D01*
X480176Y133146D01*
X480077Y133250D01*
X479982Y133356D01*
X479889Y133466D01*
X479800Y133577D01*
X479714Y133692D01*
X479631Y133808D01*
X479551Y133927D01*
X479474Y134048D01*
X479401Y134171D01*
X479331Y134295D01*
X479265Y134422D01*
X479202Y134551D01*
X479142Y134681D01*
X479087Y134813D01*
X479035Y134946D01*
X478986Y135081D01*
X478942Y135217D01*
X478901Y135354D01*
X478864Y135492D01*
X478831Y135631D01*
X478801Y135771D01*
X478776Y135912D01*
X478754Y136054D01*
X478737Y136196D01*
X478723Y136338D01*
X478713Y136481D01*
X478707Y136624D01*
X478705Y136767D01*
X478707Y136910D01*
X478713Y137053D01*
X478723Y137196D01*
X478737Y137338D01*
X478754Y137480D01*
X478776Y137622D01*
X478801Y137763D01*
X478831Y137903D01*
X478864Y138042D01*
X478901Y138180D01*
X478942Y138317D01*
X478986Y138453D01*
X479035Y138588D01*
X479087Y138721D01*
X479142Y138853D01*
X479202Y138983D01*
X479265Y139112D01*
X479331Y139239D01*
X479401Y139364D01*
X479474Y139486D01*
X479551Y139607D01*
X479631Y139726D01*
X479714Y139842D01*
X479800Y139957D01*
X479889Y140068D01*
X479982Y140178D01*
X480077Y140284D01*
X480176Y140388D01*
X480277Y140489D01*
X480381Y140588D01*
X480487Y140683D01*
X480597Y140776D01*
X480708Y140865D01*
X480823Y140951D01*
X480939Y141034D01*
X481058Y141114D01*
X481179Y141191D01*
X481302Y141264D01*
X481426Y141334D01*
X481553Y141400D01*
X481682Y141463D01*
X481812Y141523D01*
X481944Y141578D01*
X482077Y141630D01*
X482212Y141679D01*
X482348Y141723D01*
X482485Y141764D01*
X482623Y141801D01*
X482762Y141834D01*
X482902Y141864D01*
X483043Y141889D01*
X483185Y141911D01*
X483327Y141928D01*
X483469Y141942D01*
X483612Y141952D01*
X483755Y141958D01*
X483898Y141960D01*
X486495Y141960D01*
X486495Y131574D01*
X490389Y150175D02*
X470916Y150175D01*
X490389Y150175D02*
X490511Y150177D01*
X490634Y150183D01*
X490756Y150192D01*
X490877Y150206D01*
X490998Y150223D01*
X491119Y150244D01*
X491239Y150269D01*
X491358Y150297D01*
X491476Y150330D01*
X491593Y150366D01*
X491708Y150405D01*
X491823Y150449D01*
X491936Y150495D01*
X492047Y150546D01*
X492157Y150600D01*
X492265Y150657D01*
X492372Y150717D01*
X492476Y150781D01*
X492578Y150849D01*
X492678Y150919D01*
X492776Y150992D01*
X492872Y151069D01*
X492965Y151148D01*
X493055Y151231D01*
X493143Y151316D01*
X493228Y151404D01*
X493311Y151494D01*
X493390Y151587D01*
X493467Y151683D01*
X493540Y151781D01*
X493610Y151881D01*
X493678Y151983D01*
X493742Y152087D01*
X493802Y152194D01*
X493859Y152302D01*
X493913Y152412D01*
X493964Y152523D01*
X494010Y152636D01*
X494054Y152751D01*
X494093Y152866D01*
X494129Y152983D01*
X494162Y153101D01*
X494190Y153220D01*
X494215Y153340D01*
X494236Y153461D01*
X494253Y153582D01*
X494267Y153703D01*
X494276Y153825D01*
X494282Y153948D01*
X494284Y154070D01*
X478705Y159235D02*
X478705Y167024D01*
X470916Y161832D02*
X490389Y161832D01*
X490389Y161831D02*
X490511Y161833D01*
X490634Y161839D01*
X490756Y161848D01*
X490877Y161862D01*
X490998Y161879D01*
X491119Y161900D01*
X491239Y161925D01*
X491358Y161953D01*
X491476Y161986D01*
X491593Y162022D01*
X491708Y162061D01*
X491823Y162105D01*
X491936Y162151D01*
X492047Y162202D01*
X492157Y162256D01*
X492265Y162313D01*
X492372Y162373D01*
X492476Y162437D01*
X492578Y162505D01*
X492678Y162575D01*
X492776Y162648D01*
X492872Y162725D01*
X492965Y162804D01*
X493055Y162887D01*
X493143Y162972D01*
X493228Y163060D01*
X493311Y163150D01*
X493390Y163243D01*
X493467Y163339D01*
X493540Y163437D01*
X493610Y163537D01*
X493678Y163639D01*
X493742Y163743D01*
X493802Y163850D01*
X493859Y163958D01*
X493913Y164068D01*
X493964Y164179D01*
X494010Y164292D01*
X494054Y164407D01*
X494093Y164522D01*
X494129Y164639D01*
X494162Y164757D01*
X494190Y164876D01*
X494215Y164996D01*
X494236Y165117D01*
X494253Y165238D01*
X494267Y165359D01*
X494276Y165481D01*
X494282Y165604D01*
X494284Y165726D01*
X494284Y167024D01*
X494284Y177922D02*
X494284Y184414D01*
X494284Y177922D02*
X494282Y177800D01*
X494276Y177677D01*
X494267Y177555D01*
X494253Y177434D01*
X494236Y177313D01*
X494215Y177192D01*
X494190Y177072D01*
X494162Y176953D01*
X494129Y176835D01*
X494093Y176718D01*
X494054Y176603D01*
X494010Y176488D01*
X493964Y176375D01*
X493913Y176264D01*
X493859Y176154D01*
X493802Y176046D01*
X493742Y175939D01*
X493678Y175835D01*
X493610Y175733D01*
X493540Y175633D01*
X493467Y175535D01*
X493390Y175439D01*
X493311Y175346D01*
X493228Y175256D01*
X493143Y175168D01*
X493055Y175083D01*
X492965Y175000D01*
X492872Y174921D01*
X492776Y174844D01*
X492678Y174771D01*
X492578Y174701D01*
X492476Y174633D01*
X492372Y174569D01*
X492265Y174509D01*
X492157Y174452D01*
X492047Y174398D01*
X491936Y174347D01*
X491823Y174301D01*
X491708Y174257D01*
X491593Y174218D01*
X491476Y174182D01*
X491358Y174149D01*
X491239Y174121D01*
X491119Y174096D01*
X490998Y174075D01*
X490877Y174058D01*
X490756Y174044D01*
X490634Y174035D01*
X490511Y174029D01*
X490389Y174027D01*
X490389Y174028D02*
X483898Y174028D01*
X483755Y174030D01*
X483612Y174036D01*
X483469Y174046D01*
X483327Y174060D01*
X483185Y174077D01*
X483043Y174099D01*
X482902Y174124D01*
X482762Y174154D01*
X482623Y174187D01*
X482485Y174224D01*
X482348Y174265D01*
X482212Y174309D01*
X482077Y174358D01*
X481944Y174410D01*
X481812Y174465D01*
X481682Y174525D01*
X481553Y174588D01*
X481426Y174654D01*
X481301Y174724D01*
X481179Y174797D01*
X481058Y174874D01*
X480939Y174954D01*
X480823Y175037D01*
X480708Y175123D01*
X480597Y175212D01*
X480487Y175305D01*
X480381Y175400D01*
X480277Y175499D01*
X480176Y175600D01*
X480077Y175704D01*
X479982Y175810D01*
X479889Y175920D01*
X479800Y176031D01*
X479714Y176146D01*
X479631Y176262D01*
X479551Y176381D01*
X479474Y176502D01*
X479401Y176625D01*
X479331Y176749D01*
X479265Y176876D01*
X479202Y177005D01*
X479142Y177135D01*
X479087Y177267D01*
X479035Y177400D01*
X478986Y177535D01*
X478942Y177671D01*
X478901Y177808D01*
X478864Y177946D01*
X478831Y178085D01*
X478801Y178225D01*
X478776Y178366D01*
X478754Y178508D01*
X478737Y178650D01*
X478723Y178792D01*
X478713Y178935D01*
X478707Y179078D01*
X478705Y179221D01*
X478707Y179364D01*
X478713Y179507D01*
X478723Y179650D01*
X478737Y179792D01*
X478754Y179934D01*
X478776Y180076D01*
X478801Y180217D01*
X478831Y180357D01*
X478864Y180496D01*
X478901Y180634D01*
X478942Y180771D01*
X478986Y180907D01*
X479035Y181042D01*
X479087Y181175D01*
X479142Y181307D01*
X479202Y181437D01*
X479265Y181566D01*
X479331Y181693D01*
X479401Y181818D01*
X479474Y181940D01*
X479551Y182061D01*
X479631Y182180D01*
X479714Y182296D01*
X479800Y182411D01*
X479889Y182522D01*
X479982Y182632D01*
X480077Y182738D01*
X480176Y182842D01*
X480277Y182943D01*
X480381Y183042D01*
X480487Y183137D01*
X480597Y183230D01*
X480708Y183319D01*
X480823Y183405D01*
X480939Y183488D01*
X481058Y183568D01*
X481179Y183645D01*
X481302Y183718D01*
X481426Y183788D01*
X481553Y183854D01*
X481682Y183917D01*
X481812Y183977D01*
X481944Y184032D01*
X482077Y184084D01*
X482212Y184133D01*
X482348Y184177D01*
X482485Y184218D01*
X482623Y184255D01*
X482762Y184288D01*
X482902Y184318D01*
X483043Y184343D01*
X483185Y184365D01*
X483327Y184382D01*
X483469Y184396D01*
X483612Y184406D01*
X483755Y184412D01*
X483898Y184414D01*
X486495Y184414D01*
X486495Y174028D01*
X481302Y204195D02*
X481302Y210686D01*
X481304Y210845D01*
X481310Y211004D01*
X481320Y211164D01*
X481333Y211322D01*
X481351Y211481D01*
X481372Y211638D01*
X481398Y211796D01*
X481427Y211952D01*
X481460Y212108D01*
X481497Y212263D01*
X481537Y212417D01*
X481582Y212570D01*
X481630Y212722D01*
X481681Y212873D01*
X481737Y213022D01*
X481796Y213170D01*
X481859Y213316D01*
X481925Y213461D01*
X481995Y213604D01*
X482068Y213746D01*
X482145Y213885D01*
X482225Y214023D01*
X482309Y214159D01*
X482396Y214292D01*
X482486Y214424D01*
X482579Y214553D01*
X482676Y214679D01*
X482775Y214804D01*
X482878Y214926D01*
X482983Y215045D01*
X483092Y215162D01*
X483203Y215276D01*
X483317Y215387D01*
X483434Y215496D01*
X483553Y215601D01*
X483675Y215704D01*
X483800Y215803D01*
X483926Y215900D01*
X484055Y215993D01*
X484187Y216083D01*
X484320Y216170D01*
X484456Y216254D01*
X484594Y216334D01*
X484733Y216411D01*
X484875Y216484D01*
X485018Y216554D01*
X485163Y216620D01*
X485309Y216683D01*
X485457Y216742D01*
X485606Y216798D01*
X485757Y216849D01*
X485909Y216897D01*
X486062Y216942D01*
X486216Y216982D01*
X486371Y217019D01*
X486527Y217052D01*
X486683Y217081D01*
X486841Y217107D01*
X486998Y217128D01*
X487157Y217146D01*
X487315Y217159D01*
X487475Y217169D01*
X487634Y217175D01*
X487793Y217177D01*
X487952Y217175D01*
X488111Y217169D01*
X488271Y217159D01*
X488429Y217146D01*
X488588Y217128D01*
X488745Y217107D01*
X488903Y217081D01*
X489059Y217052D01*
X489215Y217019D01*
X489370Y216982D01*
X489524Y216942D01*
X489677Y216897D01*
X489829Y216849D01*
X489980Y216798D01*
X490129Y216742D01*
X490277Y216683D01*
X490423Y216620D01*
X490568Y216554D01*
X490711Y216484D01*
X490853Y216411D01*
X490992Y216334D01*
X491130Y216254D01*
X491266Y216170D01*
X491399Y216083D01*
X491531Y215993D01*
X491660Y215900D01*
X491786Y215803D01*
X491911Y215704D01*
X492033Y215601D01*
X492152Y215496D01*
X492269Y215387D01*
X492383Y215276D01*
X492494Y215162D01*
X492603Y215045D01*
X492708Y214926D01*
X492811Y214804D01*
X492910Y214679D01*
X493007Y214553D01*
X493100Y214424D01*
X493190Y214292D01*
X493277Y214159D01*
X493361Y214023D01*
X493441Y213885D01*
X493518Y213746D01*
X493591Y213604D01*
X493661Y213461D01*
X493727Y213316D01*
X493790Y213170D01*
X493849Y213022D01*
X493905Y212873D01*
X493956Y212722D01*
X494004Y212570D01*
X494049Y212417D01*
X494089Y212263D01*
X494126Y212108D01*
X494159Y211952D01*
X494188Y211796D01*
X494214Y211638D01*
X494235Y211481D01*
X494253Y211322D01*
X494266Y211164D01*
X494276Y211004D01*
X494282Y210845D01*
X494284Y210686D01*
X494284Y204195D01*
X470916Y204195D01*
X470916Y210686D01*
X470918Y210829D01*
X470924Y210972D01*
X470934Y211115D01*
X470948Y211257D01*
X470965Y211399D01*
X470987Y211541D01*
X471012Y211682D01*
X471042Y211822D01*
X471075Y211961D01*
X471112Y212099D01*
X471153Y212236D01*
X471197Y212372D01*
X471246Y212507D01*
X471298Y212640D01*
X471353Y212772D01*
X471413Y212902D01*
X471476Y213031D01*
X471542Y213158D01*
X471612Y213283D01*
X471685Y213405D01*
X471762Y213526D01*
X471842Y213645D01*
X471925Y213761D01*
X472011Y213876D01*
X472100Y213987D01*
X472193Y214097D01*
X472288Y214203D01*
X472387Y214307D01*
X472488Y214408D01*
X472592Y214507D01*
X472698Y214602D01*
X472808Y214695D01*
X472919Y214784D01*
X473034Y214870D01*
X473150Y214953D01*
X473269Y215033D01*
X473390Y215110D01*
X473513Y215183D01*
X473637Y215253D01*
X473764Y215319D01*
X473893Y215382D01*
X474023Y215442D01*
X474155Y215497D01*
X474288Y215549D01*
X474423Y215598D01*
X474559Y215642D01*
X474696Y215683D01*
X474834Y215720D01*
X474973Y215753D01*
X475113Y215783D01*
X475254Y215808D01*
X475396Y215830D01*
X475538Y215847D01*
X475680Y215861D01*
X475823Y215871D01*
X475966Y215877D01*
X476109Y215879D01*
X476252Y215877D01*
X476395Y215871D01*
X476538Y215861D01*
X476680Y215847D01*
X476822Y215830D01*
X476964Y215808D01*
X477105Y215783D01*
X477245Y215753D01*
X477384Y215720D01*
X477522Y215683D01*
X477659Y215642D01*
X477795Y215598D01*
X477930Y215549D01*
X478063Y215497D01*
X478195Y215442D01*
X478325Y215382D01*
X478454Y215319D01*
X478581Y215253D01*
X478706Y215183D01*
X478828Y215110D01*
X478949Y215033D01*
X479068Y214953D01*
X479184Y214870D01*
X479299Y214784D01*
X479410Y214695D01*
X479520Y214602D01*
X479626Y214507D01*
X479730Y214408D01*
X479831Y214307D01*
X479930Y214203D01*
X480025Y214097D01*
X480118Y213987D01*
X480207Y213876D01*
X480293Y213761D01*
X480376Y213645D01*
X480456Y213526D01*
X480533Y213405D01*
X480606Y213283D01*
X480676Y213158D01*
X480742Y213031D01*
X480805Y212902D01*
X480865Y212772D01*
X480920Y212640D01*
X480972Y212507D01*
X481021Y212372D01*
X481065Y212236D01*
X481106Y212099D01*
X481143Y211961D01*
X481176Y211822D01*
X481206Y211682D01*
X481231Y211541D01*
X481253Y211399D01*
X481270Y211257D01*
X481284Y211115D01*
X481294Y210972D01*
X481300Y210829D01*
X481302Y210686D01*
X483898Y224137D02*
X489091Y224137D01*
X483898Y224137D02*
X483755Y224139D01*
X483612Y224145D01*
X483469Y224155D01*
X483327Y224169D01*
X483185Y224186D01*
X483043Y224208D01*
X482902Y224233D01*
X482762Y224263D01*
X482623Y224296D01*
X482485Y224333D01*
X482348Y224374D01*
X482212Y224418D01*
X482077Y224467D01*
X481944Y224519D01*
X481812Y224574D01*
X481682Y224634D01*
X481553Y224697D01*
X481426Y224763D01*
X481301Y224833D01*
X481179Y224906D01*
X481058Y224983D01*
X480939Y225063D01*
X480823Y225146D01*
X480708Y225232D01*
X480597Y225321D01*
X480487Y225414D01*
X480381Y225509D01*
X480277Y225608D01*
X480176Y225709D01*
X480077Y225813D01*
X479982Y225919D01*
X479889Y226029D01*
X479800Y226140D01*
X479714Y226255D01*
X479631Y226371D01*
X479551Y226490D01*
X479474Y226611D01*
X479401Y226734D01*
X479331Y226858D01*
X479265Y226985D01*
X479202Y227114D01*
X479142Y227244D01*
X479087Y227376D01*
X479035Y227509D01*
X478986Y227644D01*
X478942Y227780D01*
X478901Y227917D01*
X478864Y228055D01*
X478831Y228194D01*
X478801Y228334D01*
X478776Y228475D01*
X478754Y228617D01*
X478737Y228759D01*
X478723Y228901D01*
X478713Y229044D01*
X478707Y229187D01*
X478705Y229330D01*
X478707Y229473D01*
X478713Y229616D01*
X478723Y229759D01*
X478737Y229901D01*
X478754Y230043D01*
X478776Y230185D01*
X478801Y230326D01*
X478831Y230466D01*
X478864Y230605D01*
X478901Y230743D01*
X478942Y230880D01*
X478986Y231016D01*
X479035Y231151D01*
X479087Y231284D01*
X479142Y231416D01*
X479202Y231546D01*
X479265Y231675D01*
X479331Y231802D01*
X479401Y231927D01*
X479474Y232049D01*
X479551Y232170D01*
X479631Y232289D01*
X479714Y232405D01*
X479800Y232520D01*
X479889Y232631D01*
X479982Y232741D01*
X480077Y232847D01*
X480176Y232951D01*
X480277Y233052D01*
X480381Y233151D01*
X480487Y233246D01*
X480597Y233339D01*
X480708Y233428D01*
X480823Y233514D01*
X480939Y233597D01*
X481058Y233677D01*
X481179Y233754D01*
X481302Y233827D01*
X481426Y233897D01*
X481553Y233963D01*
X481682Y234026D01*
X481812Y234086D01*
X481944Y234141D01*
X482077Y234193D01*
X482212Y234242D01*
X482348Y234286D01*
X482485Y234327D01*
X482623Y234364D01*
X482762Y234397D01*
X482902Y234427D01*
X483043Y234452D01*
X483185Y234474D01*
X483327Y234491D01*
X483469Y234505D01*
X483612Y234515D01*
X483755Y234521D01*
X483898Y234523D01*
X489091Y234523D01*
X489234Y234521D01*
X489377Y234515D01*
X489520Y234505D01*
X489662Y234491D01*
X489804Y234474D01*
X489946Y234452D01*
X490087Y234427D01*
X490227Y234397D01*
X490366Y234364D01*
X490504Y234327D01*
X490641Y234286D01*
X490777Y234242D01*
X490912Y234193D01*
X491045Y234141D01*
X491177Y234086D01*
X491307Y234026D01*
X491436Y233963D01*
X491563Y233897D01*
X491688Y233827D01*
X491810Y233754D01*
X491931Y233677D01*
X492050Y233597D01*
X492166Y233514D01*
X492281Y233428D01*
X492392Y233339D01*
X492502Y233246D01*
X492608Y233151D01*
X492712Y233052D01*
X492813Y232951D01*
X492912Y232847D01*
X493007Y232741D01*
X493100Y232631D01*
X493189Y232520D01*
X493275Y232405D01*
X493358Y232289D01*
X493438Y232170D01*
X493515Y232049D01*
X493588Y231926D01*
X493658Y231802D01*
X493724Y231675D01*
X493787Y231546D01*
X493847Y231416D01*
X493902Y231284D01*
X493954Y231151D01*
X494003Y231016D01*
X494047Y230880D01*
X494088Y230743D01*
X494125Y230605D01*
X494158Y230466D01*
X494188Y230326D01*
X494213Y230185D01*
X494235Y230043D01*
X494252Y229901D01*
X494266Y229759D01*
X494276Y229616D01*
X494282Y229473D01*
X494284Y229330D01*
X494282Y229187D01*
X494276Y229044D01*
X494266Y228901D01*
X494252Y228759D01*
X494235Y228617D01*
X494213Y228475D01*
X494188Y228334D01*
X494158Y228194D01*
X494125Y228055D01*
X494088Y227917D01*
X494047Y227780D01*
X494003Y227644D01*
X493954Y227509D01*
X493902Y227376D01*
X493847Y227244D01*
X493787Y227114D01*
X493724Y226985D01*
X493658Y226858D01*
X493588Y226733D01*
X493515Y226611D01*
X493438Y226490D01*
X493358Y226371D01*
X493275Y226255D01*
X493189Y226140D01*
X493100Y226029D01*
X493007Y225919D01*
X492912Y225813D01*
X492813Y225709D01*
X492712Y225608D01*
X492608Y225509D01*
X492502Y225414D01*
X492392Y225321D01*
X492281Y225232D01*
X492166Y225146D01*
X492050Y225063D01*
X491931Y224983D01*
X491810Y224906D01*
X491688Y224833D01*
X491563Y224763D01*
X491436Y224697D01*
X491307Y224634D01*
X491177Y224574D01*
X491045Y224519D01*
X490912Y224467D01*
X490777Y224418D01*
X490641Y224374D01*
X490504Y224333D01*
X490366Y224296D01*
X490227Y224263D01*
X490087Y224233D01*
X489946Y224208D01*
X489804Y224186D01*
X489662Y224169D01*
X489520Y224155D01*
X489377Y224145D01*
X489234Y224139D01*
X489091Y224137D01*
X490389Y242928D02*
X478705Y242928D01*
X490389Y242927D02*
X490511Y242929D01*
X490634Y242935D01*
X490756Y242944D01*
X490877Y242958D01*
X490998Y242975D01*
X491119Y242996D01*
X491239Y243021D01*
X491358Y243049D01*
X491476Y243082D01*
X491593Y243118D01*
X491708Y243157D01*
X491823Y243201D01*
X491936Y243247D01*
X492047Y243298D01*
X492157Y243352D01*
X492265Y243409D01*
X492372Y243469D01*
X492476Y243533D01*
X492578Y243601D01*
X492678Y243671D01*
X492776Y243744D01*
X492872Y243821D01*
X492965Y243900D01*
X493055Y243983D01*
X493143Y244068D01*
X493228Y244156D01*
X493311Y244246D01*
X493390Y244339D01*
X493467Y244435D01*
X493540Y244533D01*
X493610Y244633D01*
X493678Y244735D01*
X493742Y244839D01*
X493802Y244946D01*
X493859Y245054D01*
X493913Y245164D01*
X493964Y245275D01*
X494010Y245388D01*
X494054Y245503D01*
X494093Y245618D01*
X494129Y245735D01*
X494162Y245853D01*
X494190Y245972D01*
X494215Y246092D01*
X494236Y246213D01*
X494253Y246334D01*
X494267Y246455D01*
X494276Y246577D01*
X494282Y246700D01*
X494284Y246822D01*
X494284Y253313D01*
X478705Y253313D01*
X478705Y262602D02*
X494284Y262602D01*
X478705Y262602D02*
X478705Y274286D01*
X478707Y274408D01*
X478713Y274531D01*
X478722Y274653D01*
X478736Y274774D01*
X478753Y274895D01*
X478774Y275016D01*
X478799Y275136D01*
X478827Y275255D01*
X478860Y275373D01*
X478896Y275490D01*
X478935Y275605D01*
X478979Y275720D01*
X479025Y275833D01*
X479076Y275944D01*
X479130Y276054D01*
X479187Y276162D01*
X479247Y276269D01*
X479311Y276373D01*
X479379Y276475D01*
X479449Y276575D01*
X479522Y276673D01*
X479599Y276769D01*
X479678Y276862D01*
X479761Y276952D01*
X479846Y277040D01*
X479934Y277125D01*
X480024Y277208D01*
X480117Y277287D01*
X480213Y277364D01*
X480311Y277437D01*
X480411Y277507D01*
X480513Y277575D01*
X480617Y277639D01*
X480724Y277699D01*
X480832Y277756D01*
X480942Y277810D01*
X481053Y277861D01*
X481166Y277907D01*
X481281Y277951D01*
X481396Y277990D01*
X481513Y278026D01*
X481631Y278059D01*
X481750Y278087D01*
X481870Y278112D01*
X481991Y278133D01*
X482112Y278150D01*
X482233Y278164D01*
X482355Y278173D01*
X482478Y278179D01*
X482600Y278181D01*
X494284Y278181D01*
X494284Y270391D02*
X478705Y270391D01*
X485196Y291266D02*
X485196Y297108D01*
X485196Y291266D02*
X485198Y291133D01*
X485204Y290999D01*
X485214Y290866D01*
X485227Y290734D01*
X485245Y290601D01*
X485266Y290470D01*
X485292Y290339D01*
X485321Y290208D01*
X485354Y290079D01*
X485390Y289951D01*
X485431Y289824D01*
X485475Y289698D01*
X485523Y289573D01*
X485575Y289450D01*
X485630Y289329D01*
X485688Y289209D01*
X485750Y289091D01*
X485816Y288975D01*
X485885Y288861D01*
X485957Y288748D01*
X486033Y288638D01*
X486111Y288531D01*
X486193Y288425D01*
X486278Y288323D01*
X486366Y288222D01*
X486457Y288124D01*
X486551Y288029D01*
X486647Y287937D01*
X486746Y287848D01*
X486848Y287761D01*
X486952Y287678D01*
X487058Y287598D01*
X487167Y287521D01*
X487278Y287447D01*
X487391Y287376D01*
X487507Y287309D01*
X487624Y287245D01*
X487743Y287184D01*
X487863Y287128D01*
X487986Y287074D01*
X488110Y287025D01*
X488235Y286979D01*
X488361Y286936D01*
X488489Y286898D01*
X488618Y286863D01*
X488747Y286832D01*
X488878Y286804D01*
X489009Y286781D01*
X489141Y286762D01*
X489274Y286746D01*
X489407Y286734D01*
X489540Y286726D01*
X489673Y286722D01*
X489807Y286722D01*
X489940Y286726D01*
X490073Y286734D01*
X490206Y286746D01*
X490339Y286762D01*
X490471Y286781D01*
X490602Y286804D01*
X490733Y286832D01*
X490862Y286863D01*
X490991Y286898D01*
X491119Y286936D01*
X491245Y286979D01*
X491370Y287025D01*
X491494Y287074D01*
X491617Y287128D01*
X491737Y287184D01*
X491856Y287245D01*
X491973Y287309D01*
X492089Y287376D01*
X492202Y287447D01*
X492313Y287521D01*
X492422Y287598D01*
X492528Y287678D01*
X492632Y287761D01*
X492734Y287848D01*
X492833Y287937D01*
X492929Y288029D01*
X493023Y288124D01*
X493114Y288222D01*
X493202Y288323D01*
X493287Y288425D01*
X493369Y288531D01*
X493447Y288638D01*
X493523Y288748D01*
X493595Y288861D01*
X493664Y288975D01*
X493730Y289091D01*
X493792Y289209D01*
X493850Y289329D01*
X493905Y289450D01*
X493957Y289573D01*
X494005Y289698D01*
X494049Y289824D01*
X494090Y289951D01*
X494126Y290079D01*
X494159Y290208D01*
X494188Y290339D01*
X494214Y290470D01*
X494235Y290601D01*
X494253Y290734D01*
X494266Y290866D01*
X494276Y290999D01*
X494282Y291133D01*
X494284Y291266D01*
X494284Y297108D01*
X482600Y297108D01*
X482478Y297106D01*
X482355Y297100D01*
X482233Y297091D01*
X482112Y297077D01*
X481991Y297060D01*
X481870Y297039D01*
X481750Y297014D01*
X481631Y296986D01*
X481513Y296953D01*
X481396Y296917D01*
X481281Y296878D01*
X481166Y296834D01*
X481053Y296788D01*
X480942Y296737D01*
X480832Y296683D01*
X480724Y296626D01*
X480617Y296566D01*
X480513Y296502D01*
X480411Y296434D01*
X480311Y296364D01*
X480213Y296291D01*
X480117Y296214D01*
X480024Y296135D01*
X479934Y296052D01*
X479846Y295967D01*
X479761Y295879D01*
X479678Y295789D01*
X479599Y295696D01*
X479522Y295600D01*
X479449Y295502D01*
X479379Y295402D01*
X479311Y295300D01*
X479247Y295196D01*
X479187Y295089D01*
X479130Y294981D01*
X479076Y294871D01*
X479025Y294760D01*
X478979Y294647D01*
X478935Y294532D01*
X478896Y294417D01*
X478860Y294300D01*
X478827Y294182D01*
X478799Y294063D01*
X478774Y293943D01*
X478753Y293822D01*
X478736Y293701D01*
X478722Y293580D01*
X478713Y293458D01*
X478707Y293335D01*
X478705Y293213D01*
X478705Y288020D01*
X478705Y306260D02*
X494284Y306260D01*
X478705Y306260D02*
X478705Y312751D01*
X478707Y312873D01*
X478713Y312996D01*
X478722Y313118D01*
X478736Y313239D01*
X478753Y313360D01*
X478774Y313481D01*
X478799Y313601D01*
X478827Y313720D01*
X478860Y313838D01*
X478896Y313955D01*
X478935Y314070D01*
X478979Y314185D01*
X479025Y314298D01*
X479076Y314409D01*
X479130Y314519D01*
X479187Y314627D01*
X479247Y314734D01*
X479311Y314838D01*
X479379Y314940D01*
X479449Y315040D01*
X479522Y315138D01*
X479599Y315234D01*
X479678Y315327D01*
X479761Y315417D01*
X479846Y315505D01*
X479934Y315590D01*
X480024Y315673D01*
X480117Y315752D01*
X480213Y315829D01*
X480311Y315902D01*
X480411Y315972D01*
X480513Y316040D01*
X480617Y316104D01*
X480724Y316164D01*
X480832Y316221D01*
X480942Y316275D01*
X481053Y316326D01*
X481166Y316372D01*
X481281Y316416D01*
X481396Y316455D01*
X481513Y316491D01*
X481631Y316524D01*
X481750Y316552D01*
X481870Y316577D01*
X481991Y316598D01*
X482112Y316615D01*
X482233Y316629D01*
X482355Y316638D01*
X482478Y316644D01*
X482600Y316646D01*
X494284Y316646D01*
X485196Y326998D02*
X487793Y333489D01*
X485196Y326998D02*
X485152Y326892D01*
X485103Y326787D01*
X485051Y326684D01*
X484996Y326583D01*
X484937Y326483D01*
X484875Y326386D01*
X484810Y326291D01*
X484741Y326199D01*
X484669Y326108D01*
X484595Y326021D01*
X484517Y325935D01*
X484436Y325853D01*
X484353Y325773D01*
X484267Y325697D01*
X484178Y325623D01*
X484087Y325552D01*
X483993Y325485D01*
X483897Y325421D01*
X483799Y325360D01*
X483700Y325302D01*
X483598Y325248D01*
X483494Y325198D01*
X483389Y325151D01*
X483282Y325107D01*
X483173Y325068D01*
X483064Y325032D01*
X482953Y325000D01*
X482841Y324971D01*
X482729Y324947D01*
X482615Y324926D01*
X482501Y324910D01*
X482386Y324897D01*
X482271Y324888D01*
X482156Y324883D01*
X482041Y324882D01*
X481926Y324885D01*
X481810Y324892D01*
X481696Y324903D01*
X481581Y324918D01*
X481468Y324937D01*
X481354Y324959D01*
X481242Y324986D01*
X481131Y325016D01*
X481021Y325050D01*
X480912Y325088D01*
X480804Y325129D01*
X480698Y325175D01*
X480594Y325224D01*
X480491Y325276D01*
X480390Y325332D01*
X480291Y325391D01*
X480194Y325454D01*
X480100Y325520D01*
X480007Y325589D01*
X479917Y325661D01*
X479830Y325736D01*
X479745Y325815D01*
X479663Y325896D01*
X479584Y325980D01*
X479508Y326066D01*
X479435Y326155D01*
X479365Y326247D01*
X479298Y326341D01*
X479234Y326437D01*
X479174Y326535D01*
X479117Y326635D01*
X479063Y326737D01*
X479013Y326841D01*
X478967Y326947D01*
X478924Y327054D01*
X478885Y327163D01*
X478850Y327272D01*
X478818Y327383D01*
X478790Y327495D01*
X478766Y327608D01*
X478746Y327722D01*
X478730Y327836D01*
X478718Y327950D01*
X478710Y328065D01*
X478706Y328181D01*
X478705Y328296D01*
X478706Y328296D02*
X478715Y328651D01*
X478733Y329005D01*
X478759Y329358D01*
X478794Y329711D01*
X478837Y330063D01*
X478889Y330414D01*
X478949Y330763D01*
X479018Y331111D01*
X479095Y331457D01*
X479180Y331801D01*
X479273Y332143D01*
X479375Y332482D01*
X479485Y332819D01*
X479602Y333154D01*
X479728Y333485D01*
X479862Y333813D01*
X480004Y334138D01*
X487793Y333489D02*
X487837Y333595D01*
X487886Y333700D01*
X487938Y333803D01*
X487993Y333904D01*
X488052Y334004D01*
X488114Y334101D01*
X488179Y334196D01*
X488248Y334288D01*
X488320Y334379D01*
X488394Y334466D01*
X488472Y334552D01*
X488553Y334634D01*
X488636Y334714D01*
X488722Y334790D01*
X488811Y334864D01*
X488902Y334935D01*
X488996Y335002D01*
X489092Y335066D01*
X489190Y335127D01*
X489289Y335185D01*
X489391Y335239D01*
X489495Y335289D01*
X489600Y335336D01*
X489707Y335380D01*
X489816Y335419D01*
X489925Y335455D01*
X490036Y335487D01*
X490148Y335516D01*
X490260Y335540D01*
X490374Y335561D01*
X490488Y335577D01*
X490603Y335590D01*
X490718Y335599D01*
X490833Y335604D01*
X490948Y335605D01*
X491063Y335602D01*
X491179Y335595D01*
X491293Y335584D01*
X491408Y335569D01*
X491521Y335550D01*
X491635Y335528D01*
X491747Y335501D01*
X491858Y335471D01*
X491968Y335437D01*
X492077Y335399D01*
X492185Y335358D01*
X492291Y335312D01*
X492395Y335263D01*
X492498Y335211D01*
X492599Y335155D01*
X492698Y335096D01*
X492795Y335033D01*
X492889Y334967D01*
X492982Y334898D01*
X493072Y334826D01*
X493159Y334751D01*
X493244Y334672D01*
X493326Y334591D01*
X493405Y334507D01*
X493481Y334421D01*
X493554Y334332D01*
X493624Y334240D01*
X493691Y334146D01*
X493755Y334050D01*
X493815Y333952D01*
X493872Y333852D01*
X493926Y333750D01*
X493976Y333646D01*
X494022Y333540D01*
X494065Y333433D01*
X494104Y333324D01*
X494139Y333215D01*
X494171Y333104D01*
X494199Y332992D01*
X494223Y332879D01*
X494243Y332765D01*
X494259Y332651D01*
X494271Y332537D01*
X494279Y332421D01*
X494283Y332306D01*
X494284Y332191D01*
X494284Y332190D02*
X494270Y331670D01*
X494244Y331150D01*
X494206Y330630D01*
X494156Y330112D01*
X494093Y329595D01*
X494018Y329080D01*
X493931Y328567D01*
X493832Y328055D01*
X493720Y327547D01*
X493597Y327041D01*
X493462Y326538D01*
X493315Y326038D01*
X493156Y325542D01*
X492986Y325050D01*
D12*
X441269Y21844D02*
X438898Y21844D01*
X441269Y21844D02*
X441347Y21846D01*
X441424Y21852D01*
X441501Y21861D01*
X441577Y21874D01*
X441653Y21891D01*
X441728Y21912D01*
X441801Y21936D01*
X441874Y21964D01*
X441945Y21996D01*
X442014Y22031D01*
X442081Y22069D01*
X442147Y22110D01*
X442210Y22155D01*
X442271Y22203D01*
X442330Y22253D01*
X442386Y22307D01*
X442440Y22363D01*
X442490Y22422D01*
X442538Y22483D01*
X442583Y22546D01*
X442624Y22612D01*
X442662Y22679D01*
X442697Y22748D01*
X442729Y22819D01*
X442757Y22892D01*
X442781Y22965D01*
X442802Y23040D01*
X442819Y23116D01*
X442832Y23192D01*
X442841Y23269D01*
X442847Y23346D01*
X442849Y23424D01*
X442849Y24215D01*
X442847Y24293D01*
X442841Y24370D01*
X442832Y24447D01*
X442819Y24523D01*
X442802Y24599D01*
X442781Y24674D01*
X442757Y24747D01*
X442729Y24820D01*
X442697Y24891D01*
X442662Y24960D01*
X442624Y25027D01*
X442583Y25093D01*
X442538Y25156D01*
X442490Y25217D01*
X442440Y25276D01*
X442386Y25332D01*
X442330Y25386D01*
X442271Y25436D01*
X442210Y25484D01*
X442147Y25529D01*
X442081Y25570D01*
X442014Y25608D01*
X441945Y25643D01*
X441874Y25675D01*
X441801Y25703D01*
X441728Y25727D01*
X441653Y25748D01*
X441577Y25765D01*
X441501Y25778D01*
X441424Y25787D01*
X441347Y25793D01*
X441269Y25795D01*
X438898Y25795D01*
X438898Y28956D01*
X442849Y28956D01*
X445361Y28956D02*
X447731Y21844D01*
X450102Y28956D01*
X413760Y25795D02*
X412575Y25795D01*
X413760Y25795D02*
X413760Y21844D01*
X411390Y21844D01*
X411312Y21846D01*
X411235Y21852D01*
X411158Y21861D01*
X411082Y21874D01*
X411006Y21891D01*
X410931Y21912D01*
X410858Y21936D01*
X410785Y21964D01*
X410714Y21996D01*
X410645Y22031D01*
X410578Y22069D01*
X410512Y22110D01*
X410449Y22155D01*
X410388Y22203D01*
X410329Y22253D01*
X410273Y22307D01*
X410219Y22363D01*
X410169Y22422D01*
X410121Y22483D01*
X410076Y22546D01*
X410035Y22612D01*
X409997Y22679D01*
X409962Y22748D01*
X409930Y22819D01*
X409902Y22892D01*
X409878Y22965D01*
X409857Y23040D01*
X409840Y23116D01*
X409827Y23192D01*
X409818Y23269D01*
X409812Y23346D01*
X409810Y23424D01*
X409809Y23424D02*
X409809Y27376D01*
X409810Y27376D02*
X409812Y27454D01*
X409818Y27531D01*
X409827Y27608D01*
X409840Y27684D01*
X409857Y27760D01*
X409878Y27835D01*
X409902Y27908D01*
X409930Y27981D01*
X409962Y28052D01*
X409997Y28121D01*
X410035Y28188D01*
X410076Y28254D01*
X410121Y28317D01*
X410169Y28378D01*
X410219Y28437D01*
X410273Y28493D01*
X410329Y28547D01*
X410388Y28597D01*
X410449Y28645D01*
X410512Y28690D01*
X410578Y28731D01*
X410645Y28769D01*
X410714Y28804D01*
X410785Y28836D01*
X410858Y28864D01*
X410931Y28888D01*
X411006Y28909D01*
X411082Y28926D01*
X411158Y28939D01*
X411235Y28948D01*
X411312Y28954D01*
X411390Y28956D01*
X413760Y28956D01*
X417124Y28956D02*
X417124Y21844D01*
X421076Y21844D02*
X417124Y28956D01*
X421076Y28956D02*
X421076Y21844D01*
X424440Y21844D02*
X424440Y28956D01*
X426415Y28956D01*
X426501Y28954D01*
X426587Y28948D01*
X426673Y28939D01*
X426758Y28926D01*
X426843Y28909D01*
X426926Y28889D01*
X427009Y28865D01*
X427091Y28837D01*
X427171Y28806D01*
X427250Y28771D01*
X427327Y28733D01*
X427403Y28691D01*
X427477Y28647D01*
X427548Y28599D01*
X427618Y28548D01*
X427685Y28494D01*
X427750Y28437D01*
X427812Y28377D01*
X427872Y28315D01*
X427929Y28250D01*
X427983Y28183D01*
X428034Y28113D01*
X428082Y28042D01*
X428126Y27968D01*
X428168Y27892D01*
X428206Y27815D01*
X428241Y27736D01*
X428272Y27656D01*
X428300Y27574D01*
X428324Y27491D01*
X428344Y27408D01*
X428361Y27323D01*
X428374Y27238D01*
X428383Y27152D01*
X428389Y27066D01*
X428391Y26980D01*
X428391Y23820D01*
X428389Y23734D01*
X428383Y23648D01*
X428374Y23562D01*
X428361Y23477D01*
X428344Y23392D01*
X428324Y23309D01*
X428300Y23226D01*
X428272Y23144D01*
X428241Y23064D01*
X428206Y22985D01*
X428168Y22908D01*
X428126Y22832D01*
X428082Y22758D01*
X428034Y22687D01*
X427983Y22617D01*
X427929Y22550D01*
X427872Y22485D01*
X427812Y22423D01*
X427750Y22363D01*
X427685Y22306D01*
X427618Y22252D01*
X427548Y22201D01*
X427477Y22153D01*
X427403Y22109D01*
X427327Y22067D01*
X427250Y22029D01*
X427171Y21994D01*
X427091Y21963D01*
X427009Y21935D01*
X426926Y21911D01*
X426843Y21891D01*
X426758Y21874D01*
X426673Y21861D01*
X426587Y21852D01*
X426501Y21846D01*
X426415Y21844D01*
X424440Y21844D01*
X147060Y25795D02*
X145875Y25795D01*
X147060Y25795D02*
X147060Y21844D01*
X144690Y21844D01*
X144612Y21846D01*
X144535Y21852D01*
X144458Y21861D01*
X144382Y21874D01*
X144306Y21891D01*
X144231Y21912D01*
X144158Y21936D01*
X144085Y21964D01*
X144014Y21996D01*
X143945Y22031D01*
X143878Y22069D01*
X143812Y22110D01*
X143749Y22155D01*
X143688Y22203D01*
X143629Y22253D01*
X143573Y22307D01*
X143519Y22363D01*
X143469Y22422D01*
X143421Y22483D01*
X143376Y22546D01*
X143335Y22612D01*
X143297Y22679D01*
X143262Y22748D01*
X143230Y22819D01*
X143202Y22892D01*
X143178Y22965D01*
X143157Y23040D01*
X143140Y23116D01*
X143127Y23192D01*
X143118Y23269D01*
X143112Y23346D01*
X143110Y23424D01*
X143109Y23424D02*
X143109Y27376D01*
X143110Y27376D02*
X143112Y27454D01*
X143118Y27531D01*
X143127Y27608D01*
X143140Y27684D01*
X143157Y27760D01*
X143178Y27835D01*
X143202Y27908D01*
X143230Y27981D01*
X143262Y28052D01*
X143297Y28121D01*
X143335Y28188D01*
X143376Y28254D01*
X143421Y28317D01*
X143469Y28378D01*
X143519Y28437D01*
X143573Y28493D01*
X143629Y28547D01*
X143688Y28597D01*
X143749Y28645D01*
X143812Y28690D01*
X143878Y28731D01*
X143945Y28769D01*
X144014Y28804D01*
X144085Y28836D01*
X144158Y28864D01*
X144231Y28888D01*
X144306Y28909D01*
X144382Y28926D01*
X144458Y28939D01*
X144535Y28948D01*
X144612Y28954D01*
X144690Y28956D01*
X147060Y28956D01*
X150424Y28956D02*
X150424Y21844D01*
X154376Y21844D02*
X150424Y28956D01*
X154376Y28956D02*
X154376Y21844D01*
X157740Y21844D02*
X157740Y28956D01*
X159715Y28956D01*
X159801Y28954D01*
X159887Y28948D01*
X159973Y28939D01*
X160058Y28926D01*
X160143Y28909D01*
X160226Y28889D01*
X160309Y28865D01*
X160391Y28837D01*
X160471Y28806D01*
X160550Y28771D01*
X160627Y28733D01*
X160703Y28691D01*
X160777Y28647D01*
X160848Y28599D01*
X160918Y28548D01*
X160985Y28494D01*
X161050Y28437D01*
X161112Y28377D01*
X161172Y28315D01*
X161229Y28250D01*
X161283Y28183D01*
X161334Y28113D01*
X161382Y28042D01*
X161426Y27968D01*
X161468Y27892D01*
X161506Y27815D01*
X161541Y27736D01*
X161572Y27656D01*
X161600Y27574D01*
X161624Y27491D01*
X161644Y27408D01*
X161661Y27323D01*
X161674Y27238D01*
X161683Y27152D01*
X161689Y27066D01*
X161691Y26980D01*
X161691Y23820D01*
X161689Y23734D01*
X161683Y23648D01*
X161674Y23562D01*
X161661Y23477D01*
X161644Y23392D01*
X161624Y23309D01*
X161600Y23226D01*
X161572Y23144D01*
X161541Y23064D01*
X161506Y22985D01*
X161468Y22908D01*
X161426Y22832D01*
X161382Y22758D01*
X161334Y22687D01*
X161283Y22617D01*
X161229Y22550D01*
X161172Y22485D01*
X161112Y22423D01*
X161050Y22363D01*
X160985Y22306D01*
X160918Y22252D01*
X160848Y22201D01*
X160777Y22153D01*
X160703Y22109D01*
X160627Y22067D01*
X160550Y22029D01*
X160471Y21994D01*
X160391Y21963D01*
X160309Y21935D01*
X160226Y21911D01*
X160143Y21891D01*
X160058Y21874D01*
X159973Y21861D01*
X159887Y21852D01*
X159801Y21846D01*
X159715Y21844D01*
X157740Y21844D01*
X123769Y21844D02*
X121398Y21844D01*
X123769Y21844D02*
X123847Y21846D01*
X123924Y21852D01*
X124001Y21861D01*
X124077Y21874D01*
X124153Y21891D01*
X124228Y21912D01*
X124301Y21936D01*
X124374Y21964D01*
X124445Y21996D01*
X124514Y22031D01*
X124581Y22069D01*
X124647Y22110D01*
X124710Y22155D01*
X124771Y22203D01*
X124830Y22253D01*
X124886Y22307D01*
X124940Y22363D01*
X124990Y22422D01*
X125038Y22483D01*
X125083Y22546D01*
X125124Y22612D01*
X125162Y22679D01*
X125197Y22748D01*
X125229Y22819D01*
X125257Y22892D01*
X125281Y22965D01*
X125302Y23040D01*
X125319Y23116D01*
X125332Y23192D01*
X125341Y23269D01*
X125347Y23346D01*
X125349Y23424D01*
X125349Y24215D01*
X125347Y24293D01*
X125341Y24370D01*
X125332Y24447D01*
X125319Y24523D01*
X125302Y24599D01*
X125281Y24674D01*
X125257Y24747D01*
X125229Y24820D01*
X125197Y24891D01*
X125162Y24960D01*
X125124Y25027D01*
X125083Y25093D01*
X125038Y25156D01*
X124990Y25217D01*
X124940Y25276D01*
X124886Y25332D01*
X124830Y25386D01*
X124771Y25436D01*
X124710Y25484D01*
X124647Y25529D01*
X124581Y25570D01*
X124514Y25608D01*
X124445Y25643D01*
X124374Y25675D01*
X124301Y25703D01*
X124228Y25727D01*
X124153Y25748D01*
X124077Y25765D01*
X124001Y25778D01*
X123924Y25787D01*
X123847Y25793D01*
X123769Y25795D01*
X121398Y25795D01*
X121398Y28956D01*
X125349Y28956D01*
X127861Y28956D02*
X130231Y21844D01*
X132602Y28956D01*
X296699Y326644D02*
X296699Y333756D01*
X298674Y333756D01*
X298761Y333754D01*
X298849Y333748D01*
X298936Y333739D01*
X299022Y333725D01*
X299108Y333708D01*
X299192Y333687D01*
X299276Y333662D01*
X299359Y333633D01*
X299440Y333601D01*
X299520Y333566D01*
X299598Y333527D01*
X299675Y333484D01*
X299749Y333438D01*
X299821Y333389D01*
X299891Y333337D01*
X299959Y333281D01*
X300024Y333223D01*
X300087Y333162D01*
X300146Y333098D01*
X300203Y333031D01*
X300257Y332963D01*
X300308Y332891D01*
X300355Y332818D01*
X300400Y332743D01*
X300441Y332665D01*
X300478Y332586D01*
X300512Y332506D01*
X300542Y332424D01*
X300569Y332341D01*
X300592Y332256D01*
X300611Y332171D01*
X300626Y332085D01*
X300638Y331998D01*
X300646Y331911D01*
X300650Y331824D01*
X300650Y331736D01*
X300646Y331649D01*
X300638Y331562D01*
X300626Y331475D01*
X300611Y331389D01*
X300592Y331304D01*
X300569Y331219D01*
X300542Y331136D01*
X300512Y331054D01*
X300478Y330974D01*
X300441Y330895D01*
X300400Y330817D01*
X300355Y330742D01*
X300308Y330669D01*
X300257Y330597D01*
X300203Y330529D01*
X300146Y330462D01*
X300087Y330398D01*
X300024Y330337D01*
X299959Y330279D01*
X299891Y330223D01*
X299821Y330171D01*
X299749Y330122D01*
X299675Y330076D01*
X299598Y330033D01*
X299520Y329994D01*
X299440Y329959D01*
X299359Y329927D01*
X299276Y329898D01*
X299192Y329873D01*
X299108Y329852D01*
X299022Y329835D01*
X298936Y329821D01*
X298849Y329812D01*
X298761Y329806D01*
X298674Y329804D01*
X298674Y329805D02*
X296699Y329805D01*
X304797Y326644D02*
X306378Y326644D01*
X304797Y326644D02*
X304719Y326646D01*
X304642Y326652D01*
X304565Y326661D01*
X304489Y326674D01*
X304413Y326691D01*
X304338Y326712D01*
X304265Y326736D01*
X304192Y326764D01*
X304121Y326796D01*
X304052Y326831D01*
X303985Y326869D01*
X303919Y326910D01*
X303856Y326955D01*
X303795Y327003D01*
X303736Y327053D01*
X303680Y327107D01*
X303626Y327163D01*
X303576Y327222D01*
X303528Y327283D01*
X303483Y327346D01*
X303442Y327412D01*
X303404Y327479D01*
X303369Y327548D01*
X303337Y327619D01*
X303309Y327692D01*
X303285Y327765D01*
X303264Y327840D01*
X303247Y327916D01*
X303234Y327992D01*
X303225Y328069D01*
X303219Y328146D01*
X303217Y328224D01*
X303217Y332176D01*
X303219Y332254D01*
X303225Y332331D01*
X303234Y332408D01*
X303247Y332484D01*
X303264Y332560D01*
X303285Y332635D01*
X303309Y332708D01*
X303337Y332781D01*
X303369Y332852D01*
X303404Y332921D01*
X303442Y332988D01*
X303483Y333054D01*
X303528Y333117D01*
X303576Y333178D01*
X303626Y333237D01*
X303680Y333293D01*
X303736Y333347D01*
X303795Y333397D01*
X303856Y333445D01*
X303919Y333490D01*
X303985Y333531D01*
X304052Y333569D01*
X304121Y333604D01*
X304192Y333636D01*
X304265Y333664D01*
X304338Y333688D01*
X304413Y333709D01*
X304489Y333726D01*
X304565Y333739D01*
X304642Y333748D01*
X304719Y333754D01*
X304797Y333756D01*
X306378Y333756D01*
X308950Y330595D02*
X311321Y330595D01*
X311399Y330593D01*
X311476Y330587D01*
X311553Y330578D01*
X311629Y330565D01*
X311705Y330548D01*
X311780Y330527D01*
X311853Y330503D01*
X311926Y330475D01*
X311997Y330443D01*
X312066Y330408D01*
X312133Y330370D01*
X312199Y330329D01*
X312262Y330284D01*
X312323Y330236D01*
X312382Y330186D01*
X312438Y330132D01*
X312492Y330076D01*
X312542Y330017D01*
X312590Y329956D01*
X312635Y329893D01*
X312676Y329827D01*
X312714Y329760D01*
X312749Y329691D01*
X312781Y329620D01*
X312809Y329547D01*
X312833Y329474D01*
X312854Y329399D01*
X312871Y329323D01*
X312884Y329247D01*
X312893Y329170D01*
X312899Y329093D01*
X312901Y329015D01*
X312901Y328620D01*
X312902Y328620D02*
X312900Y328533D01*
X312894Y328445D01*
X312885Y328358D01*
X312871Y328272D01*
X312854Y328186D01*
X312833Y328102D01*
X312808Y328018D01*
X312779Y327935D01*
X312747Y327854D01*
X312712Y327774D01*
X312673Y327696D01*
X312630Y327619D01*
X312584Y327545D01*
X312535Y327473D01*
X312483Y327403D01*
X312427Y327335D01*
X312369Y327270D01*
X312308Y327207D01*
X312244Y327148D01*
X312177Y327091D01*
X312109Y327037D01*
X312037Y326986D01*
X311964Y326939D01*
X311889Y326894D01*
X311811Y326853D01*
X311732Y326816D01*
X311652Y326782D01*
X311570Y326752D01*
X311487Y326725D01*
X311402Y326702D01*
X311317Y326683D01*
X311231Y326668D01*
X311144Y326656D01*
X311057Y326648D01*
X310970Y326644D01*
X310882Y326644D01*
X310795Y326648D01*
X310708Y326656D01*
X310621Y326668D01*
X310535Y326683D01*
X310450Y326702D01*
X310365Y326725D01*
X310282Y326752D01*
X310200Y326782D01*
X310120Y326816D01*
X310041Y326853D01*
X309963Y326894D01*
X309888Y326939D01*
X309815Y326986D01*
X309743Y327037D01*
X309675Y327091D01*
X309608Y327148D01*
X309544Y327207D01*
X309483Y327270D01*
X309425Y327335D01*
X309369Y327403D01*
X309317Y327473D01*
X309268Y327545D01*
X309222Y327619D01*
X309179Y327696D01*
X309140Y327774D01*
X309105Y327854D01*
X309073Y327935D01*
X309044Y328018D01*
X309019Y328102D01*
X308998Y328186D01*
X308981Y328272D01*
X308967Y328358D01*
X308958Y328445D01*
X308952Y328533D01*
X308950Y328620D01*
X308950Y330595D01*
X308952Y330705D01*
X308958Y330815D01*
X308967Y330925D01*
X308981Y331035D01*
X308998Y331144D01*
X309019Y331252D01*
X309044Y331360D01*
X309072Y331466D01*
X309105Y331572D01*
X309141Y331676D01*
X309180Y331779D01*
X309223Y331881D01*
X309270Y331981D01*
X309320Y332079D01*
X309373Y332175D01*
X309430Y332270D01*
X309490Y332363D01*
X309554Y332453D01*
X309620Y332541D01*
X309690Y332627D01*
X309762Y332710D01*
X309837Y332791D01*
X309915Y332869D01*
X309996Y332944D01*
X310079Y333016D01*
X310165Y333086D01*
X310253Y333152D01*
X310343Y333216D01*
X310436Y333276D01*
X310530Y333332D01*
X310627Y333386D01*
X310725Y333436D01*
X310825Y333483D01*
X310927Y333526D01*
X311030Y333565D01*
X311134Y333601D01*
X311240Y333634D01*
X311346Y333662D01*
X311454Y333687D01*
X311562Y333708D01*
X311671Y333725D01*
X311781Y333739D01*
X311890Y333748D01*
X312001Y333754D01*
X312111Y333756D01*
X321527Y333756D02*
X321527Y326644D01*
X321527Y333756D02*
X323503Y333756D01*
X323590Y333754D01*
X323678Y333748D01*
X323765Y333739D01*
X323851Y333725D01*
X323937Y333708D01*
X324021Y333687D01*
X324105Y333662D01*
X324188Y333633D01*
X324269Y333601D01*
X324349Y333566D01*
X324427Y333527D01*
X324504Y333484D01*
X324578Y333438D01*
X324650Y333389D01*
X324720Y333337D01*
X324788Y333281D01*
X324853Y333223D01*
X324916Y333162D01*
X324975Y333098D01*
X325032Y333031D01*
X325086Y332963D01*
X325137Y332891D01*
X325184Y332818D01*
X325229Y332743D01*
X325270Y332665D01*
X325307Y332586D01*
X325341Y332506D01*
X325371Y332424D01*
X325398Y332341D01*
X325421Y332256D01*
X325440Y332171D01*
X325455Y332085D01*
X325467Y331998D01*
X325475Y331911D01*
X325479Y331824D01*
X325479Y331736D01*
X325475Y331649D01*
X325467Y331562D01*
X325455Y331475D01*
X325440Y331389D01*
X325421Y331304D01*
X325398Y331219D01*
X325371Y331136D01*
X325341Y331054D01*
X325307Y330974D01*
X325270Y330895D01*
X325229Y330817D01*
X325184Y330742D01*
X325137Y330669D01*
X325086Y330597D01*
X325032Y330529D01*
X324975Y330462D01*
X324916Y330398D01*
X324853Y330337D01*
X324788Y330279D01*
X324720Y330223D01*
X324650Y330171D01*
X324578Y330122D01*
X324504Y330076D01*
X324427Y330033D01*
X324349Y329994D01*
X324269Y329959D01*
X324188Y329927D01*
X324105Y329898D01*
X324021Y329873D01*
X323937Y329852D01*
X323851Y329835D01*
X323765Y329821D01*
X323678Y329812D01*
X323590Y329806D01*
X323503Y329804D01*
X323503Y329805D02*
X321527Y329805D01*
X328385Y330595D02*
X330361Y330595D01*
X330361Y330596D02*
X330448Y330594D01*
X330536Y330588D01*
X330623Y330579D01*
X330709Y330565D01*
X330795Y330548D01*
X330879Y330527D01*
X330963Y330502D01*
X331046Y330473D01*
X331127Y330441D01*
X331207Y330406D01*
X331285Y330367D01*
X331362Y330324D01*
X331436Y330278D01*
X331508Y330229D01*
X331578Y330177D01*
X331646Y330121D01*
X331711Y330063D01*
X331774Y330002D01*
X331833Y329938D01*
X331890Y329871D01*
X331944Y329803D01*
X331995Y329731D01*
X332042Y329658D01*
X332087Y329583D01*
X332128Y329505D01*
X332165Y329426D01*
X332199Y329346D01*
X332229Y329264D01*
X332256Y329181D01*
X332279Y329096D01*
X332298Y329011D01*
X332313Y328925D01*
X332325Y328838D01*
X332333Y328751D01*
X332337Y328664D01*
X332337Y328576D01*
X332333Y328489D01*
X332325Y328402D01*
X332313Y328315D01*
X332298Y328229D01*
X332279Y328144D01*
X332256Y328059D01*
X332229Y327976D01*
X332199Y327894D01*
X332165Y327814D01*
X332128Y327735D01*
X332087Y327657D01*
X332042Y327582D01*
X331995Y327509D01*
X331944Y327437D01*
X331890Y327369D01*
X331833Y327302D01*
X331774Y327238D01*
X331711Y327177D01*
X331646Y327119D01*
X331578Y327063D01*
X331508Y327011D01*
X331436Y326962D01*
X331362Y326916D01*
X331285Y326873D01*
X331207Y326834D01*
X331127Y326799D01*
X331046Y326767D01*
X330963Y326738D01*
X330879Y326713D01*
X330795Y326692D01*
X330709Y326675D01*
X330623Y326661D01*
X330536Y326652D01*
X330448Y326646D01*
X330361Y326644D01*
X328385Y326644D01*
X328385Y333756D01*
X330361Y333756D01*
X330440Y333754D01*
X330518Y333748D01*
X330596Y333738D01*
X330674Y333725D01*
X330751Y333707D01*
X330827Y333686D01*
X330901Y333661D01*
X330975Y333632D01*
X331047Y333600D01*
X331117Y333564D01*
X331185Y333524D01*
X331251Y333481D01*
X331315Y333435D01*
X331377Y333386D01*
X331436Y333334D01*
X331492Y333279D01*
X331546Y333221D01*
X331596Y333161D01*
X331644Y333098D01*
X331688Y333033D01*
X331729Y332966D01*
X331767Y332897D01*
X331801Y332826D01*
X331832Y332753D01*
X331859Y332679D01*
X331882Y332604D01*
X331901Y332528D01*
X331917Y332450D01*
X331929Y332372D01*
X331937Y332294D01*
X331941Y332215D01*
X331941Y332137D01*
X331937Y332058D01*
X331929Y331980D01*
X331917Y331902D01*
X331901Y331824D01*
X331882Y331748D01*
X331859Y331673D01*
X331832Y331599D01*
X331801Y331526D01*
X331767Y331455D01*
X331729Y331386D01*
X331688Y331319D01*
X331644Y331254D01*
X331596Y331191D01*
X331546Y331131D01*
X331492Y331073D01*
X331436Y331018D01*
X331377Y330966D01*
X331315Y330917D01*
X331251Y330871D01*
X331185Y330828D01*
X331117Y330788D01*
X331047Y330752D01*
X330975Y330720D01*
X330901Y330691D01*
X330827Y330666D01*
X330751Y330645D01*
X330674Y330627D01*
X330596Y330614D01*
X330518Y330604D01*
X330440Y330598D01*
X330361Y330596D01*
X334922Y326644D02*
X336897Y326644D01*
X336984Y326646D01*
X337072Y326652D01*
X337159Y326661D01*
X337245Y326675D01*
X337331Y326692D01*
X337415Y326713D01*
X337499Y326738D01*
X337582Y326767D01*
X337663Y326799D01*
X337743Y326834D01*
X337821Y326873D01*
X337898Y326916D01*
X337972Y326962D01*
X338044Y327011D01*
X338114Y327063D01*
X338182Y327119D01*
X338247Y327177D01*
X338310Y327238D01*
X338369Y327302D01*
X338426Y327369D01*
X338480Y327437D01*
X338531Y327509D01*
X338578Y327582D01*
X338623Y327657D01*
X338664Y327735D01*
X338701Y327814D01*
X338735Y327894D01*
X338765Y327976D01*
X338792Y328059D01*
X338815Y328144D01*
X338834Y328229D01*
X338849Y328315D01*
X338861Y328402D01*
X338869Y328489D01*
X338873Y328576D01*
X338873Y328664D01*
X338869Y328751D01*
X338861Y328838D01*
X338849Y328925D01*
X338834Y329011D01*
X338815Y329096D01*
X338792Y329181D01*
X338765Y329264D01*
X338735Y329346D01*
X338701Y329426D01*
X338664Y329505D01*
X338623Y329583D01*
X338578Y329658D01*
X338531Y329731D01*
X338480Y329803D01*
X338426Y329871D01*
X338369Y329938D01*
X338310Y330002D01*
X338247Y330063D01*
X338182Y330121D01*
X338114Y330177D01*
X338044Y330229D01*
X337972Y330278D01*
X337898Y330324D01*
X337821Y330367D01*
X337743Y330406D01*
X337663Y330441D01*
X337582Y330473D01*
X337499Y330502D01*
X337415Y330527D01*
X337331Y330548D01*
X337245Y330565D01*
X337159Y330579D01*
X337072Y330588D01*
X336984Y330594D01*
X336897Y330596D01*
X337292Y333756D02*
X334922Y333756D01*
X337292Y333756D02*
X337371Y333754D01*
X337449Y333748D01*
X337527Y333738D01*
X337605Y333725D01*
X337682Y333707D01*
X337758Y333686D01*
X337832Y333661D01*
X337906Y333632D01*
X337978Y333600D01*
X338048Y333564D01*
X338116Y333524D01*
X338182Y333481D01*
X338246Y333435D01*
X338308Y333386D01*
X338367Y333334D01*
X338423Y333279D01*
X338477Y333221D01*
X338527Y333161D01*
X338575Y333098D01*
X338619Y333033D01*
X338660Y332966D01*
X338698Y332897D01*
X338732Y332826D01*
X338763Y332753D01*
X338790Y332679D01*
X338813Y332604D01*
X338832Y332528D01*
X338848Y332450D01*
X338860Y332372D01*
X338868Y332294D01*
X338872Y332215D01*
X338872Y332137D01*
X338868Y332058D01*
X338860Y331980D01*
X338848Y331902D01*
X338832Y331824D01*
X338813Y331748D01*
X338790Y331673D01*
X338763Y331599D01*
X338732Y331526D01*
X338698Y331455D01*
X338660Y331386D01*
X338619Y331319D01*
X338575Y331254D01*
X338527Y331191D01*
X338477Y331131D01*
X338423Y331073D01*
X338367Y331018D01*
X338308Y330966D01*
X338246Y330917D01*
X338182Y330871D01*
X338116Y330828D01*
X338048Y330788D01*
X337978Y330752D01*
X337906Y330720D01*
X337832Y330691D01*
X337758Y330666D01*
X337682Y330645D01*
X337605Y330627D01*
X337527Y330614D01*
X337449Y330604D01*
X337371Y330598D01*
X337292Y330596D01*
X337292Y330595D02*
X335712Y330595D01*
X346927Y333756D02*
X346927Y326644D01*
X346927Y333756D02*
X348903Y333756D01*
X348990Y333754D01*
X349078Y333748D01*
X349165Y333739D01*
X349251Y333725D01*
X349337Y333708D01*
X349421Y333687D01*
X349505Y333662D01*
X349588Y333633D01*
X349669Y333601D01*
X349749Y333566D01*
X349827Y333527D01*
X349904Y333484D01*
X349978Y333438D01*
X350050Y333389D01*
X350120Y333337D01*
X350188Y333281D01*
X350253Y333223D01*
X350316Y333162D01*
X350375Y333098D01*
X350432Y333031D01*
X350486Y332963D01*
X350537Y332891D01*
X350584Y332818D01*
X350629Y332743D01*
X350670Y332665D01*
X350707Y332586D01*
X350741Y332506D01*
X350771Y332424D01*
X350798Y332341D01*
X350821Y332256D01*
X350840Y332171D01*
X350855Y332085D01*
X350867Y331998D01*
X350875Y331911D01*
X350879Y331824D01*
X350879Y331736D01*
X350875Y331649D01*
X350867Y331562D01*
X350855Y331475D01*
X350840Y331389D01*
X350821Y331304D01*
X350798Y331219D01*
X350771Y331136D01*
X350741Y331054D01*
X350707Y330974D01*
X350670Y330895D01*
X350629Y330817D01*
X350584Y330742D01*
X350537Y330669D01*
X350486Y330597D01*
X350432Y330529D01*
X350375Y330462D01*
X350316Y330398D01*
X350253Y330337D01*
X350188Y330279D01*
X350120Y330223D01*
X350050Y330171D01*
X349978Y330122D01*
X349904Y330076D01*
X349827Y330033D01*
X349749Y329994D01*
X349669Y329959D01*
X349588Y329927D01*
X349505Y329898D01*
X349421Y329873D01*
X349337Y329852D01*
X349251Y329835D01*
X349165Y329821D01*
X349078Y329812D01*
X348990Y329806D01*
X348903Y329804D01*
X348903Y329805D02*
X346927Y329805D01*
X353785Y330595D02*
X355761Y330595D01*
X355761Y330596D02*
X355848Y330594D01*
X355936Y330588D01*
X356023Y330579D01*
X356109Y330565D01*
X356195Y330548D01*
X356279Y330527D01*
X356363Y330502D01*
X356446Y330473D01*
X356527Y330441D01*
X356607Y330406D01*
X356685Y330367D01*
X356762Y330324D01*
X356836Y330278D01*
X356908Y330229D01*
X356978Y330177D01*
X357046Y330121D01*
X357111Y330063D01*
X357174Y330002D01*
X357233Y329938D01*
X357290Y329871D01*
X357344Y329803D01*
X357395Y329731D01*
X357442Y329658D01*
X357487Y329583D01*
X357528Y329505D01*
X357565Y329426D01*
X357599Y329346D01*
X357629Y329264D01*
X357656Y329181D01*
X357679Y329096D01*
X357698Y329011D01*
X357713Y328925D01*
X357725Y328838D01*
X357733Y328751D01*
X357737Y328664D01*
X357737Y328576D01*
X357733Y328489D01*
X357725Y328402D01*
X357713Y328315D01*
X357698Y328229D01*
X357679Y328144D01*
X357656Y328059D01*
X357629Y327976D01*
X357599Y327894D01*
X357565Y327814D01*
X357528Y327735D01*
X357487Y327657D01*
X357442Y327582D01*
X357395Y327509D01*
X357344Y327437D01*
X357290Y327369D01*
X357233Y327302D01*
X357174Y327238D01*
X357111Y327177D01*
X357046Y327119D01*
X356978Y327063D01*
X356908Y327011D01*
X356836Y326962D01*
X356762Y326916D01*
X356685Y326873D01*
X356607Y326834D01*
X356527Y326799D01*
X356446Y326767D01*
X356363Y326738D01*
X356279Y326713D01*
X356195Y326692D01*
X356109Y326675D01*
X356023Y326661D01*
X355936Y326652D01*
X355848Y326646D01*
X355761Y326644D01*
X353785Y326644D01*
X353785Y333756D01*
X355761Y333756D01*
X355840Y333754D01*
X355918Y333748D01*
X355996Y333738D01*
X356074Y333725D01*
X356151Y333707D01*
X356227Y333686D01*
X356301Y333661D01*
X356375Y333632D01*
X356447Y333600D01*
X356517Y333564D01*
X356585Y333524D01*
X356651Y333481D01*
X356715Y333435D01*
X356777Y333386D01*
X356836Y333334D01*
X356892Y333279D01*
X356946Y333221D01*
X356996Y333161D01*
X357044Y333098D01*
X357088Y333033D01*
X357129Y332966D01*
X357167Y332897D01*
X357201Y332826D01*
X357232Y332753D01*
X357259Y332679D01*
X357282Y332604D01*
X357301Y332528D01*
X357317Y332450D01*
X357329Y332372D01*
X357337Y332294D01*
X357341Y332215D01*
X357341Y332137D01*
X357337Y332058D01*
X357329Y331980D01*
X357317Y331902D01*
X357301Y331824D01*
X357282Y331748D01*
X357259Y331673D01*
X357232Y331599D01*
X357201Y331526D01*
X357167Y331455D01*
X357129Y331386D01*
X357088Y331319D01*
X357044Y331254D01*
X356996Y331191D01*
X356946Y331131D01*
X356892Y331073D01*
X356836Y331018D01*
X356777Y330966D01*
X356715Y330917D01*
X356651Y330871D01*
X356585Y330828D01*
X356517Y330788D01*
X356447Y330752D01*
X356375Y330720D01*
X356301Y330691D01*
X356227Y330666D01*
X356151Y330645D01*
X356074Y330627D01*
X355996Y330614D01*
X355918Y330604D01*
X355840Y330598D01*
X355761Y330596D01*
X360322Y328224D02*
X361902Y333756D01*
X360322Y328224D02*
X364273Y328224D01*
X363087Y326644D02*
X363087Y329805D01*
X372327Y326644D02*
X372327Y333756D01*
X374303Y333756D01*
X374390Y333754D01*
X374478Y333748D01*
X374565Y333739D01*
X374651Y333725D01*
X374737Y333708D01*
X374821Y333687D01*
X374905Y333662D01*
X374988Y333633D01*
X375069Y333601D01*
X375149Y333566D01*
X375227Y333527D01*
X375304Y333484D01*
X375378Y333438D01*
X375450Y333389D01*
X375520Y333337D01*
X375588Y333281D01*
X375653Y333223D01*
X375716Y333162D01*
X375775Y333098D01*
X375832Y333031D01*
X375886Y332963D01*
X375937Y332891D01*
X375984Y332818D01*
X376029Y332743D01*
X376070Y332665D01*
X376107Y332586D01*
X376141Y332506D01*
X376171Y332424D01*
X376198Y332341D01*
X376221Y332256D01*
X376240Y332171D01*
X376255Y332085D01*
X376267Y331998D01*
X376275Y331911D01*
X376279Y331824D01*
X376279Y331736D01*
X376275Y331649D01*
X376267Y331562D01*
X376255Y331475D01*
X376240Y331389D01*
X376221Y331304D01*
X376198Y331219D01*
X376171Y331136D01*
X376141Y331054D01*
X376107Y330974D01*
X376070Y330895D01*
X376029Y330817D01*
X375984Y330742D01*
X375937Y330669D01*
X375886Y330597D01*
X375832Y330529D01*
X375775Y330462D01*
X375716Y330398D01*
X375653Y330337D01*
X375588Y330279D01*
X375520Y330223D01*
X375450Y330171D01*
X375378Y330122D01*
X375304Y330076D01*
X375227Y330033D01*
X375149Y329994D01*
X375069Y329959D01*
X374988Y329927D01*
X374905Y329898D01*
X374821Y329873D01*
X374737Y329852D01*
X374651Y329835D01*
X374565Y329821D01*
X374478Y329812D01*
X374390Y329806D01*
X374303Y329804D01*
X374303Y329805D02*
X372327Y329805D01*
X379185Y330595D02*
X381161Y330595D01*
X381161Y330596D02*
X381248Y330594D01*
X381336Y330588D01*
X381423Y330579D01*
X381509Y330565D01*
X381595Y330548D01*
X381679Y330527D01*
X381763Y330502D01*
X381846Y330473D01*
X381927Y330441D01*
X382007Y330406D01*
X382085Y330367D01*
X382162Y330324D01*
X382236Y330278D01*
X382308Y330229D01*
X382378Y330177D01*
X382446Y330121D01*
X382511Y330063D01*
X382574Y330002D01*
X382633Y329938D01*
X382690Y329871D01*
X382744Y329803D01*
X382795Y329731D01*
X382842Y329658D01*
X382887Y329583D01*
X382928Y329505D01*
X382965Y329426D01*
X382999Y329346D01*
X383029Y329264D01*
X383056Y329181D01*
X383079Y329096D01*
X383098Y329011D01*
X383113Y328925D01*
X383125Y328838D01*
X383133Y328751D01*
X383137Y328664D01*
X383137Y328576D01*
X383133Y328489D01*
X383125Y328402D01*
X383113Y328315D01*
X383098Y328229D01*
X383079Y328144D01*
X383056Y328059D01*
X383029Y327976D01*
X382999Y327894D01*
X382965Y327814D01*
X382928Y327735D01*
X382887Y327657D01*
X382842Y327582D01*
X382795Y327509D01*
X382744Y327437D01*
X382690Y327369D01*
X382633Y327302D01*
X382574Y327238D01*
X382511Y327177D01*
X382446Y327119D01*
X382378Y327063D01*
X382308Y327011D01*
X382236Y326962D01*
X382162Y326916D01*
X382085Y326873D01*
X382007Y326834D01*
X381927Y326799D01*
X381846Y326767D01*
X381763Y326738D01*
X381679Y326713D01*
X381595Y326692D01*
X381509Y326675D01*
X381423Y326661D01*
X381336Y326652D01*
X381248Y326646D01*
X381161Y326644D01*
X379185Y326644D01*
X379185Y333756D01*
X381161Y333756D01*
X381240Y333754D01*
X381318Y333748D01*
X381396Y333738D01*
X381474Y333725D01*
X381551Y333707D01*
X381627Y333686D01*
X381701Y333661D01*
X381775Y333632D01*
X381847Y333600D01*
X381917Y333564D01*
X381985Y333524D01*
X382051Y333481D01*
X382115Y333435D01*
X382177Y333386D01*
X382236Y333334D01*
X382292Y333279D01*
X382346Y333221D01*
X382396Y333161D01*
X382444Y333098D01*
X382488Y333033D01*
X382529Y332966D01*
X382567Y332897D01*
X382601Y332826D01*
X382632Y332753D01*
X382659Y332679D01*
X382682Y332604D01*
X382701Y332528D01*
X382717Y332450D01*
X382729Y332372D01*
X382737Y332294D01*
X382741Y332215D01*
X382741Y332137D01*
X382737Y332058D01*
X382729Y331980D01*
X382717Y331902D01*
X382701Y331824D01*
X382682Y331748D01*
X382659Y331673D01*
X382632Y331599D01*
X382601Y331526D01*
X382567Y331455D01*
X382529Y331386D01*
X382488Y331319D01*
X382444Y331254D01*
X382396Y331191D01*
X382346Y331131D01*
X382292Y331073D01*
X382236Y331018D01*
X382177Y330966D01*
X382115Y330917D01*
X382051Y330871D01*
X381985Y330828D01*
X381917Y330788D01*
X381847Y330752D01*
X381775Y330720D01*
X381701Y330691D01*
X381627Y330666D01*
X381551Y330645D01*
X381474Y330627D01*
X381396Y330614D01*
X381318Y330604D01*
X381240Y330598D01*
X381161Y330596D01*
X385722Y326644D02*
X388092Y326644D01*
X388170Y326646D01*
X388247Y326652D01*
X388324Y326661D01*
X388400Y326674D01*
X388476Y326691D01*
X388551Y326712D01*
X388624Y326736D01*
X388697Y326764D01*
X388768Y326796D01*
X388837Y326831D01*
X388904Y326869D01*
X388970Y326910D01*
X389033Y326955D01*
X389094Y327003D01*
X389153Y327053D01*
X389209Y327107D01*
X389263Y327163D01*
X389313Y327222D01*
X389361Y327283D01*
X389406Y327346D01*
X389447Y327412D01*
X389485Y327479D01*
X389520Y327548D01*
X389552Y327619D01*
X389580Y327692D01*
X389604Y327765D01*
X389625Y327840D01*
X389642Y327916D01*
X389655Y327992D01*
X389664Y328069D01*
X389670Y328146D01*
X389672Y328224D01*
X389673Y328224D02*
X389673Y329015D01*
X389672Y329015D02*
X389670Y329093D01*
X389664Y329170D01*
X389655Y329247D01*
X389642Y329323D01*
X389625Y329399D01*
X389604Y329474D01*
X389580Y329547D01*
X389552Y329620D01*
X389520Y329691D01*
X389485Y329760D01*
X389447Y329827D01*
X389406Y329893D01*
X389361Y329956D01*
X389313Y330017D01*
X389263Y330076D01*
X389209Y330132D01*
X389153Y330186D01*
X389094Y330236D01*
X389033Y330284D01*
X388970Y330329D01*
X388904Y330370D01*
X388837Y330408D01*
X388768Y330443D01*
X388697Y330475D01*
X388624Y330503D01*
X388551Y330527D01*
X388476Y330548D01*
X388400Y330565D01*
X388324Y330578D01*
X388247Y330587D01*
X388170Y330593D01*
X388092Y330595D01*
X385722Y330595D01*
X385722Y333756D01*
X389673Y333756D01*
X444105Y172460D02*
X444105Y171275D01*
X444105Y172460D02*
X448056Y172460D01*
X448056Y170090D01*
X448054Y170012D01*
X448048Y169935D01*
X448039Y169858D01*
X448026Y169782D01*
X448009Y169706D01*
X447988Y169631D01*
X447964Y169558D01*
X447936Y169485D01*
X447904Y169414D01*
X447869Y169345D01*
X447831Y169278D01*
X447790Y169212D01*
X447745Y169149D01*
X447697Y169088D01*
X447647Y169029D01*
X447593Y168973D01*
X447537Y168919D01*
X447478Y168869D01*
X447417Y168821D01*
X447354Y168776D01*
X447288Y168735D01*
X447221Y168697D01*
X447152Y168662D01*
X447081Y168630D01*
X447008Y168602D01*
X446935Y168578D01*
X446860Y168557D01*
X446784Y168540D01*
X446708Y168527D01*
X446631Y168518D01*
X446554Y168512D01*
X446476Y168510D01*
X446476Y168509D02*
X442524Y168509D01*
X442446Y168511D01*
X442369Y168517D01*
X442292Y168526D01*
X442216Y168539D01*
X442140Y168556D01*
X442065Y168577D01*
X441991Y168601D01*
X441919Y168629D01*
X441848Y168661D01*
X441779Y168696D01*
X441711Y168734D01*
X441646Y168775D01*
X441582Y168820D01*
X441521Y168868D01*
X441462Y168919D01*
X441406Y168972D01*
X441353Y169028D01*
X441302Y169087D01*
X441254Y169148D01*
X441209Y169212D01*
X441168Y169277D01*
X441130Y169345D01*
X441095Y169414D01*
X441063Y169485D01*
X441035Y169557D01*
X441011Y169631D01*
X440990Y169706D01*
X440973Y169782D01*
X440960Y169858D01*
X440951Y169935D01*
X440945Y170012D01*
X440943Y170090D01*
X440944Y170090D02*
X440944Y172460D01*
X440944Y175824D02*
X448056Y175824D01*
X448056Y179776D02*
X440944Y175824D01*
X440944Y179776D02*
X448056Y179776D01*
X448056Y183140D02*
X440944Y183140D01*
X440944Y185115D01*
X440946Y185201D01*
X440952Y185287D01*
X440961Y185373D01*
X440974Y185458D01*
X440991Y185543D01*
X441011Y185626D01*
X441035Y185709D01*
X441063Y185791D01*
X441094Y185871D01*
X441129Y185950D01*
X441167Y186027D01*
X441209Y186103D01*
X441253Y186177D01*
X441301Y186248D01*
X441352Y186318D01*
X441406Y186385D01*
X441463Y186450D01*
X441523Y186512D01*
X441585Y186572D01*
X441650Y186629D01*
X441717Y186683D01*
X441787Y186734D01*
X441858Y186782D01*
X441932Y186826D01*
X442008Y186868D01*
X442085Y186906D01*
X442164Y186941D01*
X442244Y186972D01*
X442326Y187000D01*
X442409Y187024D01*
X442492Y187044D01*
X442577Y187061D01*
X442662Y187074D01*
X442748Y187083D01*
X442834Y187089D01*
X442920Y187091D01*
X446080Y187091D01*
X446166Y187089D01*
X446252Y187083D01*
X446338Y187074D01*
X446423Y187061D01*
X446508Y187044D01*
X446591Y187024D01*
X446674Y187000D01*
X446756Y186972D01*
X446836Y186941D01*
X446915Y186906D01*
X446992Y186868D01*
X447068Y186826D01*
X447142Y186782D01*
X447213Y186734D01*
X447283Y186683D01*
X447350Y186629D01*
X447415Y186572D01*
X447477Y186512D01*
X447537Y186450D01*
X447594Y186385D01*
X447648Y186318D01*
X447699Y186248D01*
X447747Y186177D01*
X447791Y186103D01*
X447833Y186027D01*
X447871Y185950D01*
X447906Y185871D01*
X447937Y185791D01*
X447965Y185709D01*
X447989Y185626D01*
X448009Y185543D01*
X448026Y185458D01*
X448039Y185373D01*
X448048Y185287D01*
X448054Y185201D01*
X448056Y185115D01*
X448056Y183140D01*
X448056Y248398D02*
X448056Y250769D01*
X448054Y250847D01*
X448048Y250924D01*
X448039Y251001D01*
X448026Y251077D01*
X448009Y251153D01*
X447988Y251228D01*
X447964Y251301D01*
X447936Y251374D01*
X447904Y251445D01*
X447869Y251514D01*
X447831Y251581D01*
X447790Y251647D01*
X447745Y251710D01*
X447697Y251771D01*
X447647Y251830D01*
X447593Y251886D01*
X447537Y251940D01*
X447478Y251990D01*
X447417Y252038D01*
X447354Y252083D01*
X447288Y252124D01*
X447221Y252162D01*
X447152Y252197D01*
X447081Y252229D01*
X447008Y252257D01*
X446935Y252281D01*
X446860Y252302D01*
X446784Y252319D01*
X446708Y252332D01*
X446631Y252341D01*
X446554Y252347D01*
X446476Y252349D01*
X445685Y252349D01*
X445607Y252347D01*
X445530Y252341D01*
X445453Y252332D01*
X445377Y252319D01*
X445301Y252302D01*
X445226Y252281D01*
X445153Y252257D01*
X445080Y252229D01*
X445009Y252197D01*
X444940Y252162D01*
X444873Y252124D01*
X444807Y252083D01*
X444744Y252038D01*
X444683Y251990D01*
X444624Y251940D01*
X444568Y251886D01*
X444514Y251830D01*
X444464Y251771D01*
X444416Y251710D01*
X444371Y251647D01*
X444330Y251581D01*
X444292Y251514D01*
X444257Y251445D01*
X444225Y251374D01*
X444197Y251301D01*
X444173Y251228D01*
X444152Y251153D01*
X444135Y251077D01*
X444122Y251001D01*
X444113Y250924D01*
X444107Y250847D01*
X444105Y250769D01*
X444105Y248398D01*
X440944Y248398D01*
X440944Y252349D01*
X440944Y254861D02*
X448056Y257231D01*
X440944Y259602D01*
D13*
X166436Y102108D02*
X163839Y102108D01*
X163740Y102110D01*
X163640Y102116D01*
X163541Y102125D01*
X163443Y102138D01*
X163345Y102155D01*
X163247Y102176D01*
X163151Y102201D01*
X163056Y102229D01*
X162962Y102261D01*
X162869Y102296D01*
X162777Y102335D01*
X162687Y102378D01*
X162599Y102423D01*
X162512Y102473D01*
X162428Y102525D01*
X162345Y102581D01*
X162265Y102639D01*
X162187Y102701D01*
X162112Y102766D01*
X162039Y102834D01*
X161969Y102904D01*
X161901Y102977D01*
X161836Y103052D01*
X161774Y103130D01*
X161716Y103210D01*
X161660Y103293D01*
X161608Y103377D01*
X161558Y103464D01*
X161513Y103552D01*
X161470Y103642D01*
X161431Y103734D01*
X161396Y103827D01*
X161364Y103921D01*
X161336Y104016D01*
X161311Y104112D01*
X161290Y104210D01*
X161273Y104308D01*
X161260Y104406D01*
X161251Y104505D01*
X161245Y104605D01*
X161243Y104704D01*
X161243Y111196D01*
X161245Y111295D01*
X161251Y111395D01*
X161260Y111494D01*
X161273Y111592D01*
X161290Y111690D01*
X161311Y111788D01*
X161336Y111884D01*
X161364Y111979D01*
X161396Y112073D01*
X161431Y112166D01*
X161470Y112258D01*
X161513Y112348D01*
X161558Y112436D01*
X161608Y112523D01*
X161660Y112607D01*
X161716Y112690D01*
X161774Y112770D01*
X161836Y112848D01*
X161901Y112923D01*
X161969Y112996D01*
X162039Y113066D01*
X162112Y113134D01*
X162187Y113199D01*
X162265Y113261D01*
X162345Y113319D01*
X162428Y113375D01*
X162512Y113427D01*
X162599Y113477D01*
X162687Y113522D01*
X162777Y113565D01*
X162869Y113604D01*
X162961Y113639D01*
X163056Y113671D01*
X163151Y113699D01*
X163247Y113724D01*
X163345Y113745D01*
X163443Y113762D01*
X163541Y113775D01*
X163640Y113784D01*
X163740Y113790D01*
X163839Y113792D01*
X166436Y113792D01*
X170801Y111196D02*
X174046Y113792D01*
X174046Y102108D01*
X170801Y102108D02*
X177292Y102108D01*
X50292Y214639D02*
X50292Y217236D01*
X50292Y214639D02*
X50290Y214540D01*
X50284Y214440D01*
X50275Y214341D01*
X50262Y214243D01*
X50245Y214145D01*
X50224Y214047D01*
X50199Y213951D01*
X50171Y213856D01*
X50139Y213762D01*
X50104Y213669D01*
X50065Y213577D01*
X50022Y213487D01*
X49977Y213399D01*
X49927Y213312D01*
X49875Y213228D01*
X49819Y213145D01*
X49761Y213065D01*
X49699Y212987D01*
X49634Y212912D01*
X49566Y212839D01*
X49496Y212769D01*
X49423Y212701D01*
X49348Y212636D01*
X49270Y212574D01*
X49190Y212516D01*
X49107Y212460D01*
X49023Y212408D01*
X48936Y212358D01*
X48848Y212313D01*
X48758Y212270D01*
X48666Y212231D01*
X48573Y212196D01*
X48479Y212164D01*
X48384Y212136D01*
X48288Y212111D01*
X48190Y212090D01*
X48092Y212073D01*
X47994Y212060D01*
X47895Y212051D01*
X47795Y212045D01*
X47696Y212043D01*
X41204Y212043D01*
X41204Y212042D02*
X41105Y212044D01*
X41005Y212050D01*
X40906Y212059D01*
X40808Y212072D01*
X40710Y212090D01*
X40612Y212110D01*
X40516Y212135D01*
X40420Y212163D01*
X40326Y212195D01*
X40233Y212230D01*
X40142Y212269D01*
X40052Y212312D01*
X39963Y212357D01*
X39877Y212407D01*
X39792Y212459D01*
X39710Y212515D01*
X39630Y212574D01*
X39552Y212635D01*
X39476Y212700D01*
X39403Y212768D01*
X39333Y212838D01*
X39265Y212911D01*
X39200Y212987D01*
X39139Y213065D01*
X39080Y213145D01*
X39024Y213227D01*
X38972Y213312D01*
X38923Y213398D01*
X38877Y213487D01*
X38834Y213577D01*
X38795Y213668D01*
X38760Y213761D01*
X38728Y213855D01*
X38700Y213951D01*
X38675Y214047D01*
X38655Y214145D01*
X38637Y214243D01*
X38624Y214341D01*
X38615Y214440D01*
X38609Y214539D01*
X38607Y214639D01*
X38608Y214639D02*
X38608Y217236D01*
X38608Y225171D02*
X38610Y225278D01*
X38616Y225384D01*
X38626Y225490D01*
X38639Y225596D01*
X38657Y225702D01*
X38678Y225806D01*
X38703Y225910D01*
X38732Y226013D01*
X38764Y226114D01*
X38801Y226214D01*
X38841Y226313D01*
X38884Y226411D01*
X38931Y226507D01*
X38982Y226601D01*
X39036Y226693D01*
X39093Y226783D01*
X39153Y226871D01*
X39217Y226956D01*
X39284Y227039D01*
X39354Y227120D01*
X39426Y227198D01*
X39502Y227274D01*
X39580Y227346D01*
X39661Y227416D01*
X39744Y227483D01*
X39829Y227547D01*
X39917Y227607D01*
X40007Y227664D01*
X40099Y227718D01*
X40193Y227769D01*
X40289Y227816D01*
X40387Y227859D01*
X40486Y227899D01*
X40586Y227936D01*
X40687Y227968D01*
X40790Y227997D01*
X40894Y228022D01*
X40998Y228043D01*
X41104Y228061D01*
X41210Y228074D01*
X41316Y228084D01*
X41422Y228090D01*
X41529Y228092D01*
X38608Y225171D02*
X38610Y225050D01*
X38616Y224929D01*
X38626Y224809D01*
X38639Y224688D01*
X38657Y224569D01*
X38678Y224449D01*
X38703Y224331D01*
X38732Y224214D01*
X38765Y224097D01*
X38801Y223982D01*
X38842Y223868D01*
X38885Y223755D01*
X38933Y223643D01*
X38984Y223534D01*
X39039Y223426D01*
X39097Y223319D01*
X39158Y223215D01*
X39223Y223113D01*
X39291Y223013D01*
X39362Y222915D01*
X39436Y222819D01*
X39513Y222726D01*
X39594Y222636D01*
X39677Y222548D01*
X39763Y222463D01*
X39852Y222380D01*
X39943Y222301D01*
X40037Y222224D01*
X40133Y222151D01*
X40231Y222081D01*
X40332Y222014D01*
X40435Y221950D01*
X40540Y221890D01*
X40647Y221832D01*
X40755Y221779D01*
X40865Y221729D01*
X40977Y221683D01*
X41090Y221640D01*
X41205Y221601D01*
X43801Y227118D02*
X43723Y227197D01*
X43643Y227273D01*
X43560Y227346D01*
X43474Y227416D01*
X43387Y227483D01*
X43296Y227547D01*
X43204Y227607D01*
X43110Y227665D01*
X43013Y227719D01*
X42915Y227769D01*
X42815Y227816D01*
X42714Y227860D01*
X42611Y227900D01*
X42506Y227936D01*
X42401Y227968D01*
X42294Y227997D01*
X42187Y228022D01*
X42078Y228044D01*
X41969Y228061D01*
X41860Y228075D01*
X41750Y228084D01*
X41639Y228090D01*
X41529Y228092D01*
X43801Y227118D02*
X50292Y221601D01*
X50292Y228092D01*
X50292Y132701D02*
X50292Y130104D01*
X50290Y130005D01*
X50284Y129905D01*
X50275Y129806D01*
X50262Y129708D01*
X50245Y129610D01*
X50224Y129512D01*
X50199Y129416D01*
X50171Y129321D01*
X50139Y129227D01*
X50104Y129134D01*
X50065Y129042D01*
X50022Y128952D01*
X49977Y128864D01*
X49927Y128777D01*
X49875Y128693D01*
X49819Y128610D01*
X49761Y128530D01*
X49699Y128452D01*
X49634Y128377D01*
X49566Y128304D01*
X49496Y128234D01*
X49423Y128166D01*
X49348Y128101D01*
X49270Y128039D01*
X49190Y127981D01*
X49107Y127925D01*
X49023Y127873D01*
X48936Y127823D01*
X48848Y127778D01*
X48758Y127735D01*
X48666Y127696D01*
X48573Y127661D01*
X48479Y127629D01*
X48384Y127601D01*
X48288Y127576D01*
X48190Y127555D01*
X48092Y127538D01*
X47994Y127525D01*
X47895Y127516D01*
X47795Y127510D01*
X47696Y127508D01*
X41204Y127508D01*
X41105Y127510D01*
X41005Y127516D01*
X40906Y127525D01*
X40808Y127538D01*
X40710Y127556D01*
X40612Y127576D01*
X40516Y127601D01*
X40420Y127629D01*
X40326Y127661D01*
X40233Y127696D01*
X40142Y127735D01*
X40052Y127778D01*
X39963Y127823D01*
X39877Y127873D01*
X39792Y127925D01*
X39710Y127981D01*
X39630Y128040D01*
X39552Y128101D01*
X39476Y128166D01*
X39403Y128234D01*
X39333Y128304D01*
X39265Y128377D01*
X39200Y128453D01*
X39139Y128531D01*
X39080Y128611D01*
X39024Y128693D01*
X38972Y128778D01*
X38923Y128864D01*
X38877Y128953D01*
X38834Y129043D01*
X38795Y129134D01*
X38760Y129227D01*
X38728Y129321D01*
X38700Y129417D01*
X38675Y129513D01*
X38655Y129611D01*
X38637Y129709D01*
X38624Y129807D01*
X38615Y129906D01*
X38609Y130005D01*
X38607Y130105D01*
X38608Y130104D02*
X38608Y132701D01*
X50292Y137066D02*
X50292Y140312D01*
X50290Y140425D01*
X50284Y140538D01*
X50274Y140651D01*
X50260Y140764D01*
X50243Y140876D01*
X50221Y140987D01*
X50196Y141097D01*
X50166Y141207D01*
X50133Y141315D01*
X50096Y141422D01*
X50056Y141528D01*
X50011Y141632D01*
X49963Y141735D01*
X49912Y141836D01*
X49857Y141935D01*
X49799Y142032D01*
X49737Y142127D01*
X49672Y142220D01*
X49604Y142310D01*
X49533Y142398D01*
X49458Y142484D01*
X49381Y142567D01*
X49301Y142647D01*
X49218Y142724D01*
X49132Y142799D01*
X49044Y142870D01*
X48954Y142938D01*
X48861Y143003D01*
X48766Y143065D01*
X48669Y143123D01*
X48570Y143178D01*
X48469Y143229D01*
X48366Y143277D01*
X48262Y143322D01*
X48156Y143362D01*
X48049Y143399D01*
X47941Y143432D01*
X47831Y143462D01*
X47721Y143487D01*
X47610Y143509D01*
X47498Y143526D01*
X47385Y143540D01*
X47272Y143550D01*
X47159Y143556D01*
X47046Y143558D01*
X46933Y143556D01*
X46820Y143550D01*
X46707Y143540D01*
X46594Y143526D01*
X46482Y143509D01*
X46371Y143487D01*
X46261Y143462D01*
X46151Y143432D01*
X46043Y143399D01*
X45936Y143362D01*
X45830Y143322D01*
X45726Y143277D01*
X45623Y143229D01*
X45522Y143178D01*
X45423Y143123D01*
X45326Y143065D01*
X45231Y143003D01*
X45138Y142938D01*
X45048Y142870D01*
X44960Y142799D01*
X44874Y142724D01*
X44791Y142647D01*
X44711Y142567D01*
X44634Y142484D01*
X44559Y142398D01*
X44488Y142310D01*
X44420Y142220D01*
X44355Y142127D01*
X44293Y142032D01*
X44235Y141935D01*
X44180Y141836D01*
X44129Y141735D01*
X44081Y141632D01*
X44036Y141528D01*
X43996Y141422D01*
X43959Y141315D01*
X43926Y141207D01*
X43896Y141097D01*
X43871Y140987D01*
X43849Y140876D01*
X43832Y140764D01*
X43818Y140651D01*
X43808Y140538D01*
X43802Y140425D01*
X43800Y140312D01*
X38608Y140961D02*
X38608Y137066D01*
X38608Y140961D02*
X38610Y141062D01*
X38616Y141162D01*
X38626Y141262D01*
X38639Y141362D01*
X38657Y141461D01*
X38678Y141560D01*
X38703Y141657D01*
X38732Y141754D01*
X38765Y141849D01*
X38801Y141943D01*
X38841Y142035D01*
X38884Y142126D01*
X38931Y142215D01*
X38981Y142302D01*
X39035Y142388D01*
X39092Y142471D01*
X39152Y142551D01*
X39215Y142630D01*
X39282Y142706D01*
X39351Y142779D01*
X39423Y142849D01*
X39497Y142917D01*
X39574Y142982D01*
X39654Y143043D01*
X39736Y143102D01*
X39820Y143157D01*
X39906Y143209D01*
X39994Y143258D01*
X40084Y143303D01*
X40176Y143345D01*
X40269Y143383D01*
X40364Y143417D01*
X40459Y143448D01*
X40556Y143475D01*
X40654Y143498D01*
X40753Y143518D01*
X40853Y143533D01*
X40953Y143545D01*
X41053Y143553D01*
X41154Y143557D01*
X41254Y143557D01*
X41355Y143553D01*
X41455Y143545D01*
X41555Y143533D01*
X41655Y143518D01*
X41754Y143498D01*
X41852Y143475D01*
X41949Y143448D01*
X42044Y143417D01*
X42139Y143383D01*
X42232Y143345D01*
X42324Y143303D01*
X42414Y143258D01*
X42502Y143209D01*
X42588Y143157D01*
X42672Y143102D01*
X42754Y143043D01*
X42834Y142982D01*
X42911Y142917D01*
X42985Y142849D01*
X43057Y142779D01*
X43126Y142706D01*
X43193Y142630D01*
X43256Y142551D01*
X43316Y142471D01*
X43373Y142388D01*
X43427Y142302D01*
X43477Y142215D01*
X43524Y142126D01*
X43567Y142035D01*
X43607Y141943D01*
X43643Y141849D01*
X43676Y141754D01*
X43705Y141657D01*
X43730Y141560D01*
X43751Y141461D01*
X43769Y141362D01*
X43782Y141262D01*
X43792Y141162D01*
X43798Y141062D01*
X43800Y140961D01*
X43801Y140961D02*
X43801Y138364D01*
D14*
X235200Y209300D02*
X298200Y209300D01*
X298200Y146300D01*
X235200Y146300D01*
X235200Y209300D01*
D15*
X218700Y217800D02*
X218702Y217889D01*
X218708Y217978D01*
X218718Y218067D01*
X218732Y218155D01*
X218749Y218242D01*
X218771Y218328D01*
X218797Y218414D01*
X218826Y218498D01*
X218859Y218581D01*
X218895Y218662D01*
X218936Y218742D01*
X218979Y218819D01*
X219026Y218895D01*
X219077Y218968D01*
X219130Y219039D01*
X219187Y219108D01*
X219247Y219174D01*
X219310Y219238D01*
X219375Y219298D01*
X219443Y219356D01*
X219514Y219410D01*
X219587Y219461D01*
X219662Y219509D01*
X219739Y219554D01*
X219818Y219595D01*
X219899Y219632D01*
X219981Y219666D01*
X220065Y219697D01*
X220150Y219723D01*
X220236Y219746D01*
X220323Y219764D01*
X220411Y219779D01*
X220500Y219790D01*
X220589Y219797D01*
X220678Y219800D01*
X220767Y219799D01*
X220856Y219794D01*
X220944Y219785D01*
X221033Y219772D01*
X221120Y219755D01*
X221207Y219735D01*
X221293Y219710D01*
X221377Y219682D01*
X221460Y219650D01*
X221542Y219614D01*
X221622Y219575D01*
X221700Y219532D01*
X221776Y219486D01*
X221850Y219436D01*
X221922Y219383D01*
X221991Y219327D01*
X222058Y219268D01*
X222122Y219206D01*
X222183Y219142D01*
X222242Y219074D01*
X222297Y219004D01*
X222349Y218932D01*
X222398Y218857D01*
X222443Y218781D01*
X222485Y218702D01*
X222523Y218622D01*
X222558Y218540D01*
X222589Y218456D01*
X222617Y218371D01*
X222640Y218285D01*
X222660Y218198D01*
X222676Y218111D01*
X222688Y218022D01*
X222696Y217934D01*
X222700Y217845D01*
X222700Y217755D01*
X222696Y217666D01*
X222688Y217578D01*
X222676Y217489D01*
X222660Y217402D01*
X222640Y217315D01*
X222617Y217229D01*
X222589Y217144D01*
X222558Y217060D01*
X222523Y216978D01*
X222485Y216898D01*
X222443Y216819D01*
X222398Y216743D01*
X222349Y216668D01*
X222297Y216596D01*
X222242Y216526D01*
X222183Y216458D01*
X222122Y216394D01*
X222058Y216332D01*
X221991Y216273D01*
X221922Y216217D01*
X221850Y216164D01*
X221776Y216114D01*
X221700Y216068D01*
X221622Y216025D01*
X221542Y215986D01*
X221460Y215950D01*
X221377Y215918D01*
X221293Y215890D01*
X221207Y215865D01*
X221120Y215845D01*
X221033Y215828D01*
X220944Y215815D01*
X220856Y215806D01*
X220767Y215801D01*
X220678Y215800D01*
X220589Y215803D01*
X220500Y215810D01*
X220411Y215821D01*
X220323Y215836D01*
X220236Y215854D01*
X220150Y215877D01*
X220065Y215903D01*
X219981Y215934D01*
X219899Y215968D01*
X219818Y216005D01*
X219739Y216046D01*
X219662Y216091D01*
X219587Y216139D01*
X219514Y216190D01*
X219443Y216244D01*
X219375Y216302D01*
X219310Y216362D01*
X219247Y216426D01*
X219187Y216492D01*
X219130Y216561D01*
X219077Y216632D01*
X219026Y216705D01*
X218979Y216781D01*
X218936Y216858D01*
X218895Y216938D01*
X218859Y217019D01*
X218826Y217102D01*
X218797Y217186D01*
X218771Y217272D01*
X218749Y217358D01*
X218732Y217445D01*
X218718Y217533D01*
X218708Y217622D01*
X218702Y217711D01*
X218700Y217800D01*
D13*
X256392Y183642D02*
X256392Y171958D01*
X255094Y171958D02*
X257690Y171958D01*
X257690Y183642D02*
X255094Y183642D01*
X264854Y171958D02*
X267450Y171958D01*
X264854Y171958D02*
X264755Y171960D01*
X264655Y171966D01*
X264556Y171975D01*
X264458Y171988D01*
X264360Y172005D01*
X264262Y172026D01*
X264166Y172051D01*
X264071Y172079D01*
X263977Y172111D01*
X263884Y172146D01*
X263792Y172185D01*
X263702Y172228D01*
X263614Y172273D01*
X263527Y172323D01*
X263443Y172375D01*
X263360Y172431D01*
X263280Y172489D01*
X263202Y172551D01*
X263127Y172616D01*
X263054Y172684D01*
X262984Y172754D01*
X262916Y172827D01*
X262851Y172902D01*
X262789Y172980D01*
X262731Y173060D01*
X262675Y173143D01*
X262623Y173227D01*
X262573Y173314D01*
X262528Y173402D01*
X262485Y173492D01*
X262446Y173584D01*
X262411Y173677D01*
X262379Y173771D01*
X262351Y173866D01*
X262326Y173962D01*
X262305Y174060D01*
X262288Y174158D01*
X262275Y174256D01*
X262266Y174355D01*
X262260Y174455D01*
X262258Y174554D01*
X262257Y174554D02*
X262257Y181046D01*
X262258Y181046D02*
X262260Y181145D01*
X262266Y181245D01*
X262275Y181344D01*
X262288Y181442D01*
X262305Y181540D01*
X262326Y181638D01*
X262351Y181734D01*
X262379Y181829D01*
X262411Y181923D01*
X262446Y182016D01*
X262485Y182108D01*
X262528Y182198D01*
X262573Y182286D01*
X262623Y182373D01*
X262675Y182457D01*
X262731Y182540D01*
X262789Y182620D01*
X262851Y182698D01*
X262916Y182773D01*
X262984Y182846D01*
X263054Y182916D01*
X263127Y182984D01*
X263202Y183049D01*
X263280Y183111D01*
X263360Y183169D01*
X263443Y183225D01*
X263527Y183277D01*
X263614Y183327D01*
X263702Y183372D01*
X263792Y183415D01*
X263884Y183454D01*
X263976Y183489D01*
X264071Y183521D01*
X264166Y183549D01*
X264262Y183574D01*
X264360Y183595D01*
X264458Y183612D01*
X264556Y183625D01*
X264655Y183634D01*
X264755Y183640D01*
X264854Y183642D01*
X267450Y183642D01*
X271815Y181046D02*
X275061Y183642D01*
X275061Y171958D01*
X278306Y171958D02*
X271815Y171958D01*
X127420Y244988D02*
X127420Y250180D01*
X127422Y250293D01*
X127428Y250406D01*
X127438Y250519D01*
X127452Y250632D01*
X127469Y250744D01*
X127491Y250855D01*
X127516Y250965D01*
X127546Y251075D01*
X127579Y251183D01*
X127616Y251290D01*
X127656Y251396D01*
X127701Y251500D01*
X127749Y251603D01*
X127800Y251704D01*
X127855Y251803D01*
X127913Y251900D01*
X127975Y251995D01*
X128040Y252088D01*
X128108Y252178D01*
X128179Y252266D01*
X128254Y252352D01*
X128331Y252435D01*
X128411Y252515D01*
X128494Y252592D01*
X128580Y252667D01*
X128668Y252738D01*
X128758Y252806D01*
X128851Y252871D01*
X128946Y252933D01*
X129043Y252991D01*
X129142Y253046D01*
X129243Y253097D01*
X129346Y253145D01*
X129450Y253190D01*
X129556Y253230D01*
X129663Y253267D01*
X129771Y253300D01*
X129881Y253330D01*
X129991Y253355D01*
X130102Y253377D01*
X130214Y253394D01*
X130327Y253408D01*
X130440Y253418D01*
X130553Y253424D01*
X130666Y253426D01*
X130779Y253424D01*
X130892Y253418D01*
X131005Y253408D01*
X131118Y253394D01*
X131230Y253377D01*
X131341Y253355D01*
X131451Y253330D01*
X131561Y253300D01*
X131669Y253267D01*
X131776Y253230D01*
X131882Y253190D01*
X131986Y253145D01*
X132089Y253097D01*
X132190Y253046D01*
X132289Y252991D01*
X132386Y252933D01*
X132481Y252871D01*
X132574Y252806D01*
X132664Y252738D01*
X132752Y252667D01*
X132838Y252592D01*
X132921Y252515D01*
X133001Y252435D01*
X133078Y252352D01*
X133153Y252266D01*
X133224Y252178D01*
X133292Y252088D01*
X133357Y251995D01*
X133419Y251900D01*
X133477Y251803D01*
X133532Y251704D01*
X133583Y251603D01*
X133631Y251500D01*
X133676Y251396D01*
X133716Y251290D01*
X133753Y251183D01*
X133786Y251075D01*
X133816Y250965D01*
X133841Y250855D01*
X133863Y250744D01*
X133880Y250632D01*
X133894Y250519D01*
X133904Y250406D01*
X133910Y250293D01*
X133912Y250180D01*
X133911Y250180D02*
X133911Y244988D01*
X133912Y244988D02*
X133910Y244875D01*
X133904Y244762D01*
X133894Y244649D01*
X133880Y244536D01*
X133863Y244424D01*
X133841Y244313D01*
X133816Y244203D01*
X133786Y244093D01*
X133753Y243985D01*
X133716Y243878D01*
X133676Y243772D01*
X133631Y243668D01*
X133583Y243565D01*
X133532Y243464D01*
X133477Y243365D01*
X133419Y243268D01*
X133357Y243173D01*
X133292Y243080D01*
X133224Y242990D01*
X133153Y242902D01*
X133078Y242816D01*
X133001Y242733D01*
X132921Y242653D01*
X132838Y242576D01*
X132752Y242501D01*
X132664Y242430D01*
X132574Y242362D01*
X132481Y242297D01*
X132386Y242235D01*
X132289Y242177D01*
X132190Y242122D01*
X132089Y242071D01*
X131986Y242023D01*
X131882Y241978D01*
X131776Y241938D01*
X131669Y241901D01*
X131561Y241868D01*
X131451Y241838D01*
X131341Y241813D01*
X131230Y241791D01*
X131118Y241774D01*
X131005Y241760D01*
X130892Y241750D01*
X130779Y241744D01*
X130666Y241742D01*
X130553Y241744D01*
X130440Y241750D01*
X130327Y241760D01*
X130214Y241774D01*
X130102Y241791D01*
X129991Y241813D01*
X129881Y241838D01*
X129771Y241868D01*
X129663Y241901D01*
X129556Y241938D01*
X129450Y241978D01*
X129346Y242023D01*
X129243Y242071D01*
X129142Y242122D01*
X129043Y242177D01*
X128946Y242235D01*
X128851Y242297D01*
X128758Y242362D01*
X128668Y242430D01*
X128580Y242501D01*
X128494Y242576D01*
X128411Y242653D01*
X128331Y242733D01*
X128254Y242816D01*
X128179Y242902D01*
X128108Y242990D01*
X128040Y243080D01*
X127975Y243173D01*
X127913Y243268D01*
X127855Y243365D01*
X127800Y243464D01*
X127749Y243565D01*
X127701Y243668D01*
X127656Y243772D01*
X127616Y243878D01*
X127579Y243985D01*
X127546Y244093D01*
X127516Y244203D01*
X127491Y244313D01*
X127469Y244424D01*
X127452Y244536D01*
X127438Y244649D01*
X127428Y244762D01*
X127422Y244875D01*
X127420Y244988D01*
X132613Y244338D02*
X135209Y241742D01*
X138564Y250830D02*
X141809Y253426D01*
X141809Y241742D01*
X138564Y241742D02*
X145055Y241742D01*
D10*
X406400Y184150D02*
X406400Y171450D01*
X406400Y184150D02*
X412750Y190500D01*
X425450Y190500D02*
X431800Y184150D01*
X412750Y190500D02*
X406400Y196850D01*
X406400Y209550D01*
X412750Y215900D01*
X425450Y215900D02*
X431800Y209550D01*
X431800Y196850D01*
X425450Y190500D01*
X425450Y165100D02*
X412750Y165100D01*
X406400Y171450D01*
X425450Y165100D02*
X431800Y171450D01*
X431800Y184150D01*
X412750Y215900D02*
X406400Y222250D01*
X406400Y234950D01*
X412750Y241300D01*
X425450Y241300D02*
X431800Y234950D01*
X431800Y222250D01*
X425450Y215900D01*
X406400Y247650D02*
X406400Y260350D01*
X412750Y266700D01*
X425450Y266700D01*
X431800Y260350D01*
X412750Y241300D02*
X406400Y247650D01*
X425450Y241300D02*
X431800Y247650D01*
X431800Y260350D01*
D16*
X413385Y157480D02*
X415925Y154305D01*
X413385Y157480D02*
X424815Y157480D01*
X424815Y154305D02*
X424815Y160655D01*
X422275Y269875D02*
X413385Y272415D01*
X422275Y269875D02*
X422275Y276225D01*
X419735Y274320D02*
X424815Y274320D01*
X399415Y184785D02*
X399515Y184783D01*
X399614Y184777D01*
X399714Y184767D01*
X399812Y184754D01*
X399911Y184736D01*
X400008Y184715D01*
X400104Y184690D01*
X400200Y184661D01*
X400294Y184628D01*
X400387Y184592D01*
X400478Y184552D01*
X400568Y184508D01*
X400656Y184461D01*
X400742Y184411D01*
X400826Y184357D01*
X400908Y184300D01*
X400987Y184240D01*
X401065Y184176D01*
X401139Y184110D01*
X401211Y184041D01*
X401280Y183969D01*
X401346Y183895D01*
X401410Y183817D01*
X401470Y183738D01*
X401527Y183656D01*
X401581Y183572D01*
X401631Y183486D01*
X401678Y183398D01*
X401722Y183308D01*
X401762Y183217D01*
X401798Y183124D01*
X401831Y183030D01*
X401860Y182934D01*
X401885Y182838D01*
X401906Y182741D01*
X401924Y182642D01*
X401937Y182544D01*
X401947Y182444D01*
X401953Y182345D01*
X401955Y182245D01*
X401953Y182104D01*
X401948Y181963D01*
X401938Y181822D01*
X401925Y181681D01*
X401909Y181541D01*
X401888Y181401D01*
X401864Y181262D01*
X401836Y181123D01*
X401805Y180986D01*
X401770Y180849D01*
X401732Y180713D01*
X401690Y180578D01*
X401644Y180445D01*
X401595Y180312D01*
X401542Y180181D01*
X401486Y180052D01*
X401427Y179923D01*
X401364Y179797D01*
X401298Y179672D01*
X401229Y179549D01*
X401156Y179428D01*
X401080Y179309D01*
X401001Y179191D01*
X400920Y179076D01*
X400835Y178964D01*
X400747Y178853D01*
X400656Y178745D01*
X400563Y178639D01*
X400466Y178536D01*
X400367Y178435D01*
X393065Y178753D02*
X392965Y178755D01*
X392866Y178761D01*
X392766Y178771D01*
X392668Y178784D01*
X392569Y178802D01*
X392472Y178823D01*
X392376Y178848D01*
X392280Y178877D01*
X392186Y178910D01*
X392093Y178946D01*
X392002Y178986D01*
X391912Y179030D01*
X391824Y179077D01*
X391738Y179127D01*
X391654Y179181D01*
X391572Y179238D01*
X391493Y179298D01*
X391415Y179362D01*
X391341Y179428D01*
X391269Y179497D01*
X391200Y179569D01*
X391134Y179643D01*
X391070Y179721D01*
X391010Y179800D01*
X390953Y179882D01*
X390899Y179966D01*
X390849Y180052D01*
X390802Y180140D01*
X390758Y180230D01*
X390718Y180321D01*
X390682Y180414D01*
X390649Y180508D01*
X390620Y180604D01*
X390595Y180700D01*
X390574Y180797D01*
X390556Y180896D01*
X390543Y180994D01*
X390533Y181094D01*
X390527Y181193D01*
X390525Y181293D01*
X390527Y181426D01*
X390532Y181559D01*
X390542Y181692D01*
X390555Y181825D01*
X390572Y181957D01*
X390592Y182089D01*
X390616Y182220D01*
X390644Y182350D01*
X390675Y182480D01*
X390710Y182608D01*
X390749Y182736D01*
X390791Y182862D01*
X390837Y182987D01*
X390886Y183111D01*
X390938Y183234D01*
X390994Y183355D01*
X391054Y183474D01*
X391116Y183592D01*
X391182Y183707D01*
X391251Y183821D01*
X391324Y183933D01*
X391399Y184043D01*
X391478Y184151D01*
X395288Y180022D02*
X395236Y179938D01*
X395181Y179855D01*
X395122Y179775D01*
X395061Y179697D01*
X394997Y179622D01*
X394929Y179549D01*
X394859Y179478D01*
X394787Y179411D01*
X394712Y179346D01*
X394634Y179284D01*
X394554Y179225D01*
X394472Y179169D01*
X394388Y179117D01*
X394302Y179068D01*
X394214Y179022D01*
X394124Y178979D01*
X394033Y178940D01*
X393940Y178905D01*
X393846Y178873D01*
X393751Y178845D01*
X393655Y178820D01*
X393558Y178800D01*
X393460Y178782D01*
X393362Y178769D01*
X393263Y178760D01*
X393164Y178754D01*
X393065Y178752D01*
X397192Y183515D02*
X397244Y183599D01*
X397299Y183682D01*
X397358Y183762D01*
X397419Y183840D01*
X397483Y183915D01*
X397551Y183988D01*
X397621Y184059D01*
X397693Y184126D01*
X397768Y184191D01*
X397846Y184253D01*
X397926Y184312D01*
X398008Y184368D01*
X398092Y184420D01*
X398178Y184469D01*
X398266Y184515D01*
X398356Y184558D01*
X398447Y184597D01*
X398540Y184632D01*
X398634Y184664D01*
X398729Y184692D01*
X398825Y184717D01*
X398922Y184737D01*
X399020Y184755D01*
X399118Y184768D01*
X399217Y184777D01*
X399316Y184783D01*
X399415Y184785D01*
X397193Y183515D02*
X395288Y180023D01*
X390525Y188849D02*
X401955Y192659D01*
X390525Y196469D01*
X393065Y200914D02*
X390525Y204089D01*
X401955Y204089D01*
X401955Y200914D02*
X401955Y207264D01*
D10*
X438150Y38100D02*
X450850Y38100D01*
X438150Y38100D02*
X431800Y44450D01*
X431800Y57150D02*
X438150Y63500D01*
X431800Y44450D02*
X425450Y38100D01*
X412750Y38100D01*
X406400Y44450D01*
X406400Y57150D02*
X412750Y63500D01*
X425450Y63500D01*
X431800Y57150D01*
X457200Y57150D02*
X457200Y44450D01*
X450850Y38100D01*
X457200Y57150D02*
X450850Y63500D01*
X438150Y63500D01*
X406400Y44450D02*
X400050Y38100D01*
X387350Y38100D01*
X381000Y44450D01*
X381000Y57150D02*
X387350Y63500D01*
X400050Y63500D01*
X406400Y57150D01*
X374650Y38100D02*
X361950Y38100D01*
X355600Y44450D01*
X355600Y57150D02*
X361950Y63500D01*
X381000Y44450D02*
X374650Y38100D01*
X381000Y57150D02*
X374650Y63500D01*
X361950Y63500D01*
X349250Y38100D02*
X336550Y38100D01*
X330200Y44450D01*
X330200Y57150D02*
X336550Y63500D01*
X330200Y44450D02*
X323850Y38100D01*
X311150Y38100D01*
X304800Y44450D01*
X304800Y57150D02*
X311150Y63500D01*
X323850Y63500D01*
X330200Y57150D01*
X349250Y38100D02*
X355600Y44450D01*
X355600Y57150D02*
X349250Y63500D01*
X336550Y63500D01*
X304800Y44450D02*
X298450Y38100D01*
X285750Y38100D01*
X279400Y44450D01*
X279400Y57150D02*
X285750Y63500D01*
X298450Y63500D01*
X304800Y57150D01*
X273050Y38100D02*
X260350Y38100D01*
X254000Y44450D01*
X254000Y57150D02*
X260350Y63500D01*
X279400Y44450D02*
X273050Y38100D01*
X279400Y57150D02*
X273050Y63500D01*
X260350Y63500D01*
X247650Y38100D02*
X234950Y38100D01*
X228600Y44450D01*
X228600Y57150D02*
X234950Y63500D01*
X228600Y44450D02*
X222250Y38100D01*
X209550Y38100D01*
X203200Y44450D01*
X203200Y57150D02*
X209550Y63500D01*
X222250Y63500D01*
X228600Y57150D01*
X247650Y38100D02*
X254000Y44450D01*
X254000Y57150D02*
X247650Y63500D01*
X234950Y63500D01*
X203200Y57150D02*
X203200Y44450D01*
D16*
X442595Y76835D02*
X445770Y79375D01*
X445770Y67945D01*
X442595Y67945D02*
X448945Y67945D01*
X207010Y33655D02*
X203835Y31115D01*
X207010Y33655D02*
X207010Y22225D01*
X203835Y22225D02*
X210185Y22225D01*
X215265Y27940D02*
X215268Y28165D01*
X215276Y28390D01*
X215289Y28614D01*
X215308Y28838D01*
X215332Y29062D01*
X215361Y29285D01*
X215396Y29507D01*
X215436Y29728D01*
X215482Y29948D01*
X215532Y30167D01*
X215588Y30385D01*
X215649Y30602D01*
X215715Y30817D01*
X215786Y31030D01*
X215863Y31241D01*
X215944Y31451D01*
X216030Y31659D01*
X216121Y31864D01*
X216217Y32067D01*
X216217Y32068D02*
X216249Y32156D01*
X216285Y32243D01*
X216324Y32329D01*
X216367Y32413D01*
X216413Y32495D01*
X216462Y32575D01*
X216514Y32653D01*
X216570Y32729D01*
X216628Y32803D01*
X216690Y32874D01*
X216754Y32943D01*
X216821Y33009D01*
X216890Y33072D01*
X216962Y33133D01*
X217036Y33191D01*
X217113Y33245D01*
X217191Y33297D01*
X217272Y33345D01*
X217354Y33390D01*
X217439Y33432D01*
X217525Y33470D01*
X217612Y33505D01*
X217700Y33537D01*
X217790Y33564D01*
X217881Y33589D01*
X217973Y33609D01*
X218065Y33626D01*
X218159Y33639D01*
X218252Y33648D01*
X218346Y33654D01*
X218440Y33656D01*
X218534Y33654D01*
X218628Y33648D01*
X218721Y33639D01*
X218815Y33626D01*
X218907Y33609D01*
X218999Y33589D01*
X219090Y33564D01*
X219180Y33537D01*
X219268Y33505D01*
X219355Y33470D01*
X219441Y33432D01*
X219526Y33390D01*
X219608Y33345D01*
X219689Y33297D01*
X219767Y33245D01*
X219844Y33191D01*
X219918Y33133D01*
X219990Y33072D01*
X220059Y33009D01*
X220126Y32943D01*
X220190Y32874D01*
X220252Y32803D01*
X220310Y32729D01*
X220366Y32653D01*
X220418Y32575D01*
X220467Y32495D01*
X220513Y32413D01*
X220556Y32329D01*
X220595Y32243D01*
X220631Y32156D01*
X220663Y32068D01*
X220663Y32067D02*
X220759Y31864D01*
X220850Y31659D01*
X220936Y31451D01*
X221017Y31241D01*
X221094Y31030D01*
X221165Y30817D01*
X221231Y30602D01*
X221292Y30385D01*
X221348Y30167D01*
X221398Y29948D01*
X221444Y29728D01*
X221484Y29507D01*
X221519Y29285D01*
X221548Y29062D01*
X221572Y28838D01*
X221591Y28614D01*
X221604Y28390D01*
X221612Y28165D01*
X221615Y27940D01*
X215265Y27940D02*
X215268Y27715D01*
X215276Y27490D01*
X215289Y27266D01*
X215308Y27042D01*
X215332Y26818D01*
X215361Y26595D01*
X215396Y26373D01*
X215436Y26152D01*
X215482Y25932D01*
X215532Y25713D01*
X215588Y25495D01*
X215649Y25278D01*
X215715Y25063D01*
X215786Y24850D01*
X215863Y24639D01*
X215944Y24429D01*
X216030Y24221D01*
X216121Y24016D01*
X216217Y23813D01*
X216249Y23725D01*
X216285Y23638D01*
X216324Y23552D01*
X216367Y23468D01*
X216413Y23386D01*
X216462Y23306D01*
X216514Y23228D01*
X216570Y23152D01*
X216628Y23078D01*
X216690Y23007D01*
X216754Y22938D01*
X216821Y22872D01*
X216890Y22809D01*
X216962Y22748D01*
X217036Y22690D01*
X217113Y22636D01*
X217191Y22584D01*
X217272Y22536D01*
X217354Y22491D01*
X217439Y22449D01*
X217525Y22411D01*
X217612Y22376D01*
X217700Y22344D01*
X217790Y22317D01*
X217881Y22292D01*
X217973Y22272D01*
X218065Y22255D01*
X218159Y22242D01*
X218252Y22233D01*
X218346Y22227D01*
X218440Y22225D01*
X220663Y23813D02*
X220759Y24016D01*
X220850Y24221D01*
X220936Y24429D01*
X221017Y24639D01*
X221094Y24850D01*
X221165Y25063D01*
X221231Y25278D01*
X221292Y25495D01*
X221348Y25713D01*
X221398Y25932D01*
X221444Y26152D01*
X221484Y26373D01*
X221519Y26595D01*
X221548Y26818D01*
X221572Y27042D01*
X221591Y27266D01*
X221604Y27490D01*
X221612Y27715D01*
X221615Y27940D01*
X220663Y23813D02*
X220631Y23725D01*
X220595Y23638D01*
X220556Y23552D01*
X220513Y23468D01*
X220467Y23386D01*
X220418Y23306D01*
X220366Y23228D01*
X220310Y23152D01*
X220252Y23078D01*
X220190Y23007D01*
X220126Y22938D01*
X220059Y22872D01*
X219990Y22809D01*
X219918Y22748D01*
X219844Y22690D01*
X219767Y22636D01*
X219689Y22584D01*
X219608Y22536D01*
X219526Y22491D01*
X219441Y22449D01*
X219355Y22411D01*
X219268Y22376D01*
X219180Y22344D01*
X219090Y22317D01*
X218999Y22292D01*
X218907Y22272D01*
X218815Y22255D01*
X218721Y22242D01*
X218628Y22233D01*
X218534Y22227D01*
X218440Y22225D01*
X215900Y24765D02*
X220980Y31115D01*
X406146Y73025D02*
X406246Y73027D01*
X406345Y73033D01*
X406445Y73043D01*
X406543Y73056D01*
X406642Y73074D01*
X406739Y73095D01*
X406835Y73120D01*
X406931Y73149D01*
X407025Y73182D01*
X407118Y73218D01*
X407209Y73258D01*
X407299Y73302D01*
X407387Y73349D01*
X407473Y73399D01*
X407557Y73453D01*
X407639Y73510D01*
X407718Y73570D01*
X407796Y73634D01*
X407870Y73700D01*
X407942Y73769D01*
X408011Y73841D01*
X408077Y73915D01*
X408141Y73993D01*
X408201Y74072D01*
X408258Y74154D01*
X408312Y74238D01*
X408362Y74324D01*
X408409Y74412D01*
X408453Y74502D01*
X408493Y74593D01*
X408529Y74686D01*
X408562Y74780D01*
X408591Y74876D01*
X408616Y74972D01*
X408637Y75069D01*
X408655Y75168D01*
X408668Y75266D01*
X408678Y75366D01*
X408684Y75465D01*
X408686Y75565D01*
X406146Y73025D02*
X406005Y73027D01*
X405864Y73032D01*
X405723Y73042D01*
X405582Y73055D01*
X405442Y73071D01*
X405302Y73092D01*
X405163Y73116D01*
X405024Y73144D01*
X404887Y73175D01*
X404750Y73210D01*
X404614Y73248D01*
X404479Y73290D01*
X404346Y73336D01*
X404213Y73385D01*
X404082Y73438D01*
X403953Y73494D01*
X403824Y73553D01*
X403698Y73616D01*
X403573Y73682D01*
X403450Y73751D01*
X403329Y73824D01*
X403210Y73900D01*
X403092Y73979D01*
X402977Y74060D01*
X402865Y74145D01*
X402754Y74233D01*
X402646Y74324D01*
X402540Y74417D01*
X402437Y74514D01*
X402336Y74613D01*
X402654Y81915D02*
X402656Y82015D01*
X402662Y82114D01*
X402672Y82214D01*
X402685Y82312D01*
X402703Y82411D01*
X402724Y82508D01*
X402749Y82604D01*
X402778Y82700D01*
X402811Y82794D01*
X402847Y82887D01*
X402887Y82978D01*
X402931Y83068D01*
X402978Y83156D01*
X403028Y83242D01*
X403082Y83326D01*
X403139Y83408D01*
X403199Y83487D01*
X403263Y83565D01*
X403329Y83639D01*
X403398Y83711D01*
X403470Y83780D01*
X403544Y83846D01*
X403622Y83910D01*
X403701Y83970D01*
X403783Y84027D01*
X403867Y84081D01*
X403953Y84131D01*
X404041Y84178D01*
X404131Y84222D01*
X404222Y84262D01*
X404315Y84298D01*
X404409Y84331D01*
X404505Y84360D01*
X404601Y84385D01*
X404698Y84406D01*
X404797Y84424D01*
X404895Y84437D01*
X404995Y84447D01*
X405094Y84453D01*
X405194Y84455D01*
X405194Y84456D02*
X405327Y84454D01*
X405460Y84449D01*
X405593Y84439D01*
X405726Y84426D01*
X405858Y84409D01*
X405990Y84389D01*
X406121Y84365D01*
X406251Y84337D01*
X406381Y84306D01*
X406509Y84271D01*
X406637Y84232D01*
X406763Y84190D01*
X406888Y84144D01*
X407012Y84095D01*
X407135Y84043D01*
X407256Y83987D01*
X407375Y83927D01*
X407493Y83865D01*
X407608Y83799D01*
X407722Y83730D01*
X407834Y83657D01*
X407944Y83582D01*
X408052Y83503D01*
X403923Y79692D02*
X403839Y79744D01*
X403756Y79799D01*
X403676Y79858D01*
X403598Y79919D01*
X403523Y79983D01*
X403450Y80051D01*
X403379Y80121D01*
X403312Y80193D01*
X403247Y80268D01*
X403185Y80346D01*
X403126Y80426D01*
X403070Y80508D01*
X403018Y80592D01*
X402969Y80678D01*
X402923Y80766D01*
X402880Y80856D01*
X402841Y80947D01*
X402806Y81040D01*
X402774Y81134D01*
X402746Y81229D01*
X402721Y81325D01*
X402701Y81422D01*
X402683Y81520D01*
X402670Y81618D01*
X402661Y81717D01*
X402655Y81816D01*
X402653Y81915D01*
X407416Y77788D02*
X407500Y77736D01*
X407583Y77681D01*
X407663Y77622D01*
X407741Y77561D01*
X407816Y77497D01*
X407889Y77429D01*
X407960Y77359D01*
X408027Y77287D01*
X408092Y77212D01*
X408154Y77134D01*
X408213Y77054D01*
X408269Y76972D01*
X408321Y76888D01*
X408370Y76802D01*
X408416Y76714D01*
X408459Y76624D01*
X408498Y76533D01*
X408533Y76440D01*
X408565Y76346D01*
X408593Y76251D01*
X408618Y76155D01*
X408638Y76058D01*
X408656Y75960D01*
X408669Y75862D01*
X408678Y75763D01*
X408684Y75664D01*
X408686Y75565D01*
X407416Y77788D02*
X403924Y79693D01*
X412750Y84455D02*
X416560Y73025D01*
X420370Y84455D01*
X428308Y84456D02*
X428412Y84454D01*
X428517Y84448D01*
X428621Y84439D01*
X428724Y84426D01*
X428827Y84408D01*
X428929Y84388D01*
X429031Y84363D01*
X429131Y84335D01*
X429231Y84303D01*
X429329Y84267D01*
X429426Y84228D01*
X429521Y84186D01*
X429615Y84140D01*
X429707Y84090D01*
X429797Y84038D01*
X429885Y83982D01*
X429971Y83922D01*
X430055Y83860D01*
X430136Y83795D01*
X430215Y83727D01*
X430292Y83655D01*
X430365Y83582D01*
X430437Y83505D01*
X430505Y83426D01*
X430570Y83345D01*
X430632Y83261D01*
X430692Y83175D01*
X430748Y83087D01*
X430800Y82997D01*
X430850Y82905D01*
X430896Y82811D01*
X430938Y82716D01*
X430977Y82619D01*
X431013Y82521D01*
X431045Y82421D01*
X431073Y82321D01*
X431098Y82219D01*
X431118Y82117D01*
X431136Y82014D01*
X431149Y81911D01*
X431158Y81807D01*
X431164Y81702D01*
X431166Y81598D01*
X428308Y84455D02*
X428190Y84453D01*
X428071Y84447D01*
X427953Y84438D01*
X427836Y84425D01*
X427719Y84407D01*
X427602Y84387D01*
X427486Y84362D01*
X427371Y84334D01*
X427258Y84301D01*
X427145Y84266D01*
X427033Y84226D01*
X426923Y84184D01*
X426814Y84137D01*
X426706Y84087D01*
X426601Y84034D01*
X426497Y83977D01*
X426395Y83917D01*
X426295Y83854D01*
X426197Y83787D01*
X426101Y83718D01*
X426008Y83645D01*
X425917Y83569D01*
X425828Y83491D01*
X425742Y83409D01*
X425659Y83325D01*
X425578Y83239D01*
X425501Y83149D01*
X425426Y83058D01*
X425354Y82964D01*
X425285Y82867D01*
X425220Y82769D01*
X425157Y82668D01*
X425098Y82565D01*
X425042Y82461D01*
X424990Y82355D01*
X424941Y82247D01*
X424896Y82138D01*
X424854Y82027D01*
X424816Y81915D01*
X430213Y79376D02*
X430289Y79451D01*
X430364Y79530D01*
X430435Y79611D01*
X430504Y79695D01*
X430569Y79781D01*
X430631Y79869D01*
X430691Y79959D01*
X430747Y80051D01*
X430800Y80146D01*
X430849Y80242D01*
X430895Y80340D01*
X430938Y80439D01*
X430977Y80540D01*
X431012Y80642D01*
X431044Y80745D01*
X431072Y80849D01*
X431097Y80954D01*
X431118Y81061D01*
X431135Y81167D01*
X431148Y81274D01*
X431157Y81382D01*
X431163Y81490D01*
X431165Y81598D01*
X430213Y79375D02*
X424815Y73025D01*
X431165Y73025D01*
D10*
X151490Y372110D02*
X51670Y372110D01*
X51670Y282190D02*
X51670Y280160D01*
X151490Y280160D01*
X151490Y348230D02*
X151490Y372110D01*
X151490Y348230D02*
X135490Y348230D01*
X117710Y348230D02*
X85450Y348230D01*
X67670Y348230D02*
X51670Y348230D01*
X151490Y348230D02*
X151490Y282190D01*
X51670Y348230D02*
X51670Y372110D01*
X51670Y282190D02*
X151490Y282190D01*
X151490Y280160D01*
X51670Y282190D02*
X51670Y348230D01*
X121520Y295402D02*
X121522Y295544D01*
X121528Y295687D01*
X121538Y295829D01*
X121552Y295971D01*
X121570Y296112D01*
X121592Y296253D01*
X121618Y296393D01*
X121647Y296532D01*
X121681Y296671D01*
X121719Y296808D01*
X121760Y296945D01*
X121805Y297080D01*
X121854Y297214D01*
X121907Y297346D01*
X121963Y297477D01*
X122023Y297606D01*
X122087Y297734D01*
X122154Y297859D01*
X122225Y297983D01*
X122299Y298105D01*
X122376Y298224D01*
X122457Y298342D01*
X122541Y298457D01*
X122628Y298569D01*
X122719Y298679D01*
X122812Y298787D01*
X122909Y298892D01*
X123008Y298994D01*
X123110Y299093D01*
X123215Y299190D01*
X123323Y299283D01*
X123433Y299374D01*
X123545Y299461D01*
X123660Y299545D01*
X123778Y299626D01*
X123897Y299703D01*
X124019Y299777D01*
X124143Y299848D01*
X124268Y299915D01*
X124396Y299979D01*
X124525Y300039D01*
X124656Y300095D01*
X124788Y300148D01*
X124922Y300197D01*
X125057Y300242D01*
X125194Y300283D01*
X125331Y300321D01*
X125470Y300355D01*
X125609Y300384D01*
X125749Y300410D01*
X125890Y300432D01*
X126031Y300450D01*
X126173Y300464D01*
X126315Y300474D01*
X126458Y300480D01*
X126600Y300482D01*
X126742Y300480D01*
X126885Y300474D01*
X127027Y300464D01*
X127169Y300450D01*
X127310Y300432D01*
X127451Y300410D01*
X127591Y300384D01*
X127730Y300355D01*
X127869Y300321D01*
X128006Y300283D01*
X128143Y300242D01*
X128278Y300197D01*
X128412Y300148D01*
X128544Y300095D01*
X128675Y300039D01*
X128804Y299979D01*
X128932Y299915D01*
X129057Y299848D01*
X129181Y299777D01*
X129303Y299703D01*
X129422Y299626D01*
X129540Y299545D01*
X129655Y299461D01*
X129767Y299374D01*
X129877Y299283D01*
X129985Y299190D01*
X130090Y299093D01*
X130192Y298994D01*
X130291Y298892D01*
X130388Y298787D01*
X130481Y298679D01*
X130572Y298569D01*
X130659Y298457D01*
X130743Y298342D01*
X130824Y298224D01*
X130901Y298105D01*
X130975Y297983D01*
X131046Y297859D01*
X131113Y297734D01*
X131177Y297606D01*
X131237Y297477D01*
X131293Y297346D01*
X131346Y297214D01*
X131395Y297080D01*
X131440Y296945D01*
X131481Y296808D01*
X131519Y296671D01*
X131553Y296532D01*
X131582Y296393D01*
X131608Y296253D01*
X131630Y296112D01*
X131648Y295971D01*
X131662Y295829D01*
X131672Y295687D01*
X131678Y295544D01*
X131680Y295402D01*
X131678Y295260D01*
X131672Y295117D01*
X131662Y294975D01*
X131648Y294833D01*
X131630Y294692D01*
X131608Y294551D01*
X131582Y294411D01*
X131553Y294272D01*
X131519Y294133D01*
X131481Y293996D01*
X131440Y293859D01*
X131395Y293724D01*
X131346Y293590D01*
X131293Y293458D01*
X131237Y293327D01*
X131177Y293198D01*
X131113Y293070D01*
X131046Y292945D01*
X130975Y292821D01*
X130901Y292699D01*
X130824Y292580D01*
X130743Y292462D01*
X130659Y292347D01*
X130572Y292235D01*
X130481Y292125D01*
X130388Y292017D01*
X130291Y291912D01*
X130192Y291810D01*
X130090Y291711D01*
X129985Y291614D01*
X129877Y291521D01*
X129767Y291430D01*
X129655Y291343D01*
X129540Y291259D01*
X129422Y291178D01*
X129303Y291101D01*
X129181Y291027D01*
X129057Y290956D01*
X128932Y290889D01*
X128804Y290825D01*
X128675Y290765D01*
X128544Y290709D01*
X128412Y290656D01*
X128278Y290607D01*
X128143Y290562D01*
X128006Y290521D01*
X127869Y290483D01*
X127730Y290449D01*
X127591Y290420D01*
X127451Y290394D01*
X127310Y290372D01*
X127169Y290354D01*
X127027Y290340D01*
X126885Y290330D01*
X126742Y290324D01*
X126600Y290322D01*
X126458Y290324D01*
X126315Y290330D01*
X126173Y290340D01*
X126031Y290354D01*
X125890Y290372D01*
X125749Y290394D01*
X125609Y290420D01*
X125470Y290449D01*
X125331Y290483D01*
X125194Y290521D01*
X125057Y290562D01*
X124922Y290607D01*
X124788Y290656D01*
X124656Y290709D01*
X124525Y290765D01*
X124396Y290825D01*
X124268Y290889D01*
X124143Y290956D01*
X124019Y291027D01*
X123897Y291101D01*
X123778Y291178D01*
X123660Y291259D01*
X123545Y291343D01*
X123433Y291430D01*
X123323Y291521D01*
X123215Y291614D01*
X123110Y291711D01*
X123008Y291810D01*
X122909Y291912D01*
X122812Y292017D01*
X122719Y292125D01*
X122628Y292235D01*
X122541Y292347D01*
X122457Y292462D01*
X122376Y292580D01*
X122299Y292699D01*
X122225Y292821D01*
X122154Y292945D01*
X122087Y293070D01*
X122023Y293198D01*
X121963Y293327D01*
X121907Y293458D01*
X121854Y293590D01*
X121805Y293724D01*
X121760Y293859D01*
X121719Y293996D01*
X121681Y294133D01*
X121647Y294272D01*
X121618Y294411D01*
X121592Y294551D01*
X121570Y294692D01*
X121552Y294833D01*
X121538Y294975D01*
X121528Y295117D01*
X121522Y295260D01*
X121520Y295402D01*
X71482Y295402D02*
X71484Y295544D01*
X71490Y295687D01*
X71500Y295829D01*
X71514Y295971D01*
X71532Y296112D01*
X71554Y296253D01*
X71580Y296393D01*
X71609Y296532D01*
X71643Y296671D01*
X71681Y296808D01*
X71722Y296945D01*
X71767Y297080D01*
X71816Y297214D01*
X71869Y297346D01*
X71925Y297477D01*
X71985Y297606D01*
X72049Y297734D01*
X72116Y297859D01*
X72187Y297983D01*
X72261Y298105D01*
X72338Y298224D01*
X72419Y298342D01*
X72503Y298457D01*
X72590Y298569D01*
X72681Y298679D01*
X72774Y298787D01*
X72871Y298892D01*
X72970Y298994D01*
X73072Y299093D01*
X73177Y299190D01*
X73285Y299283D01*
X73395Y299374D01*
X73507Y299461D01*
X73622Y299545D01*
X73740Y299626D01*
X73859Y299703D01*
X73981Y299777D01*
X74105Y299848D01*
X74230Y299915D01*
X74358Y299979D01*
X74487Y300039D01*
X74618Y300095D01*
X74750Y300148D01*
X74884Y300197D01*
X75019Y300242D01*
X75156Y300283D01*
X75293Y300321D01*
X75432Y300355D01*
X75571Y300384D01*
X75711Y300410D01*
X75852Y300432D01*
X75993Y300450D01*
X76135Y300464D01*
X76277Y300474D01*
X76420Y300480D01*
X76562Y300482D01*
X76704Y300480D01*
X76847Y300474D01*
X76989Y300464D01*
X77131Y300450D01*
X77272Y300432D01*
X77413Y300410D01*
X77553Y300384D01*
X77692Y300355D01*
X77831Y300321D01*
X77968Y300283D01*
X78105Y300242D01*
X78240Y300197D01*
X78374Y300148D01*
X78506Y300095D01*
X78637Y300039D01*
X78766Y299979D01*
X78894Y299915D01*
X79019Y299848D01*
X79143Y299777D01*
X79265Y299703D01*
X79384Y299626D01*
X79502Y299545D01*
X79617Y299461D01*
X79729Y299374D01*
X79839Y299283D01*
X79947Y299190D01*
X80052Y299093D01*
X80154Y298994D01*
X80253Y298892D01*
X80350Y298787D01*
X80443Y298679D01*
X80534Y298569D01*
X80621Y298457D01*
X80705Y298342D01*
X80786Y298224D01*
X80863Y298105D01*
X80937Y297983D01*
X81008Y297859D01*
X81075Y297734D01*
X81139Y297606D01*
X81199Y297477D01*
X81255Y297346D01*
X81308Y297214D01*
X81357Y297080D01*
X81402Y296945D01*
X81443Y296808D01*
X81481Y296671D01*
X81515Y296532D01*
X81544Y296393D01*
X81570Y296253D01*
X81592Y296112D01*
X81610Y295971D01*
X81624Y295829D01*
X81634Y295687D01*
X81640Y295544D01*
X81642Y295402D01*
X81640Y295260D01*
X81634Y295117D01*
X81624Y294975D01*
X81610Y294833D01*
X81592Y294692D01*
X81570Y294551D01*
X81544Y294411D01*
X81515Y294272D01*
X81481Y294133D01*
X81443Y293996D01*
X81402Y293859D01*
X81357Y293724D01*
X81308Y293590D01*
X81255Y293458D01*
X81199Y293327D01*
X81139Y293198D01*
X81075Y293070D01*
X81008Y292945D01*
X80937Y292821D01*
X80863Y292699D01*
X80786Y292580D01*
X80705Y292462D01*
X80621Y292347D01*
X80534Y292235D01*
X80443Y292125D01*
X80350Y292017D01*
X80253Y291912D01*
X80154Y291810D01*
X80052Y291711D01*
X79947Y291614D01*
X79839Y291521D01*
X79729Y291430D01*
X79617Y291343D01*
X79502Y291259D01*
X79384Y291178D01*
X79265Y291101D01*
X79143Y291027D01*
X79019Y290956D01*
X78894Y290889D01*
X78766Y290825D01*
X78637Y290765D01*
X78506Y290709D01*
X78374Y290656D01*
X78240Y290607D01*
X78105Y290562D01*
X77968Y290521D01*
X77831Y290483D01*
X77692Y290449D01*
X77553Y290420D01*
X77413Y290394D01*
X77272Y290372D01*
X77131Y290354D01*
X76989Y290340D01*
X76847Y290330D01*
X76704Y290324D01*
X76562Y290322D01*
X76420Y290324D01*
X76277Y290330D01*
X76135Y290340D01*
X75993Y290354D01*
X75852Y290372D01*
X75711Y290394D01*
X75571Y290420D01*
X75432Y290449D01*
X75293Y290483D01*
X75156Y290521D01*
X75019Y290562D01*
X74884Y290607D01*
X74750Y290656D01*
X74618Y290709D01*
X74487Y290765D01*
X74358Y290825D01*
X74230Y290889D01*
X74105Y290956D01*
X73981Y291027D01*
X73859Y291101D01*
X73740Y291178D01*
X73622Y291259D01*
X73507Y291343D01*
X73395Y291430D01*
X73285Y291521D01*
X73177Y291614D01*
X73072Y291711D01*
X72970Y291810D01*
X72871Y291912D01*
X72774Y292017D01*
X72681Y292125D01*
X72590Y292235D01*
X72503Y292347D01*
X72419Y292462D01*
X72338Y292580D01*
X72261Y292699D01*
X72187Y292821D01*
X72116Y292945D01*
X72049Y293070D01*
X71985Y293198D01*
X71925Y293327D01*
X71869Y293458D01*
X71816Y293590D01*
X71767Y293724D01*
X71722Y293859D01*
X71681Y293996D01*
X71643Y294133D01*
X71609Y294272D01*
X71580Y294411D01*
X71554Y294551D01*
X71532Y294692D01*
X71514Y294833D01*
X71500Y294975D01*
X71490Y295117D01*
X71484Y295260D01*
X71482Y295402D01*
D16*
X139935Y307975D02*
X143110Y310515D01*
X143110Y299085D01*
X139935Y299085D02*
X146285Y299085D01*
X96756Y307658D02*
X96754Y307762D01*
X96748Y307867D01*
X96739Y307971D01*
X96726Y308074D01*
X96708Y308177D01*
X96688Y308279D01*
X96663Y308381D01*
X96635Y308481D01*
X96603Y308581D01*
X96567Y308679D01*
X96528Y308776D01*
X96486Y308871D01*
X96440Y308965D01*
X96390Y309057D01*
X96338Y309147D01*
X96282Y309235D01*
X96222Y309321D01*
X96160Y309405D01*
X96095Y309486D01*
X96027Y309565D01*
X95955Y309642D01*
X95882Y309715D01*
X95805Y309787D01*
X95726Y309855D01*
X95645Y309920D01*
X95561Y309982D01*
X95475Y310042D01*
X95387Y310098D01*
X95297Y310150D01*
X95205Y310200D01*
X95111Y310246D01*
X95016Y310288D01*
X94919Y310327D01*
X94821Y310363D01*
X94721Y310395D01*
X94621Y310423D01*
X94519Y310448D01*
X94417Y310468D01*
X94314Y310486D01*
X94211Y310499D01*
X94107Y310508D01*
X94002Y310514D01*
X93898Y310516D01*
X93898Y310515D02*
X93780Y310513D01*
X93661Y310507D01*
X93543Y310498D01*
X93426Y310485D01*
X93309Y310467D01*
X93192Y310447D01*
X93076Y310422D01*
X92961Y310394D01*
X92848Y310361D01*
X92735Y310326D01*
X92623Y310286D01*
X92513Y310244D01*
X92404Y310197D01*
X92296Y310147D01*
X92191Y310094D01*
X92087Y310037D01*
X91985Y309977D01*
X91885Y309914D01*
X91787Y309847D01*
X91691Y309778D01*
X91598Y309705D01*
X91507Y309629D01*
X91418Y309551D01*
X91332Y309469D01*
X91249Y309385D01*
X91168Y309299D01*
X91091Y309209D01*
X91016Y309118D01*
X90944Y309024D01*
X90875Y308927D01*
X90810Y308829D01*
X90747Y308728D01*
X90688Y308625D01*
X90632Y308521D01*
X90580Y308415D01*
X90531Y308307D01*
X90486Y308198D01*
X90444Y308087D01*
X90406Y307975D01*
X95803Y305436D02*
X95879Y305511D01*
X95954Y305590D01*
X96025Y305671D01*
X96094Y305755D01*
X96159Y305841D01*
X96221Y305929D01*
X96281Y306019D01*
X96337Y306111D01*
X96390Y306206D01*
X96439Y306302D01*
X96485Y306400D01*
X96528Y306499D01*
X96567Y306600D01*
X96602Y306702D01*
X96634Y306805D01*
X96662Y306909D01*
X96687Y307014D01*
X96708Y307121D01*
X96725Y307227D01*
X96738Y307334D01*
X96747Y307442D01*
X96753Y307550D01*
X96755Y307658D01*
X95803Y305435D02*
X90405Y299085D01*
X96755Y299085D01*
X121012Y355473D02*
X128632Y366903D01*
X121012Y366903D02*
X128632Y355473D01*
X133077Y364363D02*
X136252Y366903D01*
X136252Y355473D01*
X133077Y355473D02*
X139427Y355473D01*
D10*
X165970Y372110D02*
X265790Y372110D01*
X165970Y282190D02*
X165970Y280160D01*
X265790Y280160D01*
X265790Y348230D02*
X265790Y372110D01*
X265790Y348230D02*
X249790Y348230D01*
X232010Y348230D02*
X199750Y348230D01*
X181970Y348230D02*
X165970Y348230D01*
X265790Y348230D02*
X265790Y282190D01*
X165970Y348230D02*
X165970Y372110D01*
X165970Y282190D02*
X265790Y282190D01*
X265790Y280160D01*
X165970Y282190D02*
X165970Y348230D01*
X235820Y295402D02*
X235822Y295544D01*
X235828Y295687D01*
X235838Y295829D01*
X235852Y295971D01*
X235870Y296112D01*
X235892Y296253D01*
X235918Y296393D01*
X235947Y296532D01*
X235981Y296671D01*
X236019Y296808D01*
X236060Y296945D01*
X236105Y297080D01*
X236154Y297214D01*
X236207Y297346D01*
X236263Y297477D01*
X236323Y297606D01*
X236387Y297734D01*
X236454Y297859D01*
X236525Y297983D01*
X236599Y298105D01*
X236676Y298224D01*
X236757Y298342D01*
X236841Y298457D01*
X236928Y298569D01*
X237019Y298679D01*
X237112Y298787D01*
X237209Y298892D01*
X237308Y298994D01*
X237410Y299093D01*
X237515Y299190D01*
X237623Y299283D01*
X237733Y299374D01*
X237845Y299461D01*
X237960Y299545D01*
X238078Y299626D01*
X238197Y299703D01*
X238319Y299777D01*
X238443Y299848D01*
X238568Y299915D01*
X238696Y299979D01*
X238825Y300039D01*
X238956Y300095D01*
X239088Y300148D01*
X239222Y300197D01*
X239357Y300242D01*
X239494Y300283D01*
X239631Y300321D01*
X239770Y300355D01*
X239909Y300384D01*
X240049Y300410D01*
X240190Y300432D01*
X240331Y300450D01*
X240473Y300464D01*
X240615Y300474D01*
X240758Y300480D01*
X240900Y300482D01*
X241042Y300480D01*
X241185Y300474D01*
X241327Y300464D01*
X241469Y300450D01*
X241610Y300432D01*
X241751Y300410D01*
X241891Y300384D01*
X242030Y300355D01*
X242169Y300321D01*
X242306Y300283D01*
X242443Y300242D01*
X242578Y300197D01*
X242712Y300148D01*
X242844Y300095D01*
X242975Y300039D01*
X243104Y299979D01*
X243232Y299915D01*
X243357Y299848D01*
X243481Y299777D01*
X243603Y299703D01*
X243722Y299626D01*
X243840Y299545D01*
X243955Y299461D01*
X244067Y299374D01*
X244177Y299283D01*
X244285Y299190D01*
X244390Y299093D01*
X244492Y298994D01*
X244591Y298892D01*
X244688Y298787D01*
X244781Y298679D01*
X244872Y298569D01*
X244959Y298457D01*
X245043Y298342D01*
X245124Y298224D01*
X245201Y298105D01*
X245275Y297983D01*
X245346Y297859D01*
X245413Y297734D01*
X245477Y297606D01*
X245537Y297477D01*
X245593Y297346D01*
X245646Y297214D01*
X245695Y297080D01*
X245740Y296945D01*
X245781Y296808D01*
X245819Y296671D01*
X245853Y296532D01*
X245882Y296393D01*
X245908Y296253D01*
X245930Y296112D01*
X245948Y295971D01*
X245962Y295829D01*
X245972Y295687D01*
X245978Y295544D01*
X245980Y295402D01*
X245978Y295260D01*
X245972Y295117D01*
X245962Y294975D01*
X245948Y294833D01*
X245930Y294692D01*
X245908Y294551D01*
X245882Y294411D01*
X245853Y294272D01*
X245819Y294133D01*
X245781Y293996D01*
X245740Y293859D01*
X245695Y293724D01*
X245646Y293590D01*
X245593Y293458D01*
X245537Y293327D01*
X245477Y293198D01*
X245413Y293070D01*
X245346Y292945D01*
X245275Y292821D01*
X245201Y292699D01*
X245124Y292580D01*
X245043Y292462D01*
X244959Y292347D01*
X244872Y292235D01*
X244781Y292125D01*
X244688Y292017D01*
X244591Y291912D01*
X244492Y291810D01*
X244390Y291711D01*
X244285Y291614D01*
X244177Y291521D01*
X244067Y291430D01*
X243955Y291343D01*
X243840Y291259D01*
X243722Y291178D01*
X243603Y291101D01*
X243481Y291027D01*
X243357Y290956D01*
X243232Y290889D01*
X243104Y290825D01*
X242975Y290765D01*
X242844Y290709D01*
X242712Y290656D01*
X242578Y290607D01*
X242443Y290562D01*
X242306Y290521D01*
X242169Y290483D01*
X242030Y290449D01*
X241891Y290420D01*
X241751Y290394D01*
X241610Y290372D01*
X241469Y290354D01*
X241327Y290340D01*
X241185Y290330D01*
X241042Y290324D01*
X240900Y290322D01*
X240758Y290324D01*
X240615Y290330D01*
X240473Y290340D01*
X240331Y290354D01*
X240190Y290372D01*
X240049Y290394D01*
X239909Y290420D01*
X239770Y290449D01*
X239631Y290483D01*
X239494Y290521D01*
X239357Y290562D01*
X239222Y290607D01*
X239088Y290656D01*
X238956Y290709D01*
X238825Y290765D01*
X238696Y290825D01*
X238568Y290889D01*
X238443Y290956D01*
X238319Y291027D01*
X238197Y291101D01*
X238078Y291178D01*
X237960Y291259D01*
X237845Y291343D01*
X237733Y291430D01*
X237623Y291521D01*
X237515Y291614D01*
X237410Y291711D01*
X237308Y291810D01*
X237209Y291912D01*
X237112Y292017D01*
X237019Y292125D01*
X236928Y292235D01*
X236841Y292347D01*
X236757Y292462D01*
X236676Y292580D01*
X236599Y292699D01*
X236525Y292821D01*
X236454Y292945D01*
X236387Y293070D01*
X236323Y293198D01*
X236263Y293327D01*
X236207Y293458D01*
X236154Y293590D01*
X236105Y293724D01*
X236060Y293859D01*
X236019Y293996D01*
X235981Y294133D01*
X235947Y294272D01*
X235918Y294411D01*
X235892Y294551D01*
X235870Y294692D01*
X235852Y294833D01*
X235838Y294975D01*
X235828Y295117D01*
X235822Y295260D01*
X235820Y295402D01*
X185782Y295402D02*
X185784Y295544D01*
X185790Y295687D01*
X185800Y295829D01*
X185814Y295971D01*
X185832Y296112D01*
X185854Y296253D01*
X185880Y296393D01*
X185909Y296532D01*
X185943Y296671D01*
X185981Y296808D01*
X186022Y296945D01*
X186067Y297080D01*
X186116Y297214D01*
X186169Y297346D01*
X186225Y297477D01*
X186285Y297606D01*
X186349Y297734D01*
X186416Y297859D01*
X186487Y297983D01*
X186561Y298105D01*
X186638Y298224D01*
X186719Y298342D01*
X186803Y298457D01*
X186890Y298569D01*
X186981Y298679D01*
X187074Y298787D01*
X187171Y298892D01*
X187270Y298994D01*
X187372Y299093D01*
X187477Y299190D01*
X187585Y299283D01*
X187695Y299374D01*
X187807Y299461D01*
X187922Y299545D01*
X188040Y299626D01*
X188159Y299703D01*
X188281Y299777D01*
X188405Y299848D01*
X188530Y299915D01*
X188658Y299979D01*
X188787Y300039D01*
X188918Y300095D01*
X189050Y300148D01*
X189184Y300197D01*
X189319Y300242D01*
X189456Y300283D01*
X189593Y300321D01*
X189732Y300355D01*
X189871Y300384D01*
X190011Y300410D01*
X190152Y300432D01*
X190293Y300450D01*
X190435Y300464D01*
X190577Y300474D01*
X190720Y300480D01*
X190862Y300482D01*
X191004Y300480D01*
X191147Y300474D01*
X191289Y300464D01*
X191431Y300450D01*
X191572Y300432D01*
X191713Y300410D01*
X191853Y300384D01*
X191992Y300355D01*
X192131Y300321D01*
X192268Y300283D01*
X192405Y300242D01*
X192540Y300197D01*
X192674Y300148D01*
X192806Y300095D01*
X192937Y300039D01*
X193066Y299979D01*
X193194Y299915D01*
X193319Y299848D01*
X193443Y299777D01*
X193565Y299703D01*
X193684Y299626D01*
X193802Y299545D01*
X193917Y299461D01*
X194029Y299374D01*
X194139Y299283D01*
X194247Y299190D01*
X194352Y299093D01*
X194454Y298994D01*
X194553Y298892D01*
X194650Y298787D01*
X194743Y298679D01*
X194834Y298569D01*
X194921Y298457D01*
X195005Y298342D01*
X195086Y298224D01*
X195163Y298105D01*
X195237Y297983D01*
X195308Y297859D01*
X195375Y297734D01*
X195439Y297606D01*
X195499Y297477D01*
X195555Y297346D01*
X195608Y297214D01*
X195657Y297080D01*
X195702Y296945D01*
X195743Y296808D01*
X195781Y296671D01*
X195815Y296532D01*
X195844Y296393D01*
X195870Y296253D01*
X195892Y296112D01*
X195910Y295971D01*
X195924Y295829D01*
X195934Y295687D01*
X195940Y295544D01*
X195942Y295402D01*
X195940Y295260D01*
X195934Y295117D01*
X195924Y294975D01*
X195910Y294833D01*
X195892Y294692D01*
X195870Y294551D01*
X195844Y294411D01*
X195815Y294272D01*
X195781Y294133D01*
X195743Y293996D01*
X195702Y293859D01*
X195657Y293724D01*
X195608Y293590D01*
X195555Y293458D01*
X195499Y293327D01*
X195439Y293198D01*
X195375Y293070D01*
X195308Y292945D01*
X195237Y292821D01*
X195163Y292699D01*
X195086Y292580D01*
X195005Y292462D01*
X194921Y292347D01*
X194834Y292235D01*
X194743Y292125D01*
X194650Y292017D01*
X194553Y291912D01*
X194454Y291810D01*
X194352Y291711D01*
X194247Y291614D01*
X194139Y291521D01*
X194029Y291430D01*
X193917Y291343D01*
X193802Y291259D01*
X193684Y291178D01*
X193565Y291101D01*
X193443Y291027D01*
X193319Y290956D01*
X193194Y290889D01*
X193066Y290825D01*
X192937Y290765D01*
X192806Y290709D01*
X192674Y290656D01*
X192540Y290607D01*
X192405Y290562D01*
X192268Y290521D01*
X192131Y290483D01*
X191992Y290449D01*
X191853Y290420D01*
X191713Y290394D01*
X191572Y290372D01*
X191431Y290354D01*
X191289Y290340D01*
X191147Y290330D01*
X191004Y290324D01*
X190862Y290322D01*
X190720Y290324D01*
X190577Y290330D01*
X190435Y290340D01*
X190293Y290354D01*
X190152Y290372D01*
X190011Y290394D01*
X189871Y290420D01*
X189732Y290449D01*
X189593Y290483D01*
X189456Y290521D01*
X189319Y290562D01*
X189184Y290607D01*
X189050Y290656D01*
X188918Y290709D01*
X188787Y290765D01*
X188658Y290825D01*
X188530Y290889D01*
X188405Y290956D01*
X188281Y291027D01*
X188159Y291101D01*
X188040Y291178D01*
X187922Y291259D01*
X187807Y291343D01*
X187695Y291430D01*
X187585Y291521D01*
X187477Y291614D01*
X187372Y291711D01*
X187270Y291810D01*
X187171Y291912D01*
X187074Y292017D01*
X186981Y292125D01*
X186890Y292235D01*
X186803Y292347D01*
X186719Y292462D01*
X186638Y292580D01*
X186561Y292699D01*
X186487Y292821D01*
X186416Y292945D01*
X186349Y293070D01*
X186285Y293198D01*
X186225Y293327D01*
X186169Y293458D01*
X186116Y293590D01*
X186067Y293724D01*
X186022Y293859D01*
X185981Y293996D01*
X185943Y294133D01*
X185909Y294272D01*
X185880Y294411D01*
X185854Y294551D01*
X185832Y294692D01*
X185814Y294833D01*
X185800Y294975D01*
X185790Y295117D01*
X185784Y295260D01*
X185782Y295402D01*
D16*
X254235Y307975D02*
X257410Y310515D01*
X257410Y299085D01*
X254235Y299085D02*
X260585Y299085D01*
X211056Y307658D02*
X211054Y307762D01*
X211048Y307867D01*
X211039Y307971D01*
X211026Y308074D01*
X211008Y308177D01*
X210988Y308279D01*
X210963Y308381D01*
X210935Y308481D01*
X210903Y308581D01*
X210867Y308679D01*
X210828Y308776D01*
X210786Y308871D01*
X210740Y308965D01*
X210690Y309057D01*
X210638Y309147D01*
X210582Y309235D01*
X210522Y309321D01*
X210460Y309405D01*
X210395Y309486D01*
X210327Y309565D01*
X210255Y309642D01*
X210182Y309715D01*
X210105Y309787D01*
X210026Y309855D01*
X209945Y309920D01*
X209861Y309982D01*
X209775Y310042D01*
X209687Y310098D01*
X209597Y310150D01*
X209505Y310200D01*
X209411Y310246D01*
X209316Y310288D01*
X209219Y310327D01*
X209121Y310363D01*
X209021Y310395D01*
X208921Y310423D01*
X208819Y310448D01*
X208717Y310468D01*
X208614Y310486D01*
X208511Y310499D01*
X208407Y310508D01*
X208302Y310514D01*
X208198Y310516D01*
X208198Y310515D02*
X208080Y310513D01*
X207961Y310507D01*
X207843Y310498D01*
X207726Y310485D01*
X207609Y310467D01*
X207492Y310447D01*
X207376Y310422D01*
X207261Y310394D01*
X207148Y310361D01*
X207035Y310326D01*
X206923Y310286D01*
X206813Y310244D01*
X206704Y310197D01*
X206596Y310147D01*
X206491Y310094D01*
X206387Y310037D01*
X206285Y309977D01*
X206185Y309914D01*
X206087Y309847D01*
X205991Y309778D01*
X205898Y309705D01*
X205807Y309629D01*
X205718Y309551D01*
X205632Y309469D01*
X205549Y309385D01*
X205468Y309299D01*
X205391Y309209D01*
X205316Y309118D01*
X205244Y309024D01*
X205175Y308927D01*
X205110Y308829D01*
X205047Y308728D01*
X204988Y308625D01*
X204932Y308521D01*
X204880Y308415D01*
X204831Y308307D01*
X204786Y308198D01*
X204744Y308087D01*
X204706Y307975D01*
X210103Y305436D02*
X210179Y305511D01*
X210254Y305590D01*
X210325Y305671D01*
X210394Y305755D01*
X210459Y305841D01*
X210521Y305929D01*
X210581Y306019D01*
X210637Y306111D01*
X210690Y306206D01*
X210739Y306302D01*
X210785Y306400D01*
X210828Y306499D01*
X210867Y306600D01*
X210902Y306702D01*
X210934Y306805D01*
X210962Y306909D01*
X210987Y307014D01*
X211008Y307121D01*
X211025Y307227D01*
X211038Y307334D01*
X211047Y307442D01*
X211053Y307550D01*
X211055Y307658D01*
X210103Y305435D02*
X204705Y299085D01*
X211055Y299085D01*
X235312Y355473D02*
X242932Y366903D01*
X235312Y366903D02*
X242932Y355473D01*
X253728Y364046D02*
X253726Y364150D01*
X253720Y364255D01*
X253711Y364359D01*
X253698Y364462D01*
X253680Y364565D01*
X253660Y364667D01*
X253635Y364769D01*
X253607Y364869D01*
X253575Y364969D01*
X253539Y365067D01*
X253500Y365164D01*
X253458Y365259D01*
X253412Y365353D01*
X253362Y365445D01*
X253310Y365535D01*
X253254Y365623D01*
X253194Y365709D01*
X253132Y365793D01*
X253067Y365874D01*
X252999Y365953D01*
X252927Y366030D01*
X252854Y366103D01*
X252777Y366175D01*
X252698Y366243D01*
X252617Y366308D01*
X252533Y366370D01*
X252447Y366430D01*
X252359Y366486D01*
X252269Y366538D01*
X252177Y366588D01*
X252083Y366634D01*
X251988Y366676D01*
X251891Y366715D01*
X251793Y366751D01*
X251693Y366783D01*
X251593Y366811D01*
X251491Y366836D01*
X251389Y366856D01*
X251286Y366874D01*
X251183Y366887D01*
X251079Y366896D01*
X250974Y366902D01*
X250870Y366904D01*
X250870Y366903D02*
X250752Y366901D01*
X250633Y366895D01*
X250515Y366886D01*
X250398Y366873D01*
X250281Y366855D01*
X250164Y366835D01*
X250048Y366810D01*
X249933Y366782D01*
X249820Y366749D01*
X249707Y366714D01*
X249595Y366674D01*
X249485Y366632D01*
X249376Y366585D01*
X249268Y366535D01*
X249163Y366482D01*
X249059Y366425D01*
X248957Y366365D01*
X248857Y366302D01*
X248759Y366235D01*
X248663Y366166D01*
X248570Y366093D01*
X248479Y366017D01*
X248390Y365939D01*
X248304Y365857D01*
X248221Y365773D01*
X248140Y365687D01*
X248063Y365597D01*
X247988Y365506D01*
X247916Y365412D01*
X247847Y365315D01*
X247782Y365217D01*
X247719Y365116D01*
X247660Y365013D01*
X247604Y364909D01*
X247552Y364803D01*
X247503Y364695D01*
X247458Y364586D01*
X247416Y364475D01*
X247378Y364363D01*
X252775Y361824D02*
X252851Y361899D01*
X252926Y361978D01*
X252997Y362059D01*
X253066Y362143D01*
X253131Y362229D01*
X253193Y362317D01*
X253253Y362407D01*
X253309Y362499D01*
X253362Y362594D01*
X253411Y362690D01*
X253457Y362788D01*
X253500Y362887D01*
X253539Y362988D01*
X253574Y363090D01*
X253606Y363193D01*
X253634Y363297D01*
X253659Y363402D01*
X253680Y363509D01*
X253697Y363615D01*
X253710Y363722D01*
X253719Y363830D01*
X253725Y363938D01*
X253727Y364046D01*
X252775Y361823D02*
X247377Y355473D01*
X253727Y355473D01*
D10*
X298450Y317500D02*
X311150Y317500D01*
X317500Y311150D01*
X317500Y298450D02*
X311150Y292100D01*
X317500Y311150D02*
X323850Y317500D01*
X336550Y317500D01*
X342900Y311150D01*
X342900Y298450D02*
X336550Y292100D01*
X323850Y292100D01*
X317500Y298450D01*
X292100Y298450D02*
X292100Y311150D01*
X298450Y317500D01*
X292100Y298450D02*
X298450Y292100D01*
X311150Y292100D01*
X342900Y311150D02*
X349250Y317500D01*
X361950Y317500D01*
X368300Y311150D01*
X368300Y298450D02*
X361950Y292100D01*
X349250Y292100D01*
X342900Y298450D01*
X374650Y317500D02*
X387350Y317500D01*
X393700Y311150D01*
X393700Y298450D01*
X387350Y292100D01*
X368300Y311150D02*
X374650Y317500D01*
X368300Y298450D02*
X374650Y292100D01*
X387350Y292100D01*
D16*
X284480Y310515D02*
X281305Y307975D01*
X284480Y310515D02*
X284480Y299085D01*
X281305Y299085D02*
X287655Y299085D01*
X396875Y301625D02*
X399415Y310515D01*
X396875Y301625D02*
X403225Y301625D01*
X401320Y304165D02*
X401320Y299085D01*
X311785Y273685D02*
X311783Y273585D01*
X311777Y273486D01*
X311767Y273386D01*
X311754Y273288D01*
X311736Y273189D01*
X311715Y273092D01*
X311690Y272996D01*
X311661Y272900D01*
X311628Y272806D01*
X311592Y272713D01*
X311552Y272622D01*
X311508Y272532D01*
X311461Y272444D01*
X311411Y272358D01*
X311357Y272274D01*
X311300Y272192D01*
X311240Y272113D01*
X311176Y272035D01*
X311110Y271961D01*
X311041Y271889D01*
X310969Y271820D01*
X310895Y271754D01*
X310817Y271690D01*
X310738Y271630D01*
X310656Y271573D01*
X310572Y271519D01*
X310486Y271469D01*
X310398Y271422D01*
X310308Y271378D01*
X310217Y271338D01*
X310124Y271302D01*
X310030Y271269D01*
X309934Y271240D01*
X309838Y271215D01*
X309741Y271194D01*
X309642Y271176D01*
X309544Y271163D01*
X309444Y271153D01*
X309345Y271147D01*
X309245Y271145D01*
X309104Y271147D01*
X308963Y271152D01*
X308822Y271162D01*
X308681Y271175D01*
X308541Y271191D01*
X308401Y271212D01*
X308262Y271236D01*
X308123Y271264D01*
X307986Y271295D01*
X307849Y271330D01*
X307713Y271368D01*
X307578Y271410D01*
X307445Y271456D01*
X307312Y271505D01*
X307181Y271558D01*
X307052Y271614D01*
X306923Y271673D01*
X306797Y271736D01*
X306672Y271802D01*
X306549Y271871D01*
X306428Y271944D01*
X306309Y272020D01*
X306191Y272099D01*
X306076Y272180D01*
X305964Y272265D01*
X305853Y272353D01*
X305745Y272444D01*
X305639Y272537D01*
X305536Y272634D01*
X305435Y272733D01*
X305753Y280035D02*
X305755Y280135D01*
X305761Y280234D01*
X305771Y280334D01*
X305784Y280432D01*
X305802Y280531D01*
X305823Y280628D01*
X305848Y280724D01*
X305877Y280820D01*
X305910Y280914D01*
X305946Y281007D01*
X305986Y281098D01*
X306030Y281188D01*
X306077Y281276D01*
X306127Y281362D01*
X306181Y281446D01*
X306238Y281528D01*
X306298Y281607D01*
X306362Y281685D01*
X306428Y281759D01*
X306497Y281831D01*
X306569Y281900D01*
X306643Y281966D01*
X306721Y282030D01*
X306800Y282090D01*
X306882Y282147D01*
X306966Y282201D01*
X307052Y282251D01*
X307140Y282298D01*
X307230Y282342D01*
X307321Y282382D01*
X307414Y282418D01*
X307508Y282451D01*
X307604Y282480D01*
X307700Y282505D01*
X307797Y282526D01*
X307896Y282544D01*
X307994Y282557D01*
X308094Y282567D01*
X308193Y282573D01*
X308293Y282575D01*
X308293Y282576D02*
X308426Y282574D01*
X308559Y282569D01*
X308692Y282559D01*
X308825Y282546D01*
X308957Y282529D01*
X309089Y282509D01*
X309220Y282485D01*
X309350Y282457D01*
X309480Y282426D01*
X309608Y282391D01*
X309736Y282352D01*
X309862Y282310D01*
X309987Y282264D01*
X310111Y282215D01*
X310234Y282163D01*
X310355Y282107D01*
X310474Y282047D01*
X310592Y281985D01*
X310707Y281919D01*
X310821Y281850D01*
X310933Y281777D01*
X311043Y281702D01*
X311151Y281623D01*
X307022Y277812D02*
X306938Y277864D01*
X306855Y277919D01*
X306775Y277978D01*
X306697Y278039D01*
X306622Y278103D01*
X306549Y278171D01*
X306478Y278241D01*
X306411Y278313D01*
X306346Y278388D01*
X306284Y278466D01*
X306225Y278546D01*
X306169Y278628D01*
X306117Y278712D01*
X306068Y278798D01*
X306022Y278886D01*
X305979Y278976D01*
X305940Y279067D01*
X305905Y279160D01*
X305873Y279254D01*
X305845Y279349D01*
X305820Y279445D01*
X305800Y279542D01*
X305782Y279640D01*
X305769Y279738D01*
X305760Y279837D01*
X305754Y279936D01*
X305752Y280035D01*
X310515Y275908D02*
X310599Y275856D01*
X310682Y275801D01*
X310762Y275742D01*
X310840Y275681D01*
X310915Y275617D01*
X310988Y275549D01*
X311059Y275479D01*
X311126Y275407D01*
X311191Y275332D01*
X311253Y275254D01*
X311312Y275174D01*
X311368Y275092D01*
X311420Y275008D01*
X311469Y274922D01*
X311515Y274834D01*
X311558Y274744D01*
X311597Y274653D01*
X311632Y274560D01*
X311664Y274466D01*
X311692Y274371D01*
X311717Y274275D01*
X311737Y274178D01*
X311755Y274080D01*
X311768Y273982D01*
X311777Y273883D01*
X311783Y273784D01*
X311785Y273685D01*
X310515Y275908D02*
X307023Y277813D01*
X315849Y282575D02*
X319659Y271145D01*
X323469Y282575D01*
X327914Y271145D02*
X331089Y271145D01*
X331200Y271147D01*
X331310Y271153D01*
X331421Y271162D01*
X331531Y271176D01*
X331640Y271193D01*
X331749Y271214D01*
X331857Y271239D01*
X331964Y271268D01*
X332070Y271300D01*
X332175Y271336D01*
X332278Y271376D01*
X332380Y271419D01*
X332481Y271466D01*
X332580Y271517D01*
X332677Y271570D01*
X332771Y271627D01*
X332864Y271688D01*
X332955Y271751D01*
X333044Y271818D01*
X333130Y271888D01*
X333213Y271961D01*
X333295Y272036D01*
X333373Y272114D01*
X333448Y272196D01*
X333521Y272279D01*
X333591Y272365D01*
X333658Y272454D01*
X333721Y272545D01*
X333782Y272638D01*
X333839Y272732D01*
X333892Y272829D01*
X333943Y272928D01*
X333990Y273029D01*
X334033Y273131D01*
X334073Y273234D01*
X334109Y273339D01*
X334141Y273445D01*
X334170Y273552D01*
X334195Y273660D01*
X334216Y273769D01*
X334233Y273878D01*
X334247Y273988D01*
X334256Y274099D01*
X334262Y274209D01*
X334264Y274320D01*
X334262Y274431D01*
X334256Y274541D01*
X334247Y274652D01*
X334233Y274762D01*
X334216Y274871D01*
X334195Y274980D01*
X334170Y275088D01*
X334141Y275195D01*
X334109Y275301D01*
X334073Y275406D01*
X334033Y275509D01*
X333990Y275611D01*
X333943Y275712D01*
X333892Y275811D01*
X333839Y275907D01*
X333782Y276002D01*
X333721Y276095D01*
X333658Y276186D01*
X333591Y276275D01*
X333521Y276361D01*
X333448Y276444D01*
X333373Y276526D01*
X333295Y276604D01*
X333213Y276679D01*
X333130Y276752D01*
X333044Y276822D01*
X332955Y276889D01*
X332864Y276952D01*
X332771Y277013D01*
X332677Y277070D01*
X332580Y277123D01*
X332481Y277174D01*
X332380Y277221D01*
X332278Y277264D01*
X332175Y277304D01*
X332070Y277340D01*
X331964Y277372D01*
X331857Y277401D01*
X331749Y277426D01*
X331640Y277447D01*
X331531Y277464D01*
X331421Y277478D01*
X331310Y277487D01*
X331200Y277493D01*
X331089Y277495D01*
X331724Y282575D02*
X327914Y282575D01*
X331724Y282575D02*
X331824Y282573D01*
X331923Y282567D01*
X332023Y282557D01*
X332121Y282544D01*
X332220Y282526D01*
X332317Y282505D01*
X332413Y282480D01*
X332509Y282451D01*
X332603Y282418D01*
X332696Y282382D01*
X332787Y282342D01*
X332877Y282298D01*
X332965Y282251D01*
X333051Y282201D01*
X333135Y282147D01*
X333217Y282090D01*
X333296Y282030D01*
X333374Y281966D01*
X333448Y281900D01*
X333520Y281831D01*
X333589Y281759D01*
X333655Y281685D01*
X333719Y281607D01*
X333779Y281528D01*
X333836Y281446D01*
X333890Y281362D01*
X333940Y281276D01*
X333987Y281188D01*
X334031Y281098D01*
X334071Y281007D01*
X334107Y280914D01*
X334140Y280820D01*
X334169Y280724D01*
X334194Y280628D01*
X334215Y280531D01*
X334233Y280432D01*
X334246Y280334D01*
X334256Y280234D01*
X334262Y280135D01*
X334264Y280035D01*
X334262Y279935D01*
X334256Y279836D01*
X334246Y279736D01*
X334233Y279638D01*
X334215Y279539D01*
X334194Y279442D01*
X334169Y279346D01*
X334140Y279250D01*
X334107Y279156D01*
X334071Y279063D01*
X334031Y278972D01*
X333987Y278882D01*
X333940Y278794D01*
X333890Y278708D01*
X333836Y278624D01*
X333779Y278542D01*
X333719Y278463D01*
X333655Y278385D01*
X333589Y278311D01*
X333520Y278239D01*
X333448Y278170D01*
X333374Y278104D01*
X333296Y278040D01*
X333217Y277980D01*
X333135Y277923D01*
X333051Y277869D01*
X332965Y277819D01*
X332877Y277772D01*
X332787Y277728D01*
X332696Y277688D01*
X332603Y277652D01*
X332509Y277619D01*
X332413Y277590D01*
X332317Y277565D01*
X332220Y277544D01*
X332121Y277526D01*
X332023Y277513D01*
X331923Y277503D01*
X331824Y277497D01*
X331724Y277495D01*
X329184Y277495D01*
D10*
X133350Y63500D02*
X120650Y63500D01*
X133350Y63500D02*
X139700Y57150D01*
X139700Y44450D02*
X133350Y38100D01*
X139700Y57150D02*
X146050Y63500D01*
X158750Y63500D01*
X165100Y57150D01*
X165100Y44450D02*
X158750Y38100D01*
X146050Y38100D01*
X139700Y44450D01*
X114300Y44450D02*
X114300Y57150D01*
X120650Y63500D01*
X114300Y44450D02*
X120650Y38100D01*
X133350Y38100D01*
X165100Y57150D02*
X171450Y63500D01*
X184150Y63500D01*
X190500Y57150D01*
X190500Y44450D02*
X184150Y38100D01*
X171450Y38100D01*
X165100Y44450D01*
X190500Y44450D02*
X190500Y57150D01*
D16*
X105410Y56515D02*
X102235Y53975D01*
X105410Y56515D02*
X105410Y45085D01*
X102235Y45085D02*
X108585Y45085D01*
X118745Y67945D02*
X118845Y67947D01*
X118944Y67953D01*
X119044Y67963D01*
X119142Y67976D01*
X119241Y67994D01*
X119338Y68015D01*
X119434Y68040D01*
X119530Y68069D01*
X119624Y68102D01*
X119717Y68138D01*
X119808Y68178D01*
X119898Y68222D01*
X119986Y68269D01*
X120072Y68319D01*
X120156Y68373D01*
X120238Y68430D01*
X120317Y68490D01*
X120395Y68554D01*
X120469Y68620D01*
X120541Y68689D01*
X120610Y68761D01*
X120676Y68835D01*
X120740Y68913D01*
X120800Y68992D01*
X120857Y69074D01*
X120911Y69158D01*
X120961Y69244D01*
X121008Y69332D01*
X121052Y69422D01*
X121092Y69513D01*
X121128Y69606D01*
X121161Y69700D01*
X121190Y69796D01*
X121215Y69892D01*
X121236Y69989D01*
X121254Y70088D01*
X121267Y70186D01*
X121277Y70286D01*
X121283Y70385D01*
X121285Y70485D01*
X118745Y67945D02*
X118604Y67947D01*
X118463Y67952D01*
X118322Y67962D01*
X118181Y67975D01*
X118041Y67991D01*
X117901Y68012D01*
X117762Y68036D01*
X117623Y68064D01*
X117486Y68095D01*
X117349Y68130D01*
X117213Y68168D01*
X117078Y68210D01*
X116945Y68256D01*
X116812Y68305D01*
X116681Y68358D01*
X116552Y68414D01*
X116423Y68473D01*
X116297Y68536D01*
X116172Y68602D01*
X116049Y68671D01*
X115928Y68744D01*
X115809Y68820D01*
X115691Y68899D01*
X115576Y68980D01*
X115464Y69065D01*
X115353Y69153D01*
X115245Y69244D01*
X115139Y69337D01*
X115036Y69434D01*
X114935Y69533D01*
X115253Y76835D02*
X115255Y76935D01*
X115261Y77034D01*
X115271Y77134D01*
X115284Y77232D01*
X115302Y77331D01*
X115323Y77428D01*
X115348Y77524D01*
X115377Y77620D01*
X115410Y77714D01*
X115446Y77807D01*
X115486Y77898D01*
X115530Y77988D01*
X115577Y78076D01*
X115627Y78162D01*
X115681Y78246D01*
X115738Y78328D01*
X115798Y78407D01*
X115862Y78485D01*
X115928Y78559D01*
X115997Y78631D01*
X116069Y78700D01*
X116143Y78766D01*
X116221Y78830D01*
X116300Y78890D01*
X116382Y78947D01*
X116466Y79001D01*
X116552Y79051D01*
X116640Y79098D01*
X116730Y79142D01*
X116821Y79182D01*
X116914Y79218D01*
X117008Y79251D01*
X117104Y79280D01*
X117200Y79305D01*
X117297Y79326D01*
X117396Y79344D01*
X117494Y79357D01*
X117594Y79367D01*
X117693Y79373D01*
X117793Y79375D01*
X117793Y79376D02*
X117926Y79374D01*
X118059Y79369D01*
X118192Y79359D01*
X118325Y79346D01*
X118457Y79329D01*
X118589Y79309D01*
X118720Y79285D01*
X118850Y79257D01*
X118980Y79226D01*
X119108Y79191D01*
X119236Y79152D01*
X119362Y79110D01*
X119487Y79064D01*
X119611Y79015D01*
X119734Y78963D01*
X119855Y78907D01*
X119974Y78847D01*
X120092Y78785D01*
X120207Y78719D01*
X120321Y78650D01*
X120433Y78577D01*
X120543Y78502D01*
X120651Y78423D01*
X116522Y74612D02*
X116438Y74664D01*
X116355Y74719D01*
X116275Y74778D01*
X116197Y74839D01*
X116122Y74903D01*
X116049Y74971D01*
X115978Y75041D01*
X115911Y75113D01*
X115846Y75188D01*
X115784Y75266D01*
X115725Y75346D01*
X115669Y75428D01*
X115617Y75512D01*
X115568Y75598D01*
X115522Y75686D01*
X115479Y75776D01*
X115440Y75867D01*
X115405Y75960D01*
X115373Y76054D01*
X115345Y76149D01*
X115320Y76245D01*
X115300Y76342D01*
X115282Y76440D01*
X115269Y76538D01*
X115260Y76637D01*
X115254Y76736D01*
X115252Y76835D01*
X120015Y72708D02*
X120099Y72656D01*
X120182Y72601D01*
X120262Y72542D01*
X120340Y72481D01*
X120415Y72417D01*
X120488Y72349D01*
X120559Y72279D01*
X120626Y72207D01*
X120691Y72132D01*
X120753Y72054D01*
X120812Y71974D01*
X120868Y71892D01*
X120920Y71808D01*
X120969Y71722D01*
X121015Y71634D01*
X121058Y71544D01*
X121097Y71453D01*
X121132Y71360D01*
X121164Y71266D01*
X121192Y71171D01*
X121217Y71075D01*
X121237Y70978D01*
X121255Y70880D01*
X121268Y70782D01*
X121277Y70683D01*
X121283Y70584D01*
X121285Y70485D01*
X120015Y72708D02*
X116523Y74613D01*
X125349Y79375D02*
X129159Y67945D01*
X132969Y79375D01*
X139954Y79375D02*
X137414Y70485D01*
X143764Y70485D01*
X141859Y73025D02*
X141859Y67945D01*
M02*
