G04 EAGLE Gerber RS-274X export*
G75*
%MOMM*%
%FSLAX34Y34*%
%LPD*%
%INSoldermask Top*%
%IPPOS*%
%AMOC8*
5,1,8,0,0,1.08239X$1,22.5*%
G01*
%ADD10C,2.743200*%
%ADD11R,1.503200X1.703200*%
%ADD12R,1.703200X1.503200*%
%ADD13R,1.703200X0.803200*%
%ADD14R,0.803200X1.703200*%
%ADD15R,2.203200X5.703200*%
%ADD16C,1.727200*%
%ADD17C,1.993900*%
%ADD18C,0.959600*%


D10*
X482600Y25400D03*
X25400Y25400D03*
X482600Y381000D03*
X25400Y381000D03*
D11*
X187300Y88900D03*
X168300Y88900D03*
D12*
X63500Y225400D03*
X63500Y206400D03*
X63500Y130200D03*
X63500Y149200D03*
D13*
X224200Y205800D03*
X224200Y197800D03*
X224200Y189800D03*
X224200Y181800D03*
X224200Y173800D03*
X224200Y165800D03*
X224200Y157800D03*
X224200Y149800D03*
D14*
X238700Y135300D03*
X246700Y135300D03*
X254700Y135300D03*
X262700Y135300D03*
X270700Y135300D03*
X278700Y135300D03*
X286700Y135300D03*
X294700Y135300D03*
D13*
X309200Y149800D03*
X309200Y157800D03*
X309200Y165800D03*
X309200Y173800D03*
X309200Y181800D03*
X309200Y189800D03*
X309200Y197800D03*
X309200Y205800D03*
D14*
X294700Y220300D03*
X286700Y220300D03*
X278700Y220300D03*
X270700Y220300D03*
X262700Y220300D03*
X254700Y220300D03*
X246700Y220300D03*
X238700Y220300D03*
D15*
X114300Y225300D03*
X114300Y130300D03*
D16*
X411480Y177800D02*
X426720Y177800D01*
X426720Y203200D02*
X411480Y203200D01*
X411480Y228600D02*
X426720Y228600D01*
X426720Y254000D02*
X411480Y254000D01*
X444500Y58420D02*
X444500Y43180D01*
X419100Y43180D02*
X419100Y58420D01*
X393700Y58420D02*
X393700Y43180D01*
X368300Y43180D02*
X368300Y58420D01*
X342900Y58420D02*
X342900Y43180D01*
X317500Y43180D02*
X317500Y58420D01*
X292100Y58420D02*
X292100Y43180D01*
X266700Y43180D02*
X266700Y58420D01*
X241300Y58420D02*
X241300Y43180D01*
X215900Y43180D02*
X215900Y58420D01*
D17*
X126600Y321247D02*
X126600Y339154D01*
X76600Y339154D02*
X76600Y321247D01*
X240900Y321247D02*
X240900Y339154D01*
X190900Y339154D02*
X190900Y321247D01*
D16*
X304800Y312420D02*
X304800Y297180D01*
X330200Y297180D02*
X330200Y312420D01*
X355600Y312420D02*
X355600Y297180D01*
X381000Y297180D02*
X381000Y312420D01*
X127000Y58420D02*
X127000Y43180D01*
X152400Y43180D02*
X152400Y58420D01*
X177800Y58420D02*
X177800Y43180D01*
D18*
X355600Y177800D03*
X190500Y177800D03*
X190500Y114300D03*
X241300Y241300D03*
X254000Y241300D03*
X330200Y203200D03*
X342900Y190500D03*
X368300Y127000D03*
X393700Y165100D03*
X355600Y139700D03*
X279400Y177800D03*
M02*
