G04 EAGLE Gerber RS-274X export*
G75*
%MOMM*%
%FSLAX34Y34*%
%LPD*%
%INSolderpaste Top*%
%IPPOS*%
%AMOC8*
5,1,8,0,0,1.08239X$1,22.5*%
G01*
%ADD10R,1.300000X1.500000*%
%ADD11R,1.500000X1.300000*%
%ADD12R,1.500000X0.600000*%
%ADD13R,0.600000X1.500000*%
%ADD14R,2.000000X5.500000*%


D10*
X187300Y88900D03*
X168300Y88900D03*
D11*
X63500Y225400D03*
X63500Y206400D03*
X63500Y130200D03*
X63500Y149200D03*
D12*
X224200Y205800D03*
X224200Y197800D03*
X224200Y189800D03*
X224200Y181800D03*
X224200Y173800D03*
X224200Y165800D03*
X224200Y157800D03*
X224200Y149800D03*
D13*
X238700Y135300D03*
X246700Y135300D03*
X254700Y135300D03*
X262700Y135300D03*
X270700Y135300D03*
X278700Y135300D03*
X286700Y135300D03*
X294700Y135300D03*
D12*
X309200Y149800D03*
X309200Y157800D03*
X309200Y165800D03*
X309200Y173800D03*
X309200Y181800D03*
X309200Y189800D03*
X309200Y197800D03*
X309200Y205800D03*
D13*
X294700Y220300D03*
X286700Y220300D03*
X278700Y220300D03*
X270700Y220300D03*
X262700Y220300D03*
X254700Y220300D03*
X246700Y220300D03*
X238700Y220300D03*
D14*
X114300Y225300D03*
X114300Y130300D03*
M02*
