G04 EAGLE Gerber RS-274X export*
G75*
%MOMM*%
%FSLAX34Y34*%
%LPD*%
%INBottom Copper*%
%IPPOS*%
%AMOC8*
5,1,8,0,0,1.08239X$1,22.5*%
G01*
%ADD10P,1.704548X8X292.500000*%
%ADD11C,1.574800*%
%ADD12C,1.219200*%
%ADD13C,1.524000*%
%ADD14C,1.790700*%
%ADD15C,0.650000*%
%ADD16C,1.108000*%
%ADD17C,0.304800*%
%ADD18C,0.756400*%

G36*
X443382Y11194D02*
X443382Y11194D01*
X443532Y11206D01*
X443555Y11214D01*
X443579Y11217D01*
X443720Y11267D01*
X443864Y11313D01*
X443884Y11326D01*
X443907Y11334D01*
X444033Y11416D01*
X444162Y11493D01*
X444180Y11510D01*
X444200Y11523D01*
X444304Y11631D01*
X444412Y11736D01*
X444425Y11756D01*
X444442Y11774D01*
X444519Y11903D01*
X444601Y12029D01*
X444609Y12052D01*
X444621Y12073D01*
X444667Y12216D01*
X444717Y12358D01*
X444720Y12382D01*
X444727Y12405D01*
X444739Y12554D01*
X444756Y12704D01*
X444753Y12728D01*
X444755Y12752D01*
X444733Y12901D01*
X444715Y13050D01*
X444706Y13078D01*
X444704Y13097D01*
X444686Y13141D01*
X444640Y13283D01*
X444280Y14153D01*
X443969Y15714D01*
X443969Y20527D01*
X452050Y20527D01*
X460131Y20527D01*
X460131Y15714D01*
X459893Y14519D01*
X459893Y14518D01*
X459820Y14153D01*
X459460Y13283D01*
X459419Y13138D01*
X459373Y12995D01*
X459371Y12971D01*
X459364Y12948D01*
X459357Y12797D01*
X459345Y12648D01*
X459348Y12624D01*
X459347Y12600D01*
X459374Y12452D01*
X459396Y12303D01*
X459405Y12281D01*
X459410Y12257D01*
X459470Y12119D01*
X459525Y11979D01*
X459539Y11959D01*
X459549Y11937D01*
X459638Y11816D01*
X459724Y11693D01*
X459742Y11677D01*
X459757Y11658D01*
X459871Y11560D01*
X459983Y11460D01*
X460004Y11448D01*
X460023Y11432D01*
X460156Y11364D01*
X460288Y11291D01*
X460311Y11285D01*
X460333Y11274D01*
X460478Y11237D01*
X460623Y11196D01*
X460653Y11194D01*
X460671Y11189D01*
X460718Y11189D01*
X460867Y11177D01*
X529733Y11177D01*
X529882Y11194D01*
X530032Y11206D01*
X530055Y11214D01*
X530079Y11217D01*
X530221Y11267D01*
X530364Y11314D01*
X530384Y11326D01*
X530407Y11334D01*
X530534Y11416D01*
X530662Y11493D01*
X530680Y11510D01*
X530700Y11523D01*
X530805Y11632D01*
X530912Y11736D01*
X530925Y11756D01*
X530942Y11774D01*
X531019Y11903D01*
X531101Y12029D01*
X531109Y12052D01*
X531121Y12073D01*
X531167Y12216D01*
X531217Y12358D01*
X531220Y12382D01*
X531227Y12405D01*
X531239Y12554D01*
X531256Y12704D01*
X531253Y12728D01*
X531255Y12752D01*
X531233Y12901D01*
X531215Y13050D01*
X531206Y13078D01*
X531204Y13097D01*
X531186Y13141D01*
X531140Y13283D01*
X530780Y14153D01*
X530469Y15714D01*
X530469Y20527D01*
X538550Y20527D01*
X546631Y20527D01*
X546631Y15714D01*
X546393Y14519D01*
X546393Y14518D01*
X546320Y14153D01*
X545960Y13283D01*
X545919Y13138D01*
X545873Y12995D01*
X545871Y12971D01*
X545864Y12948D01*
X545857Y12798D01*
X545845Y12648D01*
X545848Y12624D01*
X545847Y12600D01*
X545874Y12452D01*
X545896Y12303D01*
X545905Y12281D01*
X545910Y12257D01*
X545970Y12119D01*
X546025Y11979D01*
X546039Y11959D01*
X546049Y11937D01*
X546139Y11816D01*
X546224Y11693D01*
X546242Y11677D01*
X546256Y11658D01*
X546371Y11560D01*
X546483Y11460D01*
X546504Y11448D01*
X546522Y11432D01*
X546656Y11364D01*
X546788Y11291D01*
X546811Y11285D01*
X546833Y11274D01*
X546979Y11237D01*
X547123Y11196D01*
X547152Y11194D01*
X547171Y11189D01*
X547218Y11189D01*
X547367Y11177D01*
X738520Y11177D01*
X738596Y11185D01*
X738671Y11184D01*
X738768Y11205D01*
X738867Y11217D01*
X738938Y11242D01*
X739012Y11258D01*
X739101Y11301D01*
X739195Y11334D01*
X739258Y11375D01*
X739327Y11408D01*
X739404Y11469D01*
X739488Y11523D01*
X739540Y11578D01*
X739599Y11625D01*
X739661Y11703D01*
X739730Y11774D01*
X739769Y11839D01*
X739816Y11898D01*
X739858Y11988D01*
X739909Y12073D01*
X739932Y12145D01*
X739964Y12214D01*
X739985Y12311D01*
X740015Y12405D01*
X740021Y12480D01*
X740037Y12554D01*
X740035Y12654D01*
X740043Y12752D01*
X740032Y12827D01*
X740030Y12903D01*
X740006Y12999D01*
X739991Y13097D01*
X739963Y13167D01*
X739944Y13241D01*
X739880Y13377D01*
X739862Y13421D01*
X739852Y13436D01*
X739840Y13462D01*
X738554Y15688D01*
X736839Y22088D01*
X736839Y28712D01*
X738554Y35112D01*
X741866Y40849D01*
X746551Y45534D01*
X752288Y48846D01*
X758688Y50561D01*
X765312Y50561D01*
X771712Y48846D01*
X773938Y47560D01*
X774008Y47530D01*
X774073Y47491D01*
X774167Y47461D01*
X774258Y47422D01*
X774333Y47408D01*
X774405Y47385D01*
X774504Y47377D01*
X774601Y47360D01*
X774677Y47363D01*
X774752Y47357D01*
X774850Y47372D01*
X774949Y47377D01*
X775022Y47398D01*
X775097Y47409D01*
X775189Y47446D01*
X775284Y47473D01*
X775350Y47510D01*
X775421Y47538D01*
X775502Y47594D01*
X775589Y47642D01*
X775645Y47693D01*
X775707Y47737D01*
X775773Y47810D01*
X775847Y47877D01*
X775890Y47939D01*
X775940Y47995D01*
X775988Y48082D01*
X776045Y48164D01*
X776072Y48234D01*
X776109Y48300D01*
X776136Y48396D01*
X776172Y48488D01*
X776183Y48563D01*
X776204Y48636D01*
X776216Y48787D01*
X776223Y48833D01*
X776221Y48851D01*
X776223Y48880D01*
X776223Y713120D01*
X776215Y713196D01*
X776216Y713271D01*
X776195Y713368D01*
X776183Y713467D01*
X776158Y713538D01*
X776142Y713612D01*
X776099Y713701D01*
X776066Y713795D01*
X776025Y713858D01*
X775992Y713927D01*
X775931Y714004D01*
X775877Y714088D01*
X775822Y714140D01*
X775775Y714199D01*
X775697Y714261D01*
X775626Y714330D01*
X775561Y714369D01*
X775502Y714416D01*
X775412Y714458D01*
X775327Y714509D01*
X775255Y714532D01*
X775186Y714564D01*
X775090Y714585D01*
X774995Y714615D01*
X774920Y714621D01*
X774846Y714637D01*
X774746Y714635D01*
X774648Y714643D01*
X774573Y714632D01*
X774497Y714630D01*
X774401Y714606D01*
X774303Y714591D01*
X774233Y714563D01*
X774159Y714544D01*
X774023Y714480D01*
X773979Y714462D01*
X773964Y714452D01*
X773938Y714440D01*
X771712Y713154D01*
X765312Y711439D01*
X758688Y711439D01*
X752288Y713154D01*
X746551Y716466D01*
X741866Y721151D01*
X738554Y726888D01*
X736839Y733288D01*
X736839Y739912D01*
X738562Y746343D01*
X738590Y746389D01*
X738620Y746483D01*
X738659Y746574D01*
X738673Y746649D01*
X738696Y746721D01*
X738704Y746819D01*
X738722Y746917D01*
X738718Y746993D01*
X738724Y747068D01*
X738709Y747166D01*
X738705Y747265D01*
X738684Y747338D01*
X738672Y747413D01*
X738636Y747505D01*
X738609Y747600D01*
X738572Y747666D01*
X738544Y747737D01*
X738487Y747818D01*
X738439Y747904D01*
X738388Y747961D01*
X738345Y748023D01*
X738271Y748089D01*
X738205Y748162D01*
X738142Y748205D01*
X738086Y748256D01*
X737999Y748304D01*
X737918Y748360D01*
X737847Y748388D01*
X737781Y748425D01*
X737686Y748452D01*
X737594Y748488D01*
X737519Y748499D01*
X737446Y748520D01*
X737295Y748532D01*
X737249Y748539D01*
X737230Y748537D01*
X737202Y748539D01*
X707250Y748539D01*
X707150Y748528D01*
X707050Y748526D01*
X706977Y748508D01*
X706904Y748499D01*
X706809Y748466D01*
X706712Y748441D01*
X706645Y748407D01*
X706575Y748382D01*
X706491Y748327D01*
X706402Y748281D01*
X706345Y748233D01*
X706283Y748193D01*
X706213Y748121D01*
X706136Y748056D01*
X706092Y747996D01*
X706040Y747942D01*
X705989Y747856D01*
X705929Y747775D01*
X705900Y747707D01*
X705862Y747643D01*
X705831Y747547D01*
X705791Y747455D01*
X705778Y747382D01*
X705755Y747311D01*
X705747Y747211D01*
X705730Y747112D01*
X705733Y747038D01*
X705727Y746964D01*
X705742Y746864D01*
X705747Y746764D01*
X705768Y746693D01*
X705779Y746619D01*
X705816Y746526D01*
X705844Y746429D01*
X705880Y746364D01*
X705908Y746295D01*
X705965Y746213D01*
X706014Y746125D01*
X706079Y746049D01*
X706107Y746009D01*
X706133Y745985D01*
X706173Y745939D01*
X724717Y727395D01*
X726949Y725163D01*
X726949Y646437D01*
X651195Y570683D01*
X651116Y570584D01*
X651032Y570490D01*
X651008Y570448D01*
X650978Y570410D01*
X650924Y570296D01*
X650863Y570185D01*
X650850Y570139D01*
X650829Y570095D01*
X650803Y569972D01*
X650768Y569850D01*
X650763Y569789D01*
X650756Y569754D01*
X650757Y569706D01*
X650749Y569606D01*
X650749Y551187D01*
X650763Y551061D01*
X650770Y550935D01*
X650783Y550889D01*
X650789Y550841D01*
X650831Y550722D01*
X650866Y550600D01*
X650890Y550558D01*
X650906Y550513D01*
X650975Y550407D01*
X651036Y550296D01*
X651076Y550250D01*
X651095Y550220D01*
X651130Y550186D01*
X651195Y550110D01*
X652199Y549106D01*
X653007Y547156D01*
X653007Y545044D01*
X652199Y543094D01*
X650706Y541601D01*
X648756Y540793D01*
X646644Y540793D01*
X644694Y541601D01*
X643201Y543094D01*
X642393Y545044D01*
X642393Y547156D01*
X643201Y549106D01*
X644205Y550110D01*
X644284Y550209D01*
X644368Y550303D01*
X644392Y550345D01*
X644422Y550383D01*
X644476Y550497D01*
X644537Y550608D01*
X644550Y550654D01*
X644571Y550698D01*
X644597Y550821D01*
X644632Y550943D01*
X644637Y551004D01*
X644644Y551039D01*
X644643Y551087D01*
X644651Y551187D01*
X644651Y572763D01*
X720405Y648517D01*
X720484Y648616D01*
X720568Y648710D01*
X720592Y648752D01*
X720622Y648790D01*
X720676Y648904D01*
X720737Y649015D01*
X720750Y649061D01*
X720771Y649105D01*
X720797Y649228D01*
X720832Y649350D01*
X720837Y649411D01*
X720844Y649446D01*
X720843Y649494D01*
X720851Y649594D01*
X720851Y722006D01*
X720837Y722132D01*
X720830Y722258D01*
X720817Y722304D01*
X720811Y722352D01*
X720769Y722471D01*
X720734Y722593D01*
X720710Y722635D01*
X720694Y722681D01*
X720625Y722787D01*
X720564Y722897D01*
X720524Y722943D01*
X720505Y722973D01*
X720470Y723007D01*
X720405Y723083D01*
X710245Y733243D01*
X710167Y733306D01*
X710094Y733376D01*
X710030Y733414D01*
X709972Y733460D01*
X709881Y733503D01*
X709795Y733554D01*
X709724Y733577D01*
X709657Y733609D01*
X709559Y733630D01*
X709463Y733661D01*
X709389Y733667D01*
X709316Y733682D01*
X709216Y733681D01*
X709116Y733689D01*
X709042Y733678D01*
X708968Y733676D01*
X708871Y733652D01*
X708771Y733637D01*
X708702Y733609D01*
X708630Y733591D01*
X708540Y733545D01*
X708447Y733508D01*
X708386Y733466D01*
X708320Y733432D01*
X708243Y733366D01*
X708161Y733309D01*
X708111Y733254D01*
X708055Y733206D01*
X707995Y733125D01*
X707928Y733050D01*
X707892Y732985D01*
X707847Y732926D01*
X707808Y732833D01*
X707759Y732745D01*
X707739Y732674D01*
X707709Y732606D01*
X707692Y732507D01*
X707664Y732410D01*
X707656Y732310D01*
X707648Y732263D01*
X707650Y732227D01*
X707645Y732166D01*
X707645Y714461D01*
X706252Y711100D01*
X703680Y708528D01*
X700319Y707135D01*
X696681Y707135D01*
X693320Y708527D01*
X691457Y710391D01*
X691436Y710407D01*
X691419Y710427D01*
X691300Y710515D01*
X691184Y710607D01*
X691160Y710619D01*
X691139Y710634D01*
X691003Y710693D01*
X690868Y710756D01*
X690843Y710762D01*
X690819Y710772D01*
X690673Y710799D01*
X690528Y710830D01*
X690502Y710829D01*
X690476Y710834D01*
X690327Y710826D01*
X690179Y710824D01*
X690154Y710817D01*
X690128Y710816D01*
X689985Y710775D01*
X689841Y710739D01*
X689818Y710727D01*
X689793Y710719D01*
X689663Y710647D01*
X689532Y710579D01*
X689512Y710562D01*
X689489Y710549D01*
X689302Y710391D01*
X536895Y557983D01*
X536816Y557884D01*
X536732Y557790D01*
X536708Y557748D01*
X536678Y557710D01*
X536624Y557596D01*
X536563Y557485D01*
X536550Y557439D01*
X536529Y557395D01*
X536503Y557272D01*
X536468Y557150D01*
X536463Y557089D01*
X536456Y557055D01*
X536457Y557007D01*
X536449Y556906D01*
X536449Y357494D01*
X536463Y357368D01*
X536470Y357242D01*
X536483Y357196D01*
X536489Y357148D01*
X536531Y357029D01*
X536566Y356907D01*
X536590Y356865D01*
X536606Y356819D01*
X536675Y356713D01*
X536736Y356603D01*
X536776Y356557D01*
X536795Y356527D01*
X536830Y356493D01*
X536895Y356417D01*
X544659Y348653D01*
X544758Y348574D01*
X544852Y348490D01*
X544894Y348466D01*
X544932Y348436D01*
X545046Y348382D01*
X545157Y348321D01*
X545203Y348308D01*
X545247Y348287D01*
X545370Y348261D01*
X545492Y348226D01*
X545553Y348221D01*
X545587Y348214D01*
X545635Y348215D01*
X545736Y348207D01*
X547156Y348207D01*
X549106Y347399D01*
X550599Y345906D01*
X551407Y343956D01*
X551407Y341844D01*
X550599Y339894D01*
X549106Y338401D01*
X547156Y337593D01*
X545044Y337593D01*
X543094Y338401D01*
X541601Y339894D01*
X540793Y341844D01*
X540793Y343264D01*
X540791Y343283D01*
X540792Y343297D01*
X540780Y343381D01*
X540779Y343390D01*
X540772Y343516D01*
X540759Y343562D01*
X540753Y343610D01*
X540711Y343729D01*
X540676Y343851D01*
X540652Y343893D01*
X540636Y343939D01*
X540567Y344045D01*
X540506Y344155D01*
X540466Y344201D01*
X540447Y344231D01*
X540412Y344265D01*
X540347Y344341D01*
X532583Y352105D01*
X530351Y354337D01*
X530351Y560063D01*
X532583Y562295D01*
X674823Y704535D01*
X674886Y704613D01*
X674956Y704686D01*
X674994Y704750D01*
X675040Y704808D01*
X675083Y704899D01*
X675134Y704985D01*
X675157Y705056D01*
X675189Y705123D01*
X675210Y705221D01*
X675241Y705317D01*
X675247Y705391D01*
X675262Y705464D01*
X675261Y705564D01*
X675269Y705664D01*
X675258Y705738D01*
X675256Y705812D01*
X675232Y705909D01*
X675217Y706009D01*
X675189Y706078D01*
X675171Y706150D01*
X675125Y706240D01*
X675088Y706333D01*
X675046Y706394D01*
X675012Y706460D01*
X674946Y706537D01*
X674889Y706619D01*
X674834Y706669D01*
X674786Y706725D01*
X674705Y706785D01*
X674630Y706852D01*
X674565Y706888D01*
X674506Y706933D01*
X674413Y706972D01*
X674325Y707021D01*
X674254Y707041D01*
X674186Y707071D01*
X674087Y707088D01*
X673990Y707116D01*
X673890Y707124D01*
X673843Y707132D01*
X673807Y707130D01*
X673746Y707135D01*
X671281Y707135D01*
X667920Y708527D01*
X666057Y710391D01*
X666036Y710407D01*
X666019Y710427D01*
X665900Y710515D01*
X665784Y710607D01*
X665760Y710619D01*
X665739Y710634D01*
X665603Y710693D01*
X665468Y710756D01*
X665443Y710762D01*
X665419Y710772D01*
X665273Y710799D01*
X665128Y710830D01*
X665102Y710829D01*
X665076Y710834D01*
X664927Y710826D01*
X664779Y710824D01*
X664754Y710817D01*
X664728Y710816D01*
X664585Y710775D01*
X664441Y710739D01*
X664418Y710727D01*
X664393Y710719D01*
X664263Y710647D01*
X664132Y710579D01*
X664112Y710562D01*
X664089Y710549D01*
X663902Y710391D01*
X524195Y570683D01*
X524116Y570584D01*
X524032Y570490D01*
X524008Y570448D01*
X523978Y570410D01*
X523924Y570296D01*
X523863Y570185D01*
X523850Y570139D01*
X523829Y570095D01*
X523803Y569972D01*
X523768Y569850D01*
X523763Y569789D01*
X523756Y569754D01*
X523757Y569706D01*
X523749Y569606D01*
X523749Y332094D01*
X523763Y331968D01*
X523770Y331842D01*
X523783Y331796D01*
X523789Y331748D01*
X523831Y331629D01*
X523866Y331507D01*
X523890Y331465D01*
X523906Y331419D01*
X523975Y331313D01*
X524036Y331203D01*
X524076Y331157D01*
X524095Y331127D01*
X524130Y331093D01*
X524195Y331017D01*
X544659Y310553D01*
X544758Y310474D01*
X544852Y310390D01*
X544894Y310366D01*
X544932Y310336D01*
X545046Y310282D01*
X545157Y310221D01*
X545203Y310208D01*
X545247Y310187D01*
X545370Y310161D01*
X545492Y310126D01*
X545553Y310121D01*
X545588Y310114D01*
X545636Y310115D01*
X545736Y310107D01*
X547156Y310107D01*
X549106Y309299D01*
X550599Y307806D01*
X551407Y305856D01*
X551407Y303744D01*
X550599Y301794D01*
X549106Y300301D01*
X547156Y299493D01*
X545044Y299493D01*
X543094Y300301D01*
X541601Y301794D01*
X540793Y303744D01*
X540793Y305164D01*
X540790Y305190D01*
X540792Y305216D01*
X540777Y305315D01*
X540772Y305416D01*
X540759Y305462D01*
X540753Y305510D01*
X540745Y305535D01*
X540741Y305561D01*
X540704Y305654D01*
X540676Y305751D01*
X540652Y305793D01*
X540636Y305839D01*
X540621Y305861D01*
X540612Y305885D01*
X540555Y305966D01*
X540506Y306055D01*
X540466Y306101D01*
X540447Y306131D01*
X540427Y306150D01*
X540413Y306171D01*
X540387Y306194D01*
X540347Y306241D01*
X517651Y328937D01*
X517651Y572763D01*
X519883Y574995D01*
X649423Y704535D01*
X649486Y704613D01*
X649556Y704686D01*
X649594Y704750D01*
X649640Y704808D01*
X649683Y704899D01*
X649734Y704985D01*
X649757Y705056D01*
X649789Y705123D01*
X649810Y705221D01*
X649841Y705317D01*
X649847Y705391D01*
X649862Y705464D01*
X649861Y705564D01*
X649869Y705664D01*
X649858Y705738D01*
X649856Y705812D01*
X649832Y705909D01*
X649817Y706009D01*
X649789Y706078D01*
X649771Y706150D01*
X649725Y706240D01*
X649688Y706333D01*
X649646Y706394D01*
X649612Y706460D01*
X649546Y706537D01*
X649489Y706619D01*
X649434Y706669D01*
X649386Y706725D01*
X649305Y706785D01*
X649230Y706852D01*
X649165Y706888D01*
X649106Y706933D01*
X649013Y706972D01*
X648925Y707021D01*
X648854Y707041D01*
X648786Y707071D01*
X648687Y707088D01*
X648590Y707116D01*
X648490Y707124D01*
X648443Y707132D01*
X648407Y707130D01*
X648346Y707135D01*
X645881Y707135D01*
X642520Y708527D01*
X640657Y710391D01*
X640636Y710407D01*
X640619Y710427D01*
X640500Y710515D01*
X640384Y710607D01*
X640360Y710619D01*
X640339Y710634D01*
X640203Y710693D01*
X640068Y710756D01*
X640043Y710762D01*
X640019Y710772D01*
X639873Y710799D01*
X639728Y710830D01*
X639702Y710829D01*
X639676Y710834D01*
X639527Y710826D01*
X639379Y710824D01*
X639354Y710817D01*
X639328Y710816D01*
X639185Y710775D01*
X639041Y710739D01*
X639018Y710727D01*
X638993Y710719D01*
X638863Y710647D01*
X638732Y710579D01*
X638712Y710562D01*
X638689Y710549D01*
X638502Y710391D01*
X511495Y583383D01*
X511416Y583284D01*
X511332Y583190D01*
X511308Y583148D01*
X511278Y583110D01*
X511224Y582996D01*
X511163Y582885D01*
X511150Y582839D01*
X511129Y582795D01*
X511103Y582672D01*
X511068Y582550D01*
X511063Y582489D01*
X511056Y582454D01*
X511057Y582406D01*
X511049Y582306D01*
X511049Y319394D01*
X511063Y319268D01*
X511070Y319142D01*
X511083Y319096D01*
X511089Y319048D01*
X511131Y318929D01*
X511166Y318807D01*
X511190Y318765D01*
X511206Y318719D01*
X511275Y318613D01*
X511336Y318503D01*
X511376Y318457D01*
X511395Y318427D01*
X511430Y318393D01*
X511495Y318317D01*
X544659Y285153D01*
X544758Y285074D01*
X544852Y284990D01*
X544894Y284966D01*
X544932Y284936D01*
X545046Y284882D01*
X545157Y284821D01*
X545203Y284808D01*
X545247Y284787D01*
X545370Y284761D01*
X545492Y284726D01*
X545553Y284721D01*
X545588Y284714D01*
X545636Y284715D01*
X545736Y284707D01*
X547156Y284707D01*
X549106Y283899D01*
X550599Y282406D01*
X551407Y280456D01*
X551407Y278344D01*
X550599Y276394D01*
X549106Y274901D01*
X547156Y274093D01*
X545044Y274093D01*
X543094Y274901D01*
X541601Y276394D01*
X540793Y278344D01*
X540793Y279764D01*
X540779Y279890D01*
X540772Y280016D01*
X540759Y280062D01*
X540753Y280110D01*
X540711Y280229D01*
X540676Y280351D01*
X540652Y280393D01*
X540636Y280439D01*
X540567Y280545D01*
X540506Y280655D01*
X540466Y280701D01*
X540447Y280731D01*
X540412Y280765D01*
X540347Y280841D01*
X504951Y316237D01*
X504951Y585463D01*
X507183Y587695D01*
X624023Y704535D01*
X624086Y704613D01*
X624156Y704686D01*
X624194Y704750D01*
X624240Y704808D01*
X624283Y704899D01*
X624334Y704985D01*
X624357Y705056D01*
X624389Y705123D01*
X624410Y705221D01*
X624441Y705317D01*
X624447Y705391D01*
X624462Y705464D01*
X624461Y705564D01*
X624469Y705664D01*
X624458Y705738D01*
X624456Y705812D01*
X624432Y705909D01*
X624417Y706009D01*
X624389Y706078D01*
X624371Y706150D01*
X624325Y706240D01*
X624288Y706333D01*
X624246Y706394D01*
X624212Y706460D01*
X624146Y706537D01*
X624089Y706619D01*
X624034Y706669D01*
X623986Y706725D01*
X623905Y706785D01*
X623830Y706852D01*
X623765Y706888D01*
X623706Y706933D01*
X623613Y706972D01*
X623525Y707021D01*
X623454Y707041D01*
X623386Y707071D01*
X623287Y707088D01*
X623190Y707116D01*
X623090Y707124D01*
X623043Y707132D01*
X623007Y707130D01*
X622946Y707135D01*
X620481Y707135D01*
X617120Y708527D01*
X615257Y710391D01*
X615236Y710407D01*
X615219Y710427D01*
X615100Y710515D01*
X614984Y710607D01*
X614960Y710619D01*
X614939Y710634D01*
X614803Y710693D01*
X614668Y710756D01*
X614643Y710762D01*
X614619Y710772D01*
X614473Y710799D01*
X614328Y710830D01*
X614302Y710829D01*
X614276Y710834D01*
X614127Y710826D01*
X613979Y710824D01*
X613954Y710817D01*
X613928Y710816D01*
X613785Y710775D01*
X613641Y710739D01*
X613618Y710727D01*
X613593Y710719D01*
X613463Y710647D01*
X613332Y710579D01*
X613312Y710562D01*
X613289Y710549D01*
X613102Y710391D01*
X513753Y611041D01*
X513674Y610942D01*
X513590Y610848D01*
X513566Y610806D01*
X513536Y610768D01*
X513482Y610654D01*
X513421Y610543D01*
X513408Y610497D01*
X513387Y610453D01*
X513361Y610330D01*
X513326Y610208D01*
X513321Y610147D01*
X513314Y610112D01*
X513315Y610064D01*
X513307Y609964D01*
X513307Y608544D01*
X512499Y606594D01*
X511006Y605101D01*
X509056Y604293D01*
X506944Y604293D01*
X504994Y605101D01*
X503501Y606594D01*
X503057Y607666D01*
X503009Y607753D01*
X502968Y607845D01*
X502924Y607905D01*
X502888Y607970D01*
X502821Y608045D01*
X502761Y608125D01*
X502704Y608173D01*
X502654Y608228D01*
X502571Y608285D01*
X502495Y608350D01*
X502428Y608384D01*
X502367Y608427D01*
X502274Y608463D01*
X502184Y608509D01*
X502112Y608527D01*
X502043Y608554D01*
X501944Y608569D01*
X501846Y608593D01*
X501772Y608594D01*
X501698Y608605D01*
X501598Y608597D01*
X501498Y608598D01*
X501425Y608582D01*
X501351Y608576D01*
X501255Y608545D01*
X501157Y608524D01*
X501090Y608492D01*
X501019Y608469D01*
X500933Y608417D01*
X500842Y608374D01*
X500784Y608328D01*
X500721Y608289D01*
X500649Y608220D01*
X500570Y608157D01*
X500524Y608098D01*
X500471Y608047D01*
X500416Y607962D01*
X500354Y607883D01*
X500308Y607794D01*
X500282Y607753D01*
X500270Y607720D01*
X500243Y607666D01*
X499799Y606594D01*
X498306Y605101D01*
X496356Y604293D01*
X494244Y604293D01*
X492294Y605101D01*
X490801Y606594D01*
X489993Y608544D01*
X489993Y610656D01*
X490801Y612606D01*
X491805Y613610D01*
X491884Y613709D01*
X491968Y613803D01*
X491992Y613845D01*
X492022Y613883D01*
X492076Y613997D01*
X492137Y614108D01*
X492150Y614154D01*
X492171Y614198D01*
X492197Y614321D01*
X492232Y614443D01*
X492237Y614504D01*
X492244Y614539D01*
X492243Y614587D01*
X492251Y614687D01*
X492251Y623563D01*
X494483Y625795D01*
X573223Y704535D01*
X573286Y704613D01*
X573356Y704686D01*
X573394Y704750D01*
X573440Y704808D01*
X573483Y704899D01*
X573534Y704985D01*
X573557Y705056D01*
X573589Y705123D01*
X573610Y705221D01*
X573641Y705317D01*
X573647Y705391D01*
X573662Y705464D01*
X573661Y705564D01*
X573669Y705664D01*
X573658Y705738D01*
X573656Y705812D01*
X573632Y705909D01*
X573617Y706009D01*
X573589Y706078D01*
X573571Y706150D01*
X573525Y706240D01*
X573488Y706333D01*
X573446Y706394D01*
X573412Y706460D01*
X573346Y706537D01*
X573289Y706619D01*
X573234Y706669D01*
X573186Y706725D01*
X573105Y706785D01*
X573030Y706852D01*
X572965Y706888D01*
X572906Y706933D01*
X572813Y706972D01*
X572725Y707021D01*
X572654Y707041D01*
X572586Y707071D01*
X572487Y707088D01*
X572390Y707116D01*
X572290Y707124D01*
X572243Y707132D01*
X572207Y707130D01*
X572146Y707135D01*
X569681Y707135D01*
X566320Y708527D01*
X564457Y710391D01*
X564436Y710407D01*
X564419Y710427D01*
X564300Y710515D01*
X564184Y710607D01*
X564160Y710619D01*
X564139Y710634D01*
X564003Y710693D01*
X563868Y710756D01*
X563843Y710762D01*
X563819Y710772D01*
X563673Y710799D01*
X563528Y710830D01*
X563502Y710829D01*
X563476Y710834D01*
X563327Y710826D01*
X563179Y710824D01*
X563154Y710817D01*
X563128Y710816D01*
X562985Y710775D01*
X562841Y710739D01*
X562818Y710727D01*
X562793Y710719D01*
X562663Y710647D01*
X562532Y710579D01*
X562512Y710562D01*
X562489Y710549D01*
X562302Y710391D01*
X549795Y697883D01*
X547563Y695651D01*
X468401Y695651D01*
X468375Y695648D01*
X468349Y695650D01*
X468203Y695628D01*
X468055Y695611D01*
X468031Y695603D01*
X468005Y695599D01*
X467867Y695544D01*
X467727Y695494D01*
X467705Y695480D01*
X467681Y695470D01*
X467559Y695385D01*
X467434Y695305D01*
X467416Y695286D01*
X467395Y695271D01*
X467296Y695161D01*
X467192Y695054D01*
X467179Y695032D01*
X467161Y695012D01*
X467089Y694882D01*
X467013Y694755D01*
X467005Y694730D01*
X466993Y694707D01*
X466952Y694564D01*
X466907Y694423D01*
X466905Y694397D01*
X466898Y694372D01*
X466878Y694128D01*
X466878Y687662D01*
X465283Y683811D01*
X462335Y680864D01*
X458484Y679268D01*
X454316Y679268D01*
X450465Y680864D01*
X447517Y683811D01*
X445922Y687662D01*
X445922Y709738D01*
X447517Y713589D01*
X450465Y716536D01*
X454316Y718132D01*
X458484Y718132D01*
X462335Y716536D01*
X465283Y713589D01*
X466878Y709738D01*
X466878Y703272D01*
X466881Y703246D01*
X466879Y703220D01*
X466901Y703073D01*
X466918Y702926D01*
X466927Y702901D01*
X466931Y702875D01*
X466986Y702737D01*
X467036Y702598D01*
X467050Y702576D01*
X467060Y702551D01*
X467144Y702430D01*
X467225Y702305D01*
X467244Y702287D01*
X467258Y702265D01*
X467368Y702166D01*
X467475Y702063D01*
X467498Y702049D01*
X467517Y702032D01*
X467647Y701960D01*
X467774Y701884D01*
X467799Y701876D01*
X467822Y701863D01*
X467965Y701823D01*
X468106Y701778D01*
X468132Y701776D01*
X468158Y701768D01*
X468401Y701749D01*
X544406Y701749D01*
X544532Y701763D01*
X544658Y701770D01*
X544704Y701783D01*
X544752Y701789D01*
X544871Y701831D01*
X544993Y701866D01*
X545035Y701890D01*
X545081Y701906D01*
X545187Y701975D01*
X545297Y702036D01*
X545343Y702076D01*
X545373Y702095D01*
X545407Y702130D01*
X545483Y702195D01*
X548193Y704905D01*
X548272Y705004D01*
X548356Y705098D01*
X548380Y705140D01*
X548410Y705178D01*
X548464Y705292D01*
X548525Y705403D01*
X548538Y705449D01*
X548559Y705493D01*
X548585Y705616D01*
X548620Y705738D01*
X548625Y705799D01*
X548632Y705834D01*
X548631Y705882D01*
X548639Y705982D01*
X548639Y721361D01*
X556261Y721361D01*
X556261Y716650D01*
X556272Y716550D01*
X556274Y716450D01*
X556292Y716377D01*
X556301Y716304D01*
X556334Y716209D01*
X556359Y716112D01*
X556393Y716045D01*
X556418Y715975D01*
X556473Y715891D01*
X556519Y715802D01*
X556567Y715745D01*
X556607Y715683D01*
X556679Y715613D01*
X556744Y715536D01*
X556804Y715492D01*
X556858Y715440D01*
X556944Y715389D01*
X557025Y715329D01*
X557093Y715300D01*
X557157Y715262D01*
X557252Y715231D01*
X557345Y715191D01*
X557418Y715178D01*
X557489Y715155D01*
X557589Y715147D01*
X557688Y715130D01*
X557762Y715133D01*
X557836Y715127D01*
X557935Y715142D01*
X558036Y715147D01*
X558107Y715168D01*
X558181Y715179D01*
X558274Y715216D01*
X558371Y715244D01*
X558436Y715280D01*
X558505Y715308D01*
X558587Y715365D01*
X558675Y715414D01*
X558751Y715479D01*
X558791Y715507D01*
X558815Y715533D01*
X558861Y715573D01*
X561909Y718621D01*
X561988Y718720D01*
X562072Y718814D01*
X562096Y718856D01*
X562126Y718894D01*
X562180Y719008D01*
X562241Y719119D01*
X562254Y719165D01*
X562275Y719209D01*
X562301Y719332D01*
X562336Y719454D01*
X562341Y719515D01*
X562348Y719550D01*
X562347Y719598D01*
X562355Y719698D01*
X562355Y733339D01*
X563748Y736700D01*
X566320Y739272D01*
X569681Y740665D01*
X573319Y740665D01*
X576680Y739273D01*
X578543Y737409D01*
X578564Y737393D01*
X578581Y737373D01*
X578700Y737285D01*
X578816Y737193D01*
X578840Y737181D01*
X578861Y737166D01*
X578997Y737107D01*
X579132Y737044D01*
X579157Y737038D01*
X579181Y737028D01*
X579327Y737001D01*
X579472Y736970D01*
X579498Y736971D01*
X579524Y736966D01*
X579673Y736974D01*
X579821Y736976D01*
X579846Y736983D01*
X579872Y736984D01*
X580015Y737025D01*
X580159Y737061D01*
X580182Y737073D01*
X580207Y737081D01*
X580337Y737153D01*
X580468Y737221D01*
X580488Y737238D01*
X580511Y737251D01*
X580698Y737409D01*
X589227Y745939D01*
X589290Y746017D01*
X589360Y746090D01*
X589398Y746154D01*
X589444Y746212D01*
X589487Y746303D01*
X589538Y746389D01*
X589561Y746460D01*
X589593Y746527D01*
X589614Y746625D01*
X589645Y746721D01*
X589651Y746795D01*
X589666Y746868D01*
X589665Y746968D01*
X589673Y747068D01*
X589662Y747142D01*
X589660Y747216D01*
X589636Y747313D01*
X589621Y747413D01*
X589593Y747482D01*
X589575Y747554D01*
X589529Y747644D01*
X589492Y747737D01*
X589450Y747798D01*
X589416Y747864D01*
X589350Y747941D01*
X589293Y748023D01*
X589238Y748073D01*
X589190Y748129D01*
X589109Y748189D01*
X589034Y748256D01*
X588969Y748292D01*
X588910Y748337D01*
X588817Y748376D01*
X588729Y748425D01*
X588658Y748445D01*
X588590Y748475D01*
X588491Y748492D01*
X588394Y748520D01*
X588294Y748528D01*
X588247Y748536D01*
X588211Y748534D01*
X588150Y748539D01*
X50198Y748539D01*
X50123Y748531D01*
X50047Y748532D01*
X49950Y748511D01*
X49852Y748499D01*
X49781Y748474D01*
X49706Y748458D01*
X49617Y748415D01*
X49524Y748382D01*
X49460Y748341D01*
X49392Y748308D01*
X49314Y748247D01*
X49231Y748193D01*
X49178Y748138D01*
X49119Y748091D01*
X49058Y748013D01*
X48989Y747942D01*
X48950Y747877D01*
X48903Y747818D01*
X48861Y747728D01*
X48810Y747643D01*
X48787Y747571D01*
X48755Y747502D01*
X48734Y747405D01*
X48704Y747311D01*
X48698Y747236D01*
X48682Y747161D01*
X48684Y747062D01*
X48676Y746964D01*
X48687Y746889D01*
X48689Y746813D01*
X48713Y746717D01*
X48728Y746619D01*
X48756Y746549D01*
X48774Y746475D01*
X48838Y746340D01*
X50561Y739912D01*
X50561Y733288D01*
X48846Y726888D01*
X45534Y721151D01*
X40849Y716466D01*
X35112Y713154D01*
X28712Y711439D01*
X22088Y711439D01*
X15688Y713154D01*
X13462Y714440D01*
X13392Y714470D01*
X13327Y714509D01*
X13233Y714539D01*
X13142Y714578D01*
X13067Y714592D01*
X12995Y714615D01*
X12896Y714623D01*
X12799Y714640D01*
X12723Y714637D01*
X12648Y714643D01*
X12550Y714628D01*
X12451Y714623D01*
X12378Y714602D01*
X12303Y714591D01*
X12211Y714554D01*
X12116Y714527D01*
X12050Y714490D01*
X11979Y714462D01*
X11898Y714406D01*
X11811Y714358D01*
X11755Y714307D01*
X11693Y714263D01*
X11627Y714190D01*
X11553Y714123D01*
X11510Y714061D01*
X11460Y714005D01*
X11412Y713918D01*
X11356Y713836D01*
X11328Y713766D01*
X11291Y713700D01*
X11264Y713604D01*
X11228Y713512D01*
X11217Y713437D01*
X11196Y713364D01*
X11184Y713213D01*
X11177Y713167D01*
X11179Y713149D01*
X11177Y713120D01*
X11177Y48880D01*
X11185Y48804D01*
X11184Y48729D01*
X11205Y48632D01*
X11217Y48533D01*
X11242Y48462D01*
X11258Y48388D01*
X11301Y48299D01*
X11334Y48205D01*
X11375Y48142D01*
X11408Y48073D01*
X11469Y47996D01*
X11523Y47912D01*
X11578Y47860D01*
X11625Y47801D01*
X11703Y47739D01*
X11774Y47670D01*
X11839Y47631D01*
X11898Y47584D01*
X11988Y47542D01*
X12073Y47491D01*
X12145Y47468D01*
X12214Y47436D01*
X12311Y47415D01*
X12405Y47385D01*
X12480Y47379D01*
X12554Y47363D01*
X12654Y47365D01*
X12752Y47357D01*
X12827Y47368D01*
X12903Y47370D01*
X12999Y47394D01*
X13097Y47409D01*
X13167Y47437D01*
X13241Y47456D01*
X13377Y47520D01*
X13421Y47538D01*
X13436Y47548D01*
X13462Y47560D01*
X15688Y48846D01*
X22088Y50561D01*
X28712Y50561D01*
X35112Y48846D01*
X40849Y45534D01*
X45534Y40849D01*
X48846Y35112D01*
X50561Y28712D01*
X50561Y22088D01*
X48846Y15688D01*
X47560Y13462D01*
X47530Y13392D01*
X47491Y13327D01*
X47461Y13233D01*
X47422Y13142D01*
X47408Y13067D01*
X47385Y12995D01*
X47377Y12896D01*
X47360Y12799D01*
X47363Y12723D01*
X47357Y12648D01*
X47372Y12550D01*
X47377Y12451D01*
X47398Y12378D01*
X47409Y12303D01*
X47446Y12211D01*
X47473Y12116D01*
X47510Y12050D01*
X47538Y11979D01*
X47594Y11898D01*
X47642Y11811D01*
X47693Y11755D01*
X47737Y11693D01*
X47810Y11627D01*
X47877Y11553D01*
X47939Y11510D01*
X47995Y11460D01*
X48082Y11412D01*
X48164Y11356D01*
X48234Y11328D01*
X48300Y11291D01*
X48396Y11264D01*
X48488Y11228D01*
X48563Y11217D01*
X48636Y11196D01*
X48787Y11184D01*
X48833Y11177D01*
X48851Y11179D01*
X48880Y11177D01*
X443233Y11177D01*
X443382Y11194D01*
G37*
%LPC*%
G36*
X687462Y40722D02*
X687462Y40722D01*
X683611Y42317D01*
X680664Y45265D01*
X679068Y49116D01*
X679068Y53284D01*
X680664Y57135D01*
X683181Y59653D01*
X683197Y59674D01*
X683217Y59691D01*
X683306Y59810D01*
X683398Y59926D01*
X683409Y59950D01*
X683425Y59971D01*
X683483Y60107D01*
X683547Y60241D01*
X683552Y60267D01*
X683563Y60291D01*
X683589Y60437D01*
X683620Y60582D01*
X683620Y60608D01*
X683624Y60634D01*
X683617Y60782D01*
X683614Y60930D01*
X683608Y60956D01*
X683606Y60982D01*
X683565Y61124D01*
X683529Y61268D01*
X683517Y61292D01*
X683510Y61317D01*
X683437Y61446D01*
X683369Y61578D01*
X683352Y61598D01*
X683340Y61621D01*
X683181Y61807D01*
X670051Y74937D01*
X670051Y141363D01*
X683381Y154693D01*
X683397Y154713D01*
X683417Y154730D01*
X683506Y154850D01*
X683598Y154966D01*
X683609Y154989D01*
X683625Y155011D01*
X683683Y155147D01*
X683747Y155281D01*
X683752Y155307D01*
X683763Y155331D01*
X683789Y155477D01*
X683820Y155622D01*
X683820Y155648D01*
X683824Y155674D01*
X683817Y155822D01*
X683814Y155970D01*
X683808Y155995D01*
X683806Y156022D01*
X683765Y156164D01*
X683729Y156308D01*
X683717Y156331D01*
X683710Y156357D01*
X683637Y156486D01*
X683569Y156618D01*
X683552Y156638D01*
X683540Y156661D01*
X683381Y156847D01*
X680664Y159565D01*
X680023Y161111D01*
X679990Y161170D01*
X679988Y161176D01*
X679985Y161180D01*
X679958Y161249D01*
X679901Y161330D01*
X679854Y161416D01*
X679802Y161472D01*
X679759Y161535D01*
X679686Y161601D01*
X679620Y161674D01*
X679557Y161717D01*
X679500Y161768D01*
X679414Y161816D01*
X679333Y161872D01*
X679262Y161900D01*
X679195Y161937D01*
X679100Y161964D01*
X679009Y162000D01*
X678933Y162011D01*
X678859Y162032D01*
X678711Y162044D01*
X678664Y162051D01*
X678645Y162049D01*
X678616Y162051D01*
X671837Y162051D01*
X657351Y176537D01*
X657351Y341006D01*
X657337Y341132D01*
X657330Y341258D01*
X657317Y341304D01*
X657311Y341352D01*
X657269Y341471D01*
X657234Y341593D01*
X657210Y341635D01*
X657194Y341681D01*
X657125Y341787D01*
X657064Y341897D01*
X657024Y341943D01*
X657005Y341973D01*
X656970Y342007D01*
X656905Y342083D01*
X611041Y387947D01*
X610942Y388026D01*
X610848Y388110D01*
X610806Y388134D01*
X610768Y388164D01*
X610654Y388218D01*
X610543Y388279D01*
X610497Y388292D01*
X610453Y388313D01*
X610330Y388339D01*
X610208Y388374D01*
X610147Y388379D01*
X610112Y388386D01*
X610064Y388385D01*
X609964Y388393D01*
X608544Y388393D01*
X606594Y389201D01*
X605101Y390694D01*
X604293Y392644D01*
X604293Y394756D01*
X605101Y396706D01*
X606594Y398199D01*
X608544Y399007D01*
X610656Y399007D01*
X612606Y398199D01*
X614099Y396706D01*
X614907Y394756D01*
X614907Y393336D01*
X614921Y393210D01*
X614928Y393084D01*
X614941Y393038D01*
X614947Y392990D01*
X614989Y392871D01*
X615024Y392749D01*
X615048Y392707D01*
X615064Y392661D01*
X615133Y392555D01*
X615194Y392445D01*
X615234Y392399D01*
X615253Y392369D01*
X615288Y392335D01*
X615353Y392259D01*
X629351Y378261D01*
X629429Y378198D01*
X629502Y378128D01*
X629566Y378090D01*
X629624Y378044D01*
X629715Y378001D01*
X629801Y377950D01*
X629872Y377927D01*
X629939Y377895D01*
X630037Y377874D01*
X630133Y377843D01*
X630207Y377837D01*
X630280Y377822D01*
X630380Y377823D01*
X630480Y377815D01*
X630554Y377826D01*
X630628Y377828D01*
X630725Y377852D01*
X630825Y377867D01*
X630894Y377895D01*
X630966Y377913D01*
X631056Y377959D01*
X631149Y377996D01*
X631210Y378038D01*
X631276Y378072D01*
X631353Y378138D01*
X631435Y378195D01*
X631485Y378250D01*
X631541Y378298D01*
X631601Y378379D01*
X631668Y378454D01*
X631704Y378519D01*
X631749Y378578D01*
X631788Y378671D01*
X631837Y378759D01*
X631857Y378830D01*
X631887Y378898D01*
X631904Y378997D01*
X631932Y379094D01*
X631940Y379194D01*
X631948Y379241D01*
X631946Y379277D01*
X631951Y379338D01*
X631951Y414013D01*
X631937Y414139D01*
X631930Y414265D01*
X631917Y414311D01*
X631911Y414359D01*
X631869Y414478D01*
X631834Y414600D01*
X631810Y414642D01*
X631794Y414687D01*
X631725Y414794D01*
X631664Y414904D01*
X631624Y414950D01*
X631605Y414980D01*
X631570Y415014D01*
X631505Y415090D01*
X630501Y416094D01*
X629693Y418044D01*
X629693Y420156D01*
X630501Y422106D01*
X631994Y423599D01*
X633944Y424407D01*
X636056Y424407D01*
X638006Y423599D01*
X639499Y422106D01*
X640307Y420156D01*
X640307Y418044D01*
X639499Y416094D01*
X638495Y415090D01*
X638416Y414991D01*
X638332Y414897D01*
X638308Y414855D01*
X638278Y414817D01*
X638224Y414703D01*
X638163Y414592D01*
X638150Y414546D01*
X638129Y414502D01*
X638103Y414379D01*
X638068Y414257D01*
X638063Y414196D01*
X638056Y414161D01*
X638057Y414113D01*
X638049Y414013D01*
X638049Y376660D01*
X638063Y376534D01*
X638070Y376408D01*
X638083Y376361D01*
X638089Y376313D01*
X638131Y376194D01*
X638166Y376073D01*
X638190Y376031D01*
X638206Y375985D01*
X638275Y375879D01*
X638336Y375769D01*
X638376Y375723D01*
X638395Y375692D01*
X638430Y375659D01*
X638495Y375583D01*
X667451Y346626D01*
X667529Y346564D01*
X667602Y346494D01*
X667666Y346456D01*
X667724Y346410D01*
X667815Y346367D01*
X667901Y346315D01*
X667972Y346293D01*
X668039Y346261D01*
X668137Y346240D01*
X668233Y346209D01*
X668307Y346203D01*
X668380Y346188D01*
X668480Y346189D01*
X668580Y346181D01*
X668654Y346192D01*
X668728Y346194D01*
X668825Y346218D01*
X668925Y346233D01*
X668994Y346260D01*
X669066Y346279D01*
X669156Y346325D01*
X669249Y346362D01*
X669310Y346404D01*
X669376Y346438D01*
X669453Y346503D01*
X669535Y346561D01*
X669585Y346616D01*
X669641Y346664D01*
X669701Y346745D01*
X669768Y346819D01*
X669804Y346884D01*
X669849Y346944D01*
X669888Y347036D01*
X669937Y347124D01*
X669957Y347196D01*
X669987Y347264D01*
X670004Y347363D01*
X670032Y347460D01*
X670040Y347560D01*
X670048Y347607D01*
X670046Y347643D01*
X670051Y347704D01*
X670051Y394963D01*
X678622Y403534D01*
X678701Y403633D01*
X678785Y403727D01*
X678809Y403769D01*
X678839Y403807D01*
X678893Y403921D01*
X678954Y404032D01*
X678967Y404078D01*
X678988Y404122D01*
X679014Y404245D01*
X679049Y404367D01*
X679054Y404428D01*
X679061Y404463D01*
X679060Y404511D01*
X679068Y404611D01*
X679068Y408189D01*
X679054Y408315D01*
X679047Y408441D01*
X679034Y408487D01*
X679028Y408535D01*
X678986Y408654D01*
X678951Y408776D01*
X678927Y408818D01*
X678911Y408864D01*
X678842Y408970D01*
X678781Y409080D01*
X678741Y409126D01*
X678722Y409156D01*
X678687Y409190D01*
X678622Y409266D01*
X672283Y415605D01*
X670051Y417837D01*
X670051Y496963D01*
X672283Y499195D01*
X683381Y510293D01*
X683397Y510313D01*
X683417Y510330D01*
X683506Y510450D01*
X683598Y510566D01*
X683609Y510589D01*
X683625Y510611D01*
X683683Y510747D01*
X683747Y510881D01*
X683752Y510906D01*
X683763Y510931D01*
X683789Y511077D01*
X683820Y511221D01*
X683820Y511248D01*
X683824Y511274D01*
X683817Y511422D01*
X683814Y511570D01*
X683808Y511595D01*
X683806Y511622D01*
X683765Y511764D01*
X683729Y511908D01*
X683717Y511931D01*
X683710Y511956D01*
X683637Y512086D01*
X683569Y512218D01*
X683552Y512238D01*
X683540Y512261D01*
X683381Y512447D01*
X680664Y515165D01*
X679068Y519016D01*
X679068Y523184D01*
X680664Y527035D01*
X683611Y529983D01*
X687462Y531578D01*
X709538Y531578D01*
X713389Y529983D01*
X716336Y527035D01*
X717921Y523211D01*
X717945Y523167D01*
X717962Y523119D01*
X718030Y523015D01*
X718090Y522906D01*
X718124Y522869D01*
X718151Y522827D01*
X718241Y522740D01*
X718324Y522648D01*
X718366Y522619D01*
X718402Y522584D01*
X718509Y522521D01*
X718611Y522450D01*
X718658Y522431D01*
X718701Y522406D01*
X718819Y522368D01*
X718935Y522322D01*
X718985Y522315D01*
X719033Y522299D01*
X719157Y522289D01*
X719280Y522271D01*
X719330Y522275D01*
X719380Y522271D01*
X719503Y522290D01*
X719627Y522300D01*
X719675Y522316D01*
X719725Y522323D01*
X719840Y522369D01*
X719959Y522407D01*
X720002Y522433D01*
X720049Y522452D01*
X720151Y522523D01*
X720257Y522587D01*
X720294Y522622D01*
X720335Y522651D01*
X720418Y522743D01*
X720507Y522830D01*
X720535Y522872D01*
X720568Y522910D01*
X720628Y523018D01*
X720696Y523123D01*
X720713Y523171D01*
X720737Y523215D01*
X720771Y523334D01*
X720812Y523451D01*
X720818Y523502D01*
X720832Y523550D01*
X720851Y523794D01*
X720851Y556906D01*
X720837Y557032D01*
X720830Y557158D01*
X720817Y557204D01*
X720811Y557252D01*
X720769Y557371D01*
X720734Y557493D01*
X720710Y557535D01*
X720694Y557581D01*
X720625Y557687D01*
X720564Y557797D01*
X720524Y557843D01*
X720505Y557873D01*
X720470Y557907D01*
X720405Y557983D01*
X715857Y562531D01*
X715837Y562547D01*
X715820Y562567D01*
X715700Y562656D01*
X715584Y562748D01*
X715561Y562759D01*
X715539Y562775D01*
X715403Y562833D01*
X715269Y562897D01*
X715244Y562902D01*
X715219Y562913D01*
X715073Y562939D01*
X714929Y562970D01*
X714902Y562970D01*
X714876Y562974D01*
X714728Y562967D01*
X714580Y562964D01*
X714555Y562958D01*
X714528Y562956D01*
X714386Y562915D01*
X714242Y562879D01*
X714219Y562867D01*
X714194Y562860D01*
X714064Y562787D01*
X713932Y562719D01*
X713912Y562702D01*
X713889Y562690D01*
X713703Y562531D01*
X713389Y562217D01*
X709538Y560622D01*
X687462Y560622D01*
X683611Y562217D01*
X680664Y565165D01*
X679068Y569016D01*
X679068Y573184D01*
X680664Y577035D01*
X683611Y579983D01*
X687462Y581578D01*
X709538Y581578D01*
X713389Y579983D01*
X716336Y577035D01*
X717932Y573184D01*
X717932Y569711D01*
X717946Y569585D01*
X717953Y569459D01*
X717966Y569413D01*
X717972Y569365D01*
X718014Y569246D01*
X718049Y569124D01*
X718073Y569082D01*
X718089Y569036D01*
X718158Y568930D01*
X718219Y568820D01*
X718259Y568774D01*
X718278Y568744D01*
X718313Y568710D01*
X718378Y568634D01*
X726949Y560063D01*
X726949Y354337D01*
X718378Y345766D01*
X718299Y345667D01*
X718215Y345573D01*
X718191Y345531D01*
X718161Y345493D01*
X718107Y345379D01*
X718046Y345268D01*
X718033Y345222D01*
X718012Y345178D01*
X717986Y345055D01*
X717951Y344933D01*
X717946Y344872D01*
X717939Y344837D01*
X717940Y344789D01*
X717932Y344689D01*
X717932Y340416D01*
X716336Y336565D01*
X713389Y333617D01*
X709538Y332022D01*
X687462Y332022D01*
X683611Y333617D01*
X680664Y336565D01*
X679079Y340389D01*
X679055Y340433D01*
X679038Y340481D01*
X678970Y340585D01*
X678910Y340694D01*
X678876Y340731D01*
X678849Y340773D01*
X678759Y340860D01*
X678676Y340952D01*
X678634Y340981D01*
X678598Y341016D01*
X678491Y341079D01*
X678389Y341150D01*
X678342Y341169D01*
X678299Y341194D01*
X678181Y341232D01*
X678065Y341278D01*
X678015Y341285D01*
X677967Y341301D01*
X677843Y341311D01*
X677720Y341329D01*
X677670Y341325D01*
X677620Y341329D01*
X677497Y341310D01*
X677373Y341300D01*
X677325Y341284D01*
X677275Y341277D01*
X677160Y341231D01*
X677041Y341193D01*
X676998Y341167D01*
X676951Y341148D01*
X676849Y341077D01*
X676743Y341013D01*
X676706Y340978D01*
X676665Y340949D01*
X676582Y340857D01*
X676493Y340770D01*
X676465Y340728D01*
X676432Y340690D01*
X676372Y340582D01*
X676304Y340477D01*
X676287Y340429D01*
X676263Y340385D01*
X676229Y340266D01*
X676188Y340149D01*
X676182Y340098D01*
X676168Y340050D01*
X676149Y339806D01*
X676149Y306694D01*
X676163Y306568D01*
X676170Y306442D01*
X676183Y306396D01*
X676189Y306348D01*
X676207Y306296D01*
X676208Y306290D01*
X676220Y306260D01*
X676231Y306229D01*
X676266Y306107D01*
X676290Y306065D01*
X676306Y306019D01*
X676331Y305981D01*
X676337Y305966D01*
X676379Y305905D01*
X676436Y305803D01*
X676476Y305757D01*
X676495Y305727D01*
X676520Y305703D01*
X676536Y305680D01*
X676558Y305660D01*
X676595Y305617D01*
X681143Y301069D01*
X681163Y301053D01*
X681180Y301033D01*
X681300Y300944D01*
X681416Y300852D01*
X681439Y300841D01*
X681461Y300825D01*
X681597Y300767D01*
X681731Y300703D01*
X681756Y300698D01*
X681781Y300687D01*
X681927Y300661D01*
X682071Y300630D01*
X682098Y300630D01*
X682124Y300626D01*
X682272Y300633D01*
X682420Y300636D01*
X682445Y300642D01*
X682472Y300644D01*
X682614Y300685D01*
X682758Y300721D01*
X682781Y300733D01*
X682806Y300740D01*
X682936Y300813D01*
X683068Y300881D01*
X683088Y300898D01*
X683111Y300910D01*
X683297Y301069D01*
X683611Y301383D01*
X687462Y302978D01*
X709538Y302978D01*
X713389Y301383D01*
X716336Y298435D01*
X717932Y294584D01*
X717932Y290416D01*
X716336Y286565D01*
X713389Y283617D01*
X709538Y282022D01*
X687462Y282022D01*
X683611Y283617D01*
X680664Y286565D01*
X679068Y290416D01*
X679068Y293889D01*
X679054Y294015D01*
X679047Y294141D01*
X679034Y294187D01*
X679028Y294235D01*
X678986Y294354D01*
X678951Y294476D01*
X678927Y294518D01*
X678911Y294564D01*
X678842Y294670D01*
X678781Y294780D01*
X678741Y294826D01*
X678722Y294856D01*
X678687Y294890D01*
X678622Y294966D01*
X672284Y301305D01*
X672283Y301305D01*
X670621Y302967D01*
X670542Y303030D01*
X670470Y303100D01*
X670406Y303138D01*
X670348Y303184D01*
X670257Y303227D01*
X670171Y303278D01*
X670100Y303301D01*
X670033Y303333D01*
X669935Y303354D01*
X669839Y303385D01*
X669765Y303391D01*
X669692Y303406D01*
X669592Y303405D01*
X669492Y303413D01*
X669418Y303402D01*
X669344Y303400D01*
X669247Y303376D01*
X669147Y303361D01*
X669078Y303333D01*
X669006Y303315D01*
X668917Y303269D01*
X668823Y303232D01*
X668762Y303190D01*
X668696Y303156D01*
X668620Y303091D01*
X668537Y303033D01*
X668487Y302978D01*
X668431Y302930D01*
X668371Y302849D01*
X668304Y302774D01*
X668268Y302709D01*
X668223Y302650D01*
X668184Y302557D01*
X668135Y302469D01*
X668115Y302398D01*
X668085Y302330D01*
X668068Y302231D01*
X668040Y302134D01*
X668032Y302034D01*
X668024Y301987D01*
X668026Y301951D01*
X668021Y301890D01*
X668021Y250922D01*
X668035Y250796D01*
X668042Y250670D01*
X668055Y250624D01*
X668061Y250576D01*
X668103Y250457D01*
X668138Y250335D01*
X668162Y250293D01*
X668178Y250247D01*
X668247Y250141D01*
X668308Y250031D01*
X668348Y249985D01*
X668367Y249955D01*
X668402Y249921D01*
X668467Y249845D01*
X691887Y226424D01*
X691986Y226346D01*
X692080Y226261D01*
X692122Y226238D01*
X692160Y226208D01*
X692274Y226154D01*
X692385Y226093D01*
X692432Y226079D01*
X692475Y226059D01*
X692599Y226032D01*
X692720Y225998D01*
X692781Y225993D01*
X692816Y225985D01*
X692864Y225986D01*
X692964Y225978D01*
X709538Y225978D01*
X713389Y224383D01*
X716336Y221435D01*
X717932Y217584D01*
X717932Y213416D01*
X716336Y209565D01*
X713619Y206847D01*
X713603Y206826D01*
X713583Y206809D01*
X713494Y206690D01*
X713402Y206574D01*
X713391Y206550D01*
X713375Y206529D01*
X713317Y206393D01*
X713253Y206259D01*
X713248Y206233D01*
X713237Y206209D01*
X713211Y206063D01*
X713180Y205918D01*
X713180Y205892D01*
X713176Y205866D01*
X713183Y205718D01*
X713186Y205570D01*
X713192Y205544D01*
X713194Y205518D01*
X713235Y205376D01*
X713271Y205232D01*
X713283Y205208D01*
X713290Y205183D01*
X713363Y205054D01*
X713431Y204922D01*
X713448Y204902D01*
X713460Y204879D01*
X713619Y204693D01*
X737417Y180895D01*
X739649Y178663D01*
X739649Y138037D01*
X737417Y135805D01*
X713619Y112007D01*
X713603Y111987D01*
X713583Y111970D01*
X713494Y111850D01*
X713402Y111734D01*
X713391Y111711D01*
X713375Y111689D01*
X713317Y111553D01*
X713253Y111419D01*
X713248Y111394D01*
X713237Y111369D01*
X713211Y111223D01*
X713180Y111078D01*
X713180Y111052D01*
X713176Y111026D01*
X713183Y110878D01*
X713186Y110730D01*
X713192Y110705D01*
X713194Y110678D01*
X713235Y110536D01*
X713271Y110392D01*
X713283Y110369D01*
X713290Y110344D01*
X713363Y110214D01*
X713431Y110082D01*
X713448Y110062D01*
X713460Y110039D01*
X713619Y109853D01*
X716336Y107135D01*
X717932Y103284D01*
X717932Y99116D01*
X716336Y95265D01*
X713389Y92317D01*
X709538Y90722D01*
X687462Y90722D01*
X683611Y92317D01*
X680664Y95264D01*
X679079Y99089D01*
X679055Y99133D01*
X679038Y99181D01*
X678970Y99285D01*
X678910Y99394D01*
X678876Y99431D01*
X678849Y99473D01*
X678759Y99560D01*
X678676Y99652D01*
X678634Y99681D01*
X678598Y99716D01*
X678491Y99779D01*
X678389Y99850D01*
X678342Y99869D01*
X678299Y99894D01*
X678181Y99932D01*
X678065Y99978D01*
X678015Y99985D01*
X677967Y100001D01*
X677843Y100011D01*
X677720Y100029D01*
X677670Y100025D01*
X677620Y100029D01*
X677497Y100010D01*
X677373Y100000D01*
X677325Y99984D01*
X677275Y99977D01*
X677160Y99931D01*
X677041Y99893D01*
X676998Y99867D01*
X676951Y99848D01*
X676849Y99777D01*
X676743Y99713D01*
X676706Y99678D01*
X676665Y99649D01*
X676582Y99557D01*
X676493Y99470D01*
X676465Y99428D01*
X676432Y99390D01*
X676372Y99282D01*
X676304Y99177D01*
X676287Y99129D01*
X676263Y99085D01*
X676229Y98966D01*
X676188Y98849D01*
X676182Y98798D01*
X676168Y98750D01*
X676149Y98506D01*
X676149Y78094D01*
X676163Y77968D01*
X676170Y77842D01*
X676183Y77796D01*
X676189Y77748D01*
X676231Y77629D01*
X676266Y77507D01*
X676290Y77465D01*
X676306Y77419D01*
X676375Y77313D01*
X676436Y77203D01*
X676476Y77157D01*
X676495Y77127D01*
X676530Y77093D01*
X676595Y77017D01*
X691487Y62124D01*
X691586Y62046D01*
X691680Y61961D01*
X691722Y61938D01*
X691760Y61908D01*
X691874Y61854D01*
X691985Y61793D01*
X692032Y61779D01*
X692075Y61759D01*
X692199Y61732D01*
X692321Y61698D01*
X692381Y61693D01*
X692416Y61685D01*
X692464Y61686D01*
X692564Y61678D01*
X709538Y61678D01*
X713389Y60083D01*
X716336Y57135D01*
X717932Y53284D01*
X717932Y49116D01*
X716336Y45265D01*
X713389Y42317D01*
X709538Y40722D01*
X687462Y40722D01*
G37*
%LPD*%
%LPC*%
G36*
X202144Y172493D02*
X202144Y172493D01*
X200194Y173301D01*
X198701Y174794D01*
X197893Y176744D01*
X197893Y178856D01*
X198701Y180806D01*
X200194Y182299D01*
X201266Y182743D01*
X201353Y182791D01*
X201445Y182832D01*
X201505Y182876D01*
X201570Y182912D01*
X201645Y182979D01*
X201725Y183039D01*
X201773Y183096D01*
X201828Y183146D01*
X201885Y183229D01*
X201950Y183305D01*
X201984Y183372D01*
X202027Y183433D01*
X202063Y183526D01*
X202109Y183616D01*
X202127Y183688D01*
X202154Y183757D01*
X202169Y183856D01*
X202193Y183954D01*
X202194Y184028D01*
X202205Y184102D01*
X202197Y184202D01*
X202198Y184302D01*
X202182Y184375D01*
X202176Y184449D01*
X202145Y184545D01*
X202124Y184643D01*
X202092Y184710D01*
X202069Y184781D01*
X202017Y184867D01*
X201974Y184958D01*
X201928Y185016D01*
X201889Y185079D01*
X201820Y185151D01*
X201757Y185230D01*
X201698Y185276D01*
X201647Y185329D01*
X201562Y185384D01*
X201483Y185446D01*
X201394Y185492D01*
X201353Y185518D01*
X201320Y185530D01*
X201266Y185557D01*
X200194Y186001D01*
X198701Y187494D01*
X197893Y189444D01*
X197893Y191556D01*
X198701Y193506D01*
X200194Y194999D01*
X201266Y195443D01*
X201353Y195492D01*
X201445Y195531D01*
X201505Y195576D01*
X201570Y195612D01*
X201645Y195680D01*
X201725Y195739D01*
X201773Y195796D01*
X201828Y195846D01*
X201885Y195929D01*
X201950Y196005D01*
X201984Y196072D01*
X202027Y196133D01*
X202063Y196226D01*
X202109Y196316D01*
X202127Y196388D01*
X202154Y196457D01*
X202169Y196556D01*
X202193Y196654D01*
X202194Y196728D01*
X202205Y196802D01*
X202197Y196902D01*
X202198Y197002D01*
X202182Y197075D01*
X202176Y197149D01*
X202145Y197245D01*
X202124Y197343D01*
X202092Y197410D01*
X202069Y197481D01*
X202017Y197567D01*
X201974Y197658D01*
X201928Y197716D01*
X201890Y197779D01*
X201819Y197852D01*
X201757Y197930D01*
X201699Y197976D01*
X201647Y198029D01*
X201562Y198084D01*
X201483Y198146D01*
X201394Y198192D01*
X201353Y198218D01*
X201320Y198230D01*
X201266Y198257D01*
X200194Y198701D01*
X198701Y200194D01*
X197893Y202144D01*
X197893Y204256D01*
X198701Y206206D01*
X200194Y207699D01*
X201266Y208143D01*
X201353Y208192D01*
X201445Y208231D01*
X201505Y208276D01*
X201570Y208312D01*
X201645Y208380D01*
X201725Y208439D01*
X201773Y208496D01*
X201828Y208546D01*
X201885Y208629D01*
X201950Y208705D01*
X201984Y208772D01*
X202027Y208833D01*
X202063Y208926D01*
X202109Y209016D01*
X202127Y209088D01*
X202154Y209157D01*
X202169Y209256D01*
X202193Y209354D01*
X202194Y209428D01*
X202205Y209502D01*
X202197Y209602D01*
X202198Y209702D01*
X202182Y209775D01*
X202176Y209849D01*
X202145Y209945D01*
X202124Y210043D01*
X202092Y210110D01*
X202069Y210181D01*
X202017Y210267D01*
X201974Y210358D01*
X201928Y210416D01*
X201890Y210479D01*
X201819Y210552D01*
X201757Y210630D01*
X201699Y210676D01*
X201647Y210729D01*
X201562Y210784D01*
X201483Y210846D01*
X201394Y210892D01*
X201353Y210918D01*
X201320Y210930D01*
X201266Y210957D01*
X200194Y211401D01*
X198701Y212894D01*
X197893Y214844D01*
X197893Y216956D01*
X198701Y218906D01*
X200194Y220399D01*
X201266Y220843D01*
X201353Y220891D01*
X201445Y220932D01*
X201505Y220976D01*
X201570Y221012D01*
X201645Y221079D01*
X201725Y221139D01*
X201773Y221196D01*
X201828Y221246D01*
X201885Y221329D01*
X201950Y221405D01*
X201984Y221472D01*
X202027Y221533D01*
X202063Y221626D01*
X202109Y221716D01*
X202127Y221788D01*
X202154Y221857D01*
X202169Y221956D01*
X202193Y222054D01*
X202194Y222128D01*
X202205Y222202D01*
X202197Y222302D01*
X202198Y222402D01*
X202182Y222475D01*
X202176Y222549D01*
X202145Y222645D01*
X202124Y222743D01*
X202092Y222810D01*
X202069Y222881D01*
X202017Y222967D01*
X201974Y223058D01*
X201928Y223116D01*
X201889Y223179D01*
X201820Y223251D01*
X201757Y223330D01*
X201698Y223376D01*
X201647Y223429D01*
X201562Y223484D01*
X201483Y223546D01*
X201394Y223592D01*
X201353Y223618D01*
X201320Y223630D01*
X201266Y223657D01*
X200194Y224101D01*
X198701Y225594D01*
X197893Y227544D01*
X197893Y229656D01*
X198701Y231606D01*
X200194Y233099D01*
X202144Y233907D01*
X204256Y233907D01*
X206206Y233099D01*
X207210Y232095D01*
X207309Y232016D01*
X207403Y231932D01*
X207445Y231908D01*
X207483Y231878D01*
X207597Y231824D01*
X207708Y231763D01*
X207754Y231750D01*
X207798Y231729D01*
X207921Y231703D01*
X208043Y231668D01*
X208104Y231663D01*
X208139Y231656D01*
X208187Y231657D01*
X208287Y231649D01*
X302906Y231649D01*
X303032Y231663D01*
X303158Y231670D01*
X303204Y231683D01*
X303252Y231689D01*
X303371Y231731D01*
X303493Y231766D01*
X303535Y231790D01*
X303581Y231806D01*
X303687Y231875D01*
X303797Y231936D01*
X303843Y231976D01*
X303873Y231995D01*
X303907Y232030D01*
X303983Y232095D01*
X314005Y242117D01*
X314084Y242216D01*
X314168Y242310D01*
X314192Y242352D01*
X314222Y242390D01*
X314276Y242504D01*
X314337Y242615D01*
X314350Y242661D01*
X314371Y242705D01*
X314397Y242828D01*
X314432Y242950D01*
X314437Y243011D01*
X314444Y243046D01*
X314443Y243094D01*
X314451Y243194D01*
X314451Y280663D01*
X362547Y328759D01*
X362626Y328858D01*
X362710Y328952D01*
X362734Y328994D01*
X362764Y329032D01*
X362818Y329146D01*
X362879Y329257D01*
X362892Y329303D01*
X362913Y329347D01*
X362939Y329470D01*
X362974Y329592D01*
X362979Y329653D01*
X362986Y329688D01*
X362985Y329736D01*
X362993Y329836D01*
X362993Y331256D01*
X363801Y333206D01*
X365294Y334699D01*
X367244Y335507D01*
X369356Y335507D01*
X371306Y334699D01*
X372799Y333206D01*
X373607Y331256D01*
X373607Y329144D01*
X372799Y327194D01*
X371306Y325701D01*
X370234Y325257D01*
X370147Y325208D01*
X370055Y325169D01*
X369995Y325124D01*
X369930Y325088D01*
X369855Y325020D01*
X369775Y324961D01*
X369727Y324904D01*
X369672Y324854D01*
X369615Y324771D01*
X369550Y324695D01*
X369516Y324628D01*
X369473Y324567D01*
X369437Y324474D01*
X369391Y324384D01*
X369373Y324312D01*
X369346Y324243D01*
X369331Y324144D01*
X369307Y324046D01*
X369306Y323972D01*
X369295Y323898D01*
X369303Y323798D01*
X369302Y323698D01*
X369318Y323625D01*
X369324Y323551D01*
X369355Y323455D01*
X369376Y323357D01*
X369408Y323290D01*
X369431Y323219D01*
X369483Y323133D01*
X369526Y323042D01*
X369572Y322984D01*
X369610Y322921D01*
X369681Y322848D01*
X369743Y322770D01*
X369801Y322724D01*
X369853Y322671D01*
X369938Y322616D01*
X370017Y322554D01*
X370106Y322508D01*
X370147Y322482D01*
X370180Y322470D01*
X370234Y322443D01*
X371306Y321999D01*
X372799Y320506D01*
X373607Y318556D01*
X373607Y316444D01*
X372799Y314494D01*
X371306Y313001D01*
X370234Y312557D01*
X370147Y312509D01*
X370055Y312468D01*
X369995Y312424D01*
X369930Y312388D01*
X369855Y312321D01*
X369775Y312261D01*
X369727Y312204D01*
X369672Y312154D01*
X369615Y312071D01*
X369550Y311995D01*
X369516Y311928D01*
X369473Y311867D01*
X369437Y311774D01*
X369391Y311684D01*
X369373Y311612D01*
X369346Y311543D01*
X369331Y311444D01*
X369307Y311346D01*
X369306Y311272D01*
X369295Y311198D01*
X369303Y311098D01*
X369302Y310998D01*
X369318Y310925D01*
X369324Y310851D01*
X369355Y310755D01*
X369376Y310657D01*
X369408Y310590D01*
X369431Y310519D01*
X369483Y310433D01*
X369526Y310342D01*
X369572Y310284D01*
X369611Y310221D01*
X369680Y310149D01*
X369743Y310070D01*
X369802Y310024D01*
X369853Y309971D01*
X369938Y309916D01*
X370017Y309854D01*
X370106Y309808D01*
X370147Y309782D01*
X370180Y309770D01*
X370234Y309743D01*
X371306Y309299D01*
X372799Y307806D01*
X373607Y305856D01*
X373607Y303744D01*
X373123Y302577D01*
X373102Y302504D01*
X373072Y302434D01*
X373055Y302337D01*
X373028Y302242D01*
X373024Y302166D01*
X373010Y302091D01*
X373015Y301992D01*
X373011Y301894D01*
X373024Y301819D01*
X373028Y301743D01*
X373056Y301648D01*
X373073Y301551D01*
X373104Y301481D01*
X373125Y301408D01*
X373173Y301322D01*
X373212Y301232D01*
X373258Y301170D01*
X373295Y301103D01*
X373392Y300990D01*
X373420Y300952D01*
X373435Y300939D01*
X373453Y300917D01*
X378179Y296192D01*
X378179Y275308D01*
X372392Y269521D01*
X370061Y269521D01*
X369936Y269507D01*
X369809Y269500D01*
X369763Y269487D01*
X369715Y269481D01*
X369596Y269439D01*
X369475Y269404D01*
X369432Y269380D01*
X369387Y269364D01*
X369281Y269295D01*
X369170Y269234D01*
X369124Y269194D01*
X369094Y269175D01*
X369061Y269140D01*
X368984Y269075D01*
X287360Y187451D01*
X208287Y187451D01*
X208161Y187437D01*
X208035Y187430D01*
X207989Y187417D01*
X207941Y187411D01*
X207822Y187369D01*
X207700Y187334D01*
X207658Y187310D01*
X207613Y187294D01*
X207507Y187225D01*
X207396Y187164D01*
X207350Y187124D01*
X207320Y187105D01*
X207286Y187070D01*
X207210Y187005D01*
X206206Y186001D01*
X205134Y185557D01*
X205047Y185508D01*
X204955Y185469D01*
X204895Y185424D01*
X204830Y185388D01*
X204755Y185320D01*
X204675Y185261D01*
X204627Y185204D01*
X204572Y185154D01*
X204515Y185071D01*
X204450Y184995D01*
X204416Y184928D01*
X204373Y184867D01*
X204337Y184774D01*
X204291Y184684D01*
X204273Y184612D01*
X204246Y184543D01*
X204231Y184444D01*
X204207Y184346D01*
X204206Y184272D01*
X204195Y184198D01*
X204203Y184098D01*
X204202Y183998D01*
X204218Y183925D01*
X204224Y183851D01*
X204255Y183755D01*
X204276Y183657D01*
X204308Y183590D01*
X204331Y183519D01*
X204383Y183433D01*
X204426Y183342D01*
X204472Y183284D01*
X204510Y183221D01*
X204581Y183148D01*
X204643Y183070D01*
X204701Y183024D01*
X204753Y182971D01*
X204838Y182916D01*
X204917Y182854D01*
X205006Y182808D01*
X205047Y182782D01*
X205080Y182770D01*
X205134Y182743D01*
X206206Y182299D01*
X207210Y181295D01*
X207309Y181216D01*
X207403Y181132D01*
X207445Y181108D01*
X207483Y181078D01*
X207597Y181024D01*
X207708Y180963D01*
X207754Y180950D01*
X207798Y180929D01*
X207921Y180903D01*
X208043Y180868D01*
X208104Y180863D01*
X208139Y180856D01*
X208187Y180857D01*
X208287Y180849D01*
X328306Y180849D01*
X328432Y180863D01*
X328558Y180870D01*
X328604Y180883D01*
X328652Y180889D01*
X328771Y180931D01*
X328893Y180966D01*
X328935Y180990D01*
X328981Y181006D01*
X329087Y181075D01*
X329197Y181136D01*
X329243Y181176D01*
X329273Y181195D01*
X329307Y181230D01*
X329383Y181295D01*
X352105Y204017D01*
X352184Y204116D01*
X352268Y204210D01*
X352292Y204252D01*
X352322Y204290D01*
X352376Y204404D01*
X352437Y204515D01*
X352450Y204561D01*
X352471Y204605D01*
X352497Y204728D01*
X352532Y204850D01*
X352537Y204911D01*
X352544Y204946D01*
X352543Y204994D01*
X352551Y205094D01*
X352551Y236213D01*
X352537Y236339D01*
X352530Y236465D01*
X352517Y236511D01*
X352511Y236559D01*
X352469Y236678D01*
X352434Y236800D01*
X352410Y236842D01*
X352394Y236887D01*
X352325Y236993D01*
X352264Y237104D01*
X352224Y237150D01*
X352205Y237180D01*
X352170Y237214D01*
X352105Y237290D01*
X351101Y238294D01*
X350293Y240244D01*
X350293Y242356D01*
X351101Y244306D01*
X352594Y245799D01*
X354544Y246607D01*
X356656Y246607D01*
X358606Y245799D01*
X360099Y244306D01*
X360907Y242356D01*
X360907Y240244D01*
X360099Y238294D01*
X359095Y237290D01*
X359016Y237191D01*
X358932Y237097D01*
X358908Y237055D01*
X358878Y237017D01*
X358824Y236903D01*
X358763Y236792D01*
X358750Y236746D01*
X358729Y236702D01*
X358703Y236579D01*
X358668Y236457D01*
X358663Y236396D01*
X358656Y236361D01*
X358657Y236313D01*
X358649Y236213D01*
X358649Y201937D01*
X331463Y174751D01*
X208287Y174751D01*
X208161Y174737D01*
X208035Y174730D01*
X207989Y174717D01*
X207941Y174711D01*
X207822Y174669D01*
X207700Y174634D01*
X207658Y174610D01*
X207613Y174594D01*
X207507Y174525D01*
X207396Y174464D01*
X207350Y174424D01*
X207320Y174405D01*
X207286Y174370D01*
X207210Y174305D01*
X206206Y173301D01*
X204256Y172493D01*
X202144Y172493D01*
G37*
%LPD*%
%LPC*%
G36*
X329144Y439193D02*
X329144Y439193D01*
X327194Y440001D01*
X325701Y441494D01*
X324893Y443444D01*
X324893Y445556D01*
X325701Y447506D01*
X326705Y448510D01*
X326784Y448609D01*
X326868Y448703D01*
X326892Y448745D01*
X326922Y448783D01*
X326976Y448897D01*
X327037Y449008D01*
X327050Y449054D01*
X327071Y449098D01*
X327097Y449221D01*
X327132Y449343D01*
X327137Y449404D01*
X327144Y449439D01*
X327143Y449487D01*
X327151Y449587D01*
X327151Y460452D01*
X327137Y460578D01*
X327130Y460704D01*
X327117Y460750D01*
X327111Y460798D01*
X327069Y460917D01*
X327034Y461039D01*
X327010Y461081D01*
X326994Y461127D01*
X326925Y461233D01*
X326864Y461343D01*
X326824Y461389D01*
X326805Y461419D01*
X326770Y461453D01*
X326705Y461529D01*
X266699Y521535D01*
X266699Y528458D01*
X266685Y528584D01*
X266678Y528710D01*
X266665Y528756D01*
X266659Y528804D01*
X266617Y528923D01*
X266582Y529045D01*
X266558Y529087D01*
X266542Y529133D01*
X266473Y529239D01*
X266412Y529349D01*
X266372Y529395D01*
X266353Y529425D01*
X266318Y529459D01*
X266253Y529535D01*
X250195Y545593D01*
X250156Y545625D01*
X250122Y545662D01*
X250019Y545733D01*
X249922Y545810D01*
X249876Y545832D01*
X249835Y545860D01*
X249719Y545906D01*
X249607Y545959D01*
X249558Y545970D01*
X249511Y545988D01*
X249388Y546006D01*
X249266Y546032D01*
X249216Y546032D01*
X249166Y546039D01*
X249042Y546029D01*
X248918Y546026D01*
X248869Y546014D01*
X248819Y546010D01*
X248700Y545972D01*
X248580Y545941D01*
X248535Y545918D01*
X248487Y545903D01*
X248381Y545839D01*
X248270Y545782D01*
X248231Y545749D01*
X248188Y545723D01*
X248099Y545637D01*
X248004Y545556D01*
X247974Y545515D01*
X247938Y545480D01*
X247871Y545376D01*
X247797Y545276D01*
X247777Y545229D01*
X247750Y545187D01*
X247708Y545070D01*
X247659Y544956D01*
X247650Y544906D01*
X247634Y544859D01*
X247620Y544735D01*
X247598Y544613D01*
X247600Y544562D01*
X247595Y544512D01*
X247609Y544389D01*
X247616Y544265D01*
X247629Y544216D01*
X247635Y544166D01*
X247711Y543933D01*
X248921Y541012D01*
X248921Y525788D01*
X247760Y522987D01*
X245617Y520844D01*
X242816Y519683D01*
X239784Y519683D01*
X236983Y520844D01*
X234840Y522987D01*
X233679Y525788D01*
X233679Y541012D01*
X234840Y543813D01*
X236983Y545956D01*
X239784Y547117D01*
X242816Y547117D01*
X245737Y545907D01*
X245786Y545893D01*
X245831Y545871D01*
X245953Y545845D01*
X246073Y545811D01*
X246123Y545808D01*
X246172Y545798D01*
X246296Y545800D01*
X246421Y545794D01*
X246470Y545803D01*
X246521Y545804D01*
X246641Y545834D01*
X246764Y545856D01*
X246810Y545877D01*
X246859Y545889D01*
X246969Y545946D01*
X247083Y545995D01*
X247124Y546025D01*
X247168Y546048D01*
X247263Y546129D01*
X247363Y546203D01*
X247395Y546242D01*
X247434Y546274D01*
X247508Y546374D01*
X247588Y546469D01*
X247611Y546514D01*
X247641Y546555D01*
X247690Y546669D01*
X247747Y546780D01*
X247759Y546828D01*
X247779Y546875D01*
X247801Y546997D01*
X247831Y547118D01*
X247832Y547168D01*
X247841Y547218D01*
X247834Y547342D01*
X247836Y547466D01*
X247825Y547515D01*
X247823Y547566D01*
X247788Y547685D01*
X247762Y547807D01*
X247740Y547852D01*
X247726Y547901D01*
X247665Y548009D01*
X247612Y548121D01*
X247581Y548161D01*
X247556Y548205D01*
X247397Y548391D01*
X191941Y603847D01*
X191842Y603926D01*
X191748Y604010D01*
X191706Y604034D01*
X191668Y604064D01*
X191554Y604118D01*
X191443Y604179D01*
X191397Y604192D01*
X191353Y604213D01*
X191230Y604239D01*
X191108Y604274D01*
X191047Y604279D01*
X191012Y604286D01*
X190964Y604285D01*
X190864Y604293D01*
X189444Y604293D01*
X187494Y605101D01*
X186001Y606594D01*
X185193Y608544D01*
X185193Y610656D01*
X186001Y612606D01*
X187494Y614099D01*
X189444Y614907D01*
X191556Y614907D01*
X193506Y614099D01*
X194999Y612606D01*
X195807Y610656D01*
X195807Y609236D01*
X195821Y609110D01*
X195828Y608984D01*
X195841Y608938D01*
X195847Y608890D01*
X195889Y608771D01*
X195924Y608649D01*
X195948Y608607D01*
X195964Y608561D01*
X196033Y608455D01*
X196094Y608345D01*
X196134Y608299D01*
X196153Y608269D01*
X196188Y608235D01*
X196253Y608159D01*
X269179Y535233D01*
X269257Y535170D01*
X269330Y535100D01*
X269394Y535062D01*
X269452Y535016D01*
X269543Y534973D01*
X269629Y534922D01*
X269700Y534899D01*
X269767Y534867D01*
X269865Y534846D01*
X269961Y534815D01*
X270035Y534809D01*
X270108Y534794D01*
X270208Y534795D01*
X270308Y534787D01*
X270382Y534798D01*
X270456Y534800D01*
X270553Y534824D01*
X270653Y534839D01*
X270722Y534867D01*
X270794Y534885D01*
X270884Y534931D01*
X270977Y534968D01*
X271038Y535010D01*
X271104Y535044D01*
X271181Y535110D01*
X271263Y535167D01*
X271313Y535222D01*
X271369Y535270D01*
X271429Y535351D01*
X271496Y535426D01*
X271532Y535491D01*
X271577Y535550D01*
X271616Y535643D01*
X271665Y535731D01*
X271685Y535802D01*
X271715Y535870D01*
X271732Y535969D01*
X271760Y536066D01*
X271768Y536166D01*
X271776Y536213D01*
X271774Y536249D01*
X271779Y536310D01*
X271779Y541012D01*
X272940Y543813D01*
X275083Y545956D01*
X277884Y547117D01*
X280916Y547117D01*
X283717Y545956D01*
X285860Y543813D01*
X287021Y541012D01*
X287021Y525788D01*
X285860Y522987D01*
X283717Y520844D01*
X280916Y519683D01*
X280852Y519683D01*
X280752Y519672D01*
X280652Y519670D01*
X280579Y519652D01*
X280506Y519643D01*
X280411Y519610D01*
X280314Y519585D01*
X280247Y519551D01*
X280177Y519526D01*
X280093Y519471D01*
X280004Y519425D01*
X279947Y519377D01*
X279885Y519337D01*
X279815Y519265D01*
X279738Y519200D01*
X279694Y519140D01*
X279642Y519086D01*
X279591Y519000D01*
X279531Y518919D01*
X279502Y518851D01*
X279464Y518787D01*
X279433Y518691D01*
X279393Y518599D01*
X279380Y518526D01*
X279357Y518455D01*
X279349Y518355D01*
X279332Y518256D01*
X279335Y518182D01*
X279329Y518108D01*
X279344Y518008D01*
X279349Y517908D01*
X279370Y517837D01*
X279381Y517763D01*
X279418Y517670D01*
X279446Y517573D01*
X279482Y517508D01*
X279510Y517439D01*
X279567Y517357D01*
X279616Y517269D01*
X279681Y517193D01*
X279709Y517153D01*
X279735Y517129D01*
X279775Y517083D01*
X333249Y463609D01*
X333249Y449587D01*
X333263Y449461D01*
X333270Y449335D01*
X333283Y449289D01*
X333289Y449241D01*
X333331Y449122D01*
X333366Y449000D01*
X333390Y448958D01*
X333406Y448913D01*
X333475Y448807D01*
X333536Y448696D01*
X333576Y448650D01*
X333595Y448620D01*
X333630Y448586D01*
X333695Y448510D01*
X334699Y447506D01*
X335507Y445556D01*
X335507Y443444D01*
X334699Y441494D01*
X333206Y440001D01*
X331256Y439193D01*
X329144Y439193D01*
G37*
%LPD*%
%LPC*%
G36*
X519644Y108993D02*
X519644Y108993D01*
X517694Y109801D01*
X516201Y111294D01*
X515393Y113244D01*
X515393Y115356D01*
X516201Y117306D01*
X517205Y118310D01*
X517277Y118400D01*
X517278Y118401D01*
X517278Y118402D01*
X517284Y118409D01*
X517368Y118503D01*
X517392Y118545D01*
X517422Y118583D01*
X517476Y118697D01*
X517537Y118808D01*
X517550Y118854D01*
X517571Y118898D01*
X517597Y119021D01*
X517632Y119143D01*
X517637Y119204D01*
X517644Y119239D01*
X517643Y119287D01*
X517651Y119387D01*
X517651Y137806D01*
X517637Y137932D01*
X517630Y138058D01*
X517617Y138104D01*
X517611Y138152D01*
X517569Y138271D01*
X517534Y138393D01*
X517510Y138435D01*
X517494Y138481D01*
X517425Y138587D01*
X517364Y138697D01*
X517324Y138743D01*
X517305Y138773D01*
X517270Y138807D01*
X517205Y138883D01*
X507183Y148905D01*
X507084Y148984D01*
X506990Y149068D01*
X506948Y149092D01*
X506910Y149122D01*
X506796Y149176D01*
X506685Y149237D01*
X506639Y149250D01*
X506595Y149271D01*
X506472Y149297D01*
X506350Y149332D01*
X506289Y149337D01*
X506254Y149344D01*
X506206Y149343D01*
X506106Y149351D01*
X481337Y149351D01*
X479105Y151583D01*
X445941Y184747D01*
X445842Y184826D01*
X445748Y184910D01*
X445706Y184934D01*
X445668Y184964D01*
X445554Y185018D01*
X445443Y185079D01*
X445397Y185092D01*
X445353Y185113D01*
X445230Y185139D01*
X445108Y185174D01*
X445047Y185179D01*
X445013Y185186D01*
X444965Y185185D01*
X444864Y185193D01*
X444136Y185193D01*
X444010Y185179D01*
X443884Y185172D01*
X443838Y185159D01*
X443790Y185153D01*
X443671Y185111D01*
X443549Y185076D01*
X443507Y185052D01*
X443461Y185036D01*
X443355Y184967D01*
X443245Y184906D01*
X443199Y184866D01*
X443169Y184847D01*
X443135Y184812D01*
X443059Y184747D01*
X382263Y123951D01*
X373387Y123951D01*
X373261Y123937D01*
X373135Y123930D01*
X373089Y123917D01*
X373041Y123911D01*
X372922Y123869D01*
X372800Y123834D01*
X372758Y123810D01*
X372713Y123794D01*
X372607Y123725D01*
X372496Y123664D01*
X372450Y123624D01*
X372420Y123605D01*
X372386Y123570D01*
X372310Y123505D01*
X371306Y122501D01*
X369356Y121693D01*
X367244Y121693D01*
X365294Y122501D01*
X363801Y123994D01*
X362993Y125944D01*
X362993Y128056D01*
X363801Y130006D01*
X365294Y131499D01*
X367244Y132307D01*
X369356Y132307D01*
X371306Y131499D01*
X372310Y130495D01*
X372409Y130416D01*
X372503Y130332D01*
X372545Y130308D01*
X372583Y130278D01*
X372697Y130224D01*
X372808Y130163D01*
X372854Y130150D01*
X372898Y130129D01*
X373021Y130103D01*
X373143Y130068D01*
X373204Y130063D01*
X373239Y130056D01*
X373287Y130057D01*
X373387Y130049D01*
X379106Y130049D01*
X379232Y130063D01*
X379358Y130070D01*
X379404Y130083D01*
X379452Y130089D01*
X379571Y130131D01*
X379693Y130166D01*
X379735Y130190D01*
X379781Y130206D01*
X379887Y130275D01*
X379997Y130336D01*
X380043Y130376D01*
X380073Y130395D01*
X380107Y130430D01*
X380183Y130495D01*
X438747Y189059D01*
X438826Y189158D01*
X438910Y189252D01*
X438934Y189294D01*
X438964Y189332D01*
X439018Y189446D01*
X439079Y189557D01*
X439092Y189603D01*
X439113Y189647D01*
X439139Y189770D01*
X439174Y189892D01*
X439179Y189953D01*
X439186Y189988D01*
X439185Y190036D01*
X439193Y190136D01*
X439193Y191556D01*
X440001Y193506D01*
X441494Y194999D01*
X443444Y195807D01*
X445556Y195807D01*
X447506Y194999D01*
X448999Y193506D01*
X449807Y191556D01*
X449807Y190136D01*
X449821Y190010D01*
X449828Y189884D01*
X449841Y189838D01*
X449847Y189790D01*
X449889Y189671D01*
X449924Y189549D01*
X449948Y189507D01*
X449964Y189461D01*
X450033Y189355D01*
X450094Y189245D01*
X450134Y189199D01*
X450153Y189169D01*
X450188Y189135D01*
X450253Y189059D01*
X483417Y155895D01*
X483516Y155816D01*
X483610Y155732D01*
X483652Y155708D01*
X483690Y155678D01*
X483804Y155624D01*
X483915Y155563D01*
X483961Y155550D01*
X484005Y155529D01*
X484128Y155503D01*
X484250Y155468D01*
X484311Y155463D01*
X484345Y155456D01*
X484393Y155457D01*
X484494Y155449D01*
X509263Y155449D01*
X523749Y140963D01*
X523749Y119387D01*
X523763Y119261D01*
X523770Y119135D01*
X523783Y119089D01*
X523789Y119041D01*
X523831Y118922D01*
X523866Y118800D01*
X523890Y118758D01*
X523906Y118713D01*
X523975Y118607D01*
X524036Y118496D01*
X524076Y118450D01*
X524095Y118420D01*
X524130Y118386D01*
X524195Y118310D01*
X525199Y117306D01*
X526007Y115356D01*
X526007Y113244D01*
X525199Y111294D01*
X523706Y109801D01*
X521756Y108993D01*
X519644Y108993D01*
G37*
%LPD*%
%LPC*%
G36*
X478678Y42803D02*
X478678Y42803D01*
X475436Y46046D01*
X475435Y46046D01*
X474553Y46929D01*
X474453Y47008D01*
X474360Y47092D01*
X474317Y47116D01*
X474280Y47146D01*
X474165Y47200D01*
X474055Y47261D01*
X474008Y47274D01*
X473965Y47295D01*
X473841Y47321D01*
X473719Y47356D01*
X473659Y47361D01*
X473624Y47368D01*
X473576Y47367D01*
X473475Y47375D01*
X473100Y47375D01*
X472509Y47620D01*
X471116Y48197D01*
X471043Y48218D01*
X470972Y48248D01*
X470876Y48266D01*
X470781Y48293D01*
X470705Y48296D01*
X470629Y48310D01*
X470531Y48305D01*
X470433Y48310D01*
X470358Y48296D01*
X470281Y48292D01*
X470187Y48265D01*
X470090Y48247D01*
X470020Y48217D01*
X469947Y48196D01*
X469861Y48147D01*
X469771Y48108D01*
X469709Y48063D01*
X469642Y48025D01*
X469529Y47929D01*
X469491Y47900D01*
X469478Y47886D01*
X469456Y47867D01*
X469241Y47652D01*
X468293Y47018D01*
X467239Y46582D01*
X467073Y46549D01*
X467073Y52150D01*
X467073Y65650D01*
X467073Y71251D01*
X467239Y71218D01*
X468293Y70782D01*
X469241Y70148D01*
X469456Y69933D01*
X469516Y69886D01*
X469569Y69831D01*
X469652Y69778D01*
X469729Y69717D01*
X469798Y69684D01*
X469863Y69643D01*
X469955Y69610D01*
X470044Y69568D01*
X470119Y69552D01*
X470191Y69526D01*
X470289Y69515D01*
X470385Y69494D01*
X470461Y69496D01*
X470537Y69487D01*
X470635Y69498D01*
X470733Y69500D01*
X470808Y69519D01*
X470883Y69528D01*
X471025Y69574D01*
X471071Y69585D01*
X471088Y69594D01*
X471116Y69603D01*
X473100Y70425D01*
X475000Y70425D01*
X476755Y69698D01*
X477223Y69230D01*
X477243Y69213D01*
X477260Y69193D01*
X477380Y69105D01*
X477496Y69013D01*
X477520Y69002D01*
X477541Y68986D01*
X477677Y68928D01*
X477811Y68864D01*
X477837Y68858D01*
X477861Y68848D01*
X478007Y68822D01*
X478152Y68791D01*
X478178Y68791D01*
X478204Y68786D01*
X478352Y68794D01*
X478500Y68797D01*
X478526Y68803D01*
X478552Y68804D01*
X478694Y68845D01*
X478838Y68882D01*
X478861Y68894D01*
X478887Y68901D01*
X479016Y68973D01*
X479148Y69041D01*
X479168Y69058D01*
X479191Y69071D01*
X479377Y69230D01*
X479845Y69698D01*
X481600Y70425D01*
X483500Y70425D01*
X485255Y69698D01*
X485723Y69230D01*
X485743Y69213D01*
X485760Y69193D01*
X485880Y69105D01*
X485996Y69013D01*
X486020Y69002D01*
X486041Y68986D01*
X486177Y68928D01*
X486311Y68864D01*
X486337Y68858D01*
X486361Y68848D01*
X486507Y68822D01*
X486652Y68791D01*
X486678Y68791D01*
X486704Y68786D01*
X486852Y68794D01*
X487000Y68797D01*
X487026Y68803D01*
X487052Y68804D01*
X487194Y68845D01*
X487338Y68882D01*
X487361Y68894D01*
X487387Y68901D01*
X487516Y68973D01*
X487648Y69041D01*
X487668Y69058D01*
X487691Y69071D01*
X487877Y69230D01*
X488345Y69698D01*
X490100Y70425D01*
X492000Y70425D01*
X493755Y69698D01*
X494223Y69230D01*
X494243Y69213D01*
X494260Y69193D01*
X494380Y69105D01*
X494496Y69013D01*
X494520Y69002D01*
X494541Y68986D01*
X494677Y68928D01*
X494811Y68864D01*
X494837Y68858D01*
X494861Y68848D01*
X495007Y68822D01*
X495152Y68791D01*
X495178Y68791D01*
X495204Y68786D01*
X495352Y68794D01*
X495500Y68797D01*
X495526Y68803D01*
X495552Y68804D01*
X495694Y68845D01*
X495838Y68882D01*
X495861Y68894D01*
X495887Y68901D01*
X496016Y68973D01*
X496148Y69041D01*
X496168Y69058D01*
X496191Y69071D01*
X496377Y69230D01*
X496845Y69698D01*
X498600Y70425D01*
X500500Y70425D01*
X502255Y69698D01*
X502723Y69230D01*
X502743Y69213D01*
X502760Y69193D01*
X502880Y69105D01*
X502996Y69013D01*
X503020Y69002D01*
X503041Y68986D01*
X503177Y68928D01*
X503311Y68864D01*
X503337Y68858D01*
X503361Y68848D01*
X503507Y68822D01*
X503652Y68791D01*
X503678Y68791D01*
X503704Y68786D01*
X503852Y68794D01*
X504000Y68797D01*
X504026Y68803D01*
X504052Y68804D01*
X504194Y68845D01*
X504338Y68882D01*
X504361Y68894D01*
X504387Y68901D01*
X504516Y68973D01*
X504648Y69041D01*
X504668Y69058D01*
X504691Y69071D01*
X504877Y69230D01*
X505345Y69698D01*
X507100Y70425D01*
X509000Y70425D01*
X510755Y69698D01*
X511223Y69230D01*
X511243Y69213D01*
X511260Y69193D01*
X511380Y69105D01*
X511496Y69013D01*
X511520Y69002D01*
X511541Y68986D01*
X511677Y68928D01*
X511811Y68864D01*
X511837Y68858D01*
X511861Y68848D01*
X512007Y68822D01*
X512152Y68791D01*
X512178Y68791D01*
X512204Y68786D01*
X512352Y68794D01*
X512500Y68797D01*
X512526Y68803D01*
X512552Y68804D01*
X512694Y68845D01*
X512838Y68882D01*
X512861Y68894D01*
X512887Y68901D01*
X513016Y68973D01*
X513148Y69041D01*
X513168Y69058D01*
X513191Y69071D01*
X513377Y69230D01*
X513845Y69698D01*
X515600Y70425D01*
X517500Y70425D01*
X519484Y69603D01*
X519557Y69582D01*
X519628Y69552D01*
X519724Y69534D01*
X519819Y69507D01*
X519895Y69504D01*
X519971Y69490D01*
X520069Y69495D01*
X520167Y69490D01*
X520242Y69504D01*
X520319Y69508D01*
X520413Y69535D01*
X520510Y69553D01*
X520580Y69583D01*
X520653Y69604D01*
X520739Y69653D01*
X520829Y69692D01*
X520891Y69737D01*
X520958Y69775D01*
X521071Y69871D01*
X521109Y69900D01*
X521122Y69914D01*
X521144Y69933D01*
X521359Y70148D01*
X522307Y70782D01*
X523361Y71218D01*
X523527Y71251D01*
X523527Y65650D01*
X523527Y52150D01*
X523527Y46549D01*
X523361Y46582D01*
X522307Y47018D01*
X521359Y47652D01*
X521144Y47867D01*
X521084Y47914D01*
X521031Y47969D01*
X520948Y48022D01*
X520871Y48083D01*
X520802Y48116D01*
X520737Y48157D01*
X520645Y48190D01*
X520556Y48232D01*
X520481Y48248D01*
X520409Y48274D01*
X520311Y48285D01*
X520215Y48306D01*
X520139Y48304D01*
X520063Y48313D01*
X519965Y48302D01*
X519867Y48300D01*
X519792Y48281D01*
X519717Y48272D01*
X519575Y48226D01*
X519529Y48215D01*
X519512Y48206D01*
X519484Y48197D01*
X517500Y47375D01*
X517125Y47375D01*
X516999Y47361D01*
X516873Y47354D01*
X516826Y47341D01*
X516778Y47335D01*
X516659Y47293D01*
X516538Y47258D01*
X516496Y47234D01*
X516450Y47218D01*
X516344Y47149D01*
X516234Y47088D01*
X516187Y47048D01*
X516157Y47029D01*
X516124Y46994D01*
X516047Y46929D01*
X511922Y42803D01*
X478678Y42803D01*
G37*
%LPD*%
%LPC*%
G36*
X341844Y350293D02*
X341844Y350293D01*
X339894Y351101D01*
X338401Y352594D01*
X337593Y354544D01*
X337593Y355964D01*
X337579Y356090D01*
X337572Y356216D01*
X337559Y356262D01*
X337553Y356310D01*
X337511Y356429D01*
X337476Y356551D01*
X337452Y356593D01*
X337436Y356639D01*
X337367Y356745D01*
X337306Y356855D01*
X337266Y356901D01*
X337247Y356931D01*
X337212Y356965D01*
X337147Y357041D01*
X276344Y417845D01*
X276344Y417853D01*
X276323Y417949D01*
X276311Y418047D01*
X276286Y418119D01*
X276269Y418193D01*
X276227Y418282D01*
X276194Y418375D01*
X276152Y418439D01*
X276120Y418508D01*
X276058Y418585D01*
X276005Y418668D01*
X275950Y418721D01*
X275902Y418780D01*
X275825Y418841D01*
X275754Y418910D01*
X275689Y418949D01*
X275629Y418996D01*
X275496Y419064D01*
X275455Y419089D01*
X275437Y419094D01*
X275411Y419108D01*
X275083Y419243D01*
X272940Y421387D01*
X271779Y424188D01*
X271779Y439412D01*
X272940Y442213D01*
X275083Y444356D01*
X277884Y445517D01*
X280916Y445517D01*
X283717Y444356D01*
X285860Y442213D01*
X287021Y439412D01*
X287021Y424188D01*
X285861Y421387D01*
X284720Y420246D01*
X284703Y420226D01*
X284683Y420209D01*
X284595Y420089D01*
X284503Y419973D01*
X284492Y419950D01*
X284476Y419928D01*
X284417Y419792D01*
X284354Y419658D01*
X284348Y419632D01*
X284338Y419608D01*
X284312Y419462D01*
X284281Y419317D01*
X284281Y419291D01*
X284276Y419265D01*
X284284Y419117D01*
X284287Y418969D01*
X284293Y418944D01*
X284294Y418917D01*
X284335Y418775D01*
X284372Y418631D01*
X284384Y418608D01*
X284391Y418582D01*
X284463Y418453D01*
X284531Y418321D01*
X284548Y418301D01*
X284561Y418278D01*
X284720Y418092D01*
X341459Y361353D01*
X341558Y361274D01*
X341652Y361190D01*
X341694Y361166D01*
X341732Y361136D01*
X341846Y361082D01*
X341957Y361021D01*
X342003Y361008D01*
X342047Y360987D01*
X342170Y360961D01*
X342292Y360926D01*
X342353Y360921D01*
X342388Y360914D01*
X342436Y360915D01*
X342536Y360907D01*
X343956Y360907D01*
X345906Y360099D01*
X347399Y358606D01*
X348207Y356656D01*
X348207Y354544D01*
X347399Y352594D01*
X345906Y351101D01*
X343956Y350293D01*
X341844Y350293D01*
G37*
%LPD*%
%LPC*%
G36*
X239784Y379983D02*
X239784Y379983D01*
X236983Y381144D01*
X234840Y383287D01*
X233679Y386088D01*
X233679Y401312D01*
X234840Y404113D01*
X236983Y406257D01*
X237311Y406392D01*
X237378Y406429D01*
X237449Y406458D01*
X237530Y406514D01*
X237616Y406562D01*
X237672Y406613D01*
X237735Y406657D01*
X237801Y406730D01*
X237874Y406796D01*
X237917Y406859D01*
X237968Y406915D01*
X238016Y407001D01*
X238072Y407082D01*
X238100Y407154D01*
X238137Y407220D01*
X238164Y407315D01*
X238200Y407407D01*
X238211Y407482D01*
X238232Y407556D01*
X238244Y407705D01*
X238251Y407751D01*
X238249Y407771D01*
X238251Y407800D01*
X238251Y417700D01*
X238243Y417776D01*
X238244Y417853D01*
X238223Y417949D01*
X238211Y418047D01*
X238186Y418119D01*
X238169Y418193D01*
X238127Y418282D01*
X238094Y418375D01*
X238052Y418439D01*
X238020Y418508D01*
X237958Y418585D01*
X237905Y418668D01*
X237850Y418721D01*
X237802Y418780D01*
X237725Y418841D01*
X237654Y418910D01*
X237589Y418949D01*
X237529Y418996D01*
X237396Y419064D01*
X237355Y419089D01*
X237337Y419094D01*
X237311Y419108D01*
X236983Y419243D01*
X234840Y421387D01*
X233679Y424188D01*
X233679Y439412D01*
X234840Y442213D01*
X236983Y444356D01*
X239784Y445517D01*
X242816Y445517D01*
X245617Y444356D01*
X247760Y442213D01*
X248921Y439412D01*
X248921Y424188D01*
X247760Y421387D01*
X245617Y419243D01*
X245289Y419108D01*
X245222Y419071D01*
X245151Y419042D01*
X245071Y418986D01*
X244984Y418938D01*
X244928Y418887D01*
X244865Y418843D01*
X244799Y418770D01*
X244726Y418704D01*
X244683Y418641D01*
X244632Y418585D01*
X244584Y418499D01*
X244528Y418418D01*
X244500Y418346D01*
X244463Y418280D01*
X244436Y418185D01*
X244400Y418093D01*
X244389Y418018D01*
X244368Y417944D01*
X244356Y417795D01*
X244349Y417749D01*
X244351Y417729D01*
X244349Y417700D01*
X244349Y407800D01*
X244357Y407724D01*
X244356Y407647D01*
X244377Y407551D01*
X244389Y407453D01*
X244414Y407381D01*
X244431Y407307D01*
X244473Y407218D01*
X244506Y407125D01*
X244548Y407061D01*
X244580Y406992D01*
X244642Y406915D01*
X244695Y406832D01*
X244750Y406779D01*
X244798Y406720D01*
X244875Y406659D01*
X244946Y406590D01*
X245011Y406551D01*
X245071Y406504D01*
X245204Y406436D01*
X245245Y406411D01*
X245263Y406406D01*
X245289Y406392D01*
X245617Y406257D01*
X247760Y404113D01*
X248921Y401312D01*
X248921Y386088D01*
X247760Y383287D01*
X245617Y381144D01*
X242816Y379983D01*
X239784Y379983D01*
G37*
%LPD*%
%LPC*%
G36*
X354316Y679268D02*
X354316Y679268D01*
X350465Y680864D01*
X347517Y683811D01*
X345922Y687662D01*
X345922Y709738D01*
X347517Y713589D01*
X350465Y716536D01*
X354316Y718132D01*
X358484Y718132D01*
X362335Y716536D01*
X365283Y713589D01*
X366878Y709738D01*
X366878Y687662D01*
X365283Y683811D01*
X362335Y680864D01*
X358484Y679268D01*
X354316Y679268D01*
G37*
%LPD*%
%LPC*%
G36*
X90562Y155022D02*
X90562Y155022D01*
X86711Y156617D01*
X83764Y159565D01*
X82168Y163416D01*
X82168Y167584D01*
X83764Y171435D01*
X86711Y174383D01*
X90562Y175978D01*
X112638Y175978D01*
X116489Y174383D01*
X119436Y171435D01*
X121032Y167584D01*
X121032Y163416D01*
X119436Y159565D01*
X116489Y156617D01*
X112638Y155022D01*
X90562Y155022D01*
G37*
%LPD*%
%LPC*%
G36*
X90562Y320122D02*
X90562Y320122D01*
X86711Y321717D01*
X83764Y324665D01*
X82168Y328516D01*
X82168Y332684D01*
X83764Y336535D01*
X86711Y339483D01*
X90562Y341078D01*
X112638Y341078D01*
X116489Y339483D01*
X119436Y336535D01*
X121032Y332684D01*
X121032Y328516D01*
X119436Y324665D01*
X116489Y321717D01*
X112638Y320122D01*
X90562Y320122D01*
G37*
%LPD*%
%LPC*%
G36*
X90562Y205022D02*
X90562Y205022D01*
X86711Y206617D01*
X83764Y209565D01*
X82168Y213416D01*
X82168Y217584D01*
X83764Y221435D01*
X86711Y224383D01*
X90562Y225978D01*
X112638Y225978D01*
X116489Y224383D01*
X119436Y221435D01*
X121032Y217584D01*
X121032Y213416D01*
X119436Y209565D01*
X116489Y206617D01*
X112638Y205022D01*
X90562Y205022D01*
G37*
%LPD*%
%LPC*%
G36*
X90562Y40722D02*
X90562Y40722D01*
X86711Y42317D01*
X83764Y45265D01*
X82168Y49116D01*
X82168Y53284D01*
X83764Y57135D01*
X86711Y60083D01*
X90562Y61678D01*
X112638Y61678D01*
X116489Y60083D01*
X119436Y57135D01*
X121032Y53284D01*
X121032Y49116D01*
X119436Y45265D01*
X116489Y42317D01*
X112638Y40722D01*
X90562Y40722D01*
G37*
%LPD*%
%LPC*%
G36*
X90562Y90722D02*
X90562Y90722D01*
X86711Y92317D01*
X83764Y95265D01*
X82168Y99116D01*
X82168Y103284D01*
X83764Y107135D01*
X86711Y110083D01*
X90562Y111678D01*
X112638Y111678D01*
X116489Y110083D01*
X119436Y107135D01*
X121032Y103284D01*
X121032Y99116D01*
X119436Y95265D01*
X116489Y92317D01*
X112638Y90722D01*
X90562Y90722D01*
G37*
%LPD*%
%LPC*%
G36*
X288249Y31749D02*
X288249Y31749D01*
X284888Y33142D01*
X282316Y35714D01*
X280923Y39075D01*
X280923Y42713D01*
X282316Y46074D01*
X284888Y48646D01*
X288249Y50039D01*
X307127Y50039D01*
X310488Y48646D01*
X313060Y46074D01*
X314453Y42713D01*
X314453Y39075D01*
X313060Y35714D01*
X310488Y33142D01*
X307127Y31749D01*
X288249Y31749D01*
G37*
%LPD*%
%LPC*%
G36*
X353273Y76961D02*
X353273Y76961D01*
X349912Y78354D01*
X347340Y80926D01*
X345947Y84287D01*
X345947Y87925D01*
X347340Y91286D01*
X349912Y93858D01*
X353273Y95251D01*
X372151Y95251D01*
X375512Y93858D01*
X378084Y91286D01*
X379477Y87925D01*
X379477Y84287D01*
X378084Y80926D01*
X375512Y78354D01*
X372151Y76961D01*
X353273Y76961D01*
G37*
%LPD*%
%LPC*%
G36*
X288249Y76961D02*
X288249Y76961D01*
X284888Y78354D01*
X282316Y80926D01*
X280923Y84287D01*
X280923Y87925D01*
X282316Y91286D01*
X284888Y93858D01*
X288249Y95251D01*
X307127Y95251D01*
X310488Y93858D01*
X313060Y91286D01*
X314453Y87925D01*
X314453Y84287D01*
X313060Y80926D01*
X310488Y78354D01*
X307127Y76961D01*
X288249Y76961D01*
G37*
%LPD*%
%LPC*%
G36*
X74331Y676401D02*
X74331Y676401D01*
X70876Y677832D01*
X68232Y680476D01*
X66801Y683931D01*
X66801Y687669D01*
X68232Y691124D01*
X70876Y693768D01*
X74331Y695199D01*
X78069Y695199D01*
X81524Y693768D01*
X84168Y691124D01*
X85599Y687669D01*
X85599Y683931D01*
X84168Y680476D01*
X81524Y677832D01*
X78069Y676401D01*
X74331Y676401D01*
G37*
%LPD*%
%LPC*%
G36*
X74331Y574801D02*
X74331Y574801D01*
X70876Y576232D01*
X68232Y578876D01*
X66801Y582331D01*
X66801Y586069D01*
X68232Y589524D01*
X70876Y592168D01*
X74331Y593599D01*
X78069Y593599D01*
X81524Y592168D01*
X84168Y589524D01*
X85599Y586069D01*
X85599Y582331D01*
X84168Y578876D01*
X81524Y576232D01*
X78069Y574801D01*
X74331Y574801D01*
G37*
%LPD*%
%LPC*%
G36*
X536193Y42540D02*
X536193Y42540D01*
X534722Y43149D01*
X533399Y44033D01*
X532273Y45159D01*
X531389Y46482D01*
X531143Y47075D01*
X531070Y47208D01*
X531001Y47341D01*
X530986Y47359D01*
X530974Y47380D01*
X530872Y47492D01*
X530775Y47607D01*
X530756Y47621D01*
X530740Y47638D01*
X530616Y47724D01*
X530494Y47814D01*
X530473Y47823D01*
X530453Y47836D01*
X530313Y47891D01*
X530174Y47951D01*
X530151Y47956D01*
X530129Y47964D01*
X529980Y47986D01*
X529831Y48013D01*
X529808Y48012D01*
X529784Y48015D01*
X529634Y48002D01*
X529483Y47995D01*
X529460Y47988D01*
X529437Y47986D01*
X529293Y47940D01*
X529148Y47898D01*
X529128Y47886D01*
X529105Y47879D01*
X528976Y47801D01*
X528844Y47727D01*
X528823Y47709D01*
X528807Y47699D01*
X528794Y47687D01*
X527793Y47018D01*
X526739Y46582D01*
X526573Y46549D01*
X526573Y52150D01*
X526573Y65650D01*
X526573Y71251D01*
X526739Y71218D01*
X527793Y70782D01*
X528741Y70148D01*
X529548Y69341D01*
X530182Y68393D01*
X530464Y67711D01*
X530537Y67579D01*
X530606Y67446D01*
X530622Y67427D01*
X530634Y67406D01*
X530735Y67295D01*
X530832Y67180D01*
X530851Y67166D01*
X530868Y67148D01*
X530992Y67062D01*
X531112Y66973D01*
X531134Y66964D01*
X531154Y66950D01*
X531294Y66895D01*
X531432Y66835D01*
X531456Y66831D01*
X531479Y66822D01*
X531627Y66800D01*
X531775Y66773D01*
X531800Y66775D01*
X531823Y66771D01*
X531974Y66784D01*
X532123Y66791D01*
X532147Y66798D01*
X532171Y66800D01*
X532314Y66846D01*
X532458Y66888D01*
X532479Y66900D01*
X532502Y66907D01*
X532631Y66985D01*
X532762Y67058D01*
X532785Y67077D01*
X532801Y67087D01*
X532835Y67120D01*
X532949Y67217D01*
X533399Y67667D01*
X534722Y68551D01*
X536193Y69160D01*
X537027Y69326D01*
X537027Y55850D01*
X537027Y42374D01*
X536193Y42540D01*
G37*
%LPD*%
%LPC*%
G36*
X453573Y55850D02*
X453573Y55850D01*
X453573Y69326D01*
X454407Y69160D01*
X455878Y68551D01*
X457201Y67667D01*
X457651Y67217D01*
X457769Y67123D01*
X457884Y67026D01*
X457905Y67015D01*
X457924Y67000D01*
X458060Y66936D01*
X458194Y66867D01*
X458218Y66861D01*
X458239Y66851D01*
X458386Y66819D01*
X458532Y66783D01*
X458556Y66783D01*
X458580Y66778D01*
X458730Y66780D01*
X458881Y66778D01*
X458904Y66783D01*
X458929Y66784D01*
X459074Y66820D01*
X459221Y66852D01*
X459243Y66863D01*
X459267Y66869D01*
X459400Y66938D01*
X459536Y67002D01*
X459555Y67017D01*
X459576Y67028D01*
X459691Y67126D01*
X459808Y67219D01*
X459823Y67238D01*
X459842Y67254D01*
X459931Y67375D01*
X460024Y67493D01*
X460038Y67519D01*
X460049Y67534D01*
X460068Y67578D01*
X460136Y67711D01*
X460418Y68393D01*
X461052Y69341D01*
X461859Y70148D01*
X462807Y70782D01*
X463861Y71218D01*
X464027Y71251D01*
X464027Y65650D01*
X464027Y52150D01*
X464027Y46549D01*
X463861Y46582D01*
X462807Y47018D01*
X461753Y47723D01*
X461709Y47760D01*
X461687Y47771D01*
X461669Y47786D01*
X461533Y47850D01*
X461398Y47919D01*
X461375Y47925D01*
X461354Y47935D01*
X461207Y47967D01*
X461060Y48003D01*
X461036Y48003D01*
X461013Y48008D01*
X460863Y48006D01*
X460712Y48008D01*
X460689Y48003D01*
X460665Y48003D01*
X460518Y47966D01*
X460371Y47934D01*
X460350Y47924D01*
X460327Y47918D01*
X460192Y47849D01*
X460056Y47784D01*
X460038Y47769D01*
X460017Y47758D01*
X459902Y47661D01*
X459784Y47567D01*
X459769Y47548D01*
X459751Y47533D01*
X459662Y47412D01*
X459568Y47293D01*
X459555Y47268D01*
X459544Y47253D01*
X459525Y47210D01*
X459457Y47075D01*
X459211Y46482D01*
X458327Y45159D01*
X457201Y44033D01*
X455878Y43149D01*
X454407Y42540D01*
X453573Y42374D01*
X453573Y55850D01*
G37*
%LPD*%
%LPC*%
G36*
X409384Y701684D02*
X409384Y701684D01*
X409384Y718770D01*
X410812Y718306D01*
X412424Y717484D01*
X413888Y716421D01*
X415167Y715142D01*
X416231Y713678D01*
X417052Y712066D01*
X417611Y710345D01*
X417894Y708558D01*
X417894Y701684D01*
X409384Y701684D01*
G37*
%LPD*%
%LPC*%
G36*
X104584Y383584D02*
X104584Y383584D01*
X104584Y392094D01*
X111458Y392094D01*
X113245Y391811D01*
X114966Y391252D01*
X116578Y390431D01*
X118042Y389367D01*
X119321Y388088D01*
X120384Y386624D01*
X121206Y385012D01*
X121670Y383584D01*
X104584Y383584D01*
G37*
%LPD*%
%LPC*%
G36*
X409384Y695716D02*
X409384Y695716D01*
X417894Y695716D01*
X417894Y688842D01*
X417611Y687055D01*
X417052Y685334D01*
X416231Y683722D01*
X415167Y682258D01*
X413888Y680979D01*
X412424Y679916D01*
X410812Y679094D01*
X409384Y678630D01*
X409384Y695716D01*
G37*
%LPD*%
%LPC*%
G36*
X81530Y383584D02*
X81530Y383584D01*
X81994Y385012D01*
X82816Y386624D01*
X83879Y388088D01*
X85158Y389367D01*
X86622Y390431D01*
X88234Y391252D01*
X89955Y391811D01*
X91742Y392094D01*
X98616Y392094D01*
X98616Y383584D01*
X81530Y383584D01*
G37*
%LPD*%
%LPC*%
G36*
X104584Y369106D02*
X104584Y369106D01*
X104584Y377616D01*
X121670Y377616D01*
X121206Y376188D01*
X120384Y374576D01*
X119321Y373112D01*
X118042Y371833D01*
X116578Y370769D01*
X114966Y369948D01*
X113245Y369389D01*
X111458Y369106D01*
X104584Y369106D01*
G37*
%LPD*%
%LPC*%
G36*
X394906Y701684D02*
X394906Y701684D01*
X394906Y708558D01*
X395189Y710345D01*
X395748Y712066D01*
X396569Y713678D01*
X397633Y715142D01*
X398912Y716421D01*
X400376Y717484D01*
X401988Y718306D01*
X403416Y718770D01*
X403416Y701684D01*
X394906Y701684D01*
G37*
%LPD*%
%LPC*%
G36*
X91742Y369106D02*
X91742Y369106D01*
X89955Y369389D01*
X88234Y369948D01*
X86622Y370769D01*
X85158Y371833D01*
X83879Y373112D01*
X82816Y374576D01*
X81994Y376188D01*
X81530Y377616D01*
X98616Y377616D01*
X98616Y369106D01*
X91742Y369106D01*
G37*
%LPD*%
%LPC*%
G36*
X401988Y679094D02*
X401988Y679094D01*
X400376Y679916D01*
X398912Y680979D01*
X397633Y682258D01*
X396569Y683722D01*
X395748Y685334D01*
X395189Y687055D01*
X394906Y688842D01*
X394906Y695716D01*
X403416Y695716D01*
X403416Y678630D01*
X401988Y679094D01*
G37*
%LPD*%
%LPC*%
G36*
X548639Y726439D02*
X548639Y726439D01*
X548639Y741379D01*
X550000Y740936D01*
X551425Y740210D01*
X552719Y739270D01*
X553850Y738139D01*
X554790Y736845D01*
X555516Y735420D01*
X556011Y733899D01*
X556261Y732320D01*
X556261Y726439D01*
X548639Y726439D01*
G37*
%LPD*%
%LPC*%
G36*
X365251Y43433D02*
X365251Y43433D01*
X365251Y51055D01*
X371132Y51055D01*
X372711Y50805D01*
X374232Y50310D01*
X375657Y49584D01*
X376951Y48644D01*
X378082Y47513D01*
X379022Y46219D01*
X379748Y44794D01*
X380191Y43433D01*
X365251Y43433D01*
G37*
%LPD*%
%LPC*%
G36*
X345233Y43433D02*
X345233Y43433D01*
X345676Y44794D01*
X346402Y46219D01*
X347342Y47513D01*
X348473Y48644D01*
X349767Y49584D01*
X351192Y50310D01*
X352713Y50805D01*
X354292Y51055D01*
X360173Y51055D01*
X360173Y43433D01*
X345233Y43433D01*
G37*
%LPD*%
%LPC*%
G36*
X535939Y726439D02*
X535939Y726439D01*
X535939Y732320D01*
X536189Y733899D01*
X536684Y735420D01*
X537410Y736845D01*
X538350Y738139D01*
X539481Y739270D01*
X540775Y740210D01*
X542200Y740936D01*
X543561Y741379D01*
X543561Y726439D01*
X535939Y726439D01*
G37*
%LPD*%
%LPC*%
G36*
X365251Y30733D02*
X365251Y30733D01*
X365251Y38355D01*
X380191Y38355D01*
X379748Y36994D01*
X379022Y35569D01*
X378082Y34275D01*
X376951Y33144D01*
X375657Y32204D01*
X374232Y31478D01*
X372711Y30983D01*
X371132Y30733D01*
X365251Y30733D01*
G37*
%LPD*%
%LPC*%
G36*
X542200Y706864D02*
X542200Y706864D01*
X540775Y707590D01*
X539481Y708530D01*
X538350Y709661D01*
X537410Y710955D01*
X536684Y712380D01*
X536189Y713901D01*
X535939Y715480D01*
X535939Y721361D01*
X543561Y721361D01*
X543561Y706421D01*
X542200Y706864D01*
G37*
%LPD*%
%LPC*%
G36*
X354292Y30733D02*
X354292Y30733D01*
X352713Y30983D01*
X351192Y31478D01*
X349767Y32204D01*
X348473Y33144D01*
X347342Y34275D01*
X346402Y35569D01*
X345676Y36994D01*
X345233Y38355D01*
X360173Y38355D01*
X360173Y30733D01*
X354292Y30733D01*
G37*
%LPD*%
%LPC*%
G36*
X243331Y294131D02*
X243331Y294131D01*
X243331Y306598D01*
X243819Y306501D01*
X245391Y305850D01*
X246806Y304905D01*
X248009Y303702D01*
X248954Y302287D01*
X249605Y300715D01*
X249937Y299047D01*
X249937Y294131D01*
X243331Y294131D01*
G37*
%LPD*%
%LPC*%
G36*
X243331Y290069D02*
X243331Y290069D01*
X249937Y290069D01*
X249937Y285153D01*
X249734Y284134D01*
X249734Y284133D01*
X249605Y283485D01*
X248954Y281913D01*
X248009Y280498D01*
X246806Y279295D01*
X245391Y278350D01*
X243819Y277699D01*
X243331Y277602D01*
X243331Y290069D01*
G37*
%LPD*%
%LPC*%
G36*
X232663Y294131D02*
X232663Y294131D01*
X232663Y299047D01*
X232912Y300299D01*
X232995Y300715D01*
X233646Y302287D01*
X234591Y303702D01*
X235794Y304905D01*
X237209Y305850D01*
X238781Y306501D01*
X239269Y306598D01*
X239269Y294131D01*
X232663Y294131D01*
G37*
%LPD*%
%LPC*%
G36*
X238781Y277699D02*
X238781Y277699D01*
X237209Y278350D01*
X235794Y279295D01*
X234591Y280498D01*
X233646Y281913D01*
X232995Y283485D01*
X232663Y285153D01*
X232663Y290069D01*
X239269Y290069D01*
X239269Y277602D01*
X238781Y277699D01*
G37*
%LPD*%
%LPC*%
G36*
X540073Y57373D02*
X540073Y57373D01*
X540073Y69326D01*
X540907Y69160D01*
X542378Y68551D01*
X543701Y67667D01*
X544827Y66541D01*
X545711Y65218D01*
X546320Y63747D01*
X546631Y62186D01*
X546631Y57373D01*
X540073Y57373D01*
G37*
%LPD*%
%LPC*%
G36*
X540073Y23573D02*
X540073Y23573D01*
X540073Y35526D01*
X540907Y35360D01*
X542378Y34751D01*
X543701Y33867D01*
X544827Y32741D01*
X545711Y31418D01*
X546320Y29947D01*
X546631Y28386D01*
X546631Y23573D01*
X540073Y23573D01*
G37*
%LPD*%
%LPC*%
G36*
X453573Y23573D02*
X453573Y23573D01*
X453573Y35526D01*
X454407Y35360D01*
X455878Y34751D01*
X457201Y33867D01*
X458327Y32741D01*
X459211Y31418D01*
X459820Y29947D01*
X460131Y28386D01*
X460131Y23573D01*
X453573Y23573D01*
G37*
%LPD*%
%LPC*%
G36*
X540073Y54327D02*
X540073Y54327D01*
X546631Y54327D01*
X546631Y49514D01*
X546336Y48030D01*
X546335Y48030D01*
X546320Y47953D01*
X545711Y46482D01*
X544827Y45159D01*
X543701Y44033D01*
X542378Y43149D01*
X540907Y42540D01*
X540073Y42374D01*
X540073Y54327D01*
G37*
%LPD*%
%LPC*%
G36*
X443969Y57373D02*
X443969Y57373D01*
X443969Y62186D01*
X444066Y62672D01*
X444280Y63747D01*
X444889Y65218D01*
X445773Y66541D01*
X446899Y67667D01*
X448222Y68551D01*
X449693Y69160D01*
X450527Y69326D01*
X450527Y57373D01*
X443969Y57373D01*
G37*
%LPD*%
%LPC*%
G36*
X443969Y23573D02*
X443969Y23573D01*
X443969Y28386D01*
X444123Y29160D01*
X444123Y29161D01*
X444280Y29947D01*
X444889Y31418D01*
X445773Y32741D01*
X446899Y33867D01*
X448222Y34751D01*
X449693Y35360D01*
X450527Y35526D01*
X450527Y23573D01*
X443969Y23573D01*
G37*
%LPD*%
%LPC*%
G36*
X530469Y23573D02*
X530469Y23573D01*
X530469Y28386D01*
X530623Y29160D01*
X530623Y29161D01*
X530780Y29947D01*
X531389Y31418D01*
X532273Y32741D01*
X533399Y33867D01*
X534722Y34751D01*
X536193Y35360D01*
X537027Y35526D01*
X537027Y23573D01*
X530469Y23573D01*
G37*
%LPD*%
%LPC*%
G36*
X449693Y42540D02*
X449693Y42540D01*
X448222Y43149D01*
X446899Y44033D01*
X445773Y45159D01*
X444889Y46482D01*
X444280Y47953D01*
X443969Y49514D01*
X443969Y54327D01*
X450527Y54327D01*
X450527Y42374D01*
X449693Y42540D01*
G37*
%LPD*%
%LPC*%
G36*
X78231Y662431D02*
X78231Y662431D01*
X78231Y670815D01*
X80514Y670815D01*
X86615Y664714D01*
X86615Y662431D01*
X78231Y662431D01*
G37*
%LPD*%
%LPC*%
G36*
X78231Y560831D02*
X78231Y560831D01*
X78231Y569215D01*
X80514Y569215D01*
X86615Y563114D01*
X86615Y560831D01*
X78231Y560831D01*
G37*
%LPD*%
%LPC*%
G36*
X65785Y662431D02*
X65785Y662431D01*
X65785Y664714D01*
X71886Y670815D01*
X74169Y670815D01*
X74169Y662431D01*
X65785Y662431D01*
G37*
%LPD*%
%LPC*%
G36*
X78231Y649985D02*
X78231Y649985D01*
X78231Y658369D01*
X86615Y658369D01*
X86615Y656086D01*
X80514Y649985D01*
X78231Y649985D01*
G37*
%LPD*%
%LPC*%
G36*
X78231Y548385D02*
X78231Y548385D01*
X78231Y556769D01*
X86615Y556769D01*
X86615Y554486D01*
X80514Y548385D01*
X78231Y548385D01*
G37*
%LPD*%
%LPC*%
G36*
X65785Y560831D02*
X65785Y560831D01*
X65785Y563114D01*
X71886Y569215D01*
X74169Y569215D01*
X74169Y560831D01*
X65785Y560831D01*
G37*
%LPD*%
%LPC*%
G36*
X71886Y548385D02*
X71886Y548385D01*
X65785Y554486D01*
X65785Y556769D01*
X74169Y556769D01*
X74169Y548385D01*
X71886Y548385D01*
G37*
%LPD*%
%LPC*%
G36*
X71886Y649985D02*
X71886Y649985D01*
X65785Y656086D01*
X65785Y658369D01*
X74169Y658369D01*
X74169Y649985D01*
X71886Y649985D01*
G37*
%LPD*%
D10*
X76200Y558800D03*
D11*
X76200Y584200D03*
D10*
X76200Y660400D03*
D11*
X76200Y685800D03*
D12*
X241300Y539496D02*
X241300Y527304D01*
X241300Y437896D02*
X241300Y425704D01*
X241300Y298196D02*
X241300Y286004D01*
X241300Y387604D02*
X241300Y399796D01*
X279400Y425704D02*
X279400Y437896D01*
X279400Y527304D02*
X279400Y539496D01*
D13*
X290068Y86106D02*
X305308Y86106D01*
X305308Y40894D02*
X290068Y40894D01*
X355092Y86106D02*
X370332Y86106D01*
X370332Y40894D02*
X355092Y40894D01*
X546100Y716280D02*
X546100Y731520D01*
X571500Y731520D02*
X571500Y716280D01*
X596900Y716280D02*
X596900Y731520D01*
X622300Y731520D02*
X622300Y716280D01*
X647700Y716280D02*
X647700Y731520D01*
X673100Y731520D02*
X673100Y716280D01*
X698500Y716280D02*
X698500Y731520D01*
D14*
X110554Y330600D02*
X92647Y330600D01*
X92647Y380600D02*
X110554Y380600D01*
X689547Y292500D02*
X707454Y292500D01*
X707454Y342500D02*
X689547Y342500D01*
X689547Y406800D02*
X707454Y406800D01*
X707454Y456800D02*
X689547Y456800D01*
X689547Y521100D02*
X707454Y521100D01*
X707454Y571100D02*
X689547Y571100D01*
X689547Y165500D02*
X707454Y165500D01*
X707454Y215500D02*
X689547Y215500D01*
X689547Y51200D02*
X707454Y51200D01*
X707454Y101200D02*
X689547Y101200D01*
X456400Y689747D02*
X456400Y707654D01*
X406400Y707654D02*
X406400Y689747D01*
X356400Y689747D02*
X356400Y707654D01*
X110554Y165500D02*
X92647Y165500D01*
X92647Y215500D02*
X110554Y215500D01*
X110554Y51200D02*
X92647Y51200D01*
X92647Y101200D02*
X110554Y101200D01*
D15*
X465550Y65650D03*
X474050Y65650D03*
X482550Y65650D03*
X491050Y65650D03*
X499550Y65650D03*
X508050Y65650D03*
X516550Y65650D03*
X525050Y65650D03*
X525050Y52150D03*
X516550Y52150D03*
X508050Y52150D03*
X499550Y52150D03*
X491050Y52150D03*
X482550Y52150D03*
X474050Y52150D03*
X465550Y52150D03*
D16*
X452050Y50310D02*
X452050Y61390D01*
X538550Y61390D02*
X538550Y50310D01*
X538550Y27590D02*
X538550Y16510D01*
X452050Y16510D02*
X452050Y27590D01*
D17*
X241300Y393700D02*
X241300Y431800D01*
D18*
X342900Y355600D03*
D17*
X279400Y419100D01*
X279400Y431800D01*
X431800Y723900D02*
X546100Y723900D01*
X431800Y723900D02*
X406400Y698500D01*
X406400Y698700D01*
D18*
X304800Y241300D03*
D17*
X254000Y292100D02*
X241300Y292100D01*
X254000Y292100D02*
X304800Y241300D01*
D18*
X381000Y266700D03*
D17*
X381000Y444500D01*
D18*
X381000Y444500D03*
D17*
X362712Y40894D02*
X381556Y22050D01*
X452050Y22050D02*
X452050Y55850D01*
X452050Y22050D02*
X457200Y22050D01*
X538550Y22050D01*
X538550Y55850D01*
X525050Y52150D02*
X525050Y65650D01*
X525050Y52150D02*
X534850Y52150D01*
X538550Y55850D01*
X465550Y52150D02*
X455750Y52150D01*
X452050Y55850D01*
X465550Y52150D02*
X465550Y65650D01*
X452050Y22050D02*
X381556Y22050D01*
D18*
X190500Y609600D03*
D17*
X269748Y530352D01*
X269748Y522798D01*
X330200Y462346D02*
X330200Y444500D01*
X330200Y462346D02*
X269748Y522798D01*
D18*
X330200Y444500D03*
X444500Y190500D03*
D17*
X381000Y127000D01*
X368300Y127000D01*
D18*
X368300Y127000D03*
D17*
X546300Y698700D02*
X571500Y723900D01*
X546300Y698700D02*
X456400Y698700D01*
X571500Y723900D02*
X594616Y747016D01*
X700784Y747016D02*
X723900Y723900D01*
X700784Y747016D02*
X594616Y747016D01*
D18*
X647700Y546100D03*
D17*
X647700Y571500D01*
X723900Y647700D02*
X723900Y723900D01*
X723900Y647700D02*
X647700Y571500D01*
X444500Y190500D02*
X482600Y152400D01*
X508000Y152400D02*
X520700Y139700D01*
X520700Y114300D01*
X508000Y152400D02*
X482600Y152400D01*
D18*
X520700Y114300D03*
D17*
X673100Y495700D02*
X698500Y521100D01*
X673100Y419100D02*
X685800Y406400D01*
X698100Y406400D01*
X673100Y419100D02*
X673100Y495700D01*
X685400Y292500D02*
X698500Y292500D01*
X685400Y292500D02*
X673100Y304800D01*
X673100Y393700D01*
X685800Y406400D01*
X698100Y406400D02*
X698500Y406800D01*
X698500Y571100D02*
X711600Y571100D01*
X723900Y558800D01*
X723900Y469900D01*
X710800Y456800D02*
X698500Y456800D01*
X710800Y456800D02*
X723900Y469900D01*
X723900Y355600D01*
X710800Y342500D02*
X698500Y342500D01*
X710800Y342500D02*
X723900Y355600D01*
X698500Y51200D02*
X698100Y51200D01*
X673100Y76200D01*
X673100Y140100D01*
X698500Y165500D01*
D18*
X609600Y393700D03*
D17*
X660400Y342900D01*
X660400Y177800D01*
X673100Y165100D01*
X698500Y165100D01*
X698500Y165500D01*
X736600Y139300D02*
X698500Y101200D01*
X736600Y177400D02*
X698500Y215500D01*
X736600Y177400D02*
X736600Y139300D01*
D18*
X635000Y419100D03*
D17*
X664972Y249028D02*
X698500Y215500D01*
X664972Y249028D02*
X664972Y344794D01*
X635000Y374766D02*
X635000Y419100D01*
X635000Y374766D02*
X664972Y344794D01*
X499550Y65650D02*
X497348Y63448D01*
X497348Y63041D01*
X491050Y56743D02*
X491050Y52150D01*
X491050Y56743D02*
X497348Y63041D01*
X474050Y65650D02*
X474050Y52150D01*
X516550Y52150D02*
X516550Y65650D01*
X514348Y49541D02*
X510659Y45852D01*
X479941Y45852D02*
X476252Y49541D01*
X514348Y49948D02*
X516550Y52150D01*
X514348Y49948D02*
X514348Y49541D01*
X476252Y49541D02*
X476252Y49948D01*
X474050Y52150D01*
X479941Y45852D02*
X510659Y45852D01*
X495300Y622300D02*
X596900Y723900D01*
X495300Y622300D02*
X495300Y609600D01*
D18*
X495300Y609600D03*
D17*
X508000Y609600D02*
X622300Y723900D01*
D18*
X508000Y609600D03*
D17*
X508000Y584200D02*
X647700Y723900D01*
X508000Y317500D02*
X546100Y279400D01*
X508000Y317500D02*
X508000Y584200D01*
D18*
X546100Y279400D03*
D17*
X520700Y571500D02*
X673100Y723900D01*
X520700Y330200D02*
X546100Y304800D01*
X520700Y330200D02*
X520700Y571500D01*
D18*
X546100Y304800D03*
D17*
X533400Y558800D02*
X698500Y723900D01*
X533400Y355600D02*
X546100Y342900D01*
X533400Y355600D02*
X533400Y558800D01*
D18*
X546100Y342900D03*
X368300Y304800D03*
D17*
X375130Y276571D02*
X371129Y272570D01*
X375130Y276571D02*
X375130Y294929D01*
X371129Y272570D02*
X368167Y272570D01*
X368300Y301759D02*
X368300Y304800D01*
X368300Y301759D02*
X375130Y294929D01*
X286097Y190500D02*
X203200Y190500D01*
X286097Y190500D02*
X368167Y272570D01*
D18*
X203200Y190500D03*
X355600Y241300D03*
D17*
X355600Y203200D01*
X330200Y177800D01*
X203200Y177800D01*
D18*
X203200Y177800D03*
X368300Y279400D03*
D17*
X326644Y237744D01*
X326644Y237512D01*
X292332Y203200D01*
X203200Y203200D01*
D18*
X203200Y203200D03*
X368300Y330200D03*
D17*
X317500Y279400D01*
X317500Y241300D01*
X304800Y228600D02*
X203200Y228600D01*
X304800Y228600D02*
X317500Y241300D01*
D18*
X203200Y228600D03*
X368300Y317500D03*
D17*
X322072Y271272D01*
X322072Y239406D01*
X298566Y215900D01*
X203200Y215900D01*
D18*
X203200Y215900D03*
M02*
