M48
;GenerationSoftware,Autodesk,EAGLE,9.6.2*%
;CreationDate,2022-04-24T19:20:16Z*%
FMAT,2
ICI,OFF
METRIC,TZ,000.000
T7C0.350
T6C0.400
T5C0.600
T4C0.813
T3C1.016
T2C1.194
T1C3.000
%
G90
M71
T1
X2540Y73660
X76200Y2540
X2540Y2540
X76200Y73660
T2
X35640Y69870
X10160Y10120
X10160Y5120
X10160Y21550
X10160Y16550
X69850Y21550
X40640Y69870
X45640Y69870
X69850Y10120
X69850Y5120
X69850Y40680
X69850Y16550
X69850Y57110
X69850Y52110
X69850Y45680
X69850Y29250
X10160Y38060
X10160Y33060
X69850Y34250
T3
X36271Y4089
X62230Y72390
X59690Y72390
X57150Y72390
X67310Y72390
X69850Y72390
X54610Y72390
X36271Y8611
X64770Y72390
X29769Y8611
X29769Y4089
T4
X7620Y68580
X7620Y55880
X7620Y58420
X24130Y53340
X24130Y43180
X24130Y29210
X7620Y66040
X27940Y43180
X27940Y53340
X24130Y39370
T5
X53855Y2205
X45205Y2205
X45205Y5585
X53855Y5585
T6
X49105Y6565
X47405Y5215
X46555Y6565
X47405Y6565
X48255Y6565
X49955Y6565
X50805Y6565
X51655Y6565
X52505Y6565
X51655Y5215
X50805Y5215
X49955Y5215
X49105Y5215
X48255Y5215
X46555Y5215
X52505Y5215
T7
X64770Y54610
X44450Y19050
X33020Y44450
X19050Y60960
X38100Y44450
X35560Y24130
X30480Y24130
X34290Y35560
X36830Y33020
X20320Y20320
X38100Y26670
X36830Y27940
X20320Y17780
X20320Y19050
X36830Y30480
X63500Y41910
X54610Y34290
X54610Y30480
X54610Y27940
X50800Y60960
X49530Y60960
X36830Y12700
X60960Y39370
X20320Y21590
X36830Y31750
X20320Y22860
X52070Y11430
M30