G04 EAGLE Gerber RS-274X export*
G75*
%MOMM*%
%FSLAX34Y34*%
%LPD*%
%IN*%
%IPPOS*%
%AMOC8*
5,1,8,0,0,1.08239X$1,22.5*%
G01*
%ADD10C,0.254000*%


D10*
X0Y0D02*
X787200Y0D01*
X787200Y758700D01*
X0Y758700D01*
X0Y0D01*
X449050Y18050D02*
X449061Y17789D01*
X449096Y17529D01*
X449152Y17274D01*
X449231Y17024D01*
X449331Y16782D01*
X449452Y16550D01*
X449593Y16329D01*
X449752Y16122D01*
X449929Y15929D01*
X450122Y15752D01*
X450329Y15593D01*
X450550Y15452D01*
X450782Y15331D01*
X451024Y15231D01*
X451274Y15152D01*
X451529Y15096D01*
X451789Y15061D01*
X452050Y15050D01*
X452311Y15061D01*
X452571Y15096D01*
X452826Y15152D01*
X453076Y15231D01*
X453318Y15331D01*
X453550Y15452D01*
X453771Y15593D01*
X453978Y15752D01*
X454171Y15929D01*
X454348Y16122D01*
X454507Y16329D01*
X454648Y16550D01*
X454769Y16782D01*
X454869Y17024D01*
X454948Y17274D01*
X455004Y17529D01*
X455039Y17789D01*
X455050Y18050D01*
X455050Y26050D01*
X455039Y26311D01*
X455004Y26571D01*
X454948Y26826D01*
X454869Y27076D01*
X454769Y27318D01*
X454648Y27550D01*
X454507Y27771D01*
X454348Y27978D01*
X454171Y28171D01*
X453978Y28348D01*
X453771Y28507D01*
X453550Y28648D01*
X453318Y28769D01*
X453076Y28869D01*
X452826Y28948D01*
X452571Y29004D01*
X452311Y29039D01*
X452050Y29050D01*
X451789Y29039D01*
X451529Y29004D01*
X451274Y28948D01*
X451024Y28869D01*
X450782Y28769D01*
X450550Y28648D01*
X450329Y28507D01*
X450122Y28348D01*
X449929Y28171D01*
X449752Y27978D01*
X449593Y27771D01*
X449452Y27550D01*
X449331Y27318D01*
X449231Y27076D01*
X449152Y26826D01*
X449096Y26571D01*
X449061Y26311D01*
X449050Y26050D01*
X449050Y18050D01*
X535550Y18050D02*
X535561Y17789D01*
X535596Y17529D01*
X535652Y17274D01*
X535731Y17024D01*
X535831Y16782D01*
X535952Y16550D01*
X536093Y16329D01*
X536252Y16122D01*
X536429Y15929D01*
X536622Y15752D01*
X536829Y15593D01*
X537050Y15452D01*
X537282Y15331D01*
X537524Y15231D01*
X537774Y15152D01*
X538029Y15096D01*
X538289Y15061D01*
X538550Y15050D01*
X538811Y15061D01*
X539071Y15096D01*
X539326Y15152D01*
X539576Y15231D01*
X539818Y15331D01*
X540050Y15452D01*
X540271Y15593D01*
X540478Y15752D01*
X540671Y15929D01*
X540848Y16122D01*
X541007Y16329D01*
X541148Y16550D01*
X541269Y16782D01*
X541369Y17024D01*
X541448Y17274D01*
X541504Y17529D01*
X541539Y17789D01*
X541550Y18050D01*
X541550Y26050D01*
X541539Y26311D01*
X541504Y26571D01*
X541448Y26826D01*
X541369Y27076D01*
X541269Y27318D01*
X541148Y27550D01*
X541007Y27771D01*
X540848Y27978D01*
X540671Y28171D01*
X540478Y28348D01*
X540271Y28507D01*
X540050Y28648D01*
X539818Y28769D01*
X539576Y28869D01*
X539326Y28948D01*
X539071Y29004D01*
X538811Y29039D01*
X538550Y29050D01*
X538289Y29039D01*
X538029Y29004D01*
X537774Y28948D01*
X537524Y28869D01*
X537282Y28769D01*
X537050Y28648D01*
X536829Y28507D01*
X536622Y28348D01*
X536429Y28171D01*
X536252Y27978D01*
X536093Y27771D01*
X535952Y27550D01*
X535831Y27318D01*
X535731Y27076D01*
X535652Y26826D01*
X535596Y26571D01*
X535561Y26311D01*
X535550Y26050D01*
X535550Y18050D01*
X449050Y48350D02*
X449061Y48089D01*
X449096Y47829D01*
X449152Y47574D01*
X449231Y47324D01*
X449331Y47082D01*
X449452Y46850D01*
X449593Y46629D01*
X449752Y46422D01*
X449929Y46229D01*
X450122Y46052D01*
X450329Y45893D01*
X450550Y45752D01*
X450782Y45631D01*
X451024Y45531D01*
X451274Y45452D01*
X451529Y45396D01*
X451789Y45361D01*
X452050Y45350D01*
X452311Y45361D01*
X452571Y45396D01*
X452826Y45452D01*
X453076Y45531D01*
X453318Y45631D01*
X453550Y45752D01*
X453771Y45893D01*
X453978Y46052D01*
X454171Y46229D01*
X454348Y46422D01*
X454507Y46629D01*
X454648Y46850D01*
X454769Y47082D01*
X454869Y47324D01*
X454948Y47574D01*
X455004Y47829D01*
X455039Y48089D01*
X455050Y48350D01*
X455050Y63350D01*
X455039Y63611D01*
X455004Y63871D01*
X454948Y64126D01*
X454869Y64376D01*
X454769Y64618D01*
X454648Y64850D01*
X454507Y65071D01*
X454348Y65278D01*
X454171Y65471D01*
X453978Y65648D01*
X453771Y65807D01*
X453550Y65948D01*
X453318Y66069D01*
X453076Y66169D01*
X452826Y66248D01*
X452571Y66304D01*
X452311Y66339D01*
X452050Y66350D01*
X451789Y66339D01*
X451529Y66304D01*
X451274Y66248D01*
X451024Y66169D01*
X450782Y66069D01*
X450550Y65948D01*
X450329Y65807D01*
X450122Y65648D01*
X449929Y65471D01*
X449752Y65278D01*
X449593Y65071D01*
X449452Y64850D01*
X449331Y64618D01*
X449231Y64376D01*
X449152Y64126D01*
X449096Y63871D01*
X449061Y63611D01*
X449050Y63350D01*
X449050Y48350D01*
X535550Y48350D02*
X535561Y48089D01*
X535596Y47829D01*
X535652Y47574D01*
X535731Y47324D01*
X535831Y47082D01*
X535952Y46850D01*
X536093Y46629D01*
X536252Y46422D01*
X536429Y46229D01*
X536622Y46052D01*
X536829Y45893D01*
X537050Y45752D01*
X537282Y45631D01*
X537524Y45531D01*
X537774Y45452D01*
X538029Y45396D01*
X538289Y45361D01*
X538550Y45350D01*
X538811Y45361D01*
X539071Y45396D01*
X539326Y45452D01*
X539576Y45531D01*
X539818Y45631D01*
X540050Y45752D01*
X540271Y45893D01*
X540478Y46052D01*
X540671Y46229D01*
X540848Y46422D01*
X541007Y46629D01*
X541148Y46850D01*
X541269Y47082D01*
X541369Y47324D01*
X541448Y47574D01*
X541504Y47829D01*
X541539Y48089D01*
X541550Y48350D01*
X541550Y63350D01*
X541539Y63611D01*
X541504Y63871D01*
X541448Y64126D01*
X541369Y64376D01*
X541269Y64618D01*
X541148Y64850D01*
X541007Y65071D01*
X540848Y65278D01*
X540671Y65471D01*
X540478Y65648D01*
X540271Y65807D01*
X540050Y65948D01*
X539818Y66069D01*
X539576Y66169D01*
X539326Y66248D01*
X539071Y66304D01*
X538811Y66339D01*
X538550Y66350D01*
X538289Y66339D01*
X538029Y66304D01*
X537774Y66248D01*
X537524Y66169D01*
X537282Y66069D01*
X537050Y65948D01*
X536829Y65807D01*
X536622Y65648D01*
X536429Y65471D01*
X536252Y65278D01*
X536093Y65071D01*
X535952Y64850D01*
X535831Y64618D01*
X535731Y64376D01*
X535652Y64126D01*
X535596Y63871D01*
X535561Y63611D01*
X535550Y63350D01*
X535550Y48350D01*
X40400Y24864D02*
X40324Y23796D01*
X40171Y22735D01*
X39943Y21688D01*
X39641Y20660D01*
X39267Y19656D01*
X38822Y18681D01*
X38308Y17741D01*
X37729Y16840D01*
X37087Y15982D01*
X36385Y15172D01*
X35628Y14415D01*
X34818Y13713D01*
X33960Y13071D01*
X33059Y12492D01*
X32119Y11978D01*
X31144Y11533D01*
X30140Y11159D01*
X29112Y10857D01*
X28065Y10629D01*
X27004Y10476D01*
X25936Y10400D01*
X24864Y10400D01*
X23796Y10476D01*
X22735Y10629D01*
X21688Y10857D01*
X20660Y11159D01*
X19656Y11533D01*
X18681Y11978D01*
X17741Y12492D01*
X16840Y13071D01*
X15982Y13713D01*
X15172Y14415D01*
X14415Y15172D01*
X13713Y15982D01*
X13071Y16840D01*
X12492Y17741D01*
X11978Y18681D01*
X11533Y19656D01*
X11159Y20660D01*
X10857Y21688D01*
X10629Y22735D01*
X10476Y23796D01*
X10400Y24864D01*
X10400Y25936D01*
X10476Y27004D01*
X10629Y28065D01*
X10857Y29112D01*
X11159Y30140D01*
X11533Y31144D01*
X11978Y32119D01*
X12492Y33059D01*
X13071Y33960D01*
X13713Y34818D01*
X14415Y35628D01*
X15172Y36385D01*
X15982Y37087D01*
X16840Y37729D01*
X17741Y38308D01*
X18681Y38822D01*
X19656Y39267D01*
X20660Y39641D01*
X21688Y39943D01*
X22735Y40171D01*
X23796Y40324D01*
X24864Y40400D01*
X25936Y40400D01*
X27004Y40324D01*
X28065Y40171D01*
X29112Y39943D01*
X30140Y39641D01*
X31144Y39267D01*
X32119Y38822D01*
X33059Y38308D01*
X33960Y37729D01*
X34818Y37087D01*
X35628Y36385D01*
X36385Y35628D01*
X37087Y34818D01*
X37729Y33960D01*
X38308Y33059D01*
X38822Y32119D01*
X39267Y31144D01*
X39641Y30140D01*
X39943Y29112D01*
X40171Y28065D01*
X40324Y27004D01*
X40400Y25936D01*
X40400Y24864D01*
X40400Y736064D02*
X40324Y734996D01*
X40171Y733935D01*
X39943Y732888D01*
X39641Y731860D01*
X39267Y730856D01*
X38822Y729881D01*
X38308Y728941D01*
X37729Y728040D01*
X37087Y727182D01*
X36385Y726372D01*
X35628Y725615D01*
X34818Y724913D01*
X33960Y724271D01*
X33059Y723692D01*
X32119Y723178D01*
X31144Y722733D01*
X30140Y722359D01*
X29112Y722057D01*
X28065Y721829D01*
X27004Y721676D01*
X25936Y721600D01*
X24864Y721600D01*
X23796Y721676D01*
X22735Y721829D01*
X21688Y722057D01*
X20660Y722359D01*
X19656Y722733D01*
X18681Y723178D01*
X17741Y723692D01*
X16840Y724271D01*
X15982Y724913D01*
X15172Y725615D01*
X14415Y726372D01*
X13713Y727182D01*
X13071Y728040D01*
X12492Y728941D01*
X11978Y729881D01*
X11533Y730856D01*
X11159Y731860D01*
X10857Y732888D01*
X10629Y733935D01*
X10476Y734996D01*
X10400Y736064D01*
X10400Y737136D01*
X10476Y738204D01*
X10629Y739265D01*
X10857Y740312D01*
X11159Y741340D01*
X11533Y742344D01*
X11978Y743319D01*
X12492Y744259D01*
X13071Y745160D01*
X13713Y746018D01*
X14415Y746828D01*
X15172Y747585D01*
X15982Y748287D01*
X16840Y748929D01*
X17741Y749508D01*
X18681Y750022D01*
X19656Y750467D01*
X20660Y750841D01*
X21688Y751143D01*
X22735Y751371D01*
X23796Y751524D01*
X24864Y751600D01*
X25936Y751600D01*
X27004Y751524D01*
X28065Y751371D01*
X29112Y751143D01*
X30140Y750841D01*
X31144Y750467D01*
X32119Y750022D01*
X33059Y749508D01*
X33960Y748929D01*
X34818Y748287D01*
X35628Y747585D01*
X36385Y746828D01*
X37087Y746018D01*
X37729Y745160D01*
X38308Y744259D01*
X38822Y743319D01*
X39267Y742344D01*
X39641Y741340D01*
X39943Y740312D01*
X40171Y739265D01*
X40324Y738204D01*
X40400Y737136D01*
X40400Y736064D01*
X777000Y24864D02*
X776924Y23796D01*
X776771Y22735D01*
X776543Y21688D01*
X776241Y20660D01*
X775867Y19656D01*
X775422Y18681D01*
X774908Y17741D01*
X774329Y16840D01*
X773687Y15982D01*
X772985Y15172D01*
X772228Y14415D01*
X771418Y13713D01*
X770560Y13071D01*
X769659Y12492D01*
X768719Y11978D01*
X767744Y11533D01*
X766740Y11159D01*
X765712Y10857D01*
X764665Y10629D01*
X763604Y10476D01*
X762536Y10400D01*
X761464Y10400D01*
X760396Y10476D01*
X759335Y10629D01*
X758288Y10857D01*
X757260Y11159D01*
X756256Y11533D01*
X755281Y11978D01*
X754341Y12492D01*
X753440Y13071D01*
X752582Y13713D01*
X751772Y14415D01*
X751015Y15172D01*
X750313Y15982D01*
X749671Y16840D01*
X749092Y17741D01*
X748578Y18681D01*
X748133Y19656D01*
X747759Y20660D01*
X747457Y21688D01*
X747229Y22735D01*
X747076Y23796D01*
X747000Y24864D01*
X747000Y25936D01*
X747076Y27004D01*
X747229Y28065D01*
X747457Y29112D01*
X747759Y30140D01*
X748133Y31144D01*
X748578Y32119D01*
X749092Y33059D01*
X749671Y33960D01*
X750313Y34818D01*
X751015Y35628D01*
X751772Y36385D01*
X752582Y37087D01*
X753440Y37729D01*
X754341Y38308D01*
X755281Y38822D01*
X756256Y39267D01*
X757260Y39641D01*
X758288Y39943D01*
X759335Y40171D01*
X760396Y40324D01*
X761464Y40400D01*
X762536Y40400D01*
X763604Y40324D01*
X764665Y40171D01*
X765712Y39943D01*
X766740Y39641D01*
X767744Y39267D01*
X768719Y38822D01*
X769659Y38308D01*
X770560Y37729D01*
X771418Y37087D01*
X772228Y36385D01*
X772985Y35628D01*
X773687Y34818D01*
X774329Y33960D01*
X774908Y33059D01*
X775422Y32119D01*
X775867Y31144D01*
X776241Y30140D01*
X776543Y29112D01*
X776771Y28065D01*
X776924Y27004D01*
X777000Y25936D01*
X777000Y24864D01*
X777000Y736064D02*
X776924Y734996D01*
X776771Y733935D01*
X776543Y732888D01*
X776241Y731860D01*
X775867Y730856D01*
X775422Y729881D01*
X774908Y728941D01*
X774329Y728040D01*
X773687Y727182D01*
X772985Y726372D01*
X772228Y725615D01*
X771418Y724913D01*
X770560Y724271D01*
X769659Y723692D01*
X768719Y723178D01*
X767744Y722733D01*
X766740Y722359D01*
X765712Y722057D01*
X764665Y721829D01*
X763604Y721676D01*
X762536Y721600D01*
X761464Y721600D01*
X760396Y721676D01*
X759335Y721829D01*
X758288Y722057D01*
X757260Y722359D01*
X756256Y722733D01*
X755281Y723178D01*
X754341Y723692D01*
X753440Y724271D01*
X752582Y724913D01*
X751772Y725615D01*
X751015Y726372D01*
X750313Y727182D01*
X749671Y728040D01*
X749092Y728941D01*
X748578Y729881D01*
X748133Y730856D01*
X747759Y731860D01*
X747457Y732888D01*
X747229Y733935D01*
X747076Y734996D01*
X747000Y736064D01*
X747000Y737136D01*
X747076Y738204D01*
X747229Y739265D01*
X747457Y740312D01*
X747759Y741340D01*
X748133Y742344D01*
X748578Y743319D01*
X749092Y744259D01*
X749671Y745160D01*
X750313Y746018D01*
X751015Y746828D01*
X751772Y747585D01*
X752582Y748287D01*
X753440Y748929D01*
X754341Y749508D01*
X755281Y750022D01*
X756256Y750467D01*
X757260Y750841D01*
X758288Y751143D01*
X759335Y751371D01*
X760396Y751524D01*
X761464Y751600D01*
X762536Y751600D01*
X763604Y751524D01*
X764665Y751371D01*
X765712Y751143D01*
X766740Y750841D01*
X767744Y750467D01*
X768719Y750022D01*
X769659Y749508D01*
X770560Y748929D01*
X771418Y748287D01*
X772228Y747585D01*
X772985Y746828D01*
X773687Y746018D01*
X774329Y745160D01*
X774908Y744259D01*
X775422Y743319D01*
X775867Y742344D01*
X776241Y741340D01*
X776543Y740312D01*
X776771Y739265D01*
X776924Y738204D01*
X777000Y737136D01*
X777000Y736064D01*
M02*
